G04*
G04 #@! TF.GenerationSoftware,Altium Limited,Altium Designer,19.0.14 (431)*
G04*
G04 Layer_Color=32896*
%FSLAX25Y25*%
%MOIN*%
G70*
G01*
G75*
%ADD11C,0.01000*%
%ADD12C,0.00787*%
%ADD14C,0.00394*%
D11*
X366530Y160550D02*
Y158551D01*
Y159550D01*
X361531D01*
X360531Y158551D01*
Y157551D01*
X361531Y156551D01*
X360531Y162549D02*
Y164549D01*
Y163549D01*
X366530D01*
X365530Y162549D01*
X360531Y167548D02*
Y169547D01*
Y168547D01*
X366530D01*
X365530Y167548D01*
D12*
X291142Y143453D02*
X292913D01*
X291142D02*
Y186760D01*
X292913D01*
X295079Y143453D02*
Y186760D01*
X299213D01*
X295079Y143453D02*
X299213D01*
X302362Y180461D02*
Y187153D01*
Y142272D02*
Y144634D01*
X327165Y138728D02*
X357874D01*
X327165Y193059D02*
X357874D01*
Y187941D02*
Y193059D01*
Y178886D02*
Y180461D01*
Y159595D02*
Y165500D01*
Y138728D02*
Y146209D01*
X296654Y162744D02*
X299016Y165106D01*
X296654Y167469D02*
X299016Y165106D01*
X291142D02*
X299016D01*
D14*
X283255Y167272D02*
X284830D01*
X283255Y162154D02*
X284830D01*
X285355Y170800D02*
X285815Y171259D01*
X286733D01*
X287192Y170800D01*
Y168963D01*
X286733Y168504D01*
X285815D01*
X285355Y168963D01*
X284437Y168504D02*
X283519D01*
X283978D01*
Y171259D01*
X284437Y170800D01*
X280305Y171259D02*
X281223Y170800D01*
X282141Y169881D01*
Y168963D01*
X281682Y168504D01*
X280764D01*
X280305Y168963D01*
Y169422D01*
X280764Y169881D01*
X282141D01*
M02*
