G04*
G04 #@! TF.GenerationSoftware,Altium Limited,Altium Designer,19.0.14 (431)*
G04*
G04 Layer_Color=128*
%FSLAX44Y44*%
%MOMM*%
G71*
G01*
G75*
%ADD94C,0.0508*%
D94*
X109718Y210432D02*
X117718D01*
X113717Y206432D02*
Y214432D01*
X129718Y210432D02*
X137718D01*
X133717Y206432D02*
Y214432D01*
X700500Y26000D02*
X710500D01*
X705500Y21000D02*
Y31000D01*
X670500Y76000D02*
X680500D01*
X675500Y71000D02*
Y81000D01*
X670500Y26000D02*
X680500D01*
X675500Y21000D02*
Y31000D01*
X700500Y76000D02*
X710500D01*
X705500Y71000D02*
Y81000D01*
X728000Y76000D02*
X738000D01*
X733000Y71000D02*
Y81000D01*
X758000Y26000D02*
X768000D01*
X763000Y21000D02*
Y31000D01*
X758000Y76000D02*
X768000D01*
X763000Y71000D02*
Y81000D01*
X728000Y26000D02*
X738000D01*
X733000Y21000D02*
Y31000D01*
X290720Y98000D02*
X300880D01*
X295800Y92920D02*
Y103080D01*
X265320Y98000D02*
X275480D01*
X270400Y92920D02*
Y103080D01*
X239920Y98000D02*
X250080D01*
X245000Y92920D02*
Y103080D01*
X214520Y98000D02*
X224680D01*
X219600Y92920D02*
Y103080D01*
X1315031Y92682D02*
X1338031D01*
X1326532Y81182D02*
Y104182D01*
X1183632Y92682D02*
X1206631D01*
X1195132Y81182D02*
Y104182D01*
X1291331Y70682D02*
X1300332D01*
X1295831Y66182D02*
Y75182D01*
X1266331Y70682D02*
X1275331D01*
X1270832Y66182D02*
Y75182D01*
X1246331Y70682D02*
X1255331D01*
X1250832Y66182D02*
Y75182D01*
X1221331Y70682D02*
X1230331D01*
X1225832Y66182D02*
Y75182D01*
X26581Y265933D02*
X34581D01*
X30582Y261933D02*
Y269932D01*
X26581Y245933D02*
X34581D01*
X30582Y241933D02*
Y249932D01*
X26581Y199432D02*
X34581D01*
X30582Y195432D02*
Y203432D01*
X26581Y179432D02*
X34581D01*
X30582Y175432D02*
Y183432D01*
X134831Y48183D02*
X144831D01*
X139831Y43183D02*
Y53182D01*
X84831Y78182D02*
X94831D01*
X89831Y73183D02*
Y83182D01*
X134831Y78182D02*
X144831D01*
X139831Y73183D02*
Y83182D01*
X84831Y48183D02*
X94831D01*
X89831Y43183D02*
Y53182D01*
X26581Y141432D02*
X34581D01*
X30582Y137432D02*
Y145432D01*
X26581Y121432D02*
X34581D01*
X30582Y117432D02*
Y125432D01*
X950331Y19932D02*
X963332D01*
X956832Y13432D02*
Y26432D01*
X1107331Y19932D02*
X1120331D01*
X1113831Y13432D02*
Y26432D01*
X956331Y68932D02*
X969332D01*
X962831Y62432D02*
Y75432D01*
X1101331Y68932D02*
X1114332D01*
X1107831Y62432D02*
Y75432D01*
X575818Y164000D02*
X585979D01*
X580899Y158920D02*
Y169080D01*
X626618Y164000D02*
X636778D01*
X631698Y158920D02*
Y169080D01*
X601218Y164000D02*
X611379D01*
X606298Y158920D02*
Y169080D01*
X575818Y191000D02*
X585979D01*
X580899Y185920D02*
Y196080D01*
X626618Y191000D02*
X636778D01*
X631698Y185920D02*
Y196080D01*
X601218Y191000D02*
X611379D01*
X606298Y185920D02*
Y196080D01*
X632332Y285432D02*
X648332D01*
X640331Y277432D02*
Y293432D01*
X1302832Y285432D02*
X1313831D01*
X1308331Y279932D02*
Y290932D01*
X750188Y418370D02*
X753188D01*
X751688Y416870D02*
Y419870D01*
X717870Y451370D02*
X720870D01*
X719370Y449870D02*
Y452870D01*
X724772Y440370D02*
X727772D01*
X726272Y438870D02*
Y441870D01*
X687870Y429370D02*
X690870D01*
X689370Y427870D02*
Y430870D01*
X682107Y407370D02*
X685107D01*
X683607Y405870D02*
Y408870D01*
X700712Y385370D02*
X703711D01*
X702212Y383870D02*
Y386870D01*
X706500Y374000D02*
X709500D01*
X708000Y372500D02*
Y375500D01*
X407718Y320000D02*
X410718D01*
X409217Y318500D02*
Y321500D01*
X407718Y247000D02*
X410718D01*
X409217Y245500D02*
Y248500D01*
X592500Y253000D02*
X595500D01*
X594000Y251500D02*
Y254500D01*
X592500Y320000D02*
X595500D01*
X594000Y318500D02*
Y321500D01*
X1149831Y46782D02*
X1152831D01*
X1151331Y45282D02*
Y48282D01*
X1141500Y54000D02*
X1144500D01*
X1143000Y52500D02*
Y55500D01*
X912500Y54000D02*
X915500D01*
X914000Y52500D02*
Y55500D01*
X918500Y46782D02*
X921500D01*
X920000Y45282D02*
Y48282D01*
X1088332Y229432D02*
X1091331D01*
X1089831Y227932D02*
Y230932D01*
X895250Y62500D02*
X898250D01*
X896750Y61000D02*
Y64000D01*
X827750Y77500D02*
X830750D01*
X829250Y76000D02*
Y79000D01*
X895250Y92500D02*
X898250D01*
X896750Y91000D02*
Y94000D01*
X827750Y107500D02*
X830750D01*
X829250Y106000D02*
Y109000D01*
X895250Y122500D02*
X898250D01*
X896750Y121000D02*
Y124000D01*
X895250Y152500D02*
X898250D01*
X896750Y151000D02*
Y154000D01*
X827750Y137500D02*
X830750D01*
X829250Y136000D02*
Y139000D01*
X1298331Y405432D02*
X1301331D01*
X1299832Y403932D02*
Y406932D01*
X647331Y405432D02*
X650331D01*
X648831Y403932D02*
Y406932D01*
X604799Y311713D02*
X607799D01*
X606298Y310213D02*
Y313213D01*
X988185Y61101D02*
X991185D01*
X989685Y59601D02*
Y62600D01*
X1272016Y285432D02*
X1275016D01*
X1273516Y283932D02*
Y286932D01*
X1218500Y296306D02*
X1221500D01*
X1220000Y294806D02*
Y297806D01*
X971581Y306797D02*
X974582D01*
X973082Y305297D02*
Y308297D01*
X971581Y217161D02*
X974582D01*
X973082Y215661D02*
Y218661D01*
X773500Y211256D02*
X776500D01*
X775000Y209756D02*
Y212756D01*
X807000Y211256D02*
X810000D01*
X808500Y209756D02*
Y212756D01*
X956178Y169432D02*
X959178D01*
X957678Y167932D02*
Y170932D01*
X953581Y286750D02*
X956581D01*
X955081Y285250D02*
Y288250D01*
X625669Y127682D02*
X628669D01*
X627169Y126182D02*
Y129182D01*
X625669Y90000D02*
X628669D01*
X627169Y88500D02*
Y91500D01*
X564500Y89000D02*
X567500D01*
X566000Y87500D02*
Y90500D01*
X509700Y282050D02*
X512700D01*
X511200Y280550D02*
Y283550D01*
X384600Y89900D02*
X387600D01*
X386100Y88400D02*
Y91400D01*
X761500Y132000D02*
X764500D01*
X763000Y130500D02*
Y133500D01*
X1342082Y361000D02*
X1345082D01*
X1343582Y359500D02*
Y362500D01*
X1308500Y216432D02*
X1311500D01*
X1310000Y214932D02*
Y217932D01*
X1237500Y216432D02*
X1240500D01*
X1239000Y214932D02*
Y217932D01*
X1275832Y341432D02*
X1278831D01*
X1277331Y339932D02*
Y342932D01*
X1251832Y341432D02*
X1254831D01*
X1253332Y339932D02*
Y342932D01*
X1233831Y341432D02*
X1236832D01*
X1235331Y339932D02*
Y342932D01*
X1197831Y311432D02*
X1200832D01*
X1199332Y309932D02*
Y312932D01*
X1191832Y341432D02*
X1194831D01*
X1193332Y339932D02*
Y342932D01*
X1179831Y341432D02*
X1182831D01*
X1181331Y339932D02*
Y342932D01*
X1143831Y341432D02*
X1146832D01*
X1145331Y339932D02*
Y342932D01*
X1125832Y341432D02*
X1128831D01*
X1127331Y339932D02*
Y342932D01*
X1107831Y341432D02*
X1110832D01*
X1109332Y339932D02*
Y342932D01*
X1089831Y341432D02*
X1092831D01*
X1091331Y339932D02*
Y342932D01*
X1053831Y341432D02*
X1056832D01*
X1055331Y339932D02*
Y342932D01*
X1035832Y341432D02*
X1038831D01*
X1037331Y339932D02*
Y342932D01*
X1017831Y341432D02*
X1020832D01*
X1019332Y339932D02*
Y342932D01*
X999831Y341432D02*
X1002831D01*
X1001331Y339932D02*
Y342932D01*
X981832Y341432D02*
X984831D01*
X983332Y339932D02*
Y342932D01*
X963831Y341432D02*
X966832D01*
X965331Y339932D02*
Y342932D01*
X945832Y341432D02*
X948831D01*
X947331Y339932D02*
Y342932D01*
X927831Y341432D02*
X930832D01*
X929332Y339932D02*
Y342932D01*
X909831Y341432D02*
X912831D01*
X911331Y339932D02*
Y342932D01*
X891832Y341432D02*
X894831D01*
X893332Y339932D02*
Y342932D01*
X873831Y341432D02*
X876832D01*
X875331Y339932D02*
Y342932D01*
X855832Y341432D02*
X858831D01*
X857331Y339932D02*
Y342932D01*
X837831Y341432D02*
X840832D01*
X839332Y339932D02*
Y342932D01*
X819831Y341432D02*
X822831D01*
X821331Y339932D02*
Y342932D01*
X765832Y341432D02*
X768831D01*
X767331Y339932D02*
Y342932D01*
X747831Y341432D02*
X750832D01*
X749332Y339932D02*
Y342932D01*
X729831Y341432D02*
X732831D01*
X731331Y339932D02*
Y342932D01*
X711832Y341432D02*
X714831D01*
X713332Y339932D02*
Y342932D01*
X693831Y341432D02*
X696832D01*
X695331Y339932D02*
Y342932D01*
X675832Y341432D02*
X678831D01*
X677331Y339932D02*
Y342932D01*
X656331Y229432D02*
X659332D01*
X657831Y227932D02*
Y230932D01*
X674332Y229432D02*
X677331D01*
X675832Y227932D02*
Y230932D01*
X692331Y229432D02*
X695331D01*
X693831Y227932D02*
Y230932D01*
X710331Y229432D02*
X713332D01*
X711832Y227932D02*
Y230932D01*
X728332Y229432D02*
X731331D01*
X729831Y227932D02*
Y230932D01*
X746331Y229432D02*
X749332D01*
X747831Y227932D02*
Y230932D01*
X764332Y229432D02*
X767331D01*
X765832Y227932D02*
Y230932D01*
X818332Y229432D02*
X821331D01*
X819831Y227932D02*
Y230932D01*
X836331Y229432D02*
X839332D01*
X837831Y227932D02*
Y230932D01*
X854332Y229432D02*
X857331D01*
X855832Y227932D02*
Y230932D01*
X872331Y229432D02*
X875331D01*
X873831Y227932D02*
Y230932D01*
X890331Y229432D02*
X893332D01*
X891832Y227932D02*
Y230932D01*
X908332Y229432D02*
X911331D01*
X909831Y227932D02*
Y230932D01*
X926331Y229432D02*
X929332D01*
X927831Y227932D02*
Y230932D01*
X944332Y229432D02*
X947331D01*
X945832Y227932D02*
Y230932D01*
X962331Y229432D02*
X965331D01*
X963831Y227932D02*
Y230932D01*
X980331Y229432D02*
X983332D01*
X981832Y227932D02*
Y230932D01*
X998332Y229432D02*
X1001331D01*
X999831Y227932D02*
Y230932D01*
X1274332Y259432D02*
X1277331D01*
X1275832Y257932D02*
Y260932D01*
X1250331Y259432D02*
X1253332D01*
X1251832Y257932D02*
Y260932D01*
X1232331Y259432D02*
X1235331D01*
X1233831Y257932D02*
Y260932D01*
X1196331Y259432D02*
X1199332D01*
X1197831Y257932D02*
Y260932D01*
X1178332Y229432D02*
X1181331D01*
X1179831Y227932D02*
Y230932D01*
X1160331Y229432D02*
X1163332D01*
X1161832Y227932D02*
Y230932D01*
X1142331Y229432D02*
X1145331D01*
X1143831Y227932D02*
Y230932D01*
X1124332Y229432D02*
X1127331D01*
X1125832Y227932D02*
Y230932D01*
X1106331Y229432D02*
X1109332D01*
X1107831Y227932D02*
Y230932D01*
X701500Y100332D02*
X704500D01*
X703000Y98832D02*
Y101832D01*
X583500Y128300D02*
X586500D01*
X585000Y126800D02*
Y129800D01*
X520500Y89900D02*
X523500D01*
X522000Y88400D02*
Y91400D01*
X444500Y185000D02*
X447500D01*
X446000Y183500D02*
Y186500D01*
X480500Y185000D02*
X483500D01*
X482000Y183500D02*
Y186500D01*
X481500Y145432D02*
X484500D01*
X483000Y143932D02*
Y146932D01*
X444500Y145432D02*
X447500D01*
X446000Y143932D02*
Y146932D01*
X462550Y164900D02*
X465550D01*
X464050Y163400D02*
Y166400D01*
X399416Y446000D02*
X402416D01*
X400916Y444500D02*
Y447500D01*
X105318Y436000D02*
X108318D01*
X106818Y434500D02*
Y437500D01*
X101500Y315000D02*
X104500D01*
X103000Y313500D02*
Y316500D01*
X1052331Y229432D02*
X1055331D01*
X1053831Y227932D02*
Y230932D01*
X1034582Y229432D02*
X1037581D01*
X1036081Y227932D02*
Y230932D01*
X1016331Y229432D02*
X1019332D01*
X1017831Y227932D02*
Y230932D01*
X994831Y210432D02*
X997831D01*
X996331Y208932D02*
Y211932D01*
X1010331Y199682D02*
X1013332D01*
X1011832Y198182D02*
Y201182D01*
X1016331Y220016D02*
X1019332D01*
X1017831Y218516D02*
Y221516D01*
X1258831Y88432D02*
X1261832D01*
X1260331Y86932D02*
Y89932D01*
X1197831Y199683D02*
X1200832D01*
X1199332Y198183D02*
Y201182D01*
X1197831Y220016D02*
X1200832D01*
X1199332Y218516D02*
Y221516D01*
X1070331Y229432D02*
X1073332D01*
X1071832Y227932D02*
Y230932D01*
X1197831Y209849D02*
X1200832D01*
X1199332Y208349D02*
Y211349D01*
X653419Y100568D02*
X656419D01*
X654919Y99068D02*
Y102068D01*
X1199081Y136932D02*
X1202082D01*
X1200582Y135432D02*
Y138432D01*
X1004332Y160432D02*
X1007331D01*
X1005832Y158932D02*
Y161932D01*
X1071331Y161182D02*
X1074332D01*
X1072831Y159682D02*
Y162682D01*
X951331Y195932D02*
X954332D01*
X952831Y194432D02*
Y197432D01*
X229385Y429581D02*
X232385D01*
X230885Y428082D02*
Y431082D01*
X116385Y380331D02*
X119385D01*
X117885Y378831D02*
Y381832D01*
X99635Y385582D02*
X102635D01*
X101135Y384081D02*
Y387081D01*
X230567Y309582D02*
X233568D01*
X232068Y308081D02*
Y311082D01*
X529318Y439332D02*
X532318D01*
X530817Y437831D02*
Y440831D01*
X393318Y395582D02*
X396317D01*
X394818Y394081D02*
Y397081D01*
X409818Y389581D02*
X412817D01*
X411317Y388082D02*
Y391082D01*
X112317Y258081D02*
X115317D01*
X113818Y256581D02*
Y259582D01*
X98068Y262332D02*
X101067D01*
X99567Y260832D02*
Y263832D01*
X176082Y145432D02*
X179081D01*
X177582Y143932D02*
Y146932D01*
X106144Y108432D02*
X109143D01*
X107643Y106932D02*
Y109932D01*
X1001331Y60932D02*
X1004332D01*
X1002831Y59432D02*
Y62432D01*
X1031331Y60932D02*
X1034332D01*
X1032831Y59432D02*
Y62432D01*
X1046331Y60932D02*
X1049332D01*
X1047831Y59432D02*
Y62432D01*
X1061331Y60932D02*
X1064332D01*
X1062831Y59432D02*
Y62432D01*
X1076331Y60932D02*
X1079332D01*
X1077831Y59432D02*
Y62432D01*
X1005331Y99432D02*
X1008332D01*
X1006832Y97932D02*
Y100932D01*
X278668Y205450D02*
X281668D01*
X280168Y203950D02*
Y206950D01*
X278668Y190020D02*
X281668D01*
X280168Y188520D02*
Y191520D01*
M02*
