G04*
G04 #@! TF.GenerationSoftware,Altium Limited,Altium Designer,19.0.14 (431)*
G04*
G04 Layer_Color=65535*
%FSLAX25Y25*%
%MOIN*%
G70*
G01*
G75*
%ADD10C,0.01181*%
%ADD11C,0.01000*%
%ADD12C,0.00787*%
%ADD13C,0.00500*%
%ADD14C,0.00394*%
%ADD15C,0.00600*%
%ADD16C,0.00591*%
%ADD17C,0.00300*%
G36*
X133924Y76386D02*
X133925Y74024D01*
X132350Y75205D01*
X133924Y76386D01*
D02*
G37*
G36*
Y81386D02*
X133925Y79024D01*
X132350Y80205D01*
X133924Y81386D01*
D02*
G37*
D10*
X525721Y26647D02*
G03*
X525721Y26647I-591J0D01*
G01*
X221583Y35480D02*
G03*
X221583Y35480I-394J0D01*
G01*
D11*
X483989Y63851D02*
G03*
X483989Y63851I-591J0D01*
G01*
X406430Y51155D02*
G03*
X406430Y51155I-591J0D01*
G01*
X419815Y73202D02*
G03*
X419815Y73202I-591J0D01*
G01*
X432808Y51155D02*
G03*
X432808Y51155I-591J0D01*
G01*
X61372Y147178D02*
X84994D01*
X61372Y170800D02*
X84994D01*
X61372Y166863D02*
Y170800D01*
Y147178D02*
Y151115D01*
X84994Y147178D02*
Y151115D01*
Y166863D02*
Y170800D01*
X178472Y150918D02*
X202094D01*
X178472Y174540D02*
X202094D01*
X178472Y170603D02*
Y174540D01*
Y150918D02*
Y154855D01*
X202094Y150918D02*
Y154855D01*
Y170603D02*
Y174540D01*
X59672Y99737D02*
X83294D01*
X59672Y123359D02*
X83294D01*
X59672Y119422D02*
Y123359D01*
Y99737D02*
Y103674D01*
X83294Y99737D02*
Y103674D01*
Y119422D02*
Y123359D01*
X437138Y-8294D02*
Y2533D01*
Y12375D02*
Y22218D01*
X378083Y-8294D02*
X437138D01*
X378083D02*
Y2533D01*
Y12375D02*
Y22218D01*
X382020Y31076D02*
X388910D01*
X428280D02*
X433201D01*
D12*
X36416Y152988D02*
G03*
X36416Y152988I-394J0D01*
G01*
X152039Y156827D02*
G03*
X152039Y156827I-394J0D01*
G01*
X34716Y105449D02*
G03*
X34716Y105449I-394J0D01*
G01*
X258792Y90721D02*
G03*
X258792Y90721I-394J0D01*
G01*
X48708Y78910D02*
Y86784D01*
X40834D02*
X48708D01*
X40834Y78910D02*
X48708D01*
X40834D02*
Y86784D01*
X56582Y78910D02*
Y86784D01*
X48708Y78910D02*
X56582D01*
X48708Y86784D02*
X56582D01*
X111457Y33583D02*
X121457D01*
X111457Y43583D02*
X121457D01*
X111457Y33583D02*
Y43583D01*
X121457Y33583D02*
Y43583D01*
X111457Y33583D02*
Y43583D01*
X101457Y33583D02*
Y43583D01*
X111457D01*
X101457Y33583D02*
X111457D01*
X91457D02*
X101457D01*
X91457Y43583D02*
X101457D01*
X91457Y33583D02*
Y43583D01*
X101457Y33583D02*
Y43583D01*
X91457Y33583D02*
Y43583D01*
X81457Y33583D02*
Y43583D01*
X91457D01*
X81457Y33583D02*
X91457D01*
X8103Y100761D02*
Y108635D01*
X15977Y100761D02*
Y108635D01*
X8103Y108635D02*
X15977D01*
X8103Y92887D02*
X15977D01*
Y100761D01*
X8103Y92887D02*
Y100761D01*
X15977D01*
X8103Y74580D02*
X15977D01*
Y82454D01*
X8103Y74580D02*
Y82454D01*
X15977D01*
X8103Y66706D02*
X15977D01*
X8103Y66706D02*
Y74580D01*
X15977Y66706D02*
Y74580D01*
X8103Y51745D02*
X15977D01*
Y59619D01*
X8103Y51745D02*
Y59619D01*
X15977D01*
X8103Y43871D02*
X15977D01*
X8103Y43871D02*
Y51745D01*
X15977Y43871D02*
Y51745D01*
X223700Y59567D02*
Y69567D01*
Y59567D02*
X233700D01*
X223700Y69567D02*
X233700D01*
Y59567D02*
Y69567D01*
X243700Y59567D02*
X253700D01*
X243700Y69567D02*
X253700D01*
X243700Y59567D02*
Y69567D01*
X253700Y59567D02*
Y69567D01*
X243700Y59567D02*
Y69567D01*
X233700Y59567D02*
Y69567D01*
X243700D01*
X233700Y59567D02*
X243700D01*
X223700Y70197D02*
Y80197D01*
Y70197D02*
X233700D01*
X223700Y80197D02*
X233700D01*
Y70197D02*
Y80197D01*
X243700Y70197D02*
X253700D01*
X243700Y80197D02*
X253700D01*
X243700Y70197D02*
Y80197D01*
X253700Y70197D02*
Y80197D01*
X243700Y70197D02*
Y80197D01*
X233700Y70197D02*
Y80197D01*
X243700D01*
X233700Y70197D02*
X243700D01*
D13*
X470800Y20938D02*
X521981D01*
Y29206D01*
X470800Y43773D02*
X521981D01*
X470800Y20938D02*
Y29206D01*
X214193Y5906D02*
Y32480D01*
X143327Y5906D02*
X214193D01*
X143327D02*
Y32480D01*
X214193Y103347D02*
Y106299D01*
X204350D02*
X214193D01*
X143327D02*
X153169D01*
X143327Y103347D02*
Y106299D01*
X143484Y30709D02*
X214035D01*
D14*
X268110Y36811D02*
X269685D01*
X268110Y41929D02*
X269685D01*
X146582Y163123D02*
Y164697D01*
X141464Y163123D02*
Y164697D01*
X94640Y173457D02*
X104876D01*
Y154560D02*
Y173457D01*
X94640Y154560D02*
X104876D01*
X94640D02*
Y173457D01*
X56156Y161154D02*
Y162729D01*
X51038Y161154D02*
Y162729D01*
X39495Y177165D02*
Y178740D01*
X44613Y177165D02*
Y178740D01*
X50841Y177165D02*
Y178740D01*
X45722Y177165D02*
Y178740D01*
X38636Y177165D02*
Y178740D01*
X33518Y177165D02*
Y178740D01*
X30860Y159284D02*
Y160859D01*
X25742Y159284D02*
Y160859D01*
X50742Y137434D02*
Y147670D01*
X31845Y137434D02*
X50742D01*
X31845D02*
Y147670D01*
X50742D01*
X210361Y177296D02*
X220597D01*
Y158398D02*
Y177296D01*
X210361Y158398D02*
X220597D01*
X210361D02*
Y177296D01*
X166267Y141371D02*
Y151607D01*
X147369Y141371D02*
X166267D01*
X147369D02*
Y151607D01*
X166267D01*
X155282Y181102D02*
Y182677D01*
X160400Y181102D02*
Y182677D01*
X166424Y181102D02*
Y182677D01*
X161306Y181102D02*
Y182677D01*
X154259Y181102D02*
Y182677D01*
X149141Y181102D02*
Y182677D01*
X171483Y164894D02*
Y166469D01*
X166365Y164894D02*
Y166469D01*
X37133Y129560D02*
Y131134D01*
X32015Y129560D02*
Y131134D01*
X38041Y129528D02*
Y131102D01*
X43159Y129528D02*
Y131102D01*
X49409Y129528D02*
Y131102D01*
X44291Y129528D02*
Y131102D01*
X93432Y126213D02*
X103668D01*
Y107316D02*
Y126213D01*
X93432Y107316D02*
X103668D01*
X93432D02*
Y126213D01*
X28767Y111843D02*
Y113418D01*
X23649Y111843D02*
Y113418D01*
X48747Y88615D02*
Y98851D01*
X29849Y88615D02*
X48747D01*
X29849D02*
Y98851D01*
X48747D01*
X52979Y113615D02*
Y115190D01*
X47861Y113615D02*
Y115190D01*
X66174Y50072D02*
X67749D01*
X66174Y55190D02*
X67749D01*
X25229Y71233D02*
Y74875D01*
X30150Y68871D02*
X32119D01*
X25229Y74875D02*
X28182Y74875D01*
X34087D02*
X37040D01*
Y71233D02*
Y74875D01*
X43536Y65426D02*
X45111D01*
X43536Y70544D02*
X45111D01*
X43634Y77434D02*
X45209D01*
X43634Y72316D02*
X45209D01*
X526410Y134521D02*
Y136095D01*
X531528Y134521D02*
Y136095D01*
X508103Y87769D02*
X509678D01*
X508103Y82651D02*
X509678D01*
X493634Y82651D02*
X495209D01*
X493634Y87769D02*
X495209D01*
X389008Y70347D02*
Y73989D01*
X382119Y76351D02*
X384087D01*
X386056Y70347D02*
X389008Y70347D01*
X377197Y70347D02*
X380150D01*
X377197D02*
Y73989D01*
X379264Y59718D02*
X380839D01*
X379264Y64836D02*
X380839D01*
X297835Y44094D02*
Y45669D01*
X302953Y44094D02*
Y45669D01*
X296686Y44094D02*
Y45669D01*
X291568Y44094D02*
Y45669D01*
X290485Y44094D02*
Y45669D01*
X285367Y44094D02*
Y45669D01*
X117389Y78327D02*
X118964D01*
X117389Y83445D02*
X118964D01*
X117389Y72252D02*
X118964D01*
X117389Y77370D02*
X118964D01*
X244358Y41759D02*
Y43334D01*
X249476Y41759D02*
Y43334D01*
X250657Y41759D02*
Y43334D01*
X255775Y41759D02*
Y43334D01*
X262074Y43249D02*
X263649D01*
X262074Y48367D02*
X263649D01*
X225394Y37008D02*
Y38583D01*
X230512Y37008D02*
Y38583D01*
X232677Y35945D02*
Y54843D01*
Y35945D02*
X242913D01*
Y54843D01*
X232677D02*
X242913D01*
X93656Y152591D02*
Y154428D01*
X92738Y153509D02*
X94574D01*
X29876Y148654D02*
X31713D01*
X30794Y149572D02*
Y147735D01*
X209377Y156430D02*
Y158266D01*
X208459Y157348D02*
X210296D01*
X145401Y152591D02*
X147237D01*
X146319Y153509D02*
Y151672D01*
X92448Y105347D02*
Y107184D01*
X91530Y106265D02*
X93367D01*
X27881Y99835D02*
X29718D01*
X28799Y100753D02*
Y98916D01*
X231693Y33976D02*
Y35813D01*
X230775Y34895D02*
X232612D01*
X52439Y90451D02*
X51521D01*
X51980D01*
Y88155D01*
X51521Y87696D01*
X51062D01*
X50602Y88155D01*
X53357Y87696D02*
X54276D01*
X53817D01*
Y90451D01*
X53357Y89991D01*
X55653Y87696D02*
X56572D01*
X56112D01*
Y90451D01*
X55653Y89991D01*
X16864Y98857D02*
Y97939D01*
Y98398D01*
X19160D01*
X19619Y97939D01*
Y97480D01*
X19160Y97021D01*
X19619Y99776D02*
Y100694D01*
Y100235D01*
X16864D01*
X17323Y99776D01*
Y102071D02*
X16864Y102531D01*
Y103449D01*
X17323Y103908D01*
X19160D01*
X19619Y103449D01*
Y102531D01*
X19160Y102071D01*
X17323D01*
X475196Y64572D02*
X474736Y65032D01*
X473818D01*
X473359Y64572D01*
Y62736D01*
X473818Y62277D01*
X474736D01*
X475196Y62736D01*
X476114Y62277D02*
Y65032D01*
X477491D01*
X477951Y64572D01*
Y63654D01*
X477491Y63195D01*
X476114D01*
X477032D02*
X477951Y62277D01*
X480246D02*
Y65032D01*
X478869Y63654D01*
X480706D01*
X33249Y39839D02*
X32790Y40299D01*
X31872D01*
X31412Y39839D01*
Y39380D01*
X31872Y38921D01*
X32790D01*
X33249Y38462D01*
Y38003D01*
X32790Y37543D01*
X31872D01*
X31412Y38003D01*
X34167Y40299D02*
Y37543D01*
X35086Y38462D01*
X36004Y37543D01*
Y40299D01*
X36922Y39839D02*
X37382Y40299D01*
X38300D01*
X38759Y39839D01*
Y39380D01*
X38300Y38921D01*
X37841D01*
X38300D01*
X38759Y38462D01*
Y38003D01*
X38300Y37543D01*
X37382D01*
X36922Y38003D01*
X17159Y73759D02*
Y72841D01*
Y73300D01*
X19455D01*
X19914Y72841D01*
Y72381D01*
X19455Y71922D01*
X19914Y76055D02*
X17159D01*
X18537Y74677D01*
Y76514D01*
X17454Y50629D02*
Y49711D01*
Y50170D01*
X19750D01*
X20209Y49711D01*
Y49251D01*
X19750Y48792D01*
Y51547D02*
X20209Y52007D01*
Y52925D01*
X19750Y53384D01*
X17913D01*
X17454Y52925D01*
Y52007D01*
X17913Y51547D01*
X18373D01*
X18832Y52007D01*
Y53384D01*
X398031Y71101D02*
X397572Y70642D01*
Y69724D01*
X398031Y69265D01*
X399868D01*
X400327Y69724D01*
Y70642D01*
X399868Y71101D01*
X400327Y72020D02*
X397572D01*
Y73397D01*
X398031Y73856D01*
X398950D01*
X399409Y73397D01*
Y72020D01*
Y72938D02*
X400327Y73856D01*
Y76612D02*
Y74775D01*
X398491Y76612D01*
X398031D01*
X397572Y76152D01*
Y75234D01*
X398031Y74775D01*
X386287Y49227D02*
X385828Y48767D01*
Y47849D01*
X386287Y47390D01*
X388123D01*
X388583Y47849D01*
Y48767D01*
X388123Y49227D01*
X388583Y50145D02*
X385828D01*
Y51522D01*
X386287Y51982D01*
X387205D01*
X387664Y51522D01*
Y50145D01*
Y51063D02*
X388583Y51982D01*
X386287Y52900D02*
X385828Y53359D01*
Y54277D01*
X386287Y54737D01*
X386746D01*
X387205Y54277D01*
Y53818D01*
Y54277D01*
X387664Y54737D01*
X388123D01*
X388583Y54277D01*
Y53359D01*
X388123Y52900D01*
X411417Y49842D02*
X410958Y49382D01*
Y48464D01*
X411417Y48005D01*
X413254D01*
X413713Y48464D01*
Y49382D01*
X413254Y49842D01*
X413713Y50760D02*
X410958D01*
Y52137D01*
X411417Y52597D01*
X412336D01*
X412795Y52137D01*
Y50760D01*
Y51678D02*
X413713Y52597D01*
Y53515D02*
Y54433D01*
Y53974D01*
X410958D01*
X411417Y53515D01*
X533071Y133995D02*
X532612Y133536D01*
Y132618D01*
X533071Y132159D01*
X534907D01*
X535367Y132618D01*
Y133536D01*
X534907Y133995D01*
X535367Y134914D02*
Y135832D01*
Y135373D01*
X532612D01*
X533071Y134914D01*
X532612Y137209D02*
Y139046D01*
X533071D01*
X534907Y137209D01*
X535367D01*
X492782Y81036D02*
X492322Y81495D01*
X491404D01*
X490945Y81036D01*
Y79199D01*
X491404Y78740D01*
X492322D01*
X492782Y79199D01*
X495537Y78740D02*
X493700D01*
X495537Y80577D01*
Y81036D01*
X495077Y81495D01*
X494159D01*
X493700Y81036D01*
X496455D02*
X496914Y81495D01*
X497832D01*
X498292Y81036D01*
Y79199D01*
X497832Y78740D01*
X496914D01*
X496455Y79199D01*
Y81036D01*
X507774Y81430D02*
X507315Y81889D01*
X506397D01*
X505938Y81430D01*
Y79593D01*
X506397Y79134D01*
X507315D01*
X507774Y79593D01*
X508693Y79134D02*
X509611D01*
X509152D01*
Y81889D01*
X508693Y81430D01*
X510989Y79593D02*
X511448Y79134D01*
X512366D01*
X512825Y79593D01*
Y81430D01*
X512366Y81889D01*
X511448D01*
X510989Y81430D01*
Y80971D01*
X511448Y80511D01*
X512825D01*
X216929Y9054D02*
Y6758D01*
X217388Y6299D01*
X218307D01*
X218766Y6758D01*
Y9054D01*
X219684Y6299D02*
X220602D01*
X220143D01*
Y9054D01*
X219684Y8595D01*
X29555Y104166D02*
X31851D01*
X32310Y104625D01*
Y105543D01*
X31851Y106003D01*
X29555D01*
Y108758D02*
Y106921D01*
X30933D01*
X30473Y107839D01*
Y108299D01*
X30933Y108758D01*
X31851D01*
X32310Y108299D01*
Y107380D01*
X31851Y106921D01*
X146878Y156528D02*
X149174D01*
X149633Y156987D01*
Y157906D01*
X149174Y158365D01*
X146878D01*
X149633Y160661D02*
X146878D01*
X148255Y159283D01*
Y161120D01*
X50229Y62866D02*
Y60570D01*
X50688Y60111D01*
X51606D01*
X52066Y60570D01*
Y62866D01*
X52984Y62407D02*
X53443Y62866D01*
X54361D01*
X54821Y62407D01*
Y61948D01*
X54361Y61489D01*
X53902D01*
X54361D01*
X54821Y61029D01*
Y60570D01*
X54361Y60111D01*
X53443D01*
X52984Y60570D01*
X31255Y152591D02*
X33551D01*
X34010Y153050D01*
Y153969D01*
X33551Y154428D01*
X31255D01*
X34010Y157183D02*
Y155346D01*
X32173Y157183D01*
X31714D01*
X31255Y156724D01*
Y155805D01*
X31714Y155346D01*
X261154Y21761D02*
X261613Y22220D01*
Y23138D01*
X261154Y23597D01*
X260695D01*
X260236Y23138D01*
Y22220D01*
X259777Y21761D01*
X259317D01*
X258858Y22220D01*
Y23138D01*
X259317Y23597D01*
X261613Y20843D02*
X258858D01*
X259777Y19924D01*
X258858Y19006D01*
X261613D01*
X258858Y16251D02*
Y18087D01*
X260695Y16251D01*
X261154D01*
X261613Y16710D01*
Y17628D01*
X261154Y18087D01*
X284186Y21839D02*
X284645Y22299D01*
Y23217D01*
X284186Y23676D01*
X283726D01*
X283267Y23217D01*
Y22299D01*
X282808Y21839D01*
X282349D01*
X281890Y22299D01*
Y23217D01*
X282349Y23676D01*
X284645Y20921D02*
X281890D01*
X282808Y20003D01*
X281890Y19084D01*
X284645D01*
X281890Y18166D02*
Y17248D01*
Y17707D01*
X284645D01*
X284186Y18166D01*
X376772Y56150D02*
Y58905D01*
X378149D01*
X378608Y58446D01*
Y57527D01*
X378149Y57068D01*
X376772D01*
X377690D02*
X378608Y56150D01*
X381363D02*
X379527D01*
X381363Y57986D01*
Y58446D01*
X380904Y58905D01*
X379986D01*
X379527Y58446D01*
X382282Y56150D02*
X383200D01*
X382741D01*
Y58905D01*
X382282Y58446D01*
X31102Y126772D02*
X28347D01*
Y128149D01*
X28806Y128608D01*
X29725D01*
X30184Y128149D01*
Y126772D01*
Y127690D02*
X31102Y128608D01*
Y131363D02*
Y129527D01*
X29266Y131363D01*
X28806D01*
X28347Y130904D01*
Y129986D01*
X28806Y129527D01*
Y132282D02*
X28347Y132741D01*
Y133659D01*
X28806Y134118D01*
X30643D01*
X31102Y133659D01*
Y132741D01*
X30643Y132282D01*
X28806D01*
X27165Y127165D02*
X24410D01*
Y128543D01*
X24870Y129002D01*
X25788D01*
X26247Y128543D01*
Y127165D01*
Y128084D02*
X27165Y129002D01*
Y129920D02*
Y130839D01*
Y130379D01*
X24410D01*
X24870Y129920D01*
X26706Y132216D02*
X27165Y132675D01*
Y133594D01*
X26706Y134053D01*
X24870D01*
X24410Y133594D01*
Y132675D01*
X24870Y132216D01*
X25329D01*
X25788Y132675D01*
Y134053D01*
X52782Y127362D02*
X50028D01*
Y128740D01*
X50487Y129199D01*
X51405D01*
X51864Y128740D01*
Y127362D01*
Y128280D02*
X52782Y129199D01*
Y130117D02*
Y131036D01*
Y130576D01*
X50028D01*
X50487Y130117D01*
Y132413D02*
X50028Y132872D01*
Y133791D01*
X50487Y134250D01*
X50946D01*
X51405Y133791D01*
X51864Y134250D01*
X52323D01*
X52782Y133791D01*
Y132872D01*
X52323Y132413D01*
X51864D01*
X51405Y132872D01*
X50946Y132413D01*
X50487D01*
X51405Y132872D02*
Y133791D01*
X22763Y109540D02*
X20008D01*
Y110917D01*
X20467Y111377D01*
X21385D01*
X21845Y110917D01*
Y109540D01*
Y110458D02*
X22763Y111377D01*
Y112295D02*
Y113213D01*
Y112754D01*
X20008D01*
X20467Y112295D01*
X20008Y114591D02*
Y116428D01*
X20467D01*
X22304Y114591D01*
X22763D01*
X148392Y178740D02*
X145637D01*
Y180118D01*
X146096Y180577D01*
X147014D01*
X147474Y180118D01*
Y178740D01*
Y179658D02*
X148392Y180577D01*
Y181495D02*
Y182413D01*
Y181954D01*
X145637D01*
X146096Y181495D01*
X145637Y185628D02*
X146096Y184709D01*
X147014Y183791D01*
X147933D01*
X148392Y184250D01*
Y185169D01*
X147933Y185628D01*
X147474D01*
X147014Y185169D01*
Y183791D01*
X144882Y178806D02*
X142127D01*
Y180184D01*
X142586Y180643D01*
X143504D01*
X143964Y180184D01*
Y178806D01*
Y179725D02*
X144882Y180643D01*
Y181562D02*
Y182480D01*
Y182021D01*
X142127D01*
X142586Y181562D01*
X142127Y185694D02*
Y183857D01*
X143504D01*
X143045Y184776D01*
Y185235D01*
X143504Y185694D01*
X144423D01*
X144882Y185235D01*
Y184317D01*
X144423Y183857D01*
X170079Y178937D02*
X167324D01*
Y180315D01*
X167783Y180774D01*
X168701D01*
X169160Y180315D01*
Y178937D01*
Y179855D02*
X170079Y180774D01*
Y181692D02*
Y182610D01*
Y182151D01*
X167324D01*
X167783Y181692D01*
X170079Y185365D02*
X167324D01*
X168701Y183988D01*
Y185825D01*
X140282Y160367D02*
X137528D01*
Y161744D01*
X137987Y162203D01*
X138905D01*
X139364Y161744D01*
Y160367D01*
Y161285D02*
X140282Y162203D01*
Y163122D02*
Y164040D01*
Y163581D01*
X137528D01*
X137987Y163122D01*
Y165418D02*
X137528Y165877D01*
Y166795D01*
X137987Y167254D01*
X138446D01*
X138905Y166795D01*
Y166336D01*
Y166795D01*
X139364Y167254D01*
X139823D01*
X140282Y166795D01*
Y165877D01*
X139823Y165418D01*
X50420Y73622D02*
Y76377D01*
X51798D01*
X52257Y75918D01*
Y75000D01*
X51798Y74540D01*
X50420D01*
X51339D02*
X52257Y73622D01*
X53175D02*
X54094D01*
X53634D01*
Y76377D01*
X53175Y75918D01*
X57308Y73622D02*
X55471D01*
X57308Y75459D01*
Y75918D01*
X56849Y76377D01*
X55930D01*
X55471Y75918D01*
X50420Y66535D02*
Y69290D01*
X51798D01*
X52257Y68831D01*
Y67913D01*
X51798Y67454D01*
X50420D01*
X51339D02*
X52257Y66535D01*
X53175D02*
X54094D01*
X53634D01*
Y69290D01*
X53175Y68831D01*
X55471Y66535D02*
X56389D01*
X55930D01*
Y69290D01*
X55471Y68831D01*
X32605Y174409D02*
X29850D01*
Y175787D01*
X30310Y176246D01*
X31228D01*
X31687Y175787D01*
Y174409D01*
Y175328D02*
X32605Y176246D01*
Y177164D02*
Y178083D01*
Y177624D01*
X29850D01*
X30310Y177164D01*
Y179460D02*
X29850Y179920D01*
Y180838D01*
X30310Y181297D01*
X32146D01*
X32605Y180838D01*
Y179920D01*
X32146Y179460D01*
X30310D01*
X28668Y175558D02*
X25913D01*
Y176936D01*
X26373Y177395D01*
X27291D01*
X27750Y176936D01*
Y175558D01*
Y176477D02*
X28668Y177395D01*
X28209Y178314D02*
X28668Y178773D01*
Y179691D01*
X28209Y180150D01*
X26373D01*
X25913Y179691D01*
Y178773D01*
X26373Y178314D01*
X26832D01*
X27291Y178773D01*
Y180150D01*
X54384Y175984D02*
X51629D01*
Y177362D01*
X52088Y177821D01*
X53006D01*
X53466Y177362D01*
Y175984D01*
Y176903D02*
X54384Y177821D01*
X52088Y178739D02*
X51629Y179199D01*
Y180117D01*
X52088Y180576D01*
X52547D01*
X53006Y180117D01*
X53466Y180576D01*
X53925D01*
X54384Y180117D01*
Y179199D01*
X53925Y178739D01*
X53466D01*
X53006Y179199D01*
X52547Y178739D01*
X52088D01*
X53006Y179199D02*
Y180117D01*
X25053Y158201D02*
X22298D01*
Y159579D01*
X22757Y160038D01*
X23676D01*
X24135Y159579D01*
Y158201D01*
Y159120D02*
X25053Y160038D01*
X22298Y160956D02*
Y162793D01*
X22757D01*
X24594Y160956D01*
X25053D01*
X103543Y79678D02*
Y82433D01*
X104921D01*
X105380Y81974D01*
Y81056D01*
X104921Y80597D01*
X103543D01*
X104462D02*
X105380Y79678D01*
X108135Y82433D02*
X107217Y81974D01*
X106298Y81056D01*
Y80137D01*
X106757Y79678D01*
X107676D01*
X108135Y80137D01*
Y80597D01*
X107676Y81056D01*
X106298D01*
X103543Y73674D02*
Y76429D01*
X104921D01*
X105380Y75970D01*
Y75052D01*
X104921Y74593D01*
X103543D01*
X104462D02*
X105380Y73674D01*
X108135Y76429D02*
X106298D01*
Y75052D01*
X107217Y75511D01*
X107676D01*
X108135Y75052D01*
Y74133D01*
X107676Y73674D01*
X106757D01*
X106298Y74133D01*
X285827Y51181D02*
Y53936D01*
X287204D01*
X287664Y53477D01*
Y52559D01*
X287204Y52099D01*
X285827D01*
X286745D02*
X287664Y51181D01*
X289959D02*
Y53936D01*
X288582Y52559D01*
X290419D01*
X244882Y48819D02*
Y51574D01*
X246259D01*
X246719Y51115D01*
Y50196D01*
X246259Y49737D01*
X244882D01*
X245800D02*
X246719Y48819D01*
X247637Y51115D02*
X248096Y51574D01*
X249014D01*
X249474Y51115D01*
Y50656D01*
X249014Y50196D01*
X248555D01*
X249014D01*
X249474Y49737D01*
Y49278D01*
X249014Y48819D01*
X248096D01*
X247637Y49278D01*
X260236Y49213D02*
Y51968D01*
X261614D01*
X262073Y51508D01*
Y50590D01*
X261614Y50131D01*
X260236D01*
X261155D02*
X262073Y49213D01*
X264828D02*
X262991D01*
X264828Y51049D01*
Y51508D01*
X264369Y51968D01*
X263450D01*
X262991Y51508D01*
X292520Y51181D02*
Y53936D01*
X293897D01*
X294356Y53477D01*
Y52559D01*
X293897Y52099D01*
X292520D01*
X293438D02*
X294356Y51181D01*
X295275D02*
X296193D01*
X295734D01*
Y53936D01*
X295275Y53477D01*
X376148Y71987D02*
X374311D01*
X373852Y71528D01*
Y70610D01*
X374311Y70151D01*
X376148D01*
X376607Y70610D01*
Y71528D01*
X375689Y71069D02*
X376607Y71987D01*
Y71528D02*
X376148Y71987D01*
X376607Y74742D02*
Y72906D01*
X374770Y74742D01*
X374311D01*
X373852Y74283D01*
Y73365D01*
X374311Y72906D01*
X26640Y76050D02*
Y77886D01*
X26181Y78346D01*
X25262D01*
X24803Y77886D01*
Y76050D01*
X25262Y75590D01*
X26181D01*
X25721Y76509D02*
X26640Y75590D01*
X26181D02*
X26640Y76050D01*
X27558Y75590D02*
X28477D01*
X28017D01*
Y78346D01*
X27558Y77886D01*
X127953Y85511D02*
Y82756D01*
X129789D01*
X132545Y85511D02*
X130708D01*
Y82756D01*
X132545D01*
X130708Y84133D02*
X131626D01*
X133463Y85511D02*
Y82756D01*
X134840D01*
X135300Y83215D01*
Y85052D01*
X134840Y85511D01*
X133463D01*
X138055Y82756D02*
X136218D01*
X138055Y84593D01*
Y85052D01*
X137595Y85511D01*
X136677D01*
X136218Y85052D01*
X128347Y72519D02*
Y69764D01*
X130183D01*
X132938Y72519D02*
X131102D01*
Y69764D01*
X132938D01*
X131102Y71141D02*
X132020D01*
X133856Y72519D02*
Y69764D01*
X135234D01*
X135693Y70223D01*
Y72060D01*
X135234Y72519D01*
X133856D01*
X136611Y69764D02*
X137530D01*
X137071D01*
Y72519D01*
X136611Y72060D01*
X55244Y97571D02*
X57999D01*
Y99408D01*
X55703Y100327D02*
X55244Y100786D01*
Y101704D01*
X55703Y102163D01*
X56162D01*
X56621Y101704D01*
Y101245D01*
Y101704D01*
X57081Y102163D01*
X57540D01*
X57999Y101704D01*
Y100786D01*
X57540Y100327D01*
X174240Y148556D02*
X176995D01*
Y150392D01*
Y153147D02*
Y151311D01*
X175158Y153147D01*
X174699D01*
X174240Y152688D01*
Y151770D01*
X174699Y151311D01*
X57436Y146587D02*
X60191D01*
Y148424D01*
Y149342D02*
Y150261D01*
Y149801D01*
X57436D01*
X57895Y149342D01*
X465058Y48102D02*
X464139D01*
X464599D01*
Y45807D01*
X464139Y45347D01*
X463680D01*
X463221Y45807D01*
X465976Y47643D02*
X466435Y48102D01*
X467354D01*
X467813Y47643D01*
Y47184D01*
X467354Y46725D01*
X467813Y46266D01*
Y45807D01*
X467354Y45347D01*
X466435D01*
X465976Y45807D01*
Y46266D01*
X466435Y46725D01*
X465976Y47184D01*
Y47643D01*
X466435Y46725D02*
X467354D01*
X382873Y35602D02*
X381954D01*
X382414D01*
Y33307D01*
X381954Y32847D01*
X381495D01*
X381036Y33307D01*
X383791Y35602D02*
X385628D01*
Y35143D01*
X383791Y33307D01*
Y32847D01*
X352361Y88321D02*
Y89239D01*
Y88780D01*
X350065D01*
X349606Y89239D01*
Y89698D01*
X350065Y90158D01*
X352361Y85566D02*
X351902Y86484D01*
X350984Y87402D01*
X350065D01*
X349606Y86943D01*
Y86025D01*
X350065Y85566D01*
X350525D01*
X350984Y86025D01*
Y87402D01*
X244777Y200365D02*
X243858D01*
X244318D01*
Y198069D01*
X243858Y197610D01*
X243399D01*
X242940Y198069D01*
X247532Y200365D02*
X245695D01*
Y198987D01*
X246613Y199446D01*
X247073D01*
X247532Y198987D01*
Y198069D01*
X247073Y197610D01*
X246154D01*
X245695Y198069D01*
X220146Y74593D02*
Y73674D01*
Y74133D01*
X222442D01*
X222901Y73674D01*
Y73215D01*
X222442Y72756D01*
X220605Y75511D02*
X220146Y75970D01*
Y76889D01*
X220605Y77348D01*
X221064D01*
X221523Y76889D01*
Y76429D01*
Y76889D01*
X221983Y77348D01*
X222442D01*
X222901Y76889D01*
Y75970D01*
X222442Y75511D01*
X220146Y63648D02*
Y62729D01*
Y63188D01*
X222442D01*
X222901Y62729D01*
Y62270D01*
X222442Y61811D01*
X222901Y66403D02*
Y64566D01*
X221064Y66403D01*
X220605D01*
X220146Y65944D01*
Y65025D01*
X220605Y64566D01*
X125262Y39665D02*
X124344D01*
X124803D01*
Y37369D01*
X124344Y36909D01*
X123884D01*
X123425Y37369D01*
X126180Y36909D02*
X127099D01*
X126639D01*
Y39665D01*
X126180Y39205D01*
X90349Y114270D02*
X89890Y113811D01*
Y112893D01*
X90349Y112434D01*
X92185D01*
X92645Y112893D01*
Y113811D01*
X92185Y114270D01*
X92645Y115189D02*
Y116107D01*
Y115648D01*
X89890D01*
X90349Y115189D01*
X89890Y119321D02*
Y117484D01*
X91267D01*
X90808Y118403D01*
Y118862D01*
X91267Y119321D01*
X92185D01*
X92645Y118862D01*
Y117944D01*
X92185Y117484D01*
X26668Y90353D02*
X26209Y89894D01*
Y88976D01*
X26668Y88516D01*
X28504D01*
X28964Y88976D01*
Y89894D01*
X28504Y90353D01*
X28964Y91271D02*
Y92190D01*
Y91730D01*
X26209D01*
X26668Y91271D01*
X28964Y94945D02*
X26209D01*
X27586Y93567D01*
Y95404D01*
X53216Y119947D02*
X52757Y119488D01*
Y118569D01*
X53216Y118110D01*
X55053D01*
X55512Y118569D01*
Y119488D01*
X55053Y119947D01*
X55512Y120865D02*
Y121784D01*
Y121324D01*
X52757D01*
X53216Y120865D01*
Y123161D02*
X52757Y123620D01*
Y124539D01*
X53216Y124998D01*
X53675D01*
X54134Y124539D01*
Y124079D01*
Y124539D01*
X54593Y124998D01*
X55053D01*
X55512Y124539D01*
Y123620D01*
X55053Y123161D01*
X64073Y61226D02*
X63614Y61685D01*
X62696D01*
X62237Y61226D01*
Y59389D01*
X62696Y58930D01*
X63614D01*
X64073Y59389D01*
X64992Y58930D02*
X65910D01*
X65451D01*
Y61685D01*
X64992Y61226D01*
X69124Y58930D02*
X67288D01*
X69124Y60767D01*
Y61226D01*
X68665Y61685D01*
X67747D01*
X67288Y61226D01*
X207081Y161219D02*
X206622Y160760D01*
Y159842D01*
X207081Y159382D01*
X208918D01*
X209377Y159842D01*
Y160760D01*
X208918Y161219D01*
X209377Y162137D02*
Y163056D01*
Y162597D01*
X206622D01*
X207081Y162137D01*
X209377Y164433D02*
Y165352D01*
Y164892D01*
X206622D01*
X207081Y164433D01*
X144089Y143207D02*
X143630Y142748D01*
Y141830D01*
X144089Y141371D01*
X145926D01*
X146385Y141830D01*
Y142748D01*
X145926Y143207D01*
X146385Y144126D02*
Y145044D01*
Y144585D01*
X143630D01*
X144089Y144126D01*
Y146422D02*
X143630Y146881D01*
Y147799D01*
X144089Y148258D01*
X145926D01*
X146385Y147799D01*
Y146881D01*
X145926Y146422D01*
X144089D01*
X163085Y165058D02*
X162626Y164599D01*
Y163680D01*
X163085Y163221D01*
X164922D01*
X165381Y163680D01*
Y164599D01*
X164922Y165058D01*
Y165976D02*
X165381Y166435D01*
Y167354D01*
X164922Y167813D01*
X163085D01*
X162626Y167354D01*
Y166435D01*
X163085Y165976D01*
X163544D01*
X164003Y166435D01*
Y167813D01*
X91557Y157282D02*
X91097Y156823D01*
Y155905D01*
X91557Y155446D01*
X93393D01*
X93853Y155905D01*
Y156823D01*
X93393Y157282D01*
X91557Y158201D02*
X91097Y158660D01*
Y159578D01*
X91557Y160037D01*
X92016D01*
X92475Y159578D01*
X92934Y160037D01*
X93393D01*
X93853Y159578D01*
Y158660D01*
X93393Y158201D01*
X92934D01*
X92475Y158660D01*
X92016Y158201D01*
X91557D01*
X92475Y158660D02*
Y159578D01*
X28761Y138877D02*
X28302Y138417D01*
Y137499D01*
X28761Y137040D01*
X30598D01*
X31057Y137499D01*
Y138417D01*
X30598Y138877D01*
X28302Y139795D02*
Y141632D01*
X28761D01*
X30598Y139795D01*
X31057D01*
X47757Y161613D02*
X47298Y161154D01*
Y160235D01*
X47757Y159776D01*
X49594D01*
X50053Y160235D01*
Y161154D01*
X49594Y161613D01*
X47298Y164368D02*
X47757Y163450D01*
X48676Y162531D01*
X49594D01*
X50053Y162990D01*
Y163909D01*
X49594Y164368D01*
X49135D01*
X48676Y163909D01*
Y162531D01*
X253018Y51115D02*
X252559Y51574D01*
X251640D01*
X251181Y51115D01*
Y49278D01*
X251640Y48819D01*
X252559D01*
X253018Y49278D01*
X255773Y51574D02*
X253936D01*
Y50196D01*
X254854Y50656D01*
X255314D01*
X255773Y50196D01*
Y49278D01*
X255314Y48819D01*
X254395D01*
X253936Y49278D01*
X271128Y44986D02*
X270669Y45445D01*
X269750D01*
X269291Y44986D01*
Y43149D01*
X269750Y42690D01*
X270669D01*
X271128Y43149D01*
X273424Y42690D02*
Y45445D01*
X272046Y44067D01*
X273883D01*
X227427Y46390D02*
X226968Y46850D01*
X226050D01*
X225590Y46390D01*
Y44554D01*
X226050Y44094D01*
X226968D01*
X227427Y44554D01*
X228346Y46390D02*
X228805Y46850D01*
X229723D01*
X230182Y46390D01*
Y45931D01*
X229723Y45472D01*
X229264D01*
X229723D01*
X230182Y45013D01*
Y44554D01*
X229723Y44094D01*
X228805D01*
X228346Y44554D01*
X237270Y57978D02*
X236811Y58437D01*
X235892D01*
X235433Y57978D01*
Y56141D01*
X235892Y55682D01*
X236811D01*
X237270Y56141D01*
X240025Y55682D02*
X238188D01*
X240025Y57519D01*
Y57978D01*
X239566Y58437D01*
X238647D01*
X238188Y57978D01*
X300262Y53477D02*
X299803Y53936D01*
X298884D01*
X298425Y53477D01*
Y51640D01*
X298884Y51181D01*
X299803D01*
X300262Y51640D01*
X301180Y51181D02*
X302099D01*
X301639D01*
Y53936D01*
X301180Y53477D01*
D15*
X479448Y60509D02*
X487348D01*
X479448Y47509D02*
X487348D01*
X43228Y45447D02*
X51128D01*
X43228Y57847D02*
X51128D01*
X402497Y47205D02*
Y55105D01*
X389497Y47205D02*
Y55105D01*
X415882Y69252D02*
Y77152D01*
X402882Y69252D02*
Y77152D01*
X428875Y47205D02*
Y55105D01*
X415875Y47205D02*
Y55105D01*
X305642Y92690D02*
X318595D01*
X305642Y126942D02*
X318595D01*
X513595Y92690D02*
X523556D01*
Y180485D01*
X507414D02*
X523556D01*
X243634Y92690D02*
X253595D01*
X243634D02*
Y180485D01*
X259776D01*
Y173399D02*
Y180485D01*
X507414Y171430D02*
Y180485D01*
D16*
X2363Y98523D02*
Y95899D01*
X6299D01*
Y98523D01*
X4331Y95899D02*
Y97211D01*
X3019Y102458D02*
X2363Y101802D01*
Y100490D01*
X3019Y99835D01*
X3675D01*
X4331Y100490D01*
Y101802D01*
X4987Y102458D01*
X5643D01*
X6299Y101802D01*
Y100490D01*
X5643Y99835D01*
X3019Y106394D02*
X2363Y105738D01*
Y104426D01*
X3019Y103770D01*
X5643D01*
X6299Y104426D01*
Y105738D01*
X5643Y106394D01*
X6299Y63458D02*
X2363D01*
X3675Y64770D01*
X2363Y66082D01*
X6299D01*
X2363Y67393D02*
Y70017D01*
Y68705D01*
X6299D01*
Y71329D02*
X2363D01*
Y73297D01*
X3019Y73953D01*
X4331D01*
X4987Y73297D01*
Y71329D01*
Y72641D02*
X6299Y73953D01*
X3019Y81824D02*
X2363Y81169D01*
Y79857D01*
X3019Y79201D01*
X3675D01*
X4331Y79857D01*
Y81169D01*
X4987Y81824D01*
X5643D01*
X6299Y81169D01*
Y79857D01*
X5643Y79201D01*
X2363Y83136D02*
X6299D01*
X4987Y84448D01*
X6299Y85760D01*
X2363D01*
Y45015D02*
X6299D01*
Y46983D01*
X5643Y47639D01*
X4987D01*
X4331Y46983D01*
Y45015D01*
Y46983D01*
X3675Y47639D01*
X3019D01*
X2363Y46983D01*
Y45015D01*
X6299Y48951D02*
X3675D01*
X2363Y50263D01*
X3675Y51575D01*
X6299D01*
X4331D01*
Y48951D01*
X2363Y52886D02*
Y55510D01*
Y54198D01*
X6299D01*
X2363Y56822D02*
Y59446D01*
Y58134D01*
X6299D01*
D17*
X42222Y64909D02*
Y63124D01*
X41478Y64463D02*
X42965Y63570D01*
Y64463D02*
X41478Y63570D01*
M02*
