G04*
G04 #@! TF.GenerationSoftware,Altium Limited,Altium Designer,19.0.14 (431)*
G04*
G04 Layer_Physical_Order=1*
G04 Layer_Color=255*
%FSLAX25Y25*%
%MOIN*%
G70*
G01*
G75*
%ADD10C,0.01181*%
%ADD11C,0.01000*%
G04:AMPARAMS|DCode=18|XSize=31.5mil|YSize=55.12mil|CornerRadius=3.94mil|HoleSize=0mil|Usage=FLASHONLY|Rotation=270.000|XOffset=0mil|YOffset=0mil|HoleType=Round|Shape=RoundedRectangle|*
%AMROUNDEDRECTD18*
21,1,0.03150,0.04724,0,0,270.0*
21,1,0.02362,0.05512,0,0,270.0*
1,1,0.00787,-0.02362,-0.01181*
1,1,0.00787,-0.02362,0.01181*
1,1,0.00787,0.02362,0.01181*
1,1,0.00787,0.02362,-0.01181*
%
%ADD18ROUNDEDRECTD18*%
G04:AMPARAMS|DCode=19|XSize=19.68mil|YSize=47.24mil|CornerRadius=2.46mil|HoleSize=0mil|Usage=FLASHONLY|Rotation=90.000|XOffset=0mil|YOffset=0mil|HoleType=Round|Shape=RoundedRectangle|*
%AMROUNDEDRECTD19*
21,1,0.01968,0.04232,0,0,90.0*
21,1,0.01476,0.04724,0,0,90.0*
1,1,0.00492,0.02116,0.00738*
1,1,0.00492,0.02116,-0.00738*
1,1,0.00492,-0.02116,-0.00738*
1,1,0.00492,-0.02116,0.00738*
%
%ADD19ROUNDEDRECTD19*%
G04:AMPARAMS|DCode=20|XSize=35.43mil|YSize=39.37mil|CornerRadius=8.86mil|HoleSize=0mil|Usage=FLASHONLY|Rotation=180.000|XOffset=0mil|YOffset=0mil|HoleType=Round|Shape=RoundedRectangle|*
%AMROUNDEDRECTD20*
21,1,0.03543,0.02165,0,0,180.0*
21,1,0.01772,0.03937,0,0,180.0*
1,1,0.01772,-0.00886,0.01083*
1,1,0.01772,0.00886,0.01083*
1,1,0.01772,0.00886,-0.01083*
1,1,0.01772,-0.00886,-0.01083*
%
%ADD20ROUNDEDRECTD20*%
G04:AMPARAMS|DCode=21|XSize=63.37mil|YSize=15.75mil|CornerRadius=3.94mil|HoleSize=0mil|Usage=FLASHONLY|Rotation=0.000|XOffset=0mil|YOffset=0mil|HoleType=Round|Shape=RoundedRectangle|*
%AMROUNDEDRECTD21*
21,1,0.06337,0.00787,0,0,0.0*
21,1,0.05550,0.01575,0,0,0.0*
1,1,0.00787,0.02775,-0.00394*
1,1,0.00787,-0.02775,-0.00394*
1,1,0.00787,-0.02775,0.00394*
1,1,0.00787,0.02775,0.00394*
%
%ADD21ROUNDEDRECTD21*%
G04:AMPARAMS|DCode=22|XSize=35.43mil|YSize=39.37mil|CornerRadius=8.86mil|HoleSize=0mil|Usage=FLASHONLY|Rotation=90.000|XOffset=0mil|YOffset=0mil|HoleType=Round|Shape=RoundedRectangle|*
%AMROUNDEDRECTD22*
21,1,0.03543,0.02165,0,0,90.0*
21,1,0.01772,0.03937,0,0,90.0*
1,1,0.01772,0.01083,0.00886*
1,1,0.01772,0.01083,-0.00886*
1,1,0.01772,-0.01083,-0.00886*
1,1,0.01772,-0.01083,0.00886*
%
%ADD22ROUNDEDRECTD22*%
%ADD23R,0.07087X0.05512*%
G04:AMPARAMS|DCode=24|XSize=145.67mil|YSize=78.74mil|CornerRadius=9.84mil|HoleSize=0mil|Usage=FLASHONLY|Rotation=90.000|XOffset=0mil|YOffset=0mil|HoleType=Round|Shape=RoundedRectangle|*
%AMROUNDEDRECTD24*
21,1,0.14567,0.05906,0,0,90.0*
21,1,0.12598,0.07874,0,0,90.0*
1,1,0.01968,0.02953,0.06299*
1,1,0.01968,0.02953,-0.06299*
1,1,0.01968,-0.02953,-0.06299*
1,1,0.01968,-0.02953,0.06299*
%
%ADD24ROUNDEDRECTD24*%
%ADD25R,0.05512X0.07087*%
G04:AMPARAMS|DCode=26|XSize=48.82mil|YSize=21.65mil|CornerRadius=5.41mil|HoleSize=0mil|Usage=FLASHONLY|Rotation=90.000|XOffset=0mil|YOffset=0mil|HoleType=Round|Shape=RoundedRectangle|*
%AMROUNDEDRECTD26*
21,1,0.04882,0.01083,0,0,90.0*
21,1,0.03799,0.02165,0,0,90.0*
1,1,0.01083,0.00541,0.01900*
1,1,0.01083,0.00541,-0.01900*
1,1,0.01083,-0.00541,-0.01900*
1,1,0.01083,-0.00541,0.01900*
%
%ADD26ROUNDEDRECTD26*%
G04:AMPARAMS|DCode=27|XSize=31.5mil|YSize=39.37mil|CornerRadius=7.87mil|HoleSize=0mil|Usage=FLASHONLY|Rotation=180.000|XOffset=0mil|YOffset=0mil|HoleType=Round|Shape=RoundedRectangle|*
%AMROUNDEDRECTD27*
21,1,0.03150,0.02362,0,0,180.0*
21,1,0.01575,0.03937,0,0,180.0*
1,1,0.01575,-0.00787,0.01181*
1,1,0.01575,0.00787,0.01181*
1,1,0.01575,0.00787,-0.01181*
1,1,0.01575,-0.00787,-0.01181*
%
%ADD27ROUNDEDRECTD27*%
G04:AMPARAMS|DCode=28|XSize=60mil|YSize=16mil|CornerRadius=4mil|HoleSize=0mil|Usage=FLASHONLY|Rotation=0.000|XOffset=0mil|YOffset=0mil|HoleType=Round|Shape=RoundedRectangle|*
%AMROUNDEDRECTD28*
21,1,0.06000,0.00800,0,0,0.0*
21,1,0.05200,0.01600,0,0,0.0*
1,1,0.00800,0.02600,-0.00400*
1,1,0.00800,-0.02600,-0.00400*
1,1,0.00800,-0.02600,0.00400*
1,1,0.00800,0.02600,0.00400*
%
%ADD28ROUNDEDRECTD28*%
G04:AMPARAMS|DCode=29|XSize=63.37mil|YSize=15.75mil|CornerRadius=3.94mil|HoleSize=0mil|Usage=FLASHONLY|Rotation=270.000|XOffset=0mil|YOffset=0mil|HoleType=Round|Shape=RoundedRectangle|*
%AMROUNDEDRECTD29*
21,1,0.06337,0.00787,0,0,270.0*
21,1,0.05550,0.01575,0,0,270.0*
1,1,0.00787,-0.00394,-0.02775*
1,1,0.00787,-0.00394,0.02775*
1,1,0.00787,0.00394,0.02775*
1,1,0.00787,0.00394,-0.02775*
%
%ADD29ROUNDEDRECTD29*%
G04:AMPARAMS|DCode=30|XSize=11.81mil|YSize=74.8mil|CornerRadius=2.95mil|HoleSize=0mil|Usage=FLASHONLY|Rotation=0.000|XOffset=0mil|YOffset=0mil|HoleType=Round|Shape=RoundedRectangle|*
%AMROUNDEDRECTD30*
21,1,0.01181,0.06890,0,0,0.0*
21,1,0.00591,0.07480,0,0,0.0*
1,1,0.00591,0.00295,-0.03445*
1,1,0.00591,-0.00295,-0.03445*
1,1,0.00591,-0.00295,0.03445*
1,1,0.00591,0.00295,0.03445*
%
%ADD30ROUNDEDRECTD30*%
G04:AMPARAMS|DCode=31|XSize=196.85mil|YSize=196.85mil|CornerRadius=9.84mil|HoleSize=0mil|Usage=FLASHONLY|Rotation=180.000|XOffset=0mil|YOffset=0mil|HoleType=Round|Shape=RoundedRectangle|*
%AMROUNDEDRECTD31*
21,1,0.19685,0.17717,0,0,180.0*
21,1,0.17717,0.19685,0,0,180.0*
1,1,0.01968,-0.08858,0.08858*
1,1,0.01968,0.08858,0.08858*
1,1,0.01968,0.08858,-0.08858*
1,1,0.01968,-0.08858,-0.08858*
%
%ADD31ROUNDEDRECTD31*%
G04:AMPARAMS|DCode=32|XSize=78.74mil|YSize=35.43mil|CornerRadius=8.86mil|HoleSize=0mil|Usage=FLASHONLY|Rotation=180.000|XOffset=0mil|YOffset=0mil|HoleType=Round|Shape=RoundedRectangle|*
%AMROUNDEDRECTD32*
21,1,0.07874,0.01772,0,0,180.0*
21,1,0.06102,0.03543,0,0,180.0*
1,1,0.01772,-0.03051,0.00886*
1,1,0.01772,0.03051,0.00886*
1,1,0.01772,0.03051,-0.00886*
1,1,0.01772,-0.03051,-0.00886*
%
%ADD32ROUNDEDRECTD32*%
G04:AMPARAMS|DCode=33|XSize=78.74mil|YSize=35.43mil|CornerRadius=8.86mil|HoleSize=0mil|Usage=FLASHONLY|Rotation=270.000|XOffset=0mil|YOffset=0mil|HoleType=Round|Shape=RoundedRectangle|*
%AMROUNDEDRECTD33*
21,1,0.07874,0.01772,0,0,270.0*
21,1,0.06102,0.03543,0,0,270.0*
1,1,0.01772,-0.00886,-0.03051*
1,1,0.01772,-0.00886,0.03051*
1,1,0.01772,0.00886,0.03051*
1,1,0.01772,0.00886,-0.03051*
%
%ADD33ROUNDEDRECTD33*%
G04:AMPARAMS|DCode=34|XSize=31.5mil|YSize=31.5mil|CornerRadius=7.87mil|HoleSize=0mil|Usage=FLASHONLY|Rotation=180.000|XOffset=0mil|YOffset=0mil|HoleType=Round|Shape=RoundedRectangle|*
%AMROUNDEDRECTD34*
21,1,0.03150,0.01575,0,0,180.0*
21,1,0.01575,0.03150,0,0,180.0*
1,1,0.01575,-0.00787,0.00787*
1,1,0.01575,0.00787,0.00787*
1,1,0.01575,0.00787,-0.00787*
1,1,0.01575,-0.00787,-0.00787*
%
%ADD34ROUNDEDRECTD34*%
%ADD35R,0.01378X0.07874*%
%ADD36R,0.17717X0.18110*%
%ADD66C,0.00630*%
%ADD67C,0.03150*%
%ADD68C,0.00984*%
%ADD69C,0.01968*%
%ADD70C,0.03937*%
%ADD71C,0.04724*%
%ADD72R,0.05512X0.07257*%
%ADD73C,0.05118*%
%ADD74C,0.07874*%
%ADD75R,0.06000X0.06000*%
%ADD76C,0.06000*%
%ADD77C,0.13055*%
%ADD78R,0.05543X0.05543*%
%ADD79C,0.05543*%
%ADD80C,0.07480*%
%ADD81C,0.06299*%
%ADD82C,0.04331*%
%ADD83C,0.02756*%
G36*
X534678Y190051D02*
X534371Y189846D01*
X534326Y189801D01*
X534274Y189766D01*
X533396Y188889D01*
X533361Y188836D01*
X533316Y188791D01*
X532627Y187760D01*
X532603Y187701D01*
X532568Y187648D01*
X532093Y186502D01*
X532080Y186440D01*
X532056Y186382D01*
X531814Y185165D01*
Y185101D01*
X531802Y185039D01*
Y183799D01*
X531814Y183737D01*
Y183673D01*
X532056Y182456D01*
X532080Y182398D01*
X532093Y182336D01*
X532568Y181189D01*
X532603Y181137D01*
X532627Y181078D01*
X533316Y180047D01*
X533361Y180002D01*
X533396Y179949D01*
X534274Y179072D01*
X534326Y179037D01*
X534371Y178992D01*
X535403Y178303D01*
X535461Y178278D01*
X535514Y178243D01*
X536660Y177769D01*
X536722Y177756D01*
X536781Y177732D01*
X537998Y177490D01*
X538061D01*
X538123Y177478D01*
X539364D01*
X539426Y177490D01*
X539489D01*
X540706Y177732D01*
X540764Y177756D01*
X540827Y177769D01*
X541973Y178243D01*
X542026Y178278D01*
X542084Y178303D01*
X543116Y178992D01*
X543160Y179037D01*
X543213Y179072D01*
X544090Y179949D01*
X544126Y180002D01*
X544170Y180047D01*
X544382Y180363D01*
X544882Y180212D01*
Y16565D01*
X544382Y16414D01*
X544010Y16971D01*
X543965Y17016D01*
X543930Y17068D01*
X543052Y17945D01*
X543000Y17981D01*
X542955Y18025D01*
X541923Y18715D01*
X541865Y18739D01*
X541812Y18774D01*
X540666Y19249D01*
X540604Y19261D01*
X540545Y19286D01*
X539328Y19528D01*
X539265D01*
X539203Y19540D01*
X537962D01*
X537900Y19528D01*
X537837D01*
X536620Y19286D01*
X536561Y19261D01*
X536500Y19249D01*
X535353Y18774D01*
X535300Y18739D01*
X535242Y18715D01*
X534210Y18025D01*
X534166Y17981D01*
X534113Y17945D01*
X533236Y17068D01*
X533201Y17016D01*
X533156Y16971D01*
X532466Y15939D01*
X532442Y15881D01*
X532407Y15828D01*
X531932Y14682D01*
X531920Y14620D01*
X531896Y14561D01*
X531653Y13344D01*
Y13281D01*
X531641Y13219D01*
Y11978D01*
X531653Y11916D01*
Y11853D01*
X531896Y10636D01*
X531920Y10577D01*
X531932Y10515D01*
X532407Y9369D01*
X532442Y9316D01*
X532466Y9258D01*
X533156Y8226D01*
X533201Y8181D01*
X533236Y8129D01*
X534113Y7251D01*
X534166Y7216D01*
X534210Y7171D01*
X534767Y6799D01*
X534616Y6299D01*
X443046D01*
X443014Y6347D01*
X442786Y6799D01*
X442924Y7847D01*
X442774Y8988D01*
X442334Y10051D01*
X441633Y10964D01*
X441086Y11384D01*
X441148Y11723D01*
X441240Y11896D01*
X441546Y11957D01*
X441859Y12166D01*
X448319Y18626D01*
X448528Y18939D01*
X448579Y19194D01*
X449036Y19489D01*
X449217Y19368D01*
X450000Y19213D01*
X450783Y19368D01*
X450992Y19508D01*
X451305Y19266D01*
X451382Y19167D01*
X451233Y18418D01*
X451389Y17635D01*
X451832Y16971D01*
X452497Y16527D01*
X453280Y16371D01*
X454064Y16527D01*
X454728Y16971D01*
X455171Y17635D01*
X455327Y18418D01*
X455171Y19202D01*
X454728Y19866D01*
X454244Y20189D01*
Y32103D01*
X462820Y40679D01*
X463028Y40992D01*
X463102Y41360D01*
Y88317D01*
X463543Y88553D01*
X463717Y88436D01*
X464501Y88280D01*
X465284Y88436D01*
X465458Y88553D01*
X465899Y88317D01*
Y77527D01*
X465580Y77314D01*
X465214Y76767D01*
X465086Y76122D01*
X465214Y75476D01*
X465510Y75034D01*
X465551Y74704D01*
X465510Y74375D01*
X465214Y73932D01*
X465086Y73287D01*
X465214Y72642D01*
X465510Y72199D01*
X465551Y71870D01*
X465510Y71540D01*
X465214Y71097D01*
X465086Y70452D01*
X465214Y69807D01*
X465510Y69365D01*
X465551Y69035D01*
X465510Y68705D01*
X465214Y68263D01*
X465086Y67618D01*
X465214Y66973D01*
X465510Y66530D01*
X465551Y66200D01*
X465510Y65871D01*
X465214Y65428D01*
X465086Y64783D01*
X465214Y64138D01*
X465510Y63695D01*
X465551Y63366D01*
X465510Y63036D01*
X465214Y62594D01*
X465086Y61948D01*
X465214Y61303D01*
X465510Y60861D01*
X465551Y60531D01*
X465510Y60202D01*
X465214Y59759D01*
X465086Y59114D01*
X465214Y58469D01*
X465580Y57922D01*
X465899Y57708D01*
Y55584D01*
X465973Y55215D01*
X466182Y54902D01*
X471496Y49588D01*
X471809Y49379D01*
X472178Y49305D01*
X474876D01*
X474989Y49137D01*
X475327Y48911D01*
X475727Y48831D01*
X477538D01*
Y47390D01*
X477611Y47021D01*
X477820Y46709D01*
X491490Y33039D01*
Y31111D01*
X490738Y30799D01*
X490027Y30254D01*
X489482Y29543D01*
X489139Y28716D01*
X489022Y27828D01*
X489139Y26940D01*
X489482Y26112D01*
X490027Y25402D01*
X490738Y24857D01*
X491565Y24514D01*
X492453Y24397D01*
X493341Y24514D01*
X494169Y24857D01*
X494879Y25402D01*
X495425Y26112D01*
X495767Y26940D01*
X495884Y27828D01*
X495767Y28716D01*
X495425Y29543D01*
X494879Y30254D01*
X494169Y30799D01*
X493417Y31111D01*
Y33438D01*
X493343Y33807D01*
X493135Y34119D01*
X479465Y47789D01*
Y48831D01*
X481276D01*
X481676Y48911D01*
X482014Y49137D01*
X482240Y49476D01*
X482320Y49875D01*
Y50662D01*
X482240Y51062D01*
X482014Y51400D01*
X481676Y51627D01*
X481276Y51706D01*
X475727D01*
X475327Y51627D01*
X474989Y51400D01*
X474876Y51232D01*
X472876D01*
X472789Y51377D01*
X473036Y51936D01*
X473453Y52019D01*
X474118Y52463D01*
X474353Y52816D01*
X475081D01*
X475327Y52651D01*
X475727Y52571D01*
X481276D01*
X481676Y52651D01*
X482014Y52877D01*
X482240Y53216D01*
X482320Y53615D01*
Y54403D01*
X482240Y54802D01*
X482014Y55141D01*
X481676Y55367D01*
X481276Y55446D01*
X475727D01*
X475327Y55367D01*
X474989Y55141D01*
X474964Y55104D01*
X474287D01*
X474118Y55358D01*
X473453Y55802D01*
X472670Y55958D01*
X471886Y55802D01*
X471222Y55358D01*
X470779Y54694D01*
X470623Y53910D01*
X470627Y53889D01*
X470166Y53643D01*
X467826Y55983D01*
Y58314D01*
X467828D01*
X467748Y58718D01*
X467912Y59191D01*
X468134Y59339D01*
X468655Y59220D01*
X470808Y57068D01*
X471120Y56859D01*
X471489Y56786D01*
X474876D01*
X474989Y56617D01*
X475327Y56391D01*
X475727Y56312D01*
X481276D01*
X481676Y56391D01*
X482014Y56617D01*
X482236Y56949D01*
X483146D01*
X483515Y57022D01*
X483827Y57231D01*
X484019Y57423D01*
X484507Y57203D01*
X484556Y56956D01*
X484782Y56617D01*
X485121Y56391D01*
X485520Y56312D01*
X491070D01*
X491469Y56391D01*
X491808Y56617D01*
X492034Y56956D01*
X492114Y57355D01*
Y57692D01*
X492614Y57900D01*
X499364Y51149D01*
Y31111D01*
X498612Y30799D01*
X497901Y30254D01*
X497356Y29543D01*
X497013Y28716D01*
X496896Y27828D01*
X497013Y26940D01*
X497356Y26112D01*
X497901Y25402D01*
X498612Y24857D01*
X499439Y24514D01*
X500327Y24397D01*
X501215Y24514D01*
X502043Y24857D01*
X502753Y25402D01*
X503299Y26112D01*
X503641Y26940D01*
X503758Y27828D01*
X503641Y28716D01*
X503299Y29543D01*
X502753Y30254D01*
X502043Y30799D01*
X501291Y31111D01*
Y51548D01*
X501217Y51917D01*
X501009Y52229D01*
X492898Y60340D01*
X492586Y60549D01*
X492217Y60622D01*
X484892D01*
X484524Y60549D01*
X484211Y60340D01*
X482747Y58876D01*
X482018D01*
X482014Y58881D01*
X481676Y59107D01*
X481276Y59186D01*
X475727D01*
X475327Y59107D01*
X474989Y58881D01*
X474876Y58712D01*
X471888D01*
X470188Y60412D01*
Y77078D01*
X470688Y77230D01*
X470730Y77167D01*
X471394Y76724D01*
X472178Y76568D01*
X472961Y76724D01*
X473625Y77167D01*
X474069Y77832D01*
X474225Y78615D01*
X474154Y78973D01*
X479483Y84302D01*
X479731Y84673D01*
X479818Y85111D01*
Y91666D01*
X493520D01*
Y91296D01*
X494095D01*
Y87504D01*
X494095Y87317D01*
X494011Y87292D01*
Y87292D01*
X493623Y87174D01*
X493448Y87385D01*
X493285Y87494D01*
X492946Y87720D01*
X492355Y87838D01*
X490583D01*
X489992Y87720D01*
X489491Y87385D01*
X489155Y86884D01*
X489000Y86819D01*
X488579Y87101D01*
X487795Y87257D01*
X487012Y87101D01*
X486348Y86657D01*
X485904Y85993D01*
X485748Y85210D01*
X485904Y84426D01*
X486348Y83762D01*
X487012Y83318D01*
X487795Y83162D01*
X488579Y83318D01*
X489000Y83600D01*
X489155Y83535D01*
X489491Y83034D01*
X489992Y82699D01*
X490583Y82582D01*
X492355D01*
X492946Y82699D01*
X493448Y83034D01*
X493783Y83535D01*
X493900Y84127D01*
Y86267D01*
X493900Y86292D01*
X493900Y86310D01*
X494260Y86717D01*
X494572Y86321D01*
X494566Y86292D01*
Y85710D01*
X497375D01*
X500183D01*
Y86292D01*
X500130Y86560D01*
X500540Y87060D01*
X502772D01*
X503182Y86560D01*
X503129Y86292D01*
Y85710D01*
X508746D01*
Y86292D01*
X508600Y87028D01*
X508268Y87525D01*
Y91296D01*
X508709D01*
Y101170D01*
X504619D01*
X504250Y101670D01*
X504343Y102139D01*
X504187Y102922D01*
X503744Y103586D01*
X503079Y104030D01*
X502296Y104186D01*
X501512Y104030D01*
X500848Y103586D01*
X500405Y102922D01*
X500249Y102139D01*
X500342Y101670D01*
X499973Y101170D01*
X495170D01*
X494801Y101670D01*
X494894Y102139D01*
X494738Y102922D01*
X494295Y103586D01*
X493631Y104030D01*
X492847Y104186D01*
X492064Y104030D01*
X491449Y103620D01*
X491219Y103677D01*
X490949Y103813D01*
Y105769D01*
X490824Y106399D01*
X490468Y106933D01*
X484507Y112894D01*
X491048Y119435D01*
X491405Y119969D01*
X491530Y120599D01*
Y123950D01*
X494111D01*
Y123580D01*
X495300D01*
Y128517D01*
X496300D01*
Y123580D01*
X497662D01*
Y128517D01*
Y133454D01*
X495761D01*
X495392Y133954D01*
X495485Y134422D01*
X495329Y135206D01*
X494885Y135870D01*
X494221Y136314D01*
X493438Y136469D01*
X492654Y136314D01*
X491990Y135870D01*
X491546Y135206D01*
X491390Y134422D01*
X491546Y133639D01*
X491622Y133525D01*
X491387Y133084D01*
X488402D01*
X488166Y133525D01*
X488242Y133639D01*
X488398Y134422D01*
X488242Y135206D01*
X487799Y135870D01*
X487134Y136314D01*
X486351Y136469D01*
X485568Y136314D01*
X484903Y135870D01*
X484460Y135206D01*
X484304Y134422D01*
X484460Y133639D01*
X484536Y133525D01*
X484300Y133084D01*
X471866D01*
X471631Y133525D01*
X471707Y133639D01*
X471863Y134422D01*
X471707Y135206D01*
X471263Y135870D01*
X470599Y136314D01*
X469815Y136469D01*
X469032Y136314D01*
X468368Y135870D01*
X467924Y135206D01*
X467768Y134422D01*
X467924Y133639D01*
X468001Y133525D01*
X467765Y133084D01*
X467142D01*
X466906Y133525D01*
X466983Y133639D01*
X467138Y134422D01*
X466983Y135206D01*
X466539Y135870D01*
X465875Y136314D01*
X465091Y136469D01*
X464308Y136314D01*
X463644Y135870D01*
X463200Y135206D01*
X463044Y134422D01*
X463200Y133639D01*
X463276Y133525D01*
X463040Y133084D01*
X452969D01*
X452733Y133525D01*
X452809Y133639D01*
X452965Y134422D01*
X452809Y135206D01*
X452365Y135870D01*
X451701Y136314D01*
X450918Y136469D01*
X450135Y136314D01*
X449470Y135870D01*
X449026Y135206D01*
X448871Y134422D01*
X449026Y133639D01*
X449103Y133525D01*
X448867Y133084D01*
X445882D01*
X445646Y133525D01*
X445723Y133639D01*
X445879Y134422D01*
X445723Y135206D01*
X445279Y135870D01*
X444615Y136314D01*
X443831Y136469D01*
X443048Y136314D01*
X442384Y135870D01*
X441940Y135206D01*
X441784Y134422D01*
X441940Y133639D01*
X442016Y133525D01*
X441781Y133084D01*
X438796D01*
X438560Y133525D01*
X438636Y133639D01*
X438792Y134422D01*
X438636Y135206D01*
X438192Y135870D01*
X437528Y136314D01*
X436745Y136469D01*
X435961Y136314D01*
X435297Y135870D01*
X434853Y135206D01*
X434697Y134422D01*
X434853Y133639D01*
X434930Y133525D01*
X434694Y133084D01*
X431709D01*
X431473Y133525D01*
X431549Y133639D01*
X431705Y134422D01*
X431549Y135206D01*
X431106Y135870D01*
X430442Y136314D01*
X429658Y136469D01*
X428875Y136314D01*
X428210Y135870D01*
X427767Y135206D01*
X427611Y134422D01*
X427767Y133639D01*
X427843Y133525D01*
X427607Y133084D01*
X417536D01*
X417300Y133525D01*
X417376Y133639D01*
X417532Y134422D01*
X417376Y135206D01*
X416932Y135870D01*
X416268Y136314D01*
X415485Y136469D01*
X414701Y136314D01*
X414037Y135870D01*
X413593Y135206D01*
X413438Y134422D01*
X413593Y133639D01*
X413670Y133525D01*
X413434Y133084D01*
X410449D01*
X410213Y133525D01*
X410290Y133639D01*
X410445Y134422D01*
X410290Y135206D01*
X409846Y135870D01*
X409182Y136314D01*
X408398Y136469D01*
X407615Y136314D01*
X406951Y135870D01*
X406507Y135206D01*
X406351Y134422D01*
X406507Y133639D01*
X406583Y133525D01*
X406347Y133084D01*
X403362D01*
X403127Y133525D01*
X403203Y133639D01*
X403359Y134422D01*
X403203Y135206D01*
X402759Y135870D01*
X402095Y136314D01*
X401312Y136469D01*
X400528Y136314D01*
X399864Y135870D01*
X399420Y135206D01*
X399264Y134422D01*
X399420Y133639D01*
X399497Y133525D01*
X399261Y133084D01*
X396276D01*
X396040Y133525D01*
X396116Y133639D01*
X396272Y134422D01*
X396116Y135206D01*
X395673Y135870D01*
X395008Y136314D01*
X394225Y136469D01*
X393442Y136314D01*
X392777Y135870D01*
X392334Y135206D01*
X392178Y134422D01*
X392334Y133639D01*
X392410Y133525D01*
X392174Y133084D01*
X389189D01*
X388953Y133525D01*
X389030Y133639D01*
X389186Y134422D01*
X389030Y135206D01*
X388586Y135870D01*
X387922Y136314D01*
X387138Y136469D01*
X386355Y136314D01*
X385691Y135870D01*
X385247Y135206D01*
X385091Y134422D01*
X385247Y133639D01*
X385323Y133525D01*
X385088Y133084D01*
X382103D01*
X381867Y133525D01*
X381943Y133639D01*
X382099Y134422D01*
X381943Y135206D01*
X381499Y135870D01*
X380835Y136314D01*
X380052Y136469D01*
X379268Y136314D01*
X378604Y135870D01*
X378160Y135206D01*
X378005Y134422D01*
X378160Y133639D01*
X378237Y133525D01*
X378001Y133084D01*
X375016D01*
X374780Y133525D01*
X374856Y133639D01*
X375012Y134422D01*
X374856Y135206D01*
X374413Y135870D01*
X373749Y136314D01*
X372965Y136469D01*
X372182Y136314D01*
X371517Y135870D01*
X371074Y135206D01*
X370918Y134422D01*
X371074Y133639D01*
X371150Y133525D01*
X370914Y133084D01*
X367929D01*
X367694Y133525D01*
X367770Y133639D01*
X367926Y134422D01*
X367770Y135206D01*
X367326Y135870D01*
X366662Y136314D01*
X365879Y136469D01*
X365095Y136314D01*
X364431Y135870D01*
X363987Y135206D01*
X363831Y134422D01*
X363987Y133639D01*
X364064Y133525D01*
X363828Y133084D01*
X360843D01*
X360607Y133525D01*
X360683Y133639D01*
X360839Y134422D01*
X360683Y135206D01*
X360240Y135870D01*
X359575Y136314D01*
X358792Y136469D01*
X358009Y136314D01*
X357344Y135870D01*
X356901Y135206D01*
X356745Y134422D01*
X356901Y133639D01*
X356977Y133525D01*
X356741Y133084D01*
X353756D01*
X353520Y133525D01*
X353597Y133639D01*
X353752Y134422D01*
X353597Y135206D01*
X353153Y135870D01*
X352489Y136314D01*
X351705Y136469D01*
X350922Y136314D01*
X350258Y135870D01*
X349814Y135206D01*
X349658Y134422D01*
X349814Y133639D01*
X349890Y133525D01*
X349655Y133084D01*
X346670D01*
X346434Y133525D01*
X346510Y133639D01*
X346666Y134422D01*
X346510Y135206D01*
X346066Y135870D01*
X345402Y136314D01*
X344619Y136469D01*
X343835Y136314D01*
X343171Y135870D01*
X342727Y135206D01*
X342571Y134422D01*
X342727Y133639D01*
X342804Y133525D01*
X342568Y133084D01*
X339583D01*
X339347Y133525D01*
X339423Y133639D01*
X339579Y134422D01*
X339423Y135206D01*
X338980Y135870D01*
X338316Y136314D01*
X337532Y136469D01*
X336749Y136314D01*
X336085Y135870D01*
X335641Y135206D01*
X335485Y134422D01*
X335641Y133639D01*
X335717Y133525D01*
X335481Y133084D01*
X332496D01*
X332260Y133525D01*
X332337Y133639D01*
X332493Y134422D01*
X332337Y135206D01*
X331893Y135870D01*
X331229Y136314D01*
X330446Y136469D01*
X329662Y136314D01*
X328998Y135870D01*
X328554Y135206D01*
X328398Y134422D01*
X328554Y133639D01*
X328630Y133525D01*
X328395Y133084D01*
X325410D01*
X325174Y133525D01*
X325250Y133639D01*
X325406Y134422D01*
X325250Y135206D01*
X324806Y135870D01*
X324142Y136314D01*
X323359Y136469D01*
X322575Y136314D01*
X321911Y135870D01*
X321467Y135206D01*
X321312Y134422D01*
X321405Y133954D01*
X321036Y133454D01*
X319308D01*
Y129017D01*
X320997D01*
Y128517D01*
X321497D01*
Y123580D01*
X322686D01*
Y123950D01*
X374183D01*
Y122768D01*
X374270Y122330D01*
X374518Y121959D01*
X376501Y119977D01*
X376872Y119729D01*
X377310Y119642D01*
X381452D01*
X381655Y119339D01*
X382319Y118895D01*
X383103Y118739D01*
X383886Y118895D01*
X384550Y119339D01*
X384994Y120003D01*
X385150Y120786D01*
X384994Y121570D01*
X384550Y122234D01*
X383886Y122677D01*
X383103Y122833D01*
X382319Y122677D01*
X381655Y122234D01*
X381452Y121930D01*
X377783D01*
X376471Y123242D01*
Y123950D01*
X470127D01*
X470363Y123509D01*
X470286Y123395D01*
X470130Y122611D01*
X470286Y121828D01*
X470730Y121164D01*
X471394Y120720D01*
X472178Y120564D01*
X472961Y120720D01*
X473625Y121164D01*
X474069Y121828D01*
X474225Y122611D01*
X474069Y123395D01*
X473993Y123509D01*
X474228Y123950D01*
X488238D01*
Y121281D01*
X482639Y115682D01*
X482560Y115717D01*
X482227Y115976D01*
X482362Y116656D01*
X482206Y117439D01*
X481763Y118103D01*
X481098Y118547D01*
X480315Y118703D01*
X479531Y118547D01*
X478867Y118103D01*
X478424Y117439D01*
X478364Y117138D01*
X379111D01*
X378648Y117601D01*
X378114Y117957D01*
X377484Y118083D01*
X374549D01*
X373919Y117957D01*
X373385Y117601D01*
X372922Y117138D01*
X269737D01*
X264635Y122239D01*
X264101Y122596D01*
X263471Y122722D01*
X241028D01*
X240678Y123071D01*
X240592Y123505D01*
X240148Y124169D01*
X239484Y124613D01*
X238700Y124769D01*
X237917Y124613D01*
X237253Y124169D01*
X236809Y123505D01*
X236723Y123071D01*
X236373Y122722D01*
X125853D01*
X101404Y147170D01*
Y155505D01*
X103931D01*
Y162276D01*
X99758D01*
Y165741D01*
X103931D01*
Y172512D01*
X99758D01*
Y184366D01*
X126628D01*
X132398Y178596D01*
Y155118D01*
X132569Y154258D01*
X133056Y153529D01*
X141685Y144899D01*
X142415Y144412D01*
X143275Y144241D01*
X148314D01*
Y142316D01*
X155086D01*
Y150662D01*
X154046D01*
Y153727D01*
X154487Y153963D01*
X154657Y153849D01*
X155440Y153693D01*
X156223Y153849D01*
X156888Y154293D01*
X157331Y154957D01*
X157487Y155741D01*
X157331Y156524D01*
X156888Y157188D01*
X156584Y157391D01*
Y158111D01*
X156826Y158272D01*
X157039Y158592D01*
X157310Y158629D01*
X157581Y158592D01*
X157794Y158272D01*
X158182Y158013D01*
X158639Y157922D01*
X159722D01*
X160178Y158013D01*
X160566Y158272D01*
X160825Y158660D01*
X160846Y158768D01*
X163865D01*
X164725Y158940D01*
X165455Y159427D01*
X166509Y160481D01*
X167152D01*
X167250Y160415D01*
X167841Y160298D01*
X170007D01*
X170598Y160415D01*
X170697Y160481D01*
X174267D01*
Y156430D01*
X174392Y155800D01*
X174749Y155266D01*
X175283Y154909D01*
X175912Y154784D01*
X181818D01*
X182448Y154909D01*
X182982Y155266D01*
X183338Y155800D01*
X183464Y156430D01*
Y169028D01*
X183338Y169658D01*
X182982Y170192D01*
X182448Y170549D01*
X181818Y170674D01*
X175912D01*
X175283Y170549D01*
X174749Y170192D01*
X174392Y169658D01*
X174267Y169028D01*
Y164977D01*
X170697D01*
X170598Y165043D01*
X170007Y165160D01*
X167841D01*
X167250Y165043D01*
X167152Y164977D01*
X165578D01*
X164717Y164806D01*
X163988Y164318D01*
X162934Y163264D01*
X160846D01*
X160825Y163373D01*
X160566Y163760D01*
X160178Y164019D01*
X159722Y164110D01*
X158639D01*
X158182Y164019D01*
X157794Y163760D01*
X157581Y163441D01*
X157310Y163404D01*
X157039Y163441D01*
X156826Y163760D01*
X156438Y164019D01*
X155981Y164110D01*
X154899D01*
X154442Y164019D01*
X154054Y163760D01*
X153841Y163441D01*
X153570Y163404D01*
X153299Y163441D01*
X153086Y163760D01*
X152698Y164019D01*
X152241Y164110D01*
X151158D01*
X150701Y164019D01*
X150314Y163760D01*
X150055Y163373D01*
X149964Y162916D01*
Y162003D01*
X146619D01*
X146533Y162434D01*
X146198Y162936D01*
X145697Y163271D01*
X145105Y163389D01*
X142940D01*
X142349Y163271D01*
X141847Y162936D01*
X141512Y162434D01*
X141395Y161843D01*
Y160071D01*
X141512Y159480D01*
X141847Y158979D01*
X142349Y158644D01*
X142940Y158526D01*
X145105D01*
X145697Y158644D01*
X146198Y158979D01*
X146533Y159480D01*
X146580Y159715D01*
X149964D01*
Y159117D01*
X150055Y158660D01*
X150314Y158272D01*
X150556Y158111D01*
Y157365D01*
X150209Y157133D01*
X149722Y156404D01*
X149550Y155544D01*
Y150662D01*
X148314D01*
Y148737D01*
X144206D01*
X136894Y156049D01*
Y179528D01*
X136723Y180388D01*
X136235Y181117D01*
X134646Y182707D01*
Y190551D01*
X534526D01*
X534678Y190051D01*
D02*
G37*
G36*
X487658Y105087D02*
Y103813D01*
X487389Y103677D01*
X487158Y103620D01*
X486544Y104030D01*
X485760Y104186D01*
X484977Y104030D01*
X484313Y103586D01*
X483869Y102922D01*
X483713Y102139D01*
X483869Y101355D01*
X483945Y101241D01*
X483710Y100800D01*
X473638D01*
X473402Y101241D01*
X473479Y101355D01*
X473634Y102139D01*
X473479Y102922D01*
X473035Y103586D01*
X472371Y104030D01*
X471587Y104186D01*
X470804Y104030D01*
X470140Y103586D01*
X469696Y102922D01*
X469540Y102139D01*
X469696Y101355D01*
X469772Y101241D01*
X469536Y100800D01*
X335723D01*
Y102743D01*
X335636Y103181D01*
X335388Y103552D01*
X328154Y110786D01*
X328345Y111248D01*
X374865D01*
X375233Y111002D01*
X376016Y110846D01*
X376800Y111002D01*
X377167Y111248D01*
X481497D01*
X487658Y105087D01*
D02*
G37*
G36*
X218244Y103522D02*
X218615Y103274D01*
X219053Y103187D01*
X261960D01*
X262167Y102687D01*
X260670Y101190D01*
X260461Y100877D01*
X260446Y100800D01*
X257670D01*
Y91861D01*
X257541Y91775D01*
X257097Y91111D01*
X256942Y90328D01*
X257097Y89544D01*
X257541Y88880D01*
X258205Y88436D01*
X258989Y88280D01*
X259772Y88436D01*
X260436Y88880D01*
X260880Y89544D01*
X261036Y90328D01*
X260880Y91111D01*
X260804Y91225D01*
X261040Y91666D01*
X264025D01*
X264260Y91225D01*
X264184Y91111D01*
X264028Y90328D01*
X264184Y89544D01*
X264628Y88880D01*
X265292Y88436D01*
X266075Y88280D01*
X266859Y88436D01*
X267523Y88880D01*
X267967Y89544D01*
X268123Y90328D01*
X267967Y91111D01*
X267891Y91225D01*
X268126Y91666D01*
X271111D01*
X271347Y91225D01*
X271271Y91111D01*
X271115Y90328D01*
X271271Y89544D01*
X271714Y88880D01*
X272379Y88436D01*
X273162Y88280D01*
X273945Y88436D01*
X274610Y88880D01*
X275053Y89544D01*
X275209Y90328D01*
X275053Y91111D01*
X274977Y91225D01*
X275213Y91666D01*
X278198D01*
X278433Y91225D01*
X278357Y91111D01*
X278201Y90328D01*
X278357Y89544D01*
X278801Y88880D01*
X279465Y88436D01*
X280249Y88280D01*
X281032Y88436D01*
X281696Y88880D01*
X282140Y89544D01*
X282296Y90328D01*
X282140Y91111D01*
X282064Y91225D01*
X282299Y91666D01*
X285284D01*
X285520Y91225D01*
X285444Y91111D01*
X285288Y90328D01*
X285444Y89544D01*
X285888Y88880D01*
X286552Y88436D01*
X287335Y88280D01*
X288119Y88436D01*
X288783Y88880D01*
X289227Y89544D01*
X289382Y90328D01*
X289227Y91111D01*
X289150Y91225D01*
X289386Y91666D01*
X292371D01*
X292607Y91225D01*
X292530Y91111D01*
X292375Y90328D01*
X292530Y89544D01*
X292974Y88880D01*
X293638Y88436D01*
X294422Y88280D01*
X295205Y88436D01*
X295869Y88880D01*
X296313Y89544D01*
X296469Y90328D01*
X296313Y91111D01*
X296237Y91225D01*
X296473Y91666D01*
X299458D01*
X299693Y91225D01*
X299617Y91111D01*
X299461Y90328D01*
X299617Y89544D01*
X300061Y88880D01*
X300725Y88436D01*
X301508Y88280D01*
X302292Y88436D01*
X302956Y88880D01*
X303400Y89544D01*
X303556Y90328D01*
X303463Y90796D01*
X303832Y91296D01*
X305560D01*
Y95733D01*
X303871D01*
Y96733D01*
X305560D01*
Y98830D01*
X306022Y99022D01*
X308249Y96794D01*
Y66679D01*
X308323Y66310D01*
X308531Y65997D01*
X318202Y56327D01*
X318515Y56118D01*
X318883Y56045D01*
X324822D01*
X324961Y55732D01*
X325004Y55545D01*
X324585Y54917D01*
X324429Y54134D01*
X324585Y53350D01*
X325029Y52686D01*
X325693Y52242D01*
X326476Y52087D01*
X327260Y52242D01*
X327924Y52686D01*
X328127Y52990D01*
X331157D01*
X331307Y52764D01*
X331597Y52570D01*
X331939Y52503D01*
X336171D01*
X336513Y52570D01*
X336803Y52764D01*
X336996Y53054D01*
X337064Y53396D01*
Y54872D01*
X337283Y55139D01*
X342508D01*
X342531Y55022D01*
X342725Y54733D01*
X343015Y54539D01*
X343356Y54471D01*
X347589D01*
X347930Y54539D01*
X348220Y54733D01*
X348414Y55022D01*
X348482Y55364D01*
Y56840D01*
X348414Y57182D01*
X348220Y57472D01*
X347930Y57666D01*
X347589Y57734D01*
X343356D01*
X343015Y57666D01*
X342725Y57472D01*
X342531Y57182D01*
X342508Y57066D01*
X337283D01*
X337064Y57333D01*
Y58809D01*
X336996Y59151D01*
X336803Y59441D01*
X336513Y59634D01*
X336171Y59702D01*
X331939D01*
X331597Y59634D01*
X331307Y59441D01*
X331103Y59421D01*
X329979Y60545D01*
X330187Y61045D01*
X331091D01*
X331114Y60928D01*
X331307Y60638D01*
X331597Y60444D01*
X331939Y60377D01*
X336171D01*
X336513Y60444D01*
X336803Y60638D01*
X336996Y60928D01*
X337064Y61270D01*
Y62746D01*
X337283Y63013D01*
X342508D01*
X342531Y62896D01*
X342725Y62607D01*
X343015Y62413D01*
X343356Y62345D01*
X347589D01*
X347930Y62413D01*
X348220Y62607D01*
X348414Y62896D01*
X348482Y63238D01*
Y64715D01*
X348414Y65056D01*
X348220Y65346D01*
X347930Y65540D01*
X347589Y65608D01*
X343356D01*
X343015Y65540D01*
X342725Y65346D01*
X342531Y65056D01*
X342508Y64940D01*
X337661D01*
X337442Y65207D01*
Y65445D01*
X334055D01*
X330668D01*
Y65207D01*
X330449Y64940D01*
X317659D01*
X313955Y68643D01*
Y98758D01*
X313882Y99127D01*
X313673Y99440D01*
X307045Y106068D01*
X306733Y106277D01*
X306364Y106350D01*
X266774D01*
X266567Y106850D01*
X267746Y108029D01*
X325392D01*
X331073Y102348D01*
Y100800D01*
X322095D01*
Y101170D01*
X320906D01*
Y96233D01*
X320406D01*
Y95733D01*
X318717D01*
Y91296D01*
X320445D01*
X320814Y90796D01*
X320721Y90328D01*
X320877Y89544D01*
X321321Y88880D01*
X321985Y88436D01*
X322768Y88280D01*
X323552Y88436D01*
X324216Y88880D01*
X324660Y89544D01*
X324816Y90328D01*
X324660Y91111D01*
X324583Y91225D01*
X324819Y91666D01*
X327804D01*
X328040Y91225D01*
X327963Y91111D01*
X327808Y90328D01*
X327963Y89544D01*
X328407Y88880D01*
X329071Y88436D01*
X329855Y88280D01*
X330638Y88436D01*
X331302Y88880D01*
X331746Y89544D01*
X331902Y90328D01*
X331746Y91111D01*
X331670Y91225D01*
X331906Y91666D01*
X334891D01*
X335126Y91225D01*
X335050Y91111D01*
X334894Y90328D01*
X335050Y89544D01*
X335494Y88880D01*
X336158Y88436D01*
X336942Y88280D01*
X337725Y88436D01*
X338389Y88880D01*
X338833Y89544D01*
X338989Y90328D01*
X338833Y91111D01*
X338757Y91225D01*
X338992Y91666D01*
X341977D01*
X342213Y91225D01*
X342137Y91111D01*
X341981Y90328D01*
X342137Y89544D01*
X342581Y88880D01*
X343245Y88436D01*
X344028Y88280D01*
X344812Y88436D01*
X345476Y88880D01*
X345919Y89544D01*
X346075Y90328D01*
X345919Y91111D01*
X345843Y91225D01*
X346079Y91666D01*
X349064D01*
X349300Y91225D01*
X349223Y91111D01*
X349067Y90328D01*
X349223Y89544D01*
X349667Y88880D01*
X350331Y88436D01*
X351115Y88280D01*
X351898Y88436D01*
X352562Y88880D01*
X353006Y89544D01*
X353162Y90328D01*
X353006Y91111D01*
X352930Y91225D01*
X353166Y91666D01*
X356151D01*
X356386Y91225D01*
X356310Y91111D01*
X356154Y90328D01*
X356310Y89544D01*
X356754Y88880D01*
X357418Y88436D01*
X358201Y88280D01*
X358985Y88436D01*
X359649Y88880D01*
X360093Y89544D01*
X360249Y90328D01*
X360093Y91111D01*
X360016Y91225D01*
X360252Y91666D01*
X363237D01*
X363473Y91225D01*
X363397Y91111D01*
X363241Y90328D01*
X363397Y89544D01*
X363840Y88880D01*
X364505Y88436D01*
X365288Y88280D01*
X366071Y88436D01*
X366736Y88880D01*
X367179Y89544D01*
X367335Y90328D01*
X367179Y91111D01*
X367103Y91225D01*
X367339Y91666D01*
X370324D01*
X370560Y91225D01*
X370483Y91111D01*
X370327Y90328D01*
X370483Y89544D01*
X370927Y88880D01*
X371591Y88436D01*
X372375Y88280D01*
X373158Y88436D01*
X373822Y88880D01*
X374266Y89544D01*
X374422Y90328D01*
X374266Y91111D01*
X374190Y91225D01*
X374425Y91666D01*
X377410D01*
X377646Y91225D01*
X377570Y91111D01*
X377414Y90328D01*
X377570Y89544D01*
X378014Y88880D01*
X378678Y88436D01*
X379461Y88280D01*
X380245Y88436D01*
X380909Y88880D01*
X381353Y89544D01*
X381508Y90328D01*
X381353Y91111D01*
X381276Y91225D01*
X381512Y91666D01*
X384497D01*
X384733Y91225D01*
X384656Y91111D01*
X384501Y90328D01*
X384656Y89544D01*
X385100Y88880D01*
X385764Y88436D01*
X386548Y88280D01*
X387331Y88436D01*
X387995Y88880D01*
X388439Y89544D01*
X388595Y90328D01*
X388439Y91111D01*
X388363Y91225D01*
X388599Y91666D01*
X391584D01*
X391819Y91225D01*
X391743Y91111D01*
X391587Y90328D01*
X391743Y89544D01*
X392187Y88880D01*
X392851Y88436D01*
X393634Y88280D01*
X394418Y88436D01*
X395082Y88880D01*
X395526Y89544D01*
X395682Y90328D01*
X395526Y91111D01*
X395449Y91225D01*
X395685Y91666D01*
X398670D01*
X398906Y91225D01*
X398830Y91111D01*
X398674Y90328D01*
X398830Y89544D01*
X399273Y88880D01*
X399507Y88724D01*
Y88224D01*
X399273Y88068D01*
X398830Y87404D01*
X398674Y86620D01*
X398830Y85837D01*
X399273Y85173D01*
X399758Y84849D01*
Y80626D01*
X399317Y80390D01*
X399142Y80506D01*
X398359Y80662D01*
X397575Y80506D01*
X396911Y80063D01*
X396467Y79399D01*
X396312Y78615D01*
X396467Y77832D01*
X396911Y77167D01*
X397395Y76844D01*
Y65244D01*
X396895Y64977D01*
X396780Y65054D01*
X395997Y65210D01*
X395213Y65054D01*
X394549Y64610D01*
X394105Y63946D01*
X393949Y63162D01*
X394105Y62379D01*
X394549Y61715D01*
X395033Y61391D01*
Y59677D01*
X394865Y59564D01*
X394639Y59225D01*
X394559Y58826D01*
Y53276D01*
X394639Y52877D01*
X394865Y52539D01*
X395203Y52312D01*
X395603Y52233D01*
X396390D01*
X396790Y52312D01*
X397128Y52539D01*
X397355Y52877D01*
X397434Y53276D01*
Y58826D01*
X397355Y59225D01*
X397128Y59564D01*
X396960Y59677D01*
Y61391D01*
X397444Y61715D01*
X397888Y62379D01*
X398015Y63017D01*
X398428Y63209D01*
X398527Y63221D01*
X398773Y63034D01*
Y59677D01*
X398605Y59564D01*
X398379Y59225D01*
X398299Y58826D01*
Y53276D01*
X398379Y52877D01*
X398605Y52539D01*
X398534Y52003D01*
X397185Y50655D01*
X396977Y50342D01*
X396790Y49997D01*
X396390Y50076D01*
X395603D01*
X395452Y50046D01*
X395082Y50167D01*
X394914Y50404D01*
X394879Y50578D01*
X394670Y50891D01*
X393529Y52031D01*
X393388Y52539D01*
X393614Y52877D01*
X393694Y53276D01*
Y58826D01*
X393614Y59225D01*
X393388Y59564D01*
X393220Y59677D01*
Y81076D01*
X393704Y81400D01*
X394148Y82064D01*
X394304Y82847D01*
X394148Y83631D01*
X393704Y84295D01*
X393040Y84739D01*
X392256Y84895D01*
X391473Y84739D01*
X390809Y84295D01*
X390365Y83631D01*
X390209Y82847D01*
X390365Y82064D01*
X390809Y81400D01*
X391293Y81076D01*
Y59677D01*
X391125Y59564D01*
X390898Y59225D01*
X390819Y58826D01*
Y53480D01*
X390321Y53271D01*
X387807Y55786D01*
Y74548D01*
X388183Y74623D01*
X388652Y74936D01*
X388966Y75405D01*
X389076Y75958D01*
Y78320D01*
X388966Y78873D01*
X388652Y79342D01*
X388183Y79655D01*
X387631Y79765D01*
X386056D01*
X385503Y79655D01*
X385034Y79342D01*
X385006Y79300D01*
X384327Y79168D01*
X384247Y79222D01*
Y83846D01*
X384550Y84049D01*
X384994Y84713D01*
X385150Y85497D01*
X384994Y86280D01*
X384550Y86944D01*
X383886Y87388D01*
X383103Y87544D01*
X382319Y87388D01*
X381655Y86944D01*
X381212Y86280D01*
X381056Y85497D01*
X381212Y84713D01*
X381655Y84049D01*
X381959Y83846D01*
Y79222D01*
X381879Y79168D01*
X381200Y79300D01*
X381172Y79342D01*
X380703Y79655D01*
X380150Y79765D01*
X378575D01*
X378022Y79655D01*
X377554Y79342D01*
X377240Y78873D01*
X377182Y78582D01*
X376652Y78476D01*
X376578Y78586D01*
X375914Y79030D01*
X375131Y79186D01*
X374347Y79030D01*
X373683Y78586D01*
X373239Y77922D01*
X373083Y77139D01*
X373239Y76355D01*
X373683Y75691D01*
X374347Y75247D01*
X375131Y75091D01*
X375914Y75247D01*
X376578Y75691D01*
X376652Y75801D01*
X377182Y75696D01*
X377240Y75405D01*
X377554Y74936D01*
X378022Y74623D01*
X378575Y74512D01*
X380150D01*
X380703Y74623D01*
X381172Y74936D01*
X381200Y74978D01*
X381879Y75110D01*
X381959Y75056D01*
Y71426D01*
X381763Y71387D01*
X381294Y71074D01*
X380980Y70605D01*
X380870Y70052D01*
Y67690D01*
X380980Y67137D01*
X381294Y66668D01*
X381763Y66355D01*
X382140Y66280D01*
Y64905D01*
X382119D01*
X381527Y64787D01*
X381026Y64452D01*
X380691Y63951D01*
X380573Y63359D01*
Y61194D01*
X380691Y60602D01*
X381026Y60101D01*
X381527Y59766D01*
X382119Y59648D01*
X383890D01*
X384482Y59766D01*
X384983Y60101D01*
X385318Y60602D01*
X385380Y60912D01*
X385880Y60863D01*
Y55387D01*
X385953Y55018D01*
X386162Y54706D01*
X391114Y49754D01*
X390898Y49432D01*
X390819Y49033D01*
Y43483D01*
X390898Y43083D01*
X391125Y42745D01*
X391293Y42632D01*
Y41908D01*
X390197Y40812D01*
X389988Y40500D01*
X389915Y40131D01*
Y35186D01*
X389712Y34882D01*
X389640Y34521D01*
Y27631D01*
X389712Y27270D01*
X389916Y26964D01*
X390036Y26884D01*
X390140Y26362D01*
X390098Y26307D01*
X389791Y26072D01*
X389640Y26103D01*
X388857Y25947D01*
X388192Y25503D01*
X387749Y24839D01*
X387593Y24055D01*
X387749Y23272D01*
X387883Y23071D01*
X387647Y22630D01*
X380908D01*
X380808Y23130D01*
X381271Y23322D01*
X382184Y24022D01*
X382885Y24935D01*
X383325Y25998D01*
X383475Y27139D01*
X383325Y28280D01*
X382885Y29343D01*
X382184Y30255D01*
X381271Y30956D01*
X380208Y31396D01*
X379067Y31547D01*
X377927Y31396D01*
X376864Y30956D01*
X375951Y30255D01*
X375250Y29343D01*
X374810Y28280D01*
X374660Y27139D01*
X374810Y25998D01*
X375250Y24935D01*
X375951Y24022D01*
X376864Y23322D01*
X377327Y23130D01*
X377227Y22630D01*
X376371D01*
X373338Y25662D01*
Y34792D01*
X373265Y35161D01*
X373056Y35473D01*
X355683Y52847D01*
X355370Y53055D01*
X355001Y53129D01*
X348437D01*
X348414Y53245D01*
X348220Y53535D01*
X347930Y53729D01*
X347589Y53797D01*
X343356D01*
X343015Y53729D01*
X342725Y53535D01*
X342531Y53245D01*
X342463Y52903D01*
Y51427D01*
X342244Y51160D01*
X337020D01*
X336996Y51277D01*
X336803Y51567D01*
X336513Y51760D01*
X336171Y51828D01*
X331939D01*
X331597Y51760D01*
X331307Y51567D01*
X331114Y51277D01*
X331046Y50935D01*
Y49459D01*
X331114Y49117D01*
X331307Y48827D01*
X331597Y48634D01*
X331939Y48566D01*
X336171D01*
X336513Y48634D01*
X336803Y48827D01*
X336996Y49117D01*
X337020Y49233D01*
X342244D01*
X342463Y48967D01*
Y47490D01*
X342244Y47223D01*
X337020D01*
X336996Y47340D01*
X336803Y47630D01*
X336513Y47823D01*
X336171Y47891D01*
X331939D01*
X331597Y47823D01*
X331307Y47630D01*
X331114Y47340D01*
X331046Y46998D01*
Y45522D01*
X331114Y45180D01*
X331307Y44890D01*
X331597Y44697D01*
X331939Y44629D01*
X336171D01*
X336513Y44697D01*
X336803Y44890D01*
X336996Y45180D01*
X337020Y45296D01*
X342244D01*
X342463Y45030D01*
Y43553D01*
X342531Y43211D01*
X342725Y42922D01*
X343015Y42728D01*
X343356Y42660D01*
X347589D01*
X347930Y42728D01*
X348220Y42922D01*
X348414Y43211D01*
X348437Y43328D01*
X357131D01*
X358680Y41780D01*
X358488Y41318D01*
X348437D01*
X348414Y41434D01*
X348220Y41724D01*
X347930Y41918D01*
X347589Y41986D01*
X343356D01*
X343015Y41918D01*
X342725Y41724D01*
X342531Y41434D01*
X342463Y41093D01*
Y39616D01*
X342244Y39349D01*
X337020D01*
X336996Y39466D01*
X336803Y39756D01*
X336513Y39949D01*
X336171Y40017D01*
X331939D01*
X331597Y39949D01*
X331307Y39756D01*
X331114Y39466D01*
X331046Y39124D01*
Y37648D01*
X331114Y37306D01*
X331307Y37016D01*
X331597Y36823D01*
X331939Y36755D01*
X336171D01*
X336513Y36823D01*
X336803Y37016D01*
X336996Y37306D01*
X337020Y37422D01*
X342244D01*
X342463Y37156D01*
Y35679D01*
X342494Y35300D01*
X342182Y35091D01*
X341484Y34393D01*
X341275Y34080D01*
X341266Y34034D01*
X337064D01*
Y35187D01*
X336996Y35529D01*
X336803Y35819D01*
X336513Y36012D01*
X336171Y36080D01*
X331939D01*
X331597Y36012D01*
X331307Y35819D01*
X331114Y35529D01*
X331046Y35187D01*
Y33711D01*
X331114Y33369D01*
X331307Y33079D01*
X331597Y32886D01*
X331939Y32818D01*
X334029D01*
X334154Y32643D01*
X333896Y32143D01*
X331939D01*
X331597Y32075D01*
X331307Y31881D01*
X331157Y31656D01*
X328127D01*
X327924Y31959D01*
X327260Y32403D01*
X326476Y32559D01*
X325693Y32403D01*
X325029Y31959D01*
X324585Y31295D01*
X324429Y30512D01*
X324585Y29728D01*
X325029Y29064D01*
X325693Y28620D01*
X326476Y28465D01*
X327260Y28620D01*
X327924Y29064D01*
X328127Y29368D01*
X331157D01*
X331307Y29142D01*
X331597Y28949D01*
X331939Y28881D01*
X336171D01*
X336513Y28949D01*
X336803Y29142D01*
X336996Y29432D01*
X337064Y29774D01*
Y31250D01*
X336996Y31592D01*
X336986Y31607D01*
X337253Y32107D01*
X342165D01*
X342463Y31863D01*
Y31742D01*
X342531Y31400D01*
X342725Y31111D01*
X343015Y30917D01*
X343356Y30849D01*
X347589D01*
X347930Y30917D01*
X348220Y31111D01*
X348414Y31400D01*
X348437Y31517D01*
X361816D01*
X362592Y30740D01*
Y21610D01*
X362666Y21242D01*
X362875Y20929D01*
X362983Y20820D01*
X362737Y20359D01*
X362205Y20465D01*
X361818Y20898D01*
X361890Y21260D01*
X361734Y22043D01*
X361290Y22707D01*
X360806Y23031D01*
Y24419D01*
X360733Y24788D01*
X360524Y25101D01*
X356400Y29225D01*
X356087Y29433D01*
X355719Y29507D01*
X348437D01*
X348414Y29623D01*
X348220Y29913D01*
X347930Y30107D01*
X347589Y30175D01*
X343356D01*
X343015Y30107D01*
X342725Y29913D01*
X342531Y29623D01*
X342463Y29281D01*
Y27805D01*
X342244Y27538D01*
X337020D01*
X336996Y27655D01*
X336803Y27944D01*
X336513Y28138D01*
X336171Y28206D01*
X331939D01*
X331597Y28138D01*
X331307Y27944D01*
X331114Y27655D01*
X331046Y27313D01*
Y25837D01*
X331114Y25495D01*
X331307Y25205D01*
X331597Y25012D01*
X331939Y24943D01*
X336171D01*
X336513Y25012D01*
X336803Y25205D01*
X336996Y25495D01*
X337020Y25611D01*
X342244D01*
X342463Y25344D01*
Y23868D01*
X342531Y23526D01*
X342627Y23383D01*
X342499Y22926D01*
X342435Y22838D01*
X342317Y22815D01*
X341979Y22588D01*
X341752Y22250D01*
X341673Y21850D01*
Y19488D01*
X341752Y19089D01*
X341979Y18750D01*
X342317Y18524D01*
X342717Y18444D01*
X347441D01*
X347840Y18524D01*
X348179Y18750D01*
X348405Y19089D01*
X348485Y19488D01*
Y21850D01*
X348405Y22250D01*
X348179Y22588D01*
X348141Y22614D01*
X348165Y23199D01*
X348220Y23236D01*
X348371Y23462D01*
X351401D01*
X351604Y23159D01*
X352268Y22715D01*
X353051Y22559D01*
X353835Y22715D01*
X354499Y23159D01*
X354943Y23823D01*
X355098Y24606D01*
X354943Y25390D01*
X354784Y25626D01*
X355173Y25945D01*
X356123Y24995D01*
Y19829D01*
X356196Y19461D01*
X356405Y19148D01*
X357817Y17737D01*
X358129Y17528D01*
X358498Y17455D01*
X360434D01*
X360757Y16971D01*
X361421Y16527D01*
X362205Y16371D01*
X362988Y16527D01*
X363652Y16971D01*
X364096Y17635D01*
X364252Y18418D01*
X364146Y18950D01*
X364607Y19197D01*
X371637Y12166D01*
X371950Y11957D01*
X372319Y11884D01*
X373966D01*
X374136Y11384D01*
X373588Y10964D01*
X372888Y10051D01*
X372448Y8988D01*
X372298Y7847D01*
X372435Y6799D01*
X372207Y6347D01*
X372176Y6299D01*
X303543D01*
X303382Y6773D01*
X303651Y6979D01*
X304383Y7933D01*
X304843Y9044D01*
X305000Y10236D01*
X304843Y11428D01*
X304383Y12539D01*
X303651Y13493D01*
X302697Y14225D01*
X301586Y14686D01*
X300394Y14843D01*
X299201Y14686D01*
X298091Y14225D01*
X297136Y13493D01*
X296405Y12539D01*
X295944Y11428D01*
X295787Y10236D01*
X295944Y9044D01*
X296405Y7933D01*
X297136Y6979D01*
X297406Y6773D01*
X297245Y6299D01*
X291732D01*
X291571Y6773D01*
X291840Y6979D01*
X292572Y7933D01*
X293032Y9044D01*
X293189Y10236D01*
X293032Y11428D01*
X292572Y12539D01*
X291840Y13493D01*
X290886Y14225D01*
X289775Y14686D01*
X288583Y14843D01*
X287390Y14686D01*
X286280Y14225D01*
X285326Y13493D01*
X284594Y12539D01*
X284133Y11428D01*
X283976Y10236D01*
X284133Y9044D01*
X284594Y7933D01*
X285326Y6979D01*
X285595Y6773D01*
X285434Y6299D01*
X280905D01*
X280744Y6773D01*
X281013Y6979D01*
X281745Y7933D01*
X282205Y9044D01*
X282362Y10236D01*
X282205Y11428D01*
X281745Y12539D01*
X281013Y13493D01*
X280059Y14225D01*
X278948Y14686D01*
X277756Y14843D01*
X276564Y14686D01*
X275453Y14225D01*
X274499Y13493D01*
X273767Y12539D01*
X273306Y11428D01*
X273150Y10236D01*
X273306Y9044D01*
X273767Y7933D01*
X274499Y6979D01*
X274768Y6773D01*
X274607Y6299D01*
X269094D01*
X268933Y6773D01*
X269202Y6979D01*
X269934Y7933D01*
X270394Y9044D01*
X270551Y10236D01*
X270394Y11428D01*
X269934Y12539D01*
X269202Y13493D01*
X268248Y14225D01*
X267137Y14686D01*
X265945Y14843D01*
X264753Y14686D01*
X263642Y14225D01*
X262688Y13493D01*
X261956Y12539D01*
X261495Y11428D01*
X261338Y10236D01*
X261495Y9044D01*
X261956Y7933D01*
X262688Y6979D01*
X262957Y6773D01*
X262796Y6299D01*
X252611D01*
Y30759D01*
X254171D01*
X261750Y23180D01*
X262121Y22932D01*
X262559Y22845D01*
X291339D01*
X291776Y22932D01*
X292147Y23180D01*
X294935Y25968D01*
X295183Y26339D01*
X295271Y26777D01*
Y39510D01*
X295801Y39615D01*
X296302Y39950D01*
X296637Y40452D01*
X296755Y41043D01*
Y42815D01*
X296741Y42883D01*
X297139Y43447D01*
X297242Y43462D01*
X297786Y42919D01*
X297765Y42815D01*
Y41043D01*
X297883Y40452D01*
X298218Y39950D01*
X298720Y39615D01*
X299250Y39510D01*
Y34377D01*
X299201Y34371D01*
X298091Y33911D01*
X297136Y33178D01*
X296405Y32224D01*
X295944Y31113D01*
X295787Y29921D01*
X295944Y28729D01*
X296405Y27618D01*
X297136Y26664D01*
X298091Y25932D01*
X299201Y25472D01*
X300394Y25315D01*
X301586Y25472D01*
X302697Y25932D01*
X303651Y26664D01*
X304383Y27618D01*
X304843Y28729D01*
X305000Y29921D01*
X304843Y31113D01*
X304383Y32224D01*
X303651Y33178D01*
X302697Y33911D01*
X301586Y34371D01*
X301538Y34377D01*
Y39510D01*
X302068Y39615D01*
X302569Y39950D01*
X302904Y40452D01*
X303022Y41043D01*
Y42815D01*
X302904Y43406D01*
X302569Y43908D01*
X302068Y44243D01*
X301476Y44360D01*
X299580D01*
X298982Y44959D01*
X299228Y45420D01*
X299311Y45403D01*
X301476D01*
X302068Y45521D01*
X302569Y45856D01*
X302904Y46357D01*
X303022Y46949D01*
Y48720D01*
X302904Y49312D01*
X302569Y49813D01*
X302123Y50111D01*
X302053Y50213D01*
X301949Y50682D01*
X302285Y51185D01*
X302441Y51968D01*
X302285Y52752D01*
X301841Y53416D01*
X301177Y53860D01*
X300394Y54016D01*
X299610Y53860D01*
X298946Y53416D01*
X298502Y52752D01*
X298346Y51968D01*
X298502Y51185D01*
X298839Y50682D01*
X298734Y50213D01*
X298664Y50111D01*
X298218Y49813D01*
X297883Y49312D01*
X297765Y48720D01*
Y46949D01*
X297782Y46866D01*
X297321Y46619D01*
X296755Y47186D01*
Y48720D01*
X296637Y49312D01*
X296302Y49813D01*
X295801Y50148D01*
X295209Y50266D01*
X293044D01*
X292453Y50148D01*
X291951Y49813D01*
X291616Y49312D01*
X291498Y48720D01*
Y46949D01*
X291616Y46357D01*
X291951Y45856D01*
X292453Y45521D01*
X293044Y45403D01*
X295209D01*
X295286Y45419D01*
X295857Y44848D01*
X295841Y44745D01*
X295277Y44347D01*
X295209Y44360D01*
X293044D01*
X292453Y44243D01*
X291951Y43908D01*
X291616Y43406D01*
X291550Y43073D01*
X290503D01*
X290436Y43406D01*
X290101Y43908D01*
X289600Y44243D01*
X289008Y44360D01*
X286843D01*
X286252Y44243D01*
X285750Y43908D01*
X285415Y43406D01*
X285298Y42815D01*
Y41043D01*
X285415Y40452D01*
X285750Y39950D01*
X286252Y39615D01*
X286843Y39498D01*
X289008D01*
X289600Y39615D01*
X290101Y39950D01*
X290436Y40452D01*
X290503Y40785D01*
X291550D01*
X291616Y40452D01*
X291951Y39950D01*
X292453Y39615D01*
X292983Y39510D01*
Y32476D01*
X292483Y32341D01*
X291840Y33178D01*
X290886Y33911D01*
X289775Y34371D01*
X288583Y34528D01*
X287390Y34371D01*
X286280Y33911D01*
X285326Y33178D01*
X284594Y32224D01*
X284133Y31113D01*
X283976Y29921D01*
X284133Y28729D01*
X284594Y27618D01*
X285326Y26664D01*
X286280Y25932D01*
X287001Y25633D01*
X286902Y25133D01*
X279437D01*
X279338Y25633D01*
X280059Y25932D01*
X281013Y26664D01*
X281745Y27618D01*
X282205Y28729D01*
X282362Y29921D01*
X282205Y31113D01*
X281745Y32224D01*
X281013Y33178D01*
X280059Y33911D01*
X278948Y34371D01*
X277756Y34528D01*
X276564Y34371D01*
X275453Y33911D01*
X274499Y33178D01*
X273767Y32224D01*
X273306Y31113D01*
X273150Y29921D01*
X273306Y28729D01*
X273767Y27618D01*
X274499Y26664D01*
X275453Y25932D01*
X276174Y25633D01*
X276075Y25133D01*
X267626D01*
X267527Y25633D01*
X268248Y25932D01*
X269202Y26664D01*
X269934Y27618D01*
X270394Y28729D01*
X270551Y29921D01*
X270394Y31113D01*
X269934Y32224D01*
X269202Y33178D01*
X268248Y33911D01*
X267137Y34371D01*
X267089Y34377D01*
Y36793D01*
X267422Y36860D01*
X267923Y37195D01*
X268259Y37696D01*
X268376Y38287D01*
Y40453D01*
X268259Y41044D01*
X267923Y41546D01*
X267422Y41881D01*
X266958Y41973D01*
Y43231D01*
X267292Y43298D01*
X267793Y43633D01*
X268128Y44134D01*
X268246Y44725D01*
Y46891D01*
X268128Y47482D01*
X267793Y47984D01*
X267292Y48319D01*
X266700Y48436D01*
X264929D01*
X264337Y48319D01*
X263836Y47984D01*
X263501Y47482D01*
X263383Y46891D01*
Y44725D01*
X263501Y44134D01*
X263836Y43633D01*
X264337Y43298D01*
X264670Y43231D01*
Y41921D01*
X264468Y41881D01*
X263966Y41546D01*
X263631Y41044D01*
X263514Y40453D01*
Y38287D01*
X263631Y37696D01*
X263966Y37195D01*
X264468Y36860D01*
X264801Y36793D01*
Y34377D01*
X264753Y34371D01*
X263642Y33911D01*
X262688Y33178D01*
X261956Y32224D01*
X261495Y31113D01*
X261338Y29921D01*
X261495Y28729D01*
X261956Y27618D01*
X262688Y26664D01*
X263642Y25932D01*
X264363Y25633D01*
X264264Y25133D01*
X263033D01*
X255454Y32711D01*
X255083Y32959D01*
X254645Y33047D01*
X248525D01*
X248374Y33547D01*
X248631Y33719D01*
X249157Y34505D01*
X249242Y34933D01*
X244592D01*
X244677Y34505D01*
X245202Y33719D01*
X245460Y33547D01*
X245308Y33047D01*
X230806D01*
X230499Y33547D01*
X230581Y33957D01*
Y35728D01*
X230463Y36320D01*
X230128Y36821D01*
X229627Y37156D01*
X229035Y37274D01*
X226870D01*
X226279Y37156D01*
X225777Y36821D01*
X225442Y36320D01*
X225415Y36183D01*
X224485D01*
X224282Y36487D01*
X223618Y36931D01*
X222835Y37087D01*
X222051Y36931D01*
X221387Y36487D01*
X220943Y35823D01*
X220787Y35039D01*
X220943Y34256D01*
X221387Y33592D01*
X221455Y33547D01*
X221303Y33047D01*
X216678D01*
X216623Y33111D01*
X216456Y33547D01*
X216703Y33917D01*
X216821Y34508D01*
Y36279D01*
X216703Y36871D01*
X216368Y37372D01*
X216371Y37972D01*
X216635Y38148D01*
X217052Y38772D01*
X217198Y39508D01*
Y39894D01*
X212224D01*
Y40894D01*
X217198D01*
Y41280D01*
X217052Y42015D01*
X216635Y42639D01*
X216371Y42816D01*
X216368Y43415D01*
X216703Y43916D01*
X216770Y44250D01*
X232842D01*
X233252Y44032D01*
X233252Y43750D01*
Y40776D01*
X237795D01*
X242339D01*
Y43750D01*
X242339Y44032D01*
X242748Y44250D01*
X244361D01*
X244406Y44022D01*
X244741Y43520D01*
X245243Y43185D01*
X245834Y43068D01*
X248000D01*
X248591Y43185D01*
X249092Y43520D01*
X249427Y44022D01*
X249545Y44613D01*
Y44656D01*
X250588D01*
Y44613D01*
X250705Y44022D01*
X251040Y43520D01*
X251542Y43185D01*
X252133Y43068D01*
X254299D01*
X254890Y43185D01*
X255391Y43520D01*
X255726Y44022D01*
X255844Y44613D01*
Y44656D01*
X257491D01*
X257595Y44134D01*
X257930Y43633D01*
X258432Y43298D01*
X259023Y43180D01*
X260795D01*
X261386Y43298D01*
X261888Y43633D01*
X262223Y44134D01*
X262340Y44725D01*
Y46891D01*
X262223Y47482D01*
X261888Y47984D01*
X261386Y48319D01*
X260795Y48436D01*
X259023D01*
X258432Y48319D01*
X257930Y47984D01*
X257595Y47482D01*
X257491Y46960D01*
X255730D01*
X255726Y46976D01*
X255391Y47478D01*
X254890Y47813D01*
X254299Y47930D01*
X252133D01*
X251542Y47813D01*
X251040Y47478D01*
X250705Y46976D01*
X250702Y46960D01*
X249430D01*
X249427Y46976D01*
X249092Y47478D01*
X248591Y47813D01*
X248460Y47839D01*
X248355Y48370D01*
X248631Y48554D01*
X249157Y49341D01*
X249242Y49769D01*
X244592D01*
X244677Y49341D01*
X245202Y48554D01*
X245479Y48370D01*
X245373Y47839D01*
X245243Y47813D01*
X244741Y47478D01*
X244406Y46976D01*
X244319Y46538D01*
X216770D01*
X216703Y46871D01*
X216368Y47372D01*
X216004Y47616D01*
X215980Y47696D01*
Y48092D01*
X216004Y48171D01*
X216368Y48415D01*
X216703Y48917D01*
X216821Y49508D01*
Y51279D01*
X216703Y51871D01*
X216368Y52372D01*
X216004Y52616D01*
X215980Y52696D01*
Y53092D01*
X216004Y53171D01*
X216368Y53415D01*
X216703Y53917D01*
X216821Y54508D01*
Y56279D01*
X216703Y56871D01*
X216368Y57372D01*
X216004Y57616D01*
X215980Y57696D01*
Y58092D01*
X216004Y58171D01*
X216368Y58415D01*
X216703Y58916D01*
X216821Y59508D01*
Y61279D01*
X216703Y61871D01*
X216368Y62372D01*
X216004Y62616D01*
X215980Y62696D01*
Y63092D01*
X216004Y63171D01*
X216368Y63415D01*
X216703Y63916D01*
X216821Y64508D01*
Y66280D01*
X216703Y66871D01*
X216368Y67372D01*
X216004Y67616D01*
X215980Y67696D01*
Y68092D01*
X216004Y68172D01*
X216368Y68415D01*
X216703Y68916D01*
X216821Y69508D01*
Y71280D01*
X216703Y71871D01*
X216368Y72372D01*
X216004Y72616D01*
X215980Y72696D01*
Y73092D01*
X216004Y73172D01*
X216368Y73415D01*
X216703Y73917D01*
X216821Y74508D01*
Y76279D01*
X216703Y76871D01*
X216368Y77372D01*
X216004Y77616D01*
X215980Y77696D01*
Y78092D01*
X216004Y78171D01*
X216368Y78415D01*
X216703Y78917D01*
X216770Y79250D01*
X217951D01*
X221297Y75904D01*
Y70826D01*
X221384Y70388D01*
X221632Y70017D01*
X225448Y66201D01*
X225164Y65514D01*
X225039Y64567D01*
X225164Y63619D01*
X225530Y62736D01*
X226111Y61978D01*
X226870Y61396D01*
X227753Y61030D01*
X228700Y60906D01*
X229648Y61030D01*
X230531Y61396D01*
X231289Y61978D01*
X231871Y62736D01*
X232237Y63619D01*
X232361Y64567D01*
X232237Y65514D01*
X231871Y66398D01*
X231289Y67156D01*
X230531Y67738D01*
X229648Y68103D01*
X228700Y68228D01*
X227753Y68103D01*
X227066Y67819D01*
X223585Y71300D01*
Y76378D01*
X223498Y76816D01*
X223250Y77187D01*
X219234Y81203D01*
X218863Y81451D01*
X218425Y81538D01*
X216770D01*
X216703Y81871D01*
X216368Y82372D01*
X216004Y82616D01*
X215980Y82696D01*
Y83092D01*
X216004Y83171D01*
X216368Y83415D01*
X216703Y83916D01*
X216770Y84250D01*
X218029D01*
X225448Y76831D01*
X225164Y76144D01*
X225039Y75197D01*
X225164Y74249D01*
X225530Y73366D01*
X226111Y72608D01*
X226870Y72026D01*
X227753Y71660D01*
X228700Y71536D01*
X229648Y71660D01*
X230531Y72026D01*
X231289Y72608D01*
X231871Y73366D01*
X232237Y74249D01*
X232361Y75197D01*
X232237Y76144D01*
X231871Y77027D01*
X231289Y77786D01*
X230531Y78368D01*
X229648Y78733D01*
X228700Y78858D01*
X227753Y78733D01*
X227066Y78449D01*
X219312Y86203D01*
X218941Y86451D01*
X218503Y86538D01*
X216770D01*
X216703Y86871D01*
X216368Y87372D01*
X216004Y87616D01*
X215980Y87696D01*
Y88092D01*
X216004Y88171D01*
X216368Y88415D01*
X216703Y88916D01*
X216821Y89508D01*
Y91280D01*
X216703Y91871D01*
X216368Y92372D01*
X216004Y92616D01*
X215980Y92696D01*
Y93092D01*
X216004Y93172D01*
X216368Y93415D01*
X216703Y93916D01*
X216821Y94508D01*
Y96280D01*
X216703Y96871D01*
X216368Y97372D01*
X216004Y97616D01*
X215980Y97696D01*
Y98092D01*
X216004Y98172D01*
X216368Y98415D01*
X216703Y98917D01*
X216821Y99508D01*
Y101279D01*
X216703Y101871D01*
X216368Y102372D01*
X215867Y102707D01*
X215276Y102825D01*
X209173D01*
X208582Y102707D01*
X208080Y102372D01*
X207745Y101871D01*
X207628Y101279D01*
Y99508D01*
X207745Y98917D01*
X208080Y98415D01*
X208445Y98172D01*
X208469Y98092D01*
Y97696D01*
X208445Y97616D01*
X208080Y97372D01*
X207745Y96871D01*
X207628Y96280D01*
Y94508D01*
X207745Y93916D01*
X208080Y93415D01*
X208445Y93172D01*
X208469Y93092D01*
Y92696D01*
X208445Y92616D01*
X208080Y92372D01*
X207745Y91871D01*
X207628Y91280D01*
Y89508D01*
X207745Y88916D01*
X208080Y88415D01*
X208445Y88171D01*
X208469Y88092D01*
Y87696D01*
X208445Y87616D01*
X208080Y87372D01*
X207745Y86871D01*
X207628Y86279D01*
Y84508D01*
X207745Y83916D01*
X208080Y83415D01*
X208445Y83171D01*
X208469Y83092D01*
Y82696D01*
X208445Y82616D01*
X208080Y82372D01*
X207745Y81871D01*
X207628Y81279D01*
Y79508D01*
X207745Y78917D01*
X208080Y78415D01*
X208445Y78171D01*
X208469Y78092D01*
Y77696D01*
X208445Y77616D01*
X208080Y77372D01*
X207745Y76871D01*
X207628Y76279D01*
Y74508D01*
X207745Y73917D01*
X208080Y73415D01*
X208445Y73172D01*
X208469Y73092D01*
Y72696D01*
X208445Y72616D01*
X208080Y72372D01*
X207745Y71871D01*
X207628Y71280D01*
Y69508D01*
X207745Y68916D01*
X208080Y68415D01*
X208445Y68172D01*
X208469Y68092D01*
Y67696D01*
X208445Y67616D01*
X208080Y67372D01*
X207745Y66871D01*
X207628Y66280D01*
Y64508D01*
X207745Y63916D01*
X208080Y63415D01*
X208445Y63171D01*
X208469Y63092D01*
Y62696D01*
X208445Y62616D01*
X208080Y62372D01*
X207745Y61871D01*
X207628Y61279D01*
Y59508D01*
X207745Y58916D01*
X208080Y58415D01*
X208445Y58171D01*
X208469Y58092D01*
Y57696D01*
X208445Y57616D01*
X208080Y57372D01*
X207745Y56871D01*
X207628Y56279D01*
Y54508D01*
X207745Y53917D01*
X208080Y53415D01*
X208445Y53171D01*
X208469Y53092D01*
Y52696D01*
X208445Y52616D01*
X208080Y52372D01*
X207745Y51871D01*
X207628Y51279D01*
Y49508D01*
X207745Y48917D01*
X208080Y48415D01*
X208445Y48171D01*
X208469Y48092D01*
Y47696D01*
X208445Y47616D01*
X208080Y47372D01*
X207745Y46871D01*
X207628Y46279D01*
Y44508D01*
X207745Y43916D01*
X208080Y43415D01*
X208078Y42816D01*
X207814Y42639D01*
X207397Y42015D01*
X207250Y41280D01*
Y38918D01*
X207397Y38772D01*
X207814Y38148D01*
X208078Y37972D01*
X208080Y37372D01*
X207745Y36871D01*
X207679Y36538D01*
X207162D01*
X206959Y36841D01*
X206295Y37285D01*
X205512Y37441D01*
X204728Y37285D01*
X204064Y36841D01*
X203620Y36177D01*
X203465Y35394D01*
X203620Y34610D01*
X204064Y33946D01*
X204662Y33547D01*
X204657Y33284D01*
X204579Y33047D01*
X158532D01*
X156262Y35316D01*
Y95794D01*
X156175Y96232D01*
X155927Y96603D01*
X151328Y101203D01*
X150956Y101451D01*
X150519Y101538D01*
X149840D01*
X149774Y101871D01*
X149439Y102372D01*
X148938Y102707D01*
X148346Y102825D01*
X142244D01*
X141653Y102707D01*
X141151Y102372D01*
X140816Y101871D01*
X140699Y101279D01*
Y99508D01*
X140816Y98917D01*
X141151Y98415D01*
X141516Y98172D01*
X141539Y98092D01*
Y97696D01*
X141516Y97616D01*
X141151Y97372D01*
X140816Y96871D01*
X140699Y96280D01*
Y94508D01*
X140816Y93916D01*
X141151Y93415D01*
X141516Y93172D01*
X141539Y93092D01*
Y92696D01*
X141516Y92616D01*
X141151Y92372D01*
X140836Y91900D01*
X140800Y91867D01*
X140282Y91747D01*
X139755Y92274D01*
Y105433D01*
X147351Y113029D01*
X199718D01*
X199870Y112529D01*
X199812Y112491D01*
X199369Y111827D01*
X199213Y111043D01*
X199369Y110260D01*
X199812Y109596D01*
X200116Y109393D01*
Y108876D01*
X199783Y108810D01*
X199281Y108475D01*
X199038Y108110D01*
X198958Y108087D01*
X198562D01*
X198482Y108110D01*
X198239Y108475D01*
X197737Y108810D01*
X197146Y108927D01*
X195374D01*
X194783Y108810D01*
X194281Y108475D01*
X194038Y108110D01*
X193958Y108087D01*
X193562D01*
X193482Y108110D01*
X193238Y108475D01*
X192737Y108810D01*
X192146Y108927D01*
X190374D01*
X189783Y108810D01*
X189281Y108475D01*
X189038Y108110D01*
X188958Y108087D01*
X188562D01*
X188482Y108110D01*
X188239Y108475D01*
X187737Y108810D01*
X187146Y108927D01*
X185374D01*
X184783Y108810D01*
X184281Y108475D01*
X184038Y108110D01*
X183958Y108087D01*
X183562D01*
X183482Y108110D01*
X183238Y108475D01*
X182737Y108810D01*
X182146Y108927D01*
X180374D01*
X179783Y108810D01*
X179281Y108475D01*
X179038Y108110D01*
X178958Y108087D01*
X178562D01*
X178482Y108110D01*
X178238Y108475D01*
X177737Y108810D01*
X177146Y108927D01*
X175374D01*
X174783Y108810D01*
X174281Y108475D01*
X174038Y108110D01*
X173958Y108087D01*
X173562D01*
X173482Y108110D01*
X173239Y108475D01*
X172737Y108810D01*
X172146Y108927D01*
X170374D01*
X169783Y108810D01*
X169281Y108475D01*
X169038Y108110D01*
X168958Y108087D01*
X168562D01*
X168482Y108110D01*
X168238Y108475D01*
X167737Y108810D01*
X167146Y108927D01*
X165374D01*
X164783Y108810D01*
X164281Y108475D01*
X164038Y108110D01*
X163958Y108087D01*
X163562D01*
X163482Y108110D01*
X163239Y108475D01*
X162737Y108810D01*
X162146Y108927D01*
X160374D01*
X159783Y108810D01*
X159281Y108475D01*
X159038Y108110D01*
X158958Y108087D01*
X158562D01*
X158482Y108110D01*
X158238Y108475D01*
X157737Y108810D01*
X157146Y108927D01*
X155374D01*
X154783Y108810D01*
X154281Y108475D01*
X153946Y107973D01*
X153829Y107382D01*
Y101279D01*
X153946Y100688D01*
X154281Y100187D01*
X154783Y99852D01*
X155374Y99734D01*
X157146D01*
X157737Y99852D01*
X158238Y100187D01*
X158482Y100551D01*
X158562Y100575D01*
X158958D01*
X159038Y100551D01*
X159281Y100187D01*
X159783Y99852D01*
X159820Y99844D01*
X159926Y99313D01*
X159395Y98958D01*
X158869Y98172D01*
X158784Y97744D01*
X163434D01*
X163349Y98172D01*
X162824Y98958D01*
X162362Y99267D01*
X162467Y99798D01*
X162737Y99852D01*
X163239Y100187D01*
X163482Y100551D01*
X163562Y100575D01*
X163958D01*
X164038Y100551D01*
X164281Y100187D01*
X164783Y99852D01*
X165374Y99734D01*
X167146D01*
X167737Y99852D01*
X168238Y100187D01*
X168482Y100551D01*
X168562Y100575D01*
X168958D01*
X169038Y100551D01*
X169281Y100187D01*
X169783Y99852D01*
X170374Y99734D01*
X172146D01*
X172737Y99852D01*
X173239Y100187D01*
X173482Y100551D01*
X173562Y100575D01*
X173958D01*
X174038Y100551D01*
X174281Y100187D01*
X174783Y99852D01*
X175374Y99734D01*
X177146D01*
X177737Y99852D01*
X178238Y100187D01*
X178482Y100551D01*
X178562Y100575D01*
X178958D01*
X179038Y100551D01*
X179281Y100187D01*
X179783Y99852D01*
X180374Y99734D01*
X182146D01*
X182737Y99852D01*
X183238Y100187D01*
X183482Y100551D01*
X183562Y100575D01*
X183958D01*
X184038Y100551D01*
X184281Y100187D01*
X184783Y99852D01*
X185374Y99734D01*
X187146D01*
X187737Y99852D01*
X188239Y100187D01*
X188482Y100551D01*
X188562Y100575D01*
X188958D01*
X189038Y100551D01*
X189281Y100187D01*
X189783Y99852D01*
X190374Y99734D01*
X192146D01*
X192737Y99852D01*
X193238Y100187D01*
X193482Y100551D01*
X193562Y100575D01*
X193958D01*
X194038Y100551D01*
X194281Y100187D01*
X194783Y99852D01*
X195374Y99734D01*
X197146D01*
X197737Y99852D01*
X198239Y100187D01*
X198482Y100551D01*
X198562Y100575D01*
X198958D01*
X199038Y100551D01*
X199281Y100187D01*
X199783Y99852D01*
X200374Y99734D01*
X202146D01*
X202737Y99852D01*
X203239Y100187D01*
X203573Y100688D01*
X203691Y101279D01*
Y107382D01*
X203573Y107973D01*
X203239Y108475D01*
X202737Y108810D01*
X202404Y108876D01*
Y109393D01*
X202707Y109596D01*
X203151Y110260D01*
X203307Y111043D01*
X203151Y111827D01*
X202707Y112491D01*
X202650Y112529D01*
X202802Y113029D01*
X208737D01*
X218244Y103522D01*
D02*
G37*
G36*
X266187Y112358D02*
X266180Y112188D01*
X266063Y111775D01*
X265795Y111596D01*
X261287Y107089D01*
X220195D01*
X210953Y116332D01*
X211160Y116832D01*
X261713D01*
X266187Y112358D01*
D02*
G37*
G36*
X451726Y88317D02*
Y37655D01*
X449391Y35320D01*
X448928Y35511D01*
Y88317D01*
X449369Y88553D01*
X449544Y88436D01*
X450327Y88280D01*
X451111Y88436D01*
X451285Y88553D01*
X451726Y88317D01*
D02*
G37*
G36*
X416293D02*
Y79527D01*
Y75197D01*
Y72236D01*
X415793Y72187D01*
X415745Y72429D01*
X415536Y72741D01*
X414244Y74034D01*
X414254Y74586D01*
X414481Y74924D01*
X414560Y75324D01*
Y80873D01*
X414481Y81273D01*
X414254Y81611D01*
X414086Y81724D01*
Y86843D01*
X414120Y87016D01*
Y87537D01*
X414047Y87906D01*
X414022Y87944D01*
X414322Y88394D01*
X414894Y88280D01*
X415678Y88436D01*
X415852Y88553D01*
X416293Y88317D01*
D02*
G37*
G36*
X410427Y73972D02*
Y73655D01*
X410500Y73286D01*
X410709Y72973D01*
X411940Y71742D01*
X411765Y71479D01*
X411685Y71080D01*
Y65530D01*
X411765Y65131D01*
X411991Y64792D01*
X412003Y64784D01*
X412042Y64232D01*
X409882Y62072D01*
X409716Y61822D01*
X409620Y61769D01*
X409486Y61739D01*
X409153Y61703D01*
X406640Y64216D01*
X406671Y64723D01*
X406774Y64792D01*
X407000Y65131D01*
X407080Y65530D01*
Y71080D01*
X407000Y71479D01*
X406785Y71801D01*
X408194Y73210D01*
X408402Y73522D01*
X408476Y73891D01*
X408976Y74283D01*
X408989Y74280D01*
X409776D01*
X409927Y74310D01*
X410427Y73972D01*
D02*
G37*
G36*
X402193Y85038D02*
X402402Y84725D01*
X404679Y82448D01*
Y81724D01*
X404511Y81611D01*
X404284Y81273D01*
X404205Y80873D01*
Y75324D01*
X404284Y74924D01*
X404511Y74586D01*
X404526Y74432D01*
X403229Y73135D01*
X403020Y72822D01*
X402947Y72454D01*
Y66435D01*
X402447Y66283D01*
X402327Y66462D01*
X401684Y67105D01*
Y84811D01*
X402088Y85081D01*
X402193Y85038D01*
D02*
G37*
G36*
X421198Y88436D02*
X421981Y88280D01*
X422764Y88436D01*
X422939Y88553D01*
X423380Y88317D01*
Y65756D01*
X422880Y65404D01*
X422375Y65505D01*
X421591Y65349D01*
X421082Y65009D01*
X420582Y65220D01*
Y88317D01*
X421023Y88553D01*
X421198Y88436D01*
D02*
G37*
G36*
X330233Y57566D02*
X330026Y57066D01*
X328971D01*
X328348Y57689D01*
X328035Y57898D01*
X327667Y57971D01*
X319283D01*
X317222Y60031D01*
X317414Y60493D01*
X327306D01*
X330233Y57566D01*
D02*
G37*
G36*
X423294Y52133D02*
X423456Y51904D01*
X423492Y51721D01*
X423701Y51408D01*
X424836Y50274D01*
X424983Y49770D01*
X424757Y49432D01*
X424677Y49033D01*
Y43483D01*
X424757Y43083D01*
X424983Y42745D01*
X424871Y42218D01*
X421742Y39089D01*
X421724Y39082D01*
X421500Y39075D01*
X421155Y39135D01*
X421087Y39237D01*
X419499Y40825D01*
Y42567D01*
X419766Y42745D01*
X419992Y43083D01*
X420072Y43483D01*
Y49033D01*
X419992Y49432D01*
X419812Y49702D01*
X421048Y50938D01*
X421257Y51250D01*
X421330Y51619D01*
Y51925D01*
X421830Y52263D01*
X421981Y52233D01*
X422768D01*
X422919Y52263D01*
X423294Y52133D01*
D02*
G37*
G36*
X456631Y88436D02*
X457414Y88280D01*
X458197Y88436D01*
X458372Y88553D01*
X458813Y88317D01*
Y76815D01*
X458637Y76698D01*
X458271Y76150D01*
X458143Y75504D01*
X458271Y74858D01*
X458637Y74310D01*
X458530Y73781D01*
X458219Y73315D01*
X458090Y72669D01*
X458219Y72024D01*
X458514Y71582D01*
X458556Y71252D01*
X458514Y70923D01*
X458219Y70480D01*
X458090Y69835D01*
X458219Y69190D01*
X458514Y68747D01*
X458556Y68418D01*
X458514Y68088D01*
X458219Y67645D01*
X458090Y67000D01*
X458219Y66355D01*
X458514Y65912D01*
X458556Y65583D01*
X458514Y65253D01*
X458219Y64811D01*
X458090Y64166D01*
X458219Y63520D01*
X458514Y63078D01*
X458556Y62748D01*
X458514Y62419D01*
X458219Y61976D01*
X458090Y61331D01*
X458219Y60686D01*
X458514Y60243D01*
X458556Y59914D01*
X458514Y59584D01*
X458219Y59141D01*
X458090Y58496D01*
X458219Y57851D01*
X458514Y57408D01*
X458556Y57079D01*
X458514Y56749D01*
X458219Y56307D01*
X458090Y55662D01*
X458219Y55016D01*
X458514Y54574D01*
X458556Y54244D01*
X458514Y53915D01*
X458219Y53472D01*
X458090Y52827D01*
X458219Y52182D01*
X458514Y51739D01*
X458556Y51410D01*
X458514Y51080D01*
X458219Y50638D01*
X458090Y49992D01*
X458219Y49347D01*
X458514Y48905D01*
X458556Y48575D01*
X458514Y48245D01*
X458219Y47803D01*
X458090Y47158D01*
X458219Y46512D01*
X458514Y46070D01*
X458556Y45740D01*
X458514Y45411D01*
X458219Y44968D01*
X458090Y44323D01*
X458219Y43678D01*
X458584Y43131D01*
X459054Y42817D01*
X458886Y42566D01*
X458813Y42197D01*
Y41179D01*
X456477Y38843D01*
X456015Y39034D01*
Y56102D01*
Y56883D01*
X456244Y57036D01*
X456609Y57583D01*
X456738Y58228D01*
X456609Y58873D01*
X456314Y59316D01*
X456272Y59646D01*
X456314Y59975D01*
X456609Y60418D01*
X456738Y61063D01*
X456609Y61708D01*
X456314Y62151D01*
X456272Y62480D01*
X456314Y62810D01*
X456609Y63252D01*
X456738Y63898D01*
X456609Y64543D01*
X456314Y64985D01*
X456272Y65315D01*
X456314Y65645D01*
X456609Y66087D01*
X456738Y66732D01*
X456609Y67377D01*
X456314Y67820D01*
X456272Y68150D01*
X456314Y68479D01*
X456609Y68922D01*
X456738Y69567D01*
X456609Y70212D01*
X456314Y70655D01*
X456272Y70984D01*
X456314Y71314D01*
X456609Y71756D01*
X456738Y72401D01*
X456609Y73047D01*
X456314Y73489D01*
X456272Y73819D01*
X456314Y74148D01*
X456609Y74591D01*
X456738Y75236D01*
X456609Y75881D01*
X456244Y76428D01*
X456015Y76581D01*
Y88317D01*
X456456Y88553D01*
X456631Y88436D01*
D02*
G37*
G36*
X153974Y95320D02*
Y36965D01*
X153474Y36813D01*
X153455Y36841D01*
X152791Y37285D01*
X152008Y37441D01*
X151224Y37285D01*
X150560Y36841D01*
X150357Y36538D01*
X149840D01*
X149774Y36871D01*
X149439Y37372D01*
X149075Y37616D01*
X149051Y37696D01*
Y38092D01*
X149075Y38171D01*
X149439Y38415D01*
X149774Y38917D01*
X149892Y39508D01*
Y41280D01*
X149774Y41871D01*
X149439Y42372D01*
X149075Y42616D01*
X149051Y42696D01*
Y43092D01*
X149075Y43172D01*
X149439Y43415D01*
X149774Y43916D01*
X149892Y44508D01*
Y46279D01*
X149774Y46871D01*
X149439Y47372D01*
X149075Y47616D01*
X149051Y47696D01*
Y48092D01*
X149075Y48171D01*
X149439Y48415D01*
X149774Y48917D01*
X149892Y49508D01*
Y51279D01*
X149774Y51871D01*
X149439Y52372D01*
X149075Y52616D01*
X149051Y52696D01*
Y53092D01*
X149075Y53171D01*
X149439Y53415D01*
X149774Y53917D01*
X149892Y54508D01*
Y56279D01*
X149774Y56871D01*
X149439Y57372D01*
X149075Y57616D01*
X149051Y57696D01*
Y58092D01*
X149075Y58171D01*
X149439Y58415D01*
X149774Y58916D01*
X149892Y59508D01*
Y61279D01*
X149774Y61871D01*
X149439Y62372D01*
X149075Y62616D01*
X149051Y62696D01*
Y63092D01*
X149075Y63171D01*
X149439Y63415D01*
X149774Y63916D01*
X149892Y64508D01*
Y66280D01*
X149774Y66871D01*
X149439Y67372D01*
X149075Y67616D01*
X149051Y67696D01*
Y68092D01*
X149075Y68172D01*
X149439Y68415D01*
X149774Y68916D01*
X149892Y69508D01*
Y71280D01*
X149774Y71871D01*
X149439Y72372D01*
X149075Y72616D01*
X149051Y72696D01*
Y73092D01*
X149075Y73172D01*
X149439Y73415D01*
X149774Y73917D01*
X149892Y74508D01*
Y76279D01*
X149774Y76871D01*
X149439Y77372D01*
X149075Y77616D01*
X149051Y77696D01*
Y78092D01*
X149075Y78171D01*
X149439Y78415D01*
X149774Y78917D01*
X149892Y79508D01*
Y81279D01*
X149774Y81871D01*
X149439Y82372D01*
X149075Y82616D01*
X149051Y82696D01*
Y83092D01*
X149075Y83171D01*
X149439Y83415D01*
X149774Y83916D01*
X149892Y84508D01*
Y86279D01*
X149774Y86871D01*
X149439Y87372D01*
X149075Y87616D01*
X149051Y87696D01*
Y88092D01*
X149075Y88171D01*
X149439Y88415D01*
X149774Y88916D01*
X149892Y89508D01*
Y91280D01*
X149774Y91871D01*
X149439Y92372D01*
X149075Y92616D01*
X149051Y92696D01*
Y93092D01*
X149075Y93172D01*
X149439Y93415D01*
X149774Y93916D01*
X149892Y94508D01*
Y96280D01*
X149774Y96871D01*
X149439Y97372D01*
X149075Y97616D01*
X149051Y97696D01*
Y98092D01*
X149075Y98172D01*
X149439Y98415D01*
X149733Y98855D01*
X149943Y98942D01*
X150300Y98995D01*
X153974Y95320D01*
D02*
G37*
G36*
X413537Y62349D02*
Y48819D01*
Y46469D01*
X413611Y46100D01*
X413804Y45760D01*
X413611Y45420D01*
X413537Y45052D01*
Y43634D01*
X413611Y43266D01*
X413804Y42926D01*
X413611Y42586D01*
X413537Y42217D01*
Y40800D01*
X413611Y40431D01*
X413804Y40091D01*
X413611Y39751D01*
X413537Y39382D01*
Y35760D01*
X413440Y35658D01*
X413037Y35422D01*
X412827Y35464D01*
X412237D01*
X412027Y35422D01*
X411624Y35658D01*
X411527Y35760D01*
Y60992D01*
X413075Y62540D01*
X413537Y62349D01*
D02*
G37*
G36*
X407632Y60500D02*
Y35760D01*
X407535Y35658D01*
X407132Y35422D01*
X406922Y35464D01*
X406331D01*
X406121Y35422D01*
X405719Y35658D01*
X405621Y35760D01*
Y39971D01*
X405548Y40340D01*
X405339Y40652D01*
X404873Y41118D01*
Y48425D01*
Y57204D01*
X404975Y57271D01*
X405183Y57584D01*
X405257Y57953D01*
Y59213D01*
X405183Y59581D01*
X404975Y59894D01*
X404873Y59961D01*
Y62551D01*
X405373Y62758D01*
X407632Y60500D01*
D02*
G37*
G36*
X442457Y88436D02*
X443241Y88280D01*
X444024Y88436D01*
X444199Y88553D01*
X444639Y88317D01*
Y80315D01*
Y75780D01*
X444713Y75412D01*
X444881Y75161D01*
X444411Y74847D01*
X444045Y74300D01*
X443917Y73654D01*
X444045Y73009D01*
X444341Y72567D01*
X444382Y72237D01*
X444341Y71908D01*
X444045Y71465D01*
X443917Y70820D01*
X444045Y70175D01*
X444341Y69732D01*
X444382Y69402D01*
X444341Y69073D01*
X444045Y68630D01*
X443917Y67985D01*
X444045Y67340D01*
X444341Y66897D01*
X444382Y66568D01*
X444341Y66238D01*
X444045Y65796D01*
X443917Y65150D01*
X444045Y64505D01*
X444341Y64063D01*
X444382Y63733D01*
X444341Y63404D01*
X444045Y62961D01*
X443917Y62316D01*
X444045Y61671D01*
X444341Y61228D01*
X444382Y60899D01*
X444341Y60569D01*
X444045Y60126D01*
X443917Y59481D01*
X444045Y58836D01*
X444341Y58394D01*
X444382Y58064D01*
X444341Y57734D01*
X444045Y57292D01*
X443917Y56647D01*
X444045Y56001D01*
X444341Y55559D01*
X444382Y55229D01*
X444341Y54900D01*
X444045Y54457D01*
X443917Y53812D01*
X444045Y53167D01*
X444411Y52620D01*
X444881Y52306D01*
X444713Y52055D01*
X444639Y51686D01*
Y50269D01*
Y34132D01*
X443177Y32670D01*
X443109Y32663D01*
X441842Y33930D01*
Y57257D01*
Y58038D01*
X442071Y58191D01*
X442436Y58738D01*
X442564Y59383D01*
X442436Y60028D01*
X442140Y60471D01*
X442099Y60800D01*
X442140Y61130D01*
X442436Y61572D01*
X442564Y62217D01*
X442436Y62863D01*
X442140Y63305D01*
X442099Y63635D01*
X442140Y63964D01*
X442436Y64407D01*
X442564Y65052D01*
X442436Y65697D01*
X442140Y66140D01*
X442099Y66469D01*
X442140Y66799D01*
X442436Y67242D01*
X442564Y67887D01*
X442436Y68532D01*
X442140Y68975D01*
X442099Y69304D01*
X442140Y69634D01*
X442436Y70076D01*
X442564Y70721D01*
X442436Y71367D01*
X442140Y71809D01*
X442099Y72139D01*
X442140Y72468D01*
X442436Y72911D01*
X442564Y73556D01*
X442436Y74201D01*
X442071Y74748D01*
X441601Y75062D01*
X441769Y75313D01*
X441842Y75682D01*
Y76391D01*
Y88317D01*
X442283Y88553D01*
X442457Y88436D01*
D02*
G37*
G36*
X435371D02*
X436154Y88280D01*
X436938Y88436D01*
X437112Y88553D01*
X437553Y88317D01*
Y34023D01*
X437626Y33655D01*
X437835Y33342D01*
X440375Y30802D01*
Y29620D01*
X439875Y29468D01*
X439271Y30255D01*
X438358Y30956D01*
X437295Y31396D01*
X436154Y31547D01*
X435013Y31396D01*
X433950Y30956D01*
X433037Y30255D01*
X432337Y29343D01*
X432172Y28945D01*
X431672Y29044D01*
Y30950D01*
X434473Y33752D01*
X434682Y34064D01*
X434755Y34433D01*
Y88317D01*
X435196Y88553D01*
X435371Y88436D01*
D02*
G37*
G36*
X428284D02*
X429068Y88280D01*
X429851Y88436D01*
X430025Y88553D01*
X430466Y88317D01*
Y76391D01*
Y75610D01*
X430238Y75457D01*
X429872Y74910D01*
X429744Y74265D01*
X429872Y73620D01*
X430168Y73177D01*
X430209Y72847D01*
X430168Y72518D01*
X429872Y72075D01*
X429744Y71430D01*
X429872Y70785D01*
X430168Y70342D01*
X430209Y70013D01*
X430168Y69683D01*
X429872Y69241D01*
X429744Y68595D01*
X429872Y67950D01*
X430168Y67508D01*
X430209Y67178D01*
X430168Y66848D01*
X429872Y66406D01*
X429744Y65761D01*
X429872Y65116D01*
X430168Y64673D01*
X430209Y64344D01*
X430168Y64014D01*
X429872Y63571D01*
X429744Y62926D01*
X429872Y62281D01*
X430168Y61838D01*
X430209Y61509D01*
X430168Y61179D01*
X429872Y60737D01*
X429744Y60092D01*
X429872Y59446D01*
X430168Y59004D01*
X430209Y58674D01*
X430168Y58345D01*
X429872Y57902D01*
X429744Y57257D01*
X429872Y56612D01*
X430168Y56169D01*
X430209Y55840D01*
X430168Y55510D01*
X429872Y55067D01*
X429744Y54422D01*
X429872Y53777D01*
X430238Y53230D01*
X430708Y52916D01*
X430540Y52665D01*
X430466Y52296D01*
Y51181D01*
Y34251D01*
X428768Y32553D01*
X428559Y32240D01*
X428485Y31871D01*
Y24796D01*
X426843Y23153D01*
X426737Y23169D01*
X426339Y23731D01*
X426390Y23989D01*
X426234Y24773D01*
X425791Y25437D01*
X425307Y25760D01*
Y26391D01*
X425404Y26494D01*
X425807Y26729D01*
X426016Y26688D01*
X426607D01*
X426968Y26759D01*
X427274Y26964D01*
X427478Y27270D01*
X427550Y27631D01*
Y34521D01*
X427478Y34882D01*
X427275Y35186D01*
Y39437D01*
X428528Y40690D01*
X428737Y41002D01*
X428810Y41371D01*
Y50406D01*
X428737Y50775D01*
X428528Y51088D01*
X427231Y52385D01*
X427247Y52539D01*
X427473Y52877D01*
X427552Y53276D01*
Y58826D01*
X427473Y59225D01*
X427247Y59564D01*
X427245Y59583D01*
X427387Y59725D01*
X427595Y60038D01*
X427669Y60407D01*
Y69134D01*
X427595Y69503D01*
X427421Y69764D01*
X427595Y70025D01*
X427669Y70394D01*
Y76772D01*
Y88317D01*
X428110Y88553D01*
X428284Y88436D01*
D02*
G37*
G36*
X398096Y26759D02*
X398457Y26688D01*
X399048D01*
X399409Y26759D01*
X399737Y26951D01*
X400065Y26759D01*
X400426Y26688D01*
X401016D01*
X401377Y26759D01*
X401705Y26951D01*
X402033Y26759D01*
X402394Y26688D01*
X402985D01*
X403346Y26759D01*
X403674Y26951D01*
X404002Y26759D01*
X404363Y26688D01*
X404953D01*
X405163Y26729D01*
X405566Y26494D01*
X405663Y26391D01*
Y25760D01*
X405179Y25437D01*
X404735Y24773D01*
X404579Y23989D01*
X404735Y23206D01*
X404825Y23071D01*
X404590Y22630D01*
X396852D01*
X396617Y23071D01*
X396707Y23206D01*
X396863Y23989D01*
X396707Y24773D01*
X396263Y25437D01*
X395779Y25760D01*
Y26391D01*
X395876Y26494D01*
X396279Y26729D01*
X396489Y26688D01*
X397079D01*
X397440Y26759D01*
X397768Y26951D01*
X398096Y26759D01*
D02*
G37*
G36*
X432337Y24935D02*
X433037Y24022D01*
X433950Y23322D01*
X435013Y22881D01*
X436154Y22731D01*
X437295Y22881D01*
X438358Y23322D01*
X439271Y24022D01*
X439875Y24810D01*
X440375Y24657D01*
Y22316D01*
X438169Y20110D01*
X428959D01*
X428768Y20572D01*
X431390Y23194D01*
X431599Y23506D01*
X431672Y23875D01*
Y25233D01*
X432172Y25333D01*
X432337Y24935D01*
D02*
G37*
G36*
X435947Y11384D02*
X435400Y10964D01*
X434699Y10051D01*
X434259Y8988D01*
X434109Y7847D01*
X434247Y6799D01*
X434018Y6347D01*
X433987Y6299D01*
X381235D01*
X381203Y6347D01*
X380975Y6799D01*
X381113Y7847D01*
X380963Y8988D01*
X380523Y10051D01*
X379822Y10964D01*
X379275Y11384D01*
X379445Y11884D01*
X435777D01*
X435947Y11384D01*
D02*
G37*
%LPC*%
G36*
X164948Y187274D02*
X162783D01*
X162191Y187156D01*
X161690Y186821D01*
X161355Y186320D01*
X161288Y185986D01*
X160417D01*
X160351Y186320D01*
X160016Y186821D01*
X159515Y187156D01*
X158923Y187274D01*
X156758D01*
X156167Y187156D01*
X155665Y186821D01*
X155330Y186320D01*
X155264Y185986D01*
X154277D01*
X154210Y186320D01*
X153875Y186821D01*
X153374Y187156D01*
X152783Y187274D01*
X150617D01*
X150026Y187156D01*
X149524Y186821D01*
X149189Y186320D01*
X149072Y185728D01*
Y183957D01*
X149189Y183365D01*
X149524Y182864D01*
X150026Y182529D01*
X150617Y182411D01*
X152783D01*
X153374Y182529D01*
X153875Y182864D01*
X154210Y183365D01*
X154277Y183698D01*
X155264D01*
X155330Y183365D01*
X155665Y182864D01*
X156167Y182529D01*
X156758Y182411D01*
X158923D01*
X159515Y182529D01*
X160016Y182864D01*
X160351Y183365D01*
X160417Y183698D01*
X161288D01*
X161355Y183365D01*
X161690Y182864D01*
X162191Y182529D01*
X162783Y182411D01*
X164948D01*
X165539Y182529D01*
X166041Y182864D01*
X166376Y183365D01*
X166493Y183957D01*
Y185728D01*
X166376Y186320D01*
X166041Y186821D01*
X165539Y187156D01*
X164948Y187274D01*
D02*
G37*
G36*
X163365Y181746D02*
X162783D01*
X162047Y181599D01*
X161423Y181182D01*
X161006Y180559D01*
X160919Y180122D01*
X160409Y180122D01*
X160351Y180414D01*
X160016Y180916D01*
X159515Y181251D01*
X158923Y181368D01*
X156758D01*
X156167Y181251D01*
X155665Y180916D01*
X155330Y180414D01*
X155213Y179823D01*
Y178051D01*
X155330Y177460D01*
X155665Y176958D01*
X156132Y176647D01*
X155949Y176374D01*
X155794Y175591D01*
X155949Y174807D01*
X156393Y174143D01*
X157057Y173699D01*
X157520Y173607D01*
X157691Y173125D01*
X157494Y172851D01*
X156975Y172868D01*
X156826Y173091D01*
X156438Y173350D01*
X155981Y173441D01*
X154899D01*
X154442Y173350D01*
X154054Y173091D01*
X153841Y172772D01*
X153570Y172734D01*
X153299Y172772D01*
X153086Y173091D01*
X152844Y173252D01*
Y176518D01*
X153374Y176623D01*
X153875Y176958D01*
X154210Y177460D01*
X154328Y178051D01*
Y179823D01*
X154210Y180414D01*
X153875Y180916D01*
X153374Y181251D01*
X152783Y181368D01*
X150617D01*
X150026Y181251D01*
X149524Y180916D01*
X149189Y180414D01*
X149072Y179823D01*
Y178051D01*
X149189Y177460D01*
X149524Y176958D01*
X150026Y176623D01*
X150556Y176518D01*
Y173253D01*
X150314Y173091D01*
X150055Y172704D01*
X149964Y172247D01*
Y168447D01*
X150055Y167990D01*
X150314Y167603D01*
X150582Y167424D01*
X150445Y166924D01*
X149516D01*
X148867Y167573D01*
X148496Y167821D01*
X148058Y167908D01*
X146619D01*
X146533Y168340D01*
X146198Y168841D01*
X145697Y169176D01*
X145105Y169294D01*
X142940D01*
X142349Y169176D01*
X141847Y168841D01*
X141512Y168340D01*
X141395Y167749D01*
Y165977D01*
X141512Y165385D01*
X141847Y164884D01*
X142349Y164549D01*
X142940Y164432D01*
X145105D01*
X145697Y164549D01*
X146198Y164884D01*
X146533Y165385D01*
X146580Y165620D01*
X147584D01*
X148233Y164971D01*
X148605Y164723D01*
X149042Y164636D01*
X153668D01*
X154106Y164723D01*
X154477Y164971D01*
X155914Y166408D01*
X156162Y166779D01*
X156249Y167217D01*
Y167306D01*
X156438Y167344D01*
X156826Y167603D01*
X157039Y167922D01*
X157310Y167960D01*
X157581Y167922D01*
X157794Y167603D01*
X158182Y167344D01*
X158639Y167253D01*
X159722D01*
X160178Y167344D01*
X160566Y167603D01*
X160825Y167990D01*
X160846Y168099D01*
X162048D01*
X163004Y167143D01*
X163733Y166656D01*
X164594Y166485D01*
X167004D01*
X167250Y166321D01*
X167841Y166203D01*
X170007D01*
X170598Y166321D01*
X171100Y166656D01*
X171435Y167157D01*
X171552Y167749D01*
Y169520D01*
X171435Y170112D01*
X171100Y170613D01*
X170598Y170948D01*
X170007Y171066D01*
X167841D01*
X167414Y170981D01*
X165525D01*
X164569Y171937D01*
X163840Y172424D01*
X162979Y172595D01*
X160846D01*
X160825Y172704D01*
X160566Y173091D01*
X160178Y173350D01*
X159722Y173441D01*
X159138D01*
X158986Y173941D01*
X159288Y174143D01*
X159732Y174807D01*
X159888Y175591D01*
X159732Y176374D01*
X159550Y176647D01*
X160016Y176958D01*
X160351Y177460D01*
X160409Y177752D01*
X160919Y177752D01*
X161006Y177315D01*
X161423Y176692D01*
X162047Y176275D01*
X162783Y176128D01*
X163365D01*
Y178937D01*
Y181746D01*
D02*
G37*
G36*
X164948D02*
X164365D01*
Y179437D01*
X166871D01*
Y179823D01*
X166724Y180559D01*
X166307Y181182D01*
X165684Y181599D01*
X164948Y181746D01*
D02*
G37*
G36*
X166871Y178437D02*
X164365D01*
Y176128D01*
X164948D01*
X165684Y176275D01*
X166307Y176692D01*
X166724Y177315D01*
X166871Y178051D01*
Y178437D01*
D02*
G37*
G36*
X219653Y176351D02*
X211306D01*
Y174109D01*
X210634D01*
X210431Y174413D01*
X209767Y174856D01*
X208983Y175012D01*
X208200Y174856D01*
X207536Y174413D01*
X207092Y173749D01*
X206936Y172965D01*
X207092Y172182D01*
X207536Y171518D01*
X208200Y171074D01*
X208983Y170918D01*
X209767Y171074D01*
X210431Y171518D01*
X210634Y171821D01*
X211306D01*
Y169579D01*
X219653D01*
Y176351D01*
D02*
G37*
G36*
X296440Y167038D02*
Y165213D01*
X298265D01*
X298180Y165640D01*
X297655Y166427D01*
X296868Y166953D01*
X296440Y167038D01*
D02*
G37*
G36*
X295440D02*
X295012Y166953D01*
X294226Y166427D01*
X293700Y165640D01*
X293615Y165213D01*
X295440D01*
Y167038D01*
D02*
G37*
G36*
X220023Y166485D02*
X215979D01*
Y163229D01*
X220023D01*
Y166485D01*
D02*
G37*
G36*
X298265Y164213D02*
X296440D01*
Y162388D01*
X296868Y162473D01*
X297655Y162998D01*
X298180Y163785D01*
X298265Y164213D01*
D02*
G37*
G36*
X295440D02*
X293615D01*
X293700Y163785D01*
X294226Y162998D01*
X295012Y162473D01*
X295440Y162388D01*
Y164213D01*
D02*
G37*
G36*
X220023Y162229D02*
X215979D01*
Y158973D01*
X220023D01*
Y162229D01*
D02*
G37*
G36*
X207092Y171051D02*
X196628D01*
Y154331D01*
X206294D01*
X210936Y158973D01*
X214979D01*
Y162729D01*
Y166485D01*
X209050D01*
X207092Y168442D01*
Y171051D01*
D02*
G37*
G36*
X521233Y169304D02*
X502256D01*
Y149934D01*
X521233D01*
Y169304D01*
D02*
G37*
G36*
X264934D02*
X245957D01*
Y149934D01*
X264934D01*
Y169304D01*
D02*
G37*
G36*
X161936Y155426D02*
X161153Y155270D01*
X160488Y154826D01*
X160045Y154162D01*
X159889Y153378D01*
X160045Y152595D01*
X160488Y151931D01*
X160792Y151728D01*
Y150662D01*
X158550D01*
Y142316D01*
X165322D01*
Y150662D01*
X163080D01*
Y151728D01*
X163384Y151931D01*
X163827Y152595D01*
X163983Y153378D01*
X163827Y154162D01*
X163384Y154826D01*
X162720Y155270D01*
X161936Y155426D01*
D02*
G37*
G36*
X283217Y179752D02*
X282433Y179596D01*
X281769Y179152D01*
X281325Y178488D01*
X281169Y177705D01*
X281325Y176921D01*
X281769Y176257D01*
X282238Y175944D01*
Y136433D01*
X281797Y136197D01*
X281623Y136314D01*
X280839Y136469D01*
X280056Y136314D01*
X279881Y136197D01*
X279440Y136433D01*
Y145336D01*
X279524Y145353D01*
X280188Y145797D01*
X280631Y146461D01*
X280787Y147244D01*
X280631Y148028D01*
X280188Y148692D01*
X279524Y149135D01*
X278740Y149291D01*
X277957Y149135D01*
X277578Y148882D01*
X277078Y149150D01*
Y149796D01*
X277245Y149829D01*
X277909Y150273D01*
X278353Y150937D01*
X278508Y151720D01*
X278353Y152504D01*
X277909Y153168D01*
X277245Y153612D01*
X276461Y153768D01*
X275678Y153612D01*
X275014Y153168D01*
X274570Y152504D01*
X274414Y151720D01*
X274570Y150937D01*
X275014Y150273D01*
X275151Y150181D01*
Y136433D01*
X274710Y136197D01*
X274536Y136314D01*
X273753Y136469D01*
X272969Y136314D01*
X272795Y136197D01*
X272354Y136433D01*
Y159072D01*
X272423Y159420D01*
Y161344D01*
X272369Y161616D01*
Y167272D01*
X272853Y167596D01*
X273297Y168260D01*
X273453Y169043D01*
X273297Y169827D01*
X272853Y170491D01*
X272189Y170935D01*
X271406Y171090D01*
X270622Y170935D01*
X269958Y170491D01*
X269514Y169827D01*
X269358Y169043D01*
X269514Y168260D01*
X269958Y167596D01*
X270442Y167272D01*
Y162455D01*
X270001Y162219D01*
X269920Y162273D01*
X269137Y162429D01*
X268353Y162273D01*
X267689Y161829D01*
X267245Y161165D01*
X267090Y160382D01*
X267245Y159599D01*
X267689Y158934D01*
X268173Y158611D01*
Y136431D01*
X267673Y136164D01*
X267449Y136314D01*
X266666Y136469D01*
X265882Y136314D01*
X265218Y135870D01*
X264775Y135206D01*
X264619Y134422D01*
X264712Y133954D01*
X264343Y133454D01*
X262441D01*
Y128517D01*
Y123580D01*
X263804D01*
Y128517D01*
X264804D01*
Y123580D01*
X265993D01*
Y123950D01*
X302772D01*
Y123580D01*
X303961D01*
Y128517D01*
X304461D01*
Y129017D01*
X306150D01*
Y133454D01*
X304422D01*
X304053Y133954D01*
X304146Y134422D01*
X303990Y135206D01*
X303547Y135870D01*
X302882Y136314D01*
X302099Y136469D01*
X301316Y136314D01*
X300651Y135870D01*
X300208Y135206D01*
X300052Y134422D01*
X300208Y133639D01*
X300284Y133525D01*
X300048Y133084D01*
X297063D01*
X296828Y133525D01*
X296904Y133639D01*
X297060Y134422D01*
X296904Y135206D01*
X296460Y135870D01*
X295796Y136314D01*
X295012Y136469D01*
X294229Y136314D01*
X293565Y135870D01*
X293121Y135206D01*
X292965Y134422D01*
X293121Y133639D01*
X293197Y133525D01*
X292962Y133084D01*
X289977D01*
X289741Y133525D01*
X289817Y133639D01*
X289973Y134422D01*
X289817Y135206D01*
X289373Y135870D01*
X288709Y136314D01*
X287926Y136469D01*
X287142Y136314D01*
X286968Y136197D01*
X286527Y136433D01*
Y171445D01*
X286717Y171483D01*
X287381Y171926D01*
X287825Y172591D01*
X287981Y173374D01*
X287825Y174157D01*
X287381Y174822D01*
X286717Y175265D01*
X285934Y175421D01*
X285150Y175265D01*
X284665Y174941D01*
X284165Y175172D01*
Y175924D01*
X284664Y176257D01*
X285108Y176921D01*
X285264Y177705D01*
X285108Y178488D01*
X284664Y179152D01*
X284000Y179596D01*
X283217Y179752D01*
D02*
G37*
G36*
X528969Y144173D02*
X528186Y144017D01*
X527522Y143574D01*
X527078Y142909D01*
X526922Y142126D01*
X527078Y141343D01*
X527256Y141076D01*
X527295Y140575D01*
X526794Y140239D01*
X526459Y139738D01*
X526341Y139147D01*
Y137375D01*
X526459Y136784D01*
X526794Y136282D01*
X527295Y135947D01*
X527886Y135829D01*
X530052D01*
X530643Y135947D01*
X531145Y136282D01*
X531480Y136784D01*
X531597Y137375D01*
Y139147D01*
X531480Y139738D01*
X531145Y140239D01*
X530643Y140575D01*
X530683Y141076D01*
X530861Y141343D01*
X531016Y142126D01*
X530861Y142909D01*
X530417Y143574D01*
X529753Y144017D01*
X528969Y144173D01*
D02*
G37*
G36*
X530052Y135164D02*
X529469D01*
Y132855D01*
X531975D01*
Y133241D01*
X531828Y133977D01*
X531411Y134601D01*
X530788Y135018D01*
X530052Y135164D01*
D02*
G37*
G36*
X528469D02*
X527886D01*
X527151Y135018D01*
X526527Y134601D01*
X526110Y133977D01*
X525964Y133241D01*
Y132855D01*
X528469D01*
Y135164D01*
D02*
G37*
G36*
X531975Y131855D02*
X529469D01*
Y129547D01*
X530052D01*
X530788Y129693D01*
X531411Y130110D01*
X531828Y130734D01*
X531975Y131470D01*
Y131855D01*
D02*
G37*
G36*
X528469D02*
X525964D01*
Y131470D01*
X526110Y130734D01*
X526527Y130110D01*
X527151Y129693D01*
X527886Y129547D01*
X528469D01*
Y131855D01*
D02*
G37*
G36*
X509300Y133454D02*
X508111D01*
Y129017D01*
X509300D01*
Y133454D01*
D02*
G37*
G36*
X234358Y128309D02*
Y126484D01*
X236183D01*
X236098Y126912D01*
X235573Y127699D01*
X234786Y128224D01*
X234358Y128309D01*
D02*
G37*
G36*
X233358D02*
X232930Y128224D01*
X232144Y127699D01*
X231618Y126912D01*
X231533Y126484D01*
X233358D01*
Y128309D01*
D02*
G37*
G36*
X161609D02*
Y126484D01*
X163434D01*
X163349Y126912D01*
X162824Y127699D01*
X162037Y128224D01*
X161609Y128309D01*
D02*
G37*
G36*
X160609D02*
X160181Y128224D01*
X159395Y127699D01*
X158869Y126912D01*
X158784Y126484D01*
X160609D01*
Y128309D01*
D02*
G37*
G36*
X236183Y125484D02*
X234358D01*
Y123659D01*
X234786Y123744D01*
X235573Y124270D01*
X236098Y125056D01*
X236183Y125484D01*
D02*
G37*
G36*
X233358D02*
X231533D01*
X231618Y125056D01*
X232144Y124270D01*
X232930Y123744D01*
X233358Y123659D01*
Y125484D01*
D02*
G37*
G36*
X163434D02*
X161609D01*
Y123659D01*
X162037Y123744D01*
X162824Y124270D01*
X163349Y125056D01*
X163434Y125484D01*
D02*
G37*
G36*
X160609D02*
X158784D01*
X158869Y125056D01*
X159395Y124270D01*
X160181Y123744D01*
X160609Y123659D01*
Y125484D01*
D02*
G37*
G36*
X509300Y128017D02*
X508111D01*
Y123580D01*
X509300D01*
Y128017D01*
D02*
G37*
G36*
X502886Y136469D02*
X502103Y136314D01*
X501439Y135870D01*
X500995Y135206D01*
X500839Y134422D01*
X500932Y133954D01*
X500563Y133454D01*
X498662D01*
Y128517D01*
Y123580D01*
X500024D01*
Y128517D01*
X501024D01*
Y123580D01*
X502213D01*
Y123950D01*
X503560D01*
Y123580D01*
X504749D01*
Y128517D01*
X505749D01*
Y123580D01*
X507111D01*
Y128517D01*
Y133454D01*
X505210D01*
X504840Y133954D01*
X504934Y134422D01*
X504778Y135206D01*
X504334Y135870D01*
X503670Y136314D01*
X502886Y136469D01*
D02*
G37*
G36*
X320497Y128017D02*
X319308D01*
Y123580D01*
X320497D01*
Y128017D01*
D02*
G37*
G36*
X306150Y128017D02*
X304961D01*
Y123580D01*
X306150D01*
Y128017D01*
D02*
G37*
G36*
X261441Y133454D02*
X260253D01*
Y133084D01*
X258260D01*
Y123950D01*
X260253D01*
Y123580D01*
X261441D01*
Y128517D01*
Y133454D01*
D02*
G37*
G36*
X515091Y115194D02*
X514361Y115098D01*
X513681Y114817D01*
X513097Y114369D01*
X512649Y113785D01*
X512368Y113105D01*
X512272Y112375D01*
X512368Y111645D01*
X512649Y110965D01*
X513097Y110381D01*
X513681Y109933D01*
X514361Y109652D01*
X515091Y109556D01*
X515821Y109652D01*
X516501Y109933D01*
X517085Y110381D01*
X517533Y110965D01*
X517814Y111645D01*
X517910Y112375D01*
X517814Y113105D01*
X517533Y113785D01*
X517085Y114369D01*
X516501Y114817D01*
X515821Y115098D01*
X515091Y115194D01*
D02*
G37*
G36*
X512729Y87838D02*
X510957D01*
X510366Y87720D01*
X509865Y87385D01*
X509529Y86884D01*
X509412Y86292D01*
Y84127D01*
X509529Y83535D01*
X509865Y83034D01*
X510366Y82699D01*
X510957Y82581D01*
X512729D01*
X513320Y82699D01*
X513822Y83034D01*
X514157Y83535D01*
X514663Y83520D01*
X514965Y83318D01*
X515748Y83162D01*
X516532Y83318D01*
X517196Y83762D01*
X517639Y84426D01*
X517795Y85210D01*
X517639Y85993D01*
X517196Y86657D01*
X516532Y87101D01*
X515748Y87257D01*
X514965Y87101D01*
X514663Y86900D01*
X514157Y86884D01*
X513822Y87385D01*
X513320Y87720D01*
X512729Y87838D01*
D02*
G37*
G36*
X500183Y84710D02*
X497875D01*
Y82204D01*
X498260D01*
X498996Y82350D01*
X499620Y82767D01*
X500037Y83391D01*
X500183Y84127D01*
Y84710D01*
D02*
G37*
G36*
X496875D02*
X494566D01*
Y84127D01*
X494712Y83391D01*
X495129Y82767D01*
X495753Y82350D01*
X496489Y82204D01*
X496875D01*
Y84710D01*
D02*
G37*
G36*
X508746Y84710D02*
X506438D01*
Y82204D01*
X506823D01*
X507559Y82350D01*
X508183Y82767D01*
X508600Y83391D01*
X508746Y84127D01*
Y84710D01*
D02*
G37*
G36*
X505438D02*
X503129D01*
Y84127D01*
X503275Y83391D01*
X503692Y82767D01*
X504316Y82350D01*
X505052Y82204D01*
X505438D01*
Y84710D01*
D02*
G37*
G36*
X491070Y51706D02*
X485520D01*
X485121Y51627D01*
X484782Y51400D01*
X484556Y51062D01*
X484477Y50662D01*
Y49875D01*
X484556Y49476D01*
X484782Y49137D01*
X485121Y48911D01*
X485520Y48831D01*
X491070D01*
X491469Y48911D01*
X491808Y49137D01*
X492034Y49476D01*
X492114Y49875D01*
Y50662D01*
X492034Y51062D01*
X491808Y51400D01*
X491469Y51627D01*
X491070Y51706D01*
D02*
G37*
G36*
Y55446D02*
X485520D01*
X485121Y55367D01*
X484782Y55141D01*
X484556Y54802D01*
X484477Y54403D01*
Y53615D01*
X484556Y53216D01*
X484782Y52877D01*
X485121Y52651D01*
X485520Y52571D01*
X491070D01*
X491469Y52651D01*
X491789Y52865D01*
X493062D01*
X495049Y50877D01*
Y36466D01*
X494746Y36263D01*
X494302Y35599D01*
X494146Y34816D01*
X494302Y34032D01*
X494746Y33368D01*
X495410Y32925D01*
X496194Y32769D01*
X496977Y32925D01*
X497641Y33368D01*
X498085Y34032D01*
X498241Y34816D01*
X498085Y35599D01*
X497641Y36263D01*
X497337Y36466D01*
Y51351D01*
X497250Y51789D01*
X497002Y52160D01*
X494345Y54818D01*
X493974Y55066D01*
X493536Y55153D01*
X491789D01*
X491469Y55367D01*
X491070Y55446D01*
D02*
G37*
G36*
X522257Y43681D02*
X520853Y43543D01*
X519504Y43134D01*
X518261Y42469D01*
X517171Y41575D01*
X516277Y40485D01*
X515612Y39241D01*
X515203Y37892D01*
X515064Y36489D01*
X515203Y35086D01*
X515612Y33737D01*
X516277Y32493D01*
X517171Y31404D01*
X518261Y30509D01*
X519504Y29844D01*
X520853Y29435D01*
X522257Y29297D01*
X523660Y29435D01*
X525009Y29844D01*
X526252Y30509D01*
X527342Y31404D01*
X528236Y32493D01*
X528901Y33737D01*
X529310Y35086D01*
X529449Y36489D01*
X529310Y37892D01*
X528901Y39241D01*
X528236Y40485D01*
X527342Y41575D01*
X526252Y42469D01*
X525009Y43134D01*
X523660Y43543D01*
X522257Y43681D01*
D02*
G37*
G36*
X470524D02*
X469121Y43543D01*
X467772Y43134D01*
X466529Y42469D01*
X465439Y41575D01*
X464544Y40485D01*
X463880Y39241D01*
X463470Y37892D01*
X463332Y36489D01*
X463470Y35086D01*
X463880Y33737D01*
X464544Y32493D01*
X465439Y31404D01*
X466529Y30509D01*
X467772Y29844D01*
X469121Y29435D01*
X470524Y29297D01*
X471927Y29435D01*
X473277Y29844D01*
X474520Y30509D01*
X475610Y31404D01*
X476504Y32493D01*
X477169Y33737D01*
X477578Y35086D01*
X477716Y36489D01*
X477578Y37892D01*
X477169Y39241D01*
X476504Y40485D01*
X475610Y41575D01*
X474520Y42469D01*
X473277Y43134D01*
X471927Y43543D01*
X470524Y43681D01*
D02*
G37*
G36*
X501384Y114422D02*
X500601Y114266D01*
X499937Y113823D01*
X499493Y113158D01*
X499337Y112375D01*
X499493Y111591D01*
X499937Y110927D01*
X500601Y110484D01*
X501384Y110328D01*
X502168Y110484D01*
X502535Y110729D01*
X507171D01*
X521976Y95924D01*
Y53709D01*
X509006Y40739D01*
X508649Y40205D01*
X508524Y39575D01*
Y31229D01*
X506768D01*
Y24426D01*
X513572D01*
Y31229D01*
X511816D01*
Y38893D01*
X524786Y51863D01*
X525143Y52397D01*
X525268Y53027D01*
Y96606D01*
X525143Y97236D01*
X524786Y97770D01*
X509017Y113539D01*
X508483Y113895D01*
X507853Y114021D01*
X502535D01*
X502168Y114266D01*
X501384Y114422D01*
D02*
G37*
G36*
X482611Y31259D02*
X481723Y31142D01*
X480895Y30799D01*
X480185Y30254D01*
X479640Y29543D01*
X479297Y28716D01*
X479180Y27828D01*
X479297Y26940D01*
X479640Y26112D01*
X480185Y25402D01*
X480895Y24857D01*
X481723Y24514D01*
X482611Y24397D01*
X483499Y24514D01*
X484326Y24857D01*
X485037Y25402D01*
X485582Y26112D01*
X485925Y26940D01*
X486042Y27828D01*
X485925Y28716D01*
X485582Y29543D01*
X485037Y30254D01*
X484326Y30799D01*
X483499Y31142D01*
X482611Y31259D01*
D02*
G37*
G36*
X234358Y101931D02*
Y100106D01*
X236183D01*
X236098Y100534D01*
X235573Y101321D01*
X234786Y101846D01*
X234358Y101931D01*
D02*
G37*
G36*
X233358D02*
X232930Y101846D01*
X232144Y101321D01*
X231618Y100534D01*
X231533Y100106D01*
X233358D01*
Y101931D01*
D02*
G37*
G36*
X236183Y99106D02*
X234358D01*
Y97281D01*
X234786Y97366D01*
X235573Y97892D01*
X236098Y98678D01*
X236183Y99106D01*
D02*
G37*
G36*
X233358D02*
X231533D01*
X231618Y98678D01*
X232144Y97892D01*
X232930Y97366D01*
X233358Y97281D01*
Y99106D01*
D02*
G37*
G36*
X319906Y101170D02*
X318717D01*
Y96733D01*
X319906D01*
Y101170D01*
D02*
G37*
G36*
X163434Y96744D02*
X161609D01*
Y94919D01*
X162037Y95004D01*
X162824Y95530D01*
X163349Y96316D01*
X163434Y96744D01*
D02*
G37*
G36*
X160609D02*
X158784D01*
X158869Y96316D01*
X159395Y95530D01*
X160181Y95004D01*
X160609Y94919D01*
Y96744D01*
D02*
G37*
G36*
X318807Y85497D02*
Y83671D01*
X320632D01*
X320547Y84099D01*
X320022Y84886D01*
X319235Y85412D01*
X318807Y85497D01*
D02*
G37*
G36*
X317807D02*
X317379Y85412D01*
X316593Y84886D01*
X316067Y84099D01*
X315982Y83671D01*
X317807D01*
Y85497D01*
D02*
G37*
G36*
X305618D02*
Y83671D01*
X307443D01*
X307358Y84099D01*
X306833Y84886D01*
X306046Y85412D01*
X305618Y85497D01*
D02*
G37*
G36*
X304618D02*
X304190Y85412D01*
X303404Y84886D01*
X302878Y84099D01*
X302793Y83671D01*
X304618D01*
Y85497D01*
D02*
G37*
G36*
X320632Y82671D02*
X318807D01*
Y80846D01*
X319235Y80932D01*
X320022Y81457D01*
X320547Y82244D01*
X320632Y82671D01*
D02*
G37*
G36*
X317807D02*
X315982D01*
X316067Y82244D01*
X316593Y81457D01*
X317379Y80932D01*
X317807Y80846D01*
Y82671D01*
D02*
G37*
G36*
X307443D02*
X305618D01*
Y80846D01*
X306046Y80932D01*
X306833Y81457D01*
X307358Y82244D01*
X307443Y82671D01*
D02*
G37*
G36*
X304618D02*
X302793D01*
X302878Y82244D01*
X303404Y81457D01*
X304190Y80932D01*
X304618Y80846D01*
Y82671D01*
D02*
G37*
G36*
X252330Y78827D02*
X245070D01*
Y71567D01*
X252330D01*
Y78827D01*
D02*
G37*
G36*
X347441Y72107D02*
X342717D01*
X342317Y72027D01*
X341979Y71801D01*
X341752Y71462D01*
X341673Y71063D01*
Y68701D01*
X341752Y68301D01*
X341979Y67963D01*
X342317Y67737D01*
X342717Y67657D01*
X347441D01*
X347840Y67737D01*
X348179Y67963D01*
X348405Y68301D01*
X348485Y68701D01*
Y71063D01*
X348405Y71462D01*
X348179Y71801D01*
X347840Y72027D01*
X347441Y72107D01*
D02*
G37*
G36*
X336811D02*
X332087D01*
X331687Y72027D01*
X331349Y71801D01*
X331122Y71462D01*
X331043Y71063D01*
Y68701D01*
X331122Y68301D01*
X331152Y68257D01*
X331066Y67610D01*
X331046Y67585D01*
X331041Y67581D01*
X330765Y67169D01*
X330668Y66683D01*
Y66445D01*
X334055D01*
X337442D01*
Y66683D01*
X337345Y67169D01*
X337295Y67244D01*
X337216Y67704D01*
X337425Y67880D01*
X337549Y67963D01*
X337775Y68301D01*
X337855Y68701D01*
Y71063D01*
X337775Y71462D01*
X337549Y71801D01*
X337210Y72027D01*
X336811Y72107D01*
D02*
G37*
G36*
X353051Y62087D02*
X352268Y61931D01*
X351604Y61487D01*
X351401Y61183D01*
X348371D01*
X348220Y61409D01*
X347930Y61603D01*
X347589Y61671D01*
X343356D01*
X343015Y61603D01*
X342725Y61409D01*
X342531Y61119D01*
X342463Y60778D01*
Y59301D01*
X342531Y58959D01*
X342725Y58670D01*
X343015Y58476D01*
X343356Y58408D01*
X347589D01*
X347930Y58476D01*
X348220Y58670D01*
X348371Y58895D01*
X351401D01*
X351604Y58592D01*
X352268Y58148D01*
X353051Y57992D01*
X353835Y58148D01*
X354499Y58592D01*
X354943Y59256D01*
X355098Y60039D01*
X354943Y60823D01*
X354499Y61487D01*
X353835Y61931D01*
X353051Y62087D01*
D02*
G37*
G36*
X252330Y68197D02*
X245070D01*
Y60937D01*
X252330D01*
Y68197D01*
D02*
G37*
G36*
X238700Y78858D02*
X237753Y78733D01*
X236870Y78368D01*
X236111Y77786D01*
X235529Y77027D01*
X235164Y76144D01*
X235039Y75197D01*
X235164Y74249D01*
X235529Y73366D01*
X236111Y72608D01*
X236870Y72026D01*
X237054Y71950D01*
Y67814D01*
X236870Y67738D01*
X236111Y67156D01*
X235529Y66398D01*
X235164Y65514D01*
X235039Y64567D01*
X235164Y63619D01*
X235529Y62736D01*
X236111Y61978D01*
X236870Y61396D01*
X237753Y61030D01*
X238700Y60906D01*
X239648Y61030D01*
X240531Y61396D01*
X241289Y61978D01*
X241871Y62736D01*
X242237Y63619D01*
X242361Y64567D01*
X242237Y65514D01*
X241871Y66398D01*
X241289Y67156D01*
X240531Y67738D01*
X240346Y67814D01*
Y71950D01*
X240531Y72026D01*
X241289Y72608D01*
X241871Y73366D01*
X242237Y74249D01*
X242361Y75197D01*
X242237Y76144D01*
X241871Y77027D01*
X241289Y77786D01*
X240531Y78368D01*
X239648Y78733D01*
X238700Y78858D01*
D02*
G37*
G36*
X377039Y68753D02*
X376255Y68597D01*
X375591Y68153D01*
X375147Y67489D01*
X374991Y66706D01*
X375147Y65922D01*
X375591Y65258D01*
X375593Y65223D01*
X375509Y64712D01*
X375120Y64452D01*
X374785Y63951D01*
X374668Y63359D01*
Y61194D01*
X374785Y60602D01*
X375120Y60101D01*
X375622Y59766D01*
X376213Y59648D01*
X377985D01*
X378576Y59766D01*
X379078Y60101D01*
X379413Y60602D01*
X379530Y61194D01*
Y63359D01*
X379413Y63951D01*
X379078Y64452D01*
X378629Y64752D01*
X378550Y65034D01*
X378520Y65308D01*
X378930Y65922D01*
X379086Y66706D01*
X378930Y67489D01*
X378486Y68153D01*
X377822Y68597D01*
X377039Y68753D01*
D02*
G37*
G36*
X191555Y75425D02*
X173839D01*
X173209Y75300D01*
X172675Y74943D01*
X172318Y74409D01*
X172193Y73779D01*
Y56063D01*
X172318Y55433D01*
X172675Y54899D01*
X173209Y54542D01*
X173839Y54417D01*
X191555D01*
X192185Y54542D01*
X192719Y54899D01*
X193076Y55433D01*
X193201Y56063D01*
Y73779D01*
X193076Y74409D01*
X192719Y74943D01*
X192185Y75300D01*
X191555Y75425D01*
D02*
G37*
G36*
X241968Y53898D02*
X233622D01*
Y51656D01*
X231965D01*
X231763Y51959D01*
X231098Y52403D01*
X230315Y52559D01*
X229532Y52403D01*
X228867Y51959D01*
X228424Y51295D01*
X228268Y50512D01*
X228424Y49728D01*
X228867Y49064D01*
X229532Y48620D01*
X230315Y48465D01*
X231098Y48620D01*
X231763Y49064D01*
X231965Y49368D01*
X233622D01*
Y47126D01*
X241968D01*
Y53898D01*
D02*
G37*
G36*
X247417Y52594D02*
Y50769D01*
X249242D01*
X249157Y51196D01*
X248631Y51983D01*
X247845Y52509D01*
X247417Y52594D01*
D02*
G37*
G36*
X246417D02*
X245989Y52509D01*
X245202Y51983D01*
X244677Y51196D01*
X244592Y50769D01*
X246417D01*
Y52594D01*
D02*
G37*
G36*
X289008Y50643D02*
X288426D01*
Y48335D01*
X290931D01*
Y48720D01*
X290785Y49456D01*
X290368Y50080D01*
X289744Y50497D01*
X289008Y50643D01*
D02*
G37*
G36*
X287426D02*
X286843D01*
X286107Y50497D01*
X285483Y50080D01*
X285067Y49456D01*
X284920Y48720D01*
Y48335D01*
X287426D01*
Y50643D01*
D02*
G37*
G36*
X290931Y47335D02*
X288426D01*
Y45026D01*
X289008D01*
X289744Y45172D01*
X290368Y45589D01*
X290785Y46213D01*
X290931Y46949D01*
Y47335D01*
D02*
G37*
G36*
X287426D02*
X284920D01*
Y46949D01*
X285067Y46213D01*
X285483Y45589D01*
X286107Y45172D01*
X286843Y45026D01*
X287426D01*
Y47335D01*
D02*
G37*
G36*
X229035Y43557D02*
X228453D01*
Y41248D01*
X230958D01*
Y41634D01*
X230812Y42370D01*
X230395Y42994D01*
X229771Y43410D01*
X229035Y43557D01*
D02*
G37*
G36*
X227453D02*
X226870D01*
X226134Y43410D01*
X225510Y42994D01*
X225094Y42370D01*
X224947Y41634D01*
Y41248D01*
X227453D01*
Y43557D01*
D02*
G37*
G36*
X326476Y44370D02*
X325693Y44214D01*
X325029Y43770D01*
X324585Y43106D01*
X324429Y42323D01*
X324585Y41539D01*
X325029Y40875D01*
X325693Y40431D01*
X326476Y40276D01*
X327260Y40431D01*
X327924Y40875D01*
X328127Y41179D01*
X331157D01*
X331307Y40953D01*
X331597Y40760D01*
X331939Y40692D01*
X336171D01*
X336513Y40760D01*
X336803Y40953D01*
X336996Y41243D01*
X337064Y41585D01*
Y43061D01*
X336996Y43403D01*
X336803Y43693D01*
X336513Y43886D01*
X336171Y43954D01*
X331939D01*
X331597Y43886D01*
X331307Y43693D01*
X331157Y43467D01*
X328127D01*
X327924Y43770D01*
X327260Y44214D01*
X326476Y44370D01*
D02*
G37*
G36*
X248000Y42402D02*
X247417D01*
Y40093D01*
X249922D01*
Y40479D01*
X249776Y41215D01*
X249359Y41839D01*
X248735Y42256D01*
X248000Y42402D01*
D02*
G37*
G36*
X246417D02*
X245834D01*
X245098Y42256D01*
X244475Y41839D01*
X244058Y41215D01*
X243911Y40479D01*
Y40093D01*
X246417D01*
Y42402D01*
D02*
G37*
G36*
X230958Y40248D02*
X228453D01*
Y37939D01*
X229035D01*
X229771Y38086D01*
X230395Y38503D01*
X230812Y39126D01*
X230958Y39862D01*
Y40248D01*
D02*
G37*
G36*
X227453D02*
X224947D01*
Y39862D01*
X225094Y39126D01*
X225510Y38503D01*
X226134Y38086D01*
X226870Y37939D01*
X227453D01*
Y40248D01*
D02*
G37*
G36*
X254299Y42025D02*
X252133D01*
X251542Y41907D01*
X251040Y41572D01*
X250705Y41071D01*
X250588Y40479D01*
Y38708D01*
X250705Y38116D01*
X251040Y37615D01*
X251542Y37280D01*
X252133Y37162D01*
X254299D01*
X254890Y37280D01*
X255391Y37615D01*
X255726Y38116D01*
X255757Y38268D01*
X256277Y38322D01*
X256394Y38146D01*
X257059Y37702D01*
X257842Y37546D01*
X258625Y37702D01*
X259290Y38146D01*
X259733Y38810D01*
X259889Y39593D01*
X259733Y40377D01*
X259290Y41041D01*
X258625Y41485D01*
X257842Y41641D01*
X257059Y41485D01*
X256394Y41041D01*
X256277Y40866D01*
X255757Y40919D01*
X255726Y41071D01*
X255391Y41572D01*
X254890Y41907D01*
X254299Y42025D01*
D02*
G37*
G36*
X272736Y41998D02*
X270965D01*
X270373Y41881D01*
X269872Y41546D01*
X269537Y41044D01*
X269419Y40453D01*
Y38287D01*
X269537Y37696D01*
X269872Y37195D01*
X270373Y36860D01*
X270965Y36742D01*
X272736D01*
X273328Y36860D01*
X273829Y37195D01*
X274164Y37696D01*
X274282Y38287D01*
Y38357D01*
X275121D01*
X275324Y38053D01*
X275988Y37609D01*
X276772Y37453D01*
X277555Y37609D01*
X278219Y38053D01*
X278663Y38717D01*
X278819Y39501D01*
X278663Y40284D01*
X278219Y40948D01*
X277555Y41392D01*
X276772Y41548D01*
X275988Y41392D01*
X275324Y40948D01*
X275121Y40645D01*
X274243D01*
X274164Y41044D01*
X273829Y41546D01*
X273328Y41881D01*
X272736Y41998D01*
D02*
G37*
G36*
X242339Y39776D02*
X238295D01*
Y36520D01*
X242339D01*
Y39776D01*
D02*
G37*
G36*
X237295D02*
X233252D01*
Y36520D01*
X237295D01*
Y39776D01*
D02*
G37*
G36*
X249922Y39094D02*
X246917D01*
X243911D01*
Y38708D01*
X244058Y37972D01*
X244475Y37348D01*
X245070Y36950D01*
X244677Y36361D01*
X244592Y35933D01*
X249242D01*
X249157Y36361D01*
X248763Y36950D01*
X249359Y37348D01*
X249776Y37972D01*
X249922Y38708D01*
Y39094D01*
D02*
G37*
G36*
X336811Y22894D02*
X332087D01*
X331687Y22815D01*
X331349Y22588D01*
X331122Y22250D01*
X331043Y21850D01*
Y19488D01*
X331122Y19089D01*
X331349Y18750D01*
X331687Y18524D01*
X332087Y18444D01*
X336811D01*
X337210Y18524D01*
X337549Y18750D01*
X337775Y19089D01*
X337855Y19488D01*
Y21850D01*
X337775Y22250D01*
X337549Y22588D01*
X337210Y22815D01*
X336811Y22894D01*
D02*
G37*
G36*
X252099Y116187D02*
X251112Y116057D01*
X250193Y115676D01*
X249403Y115071D01*
X248798Y114281D01*
X248417Y113362D01*
X248287Y112375D01*
X248417Y111388D01*
X248798Y110469D01*
X249403Y109679D01*
X250193Y109074D01*
X251112Y108693D01*
X252099Y108563D01*
X253086Y108693D01*
X254005Y109074D01*
X254795Y109679D01*
X255400Y110469D01*
X255781Y111388D01*
X255911Y112375D01*
X255781Y113362D01*
X255400Y114281D01*
X254795Y115071D01*
X254005Y115676D01*
X253086Y116057D01*
X252099Y116187D01*
D02*
G37*
G36*
X409776Y72123D02*
X408989D01*
X408589Y72044D01*
X408251Y71818D01*
X408025Y71479D01*
X407945Y71080D01*
Y65530D01*
X408025Y65131D01*
X408251Y64792D01*
X408589Y64566D01*
X408989Y64486D01*
X409776D01*
X410176Y64566D01*
X410514Y64792D01*
X410740Y65131D01*
X410820Y65530D01*
Y71080D01*
X410740Y71479D01*
X410514Y71818D01*
X410176Y72044D01*
X409776Y72123D01*
D02*
G37*
G36*
X422768Y50076D02*
X421981D01*
X421582Y49997D01*
X421243Y49770D01*
X421017Y49432D01*
X420937Y49033D01*
Y43483D01*
X421017Y43083D01*
X421243Y42745D01*
X421582Y42519D01*
X421981Y42439D01*
X422768D01*
X423168Y42519D01*
X423506Y42745D01*
X423733Y43083D01*
X423812Y43483D01*
Y49033D01*
X423733Y49432D01*
X423506Y49770D01*
X423168Y49997D01*
X422768Y50076D01*
D02*
G37*
%LPD*%
D10*
X110302Y80886D02*
X115224D01*
X110302Y74811D02*
X115224D01*
D11*
X246832Y45808D02*
X259909D01*
X246790Y45766D02*
X246832Y45808D01*
Y45414D02*
X246917Y45499D01*
X265814Y45808D02*
X265857Y45851D01*
X121129Y80886D02*
X121470Y80545D01*
X129844D01*
X130184Y80205D01*
X121129Y74811D02*
X121326Y75008D01*
X129988D01*
X130184Y75205D01*
X264830Y45893D02*
X264929Y45991D01*
D18*
X334449Y20669D02*
D03*
X345079D02*
D03*
X334449Y69882D02*
D03*
X345079D02*
D03*
D19*
X334055Y65945D02*
D03*
X345472Y63976D02*
D03*
X334055Y62008D02*
D03*
X345472Y60039D02*
D03*
X334055Y58071D02*
D03*
X345472Y56102D02*
D03*
X334055Y54134D02*
D03*
X345472Y52165D02*
D03*
X334055Y50197D02*
D03*
X345472Y48228D02*
D03*
X334055Y46260D02*
D03*
X345472Y44291D02*
D03*
X334055Y42323D02*
D03*
X345472Y40354D02*
D03*
X334055Y38386D02*
D03*
X345472Y36417D02*
D03*
X334055Y34449D02*
D03*
X345472Y32480D02*
D03*
X334055Y30512D02*
D03*
X345472Y28543D02*
D03*
X334055Y26575D02*
D03*
X345472Y24606D02*
D03*
D20*
X265945Y39370D02*
D03*
X271850D02*
D03*
X64008Y52631D02*
D03*
X69914D02*
D03*
X41371Y67985D02*
D03*
X47276D02*
D03*
X41469Y74875D02*
D03*
X47375D02*
D03*
X511843Y85210D02*
D03*
X505938D02*
D03*
X491469Y85210D02*
D03*
X497375D02*
D03*
X383004Y62277D02*
D03*
X377099D02*
D03*
X115224Y80886D02*
D03*
X121129D02*
D03*
X115224Y74811D02*
D03*
X121129D02*
D03*
X259909Y45808D02*
D03*
X265814D02*
D03*
D21*
X488295Y57749D02*
D03*
Y54009D02*
D03*
Y50269D02*
D03*
X478501D02*
D03*
Y54009D02*
D03*
Y57749D02*
D03*
D22*
X144023Y160957D02*
D03*
Y166863D02*
D03*
X53597Y158989D02*
D03*
Y164894D02*
D03*
X42054Y180905D02*
D03*
Y175000D02*
D03*
X48282D02*
D03*
Y180905D02*
D03*
X36077Y175000D02*
D03*
Y180905D02*
D03*
X28301Y157119D02*
D03*
Y163024D02*
D03*
X157841Y184843D02*
D03*
Y178937D02*
D03*
X163865D02*
D03*
Y184843D02*
D03*
X151700Y178937D02*
D03*
Y184843D02*
D03*
X168924Y162729D02*
D03*
Y168634D02*
D03*
X34574Y127394D02*
D03*
Y133300D02*
D03*
X40600Y133268D02*
D03*
Y127362D02*
D03*
X46850D02*
D03*
Y133268D02*
D03*
X26208Y109678D02*
D03*
Y115583D02*
D03*
X50420Y111449D02*
D03*
Y117355D02*
D03*
X528969Y138261D02*
D03*
Y132355D02*
D03*
X300394Y47835D02*
D03*
Y41929D02*
D03*
X294127D02*
D03*
Y47835D02*
D03*
X287926Y41929D02*
D03*
Y47835D02*
D03*
X246917Y45499D02*
D03*
Y39593D02*
D03*
X253216Y45499D02*
D03*
Y39593D02*
D03*
X227953Y40748D02*
D03*
Y34843D02*
D03*
D23*
X99758Y169127D02*
D03*
Y158890D02*
D03*
X215479Y172965D02*
D03*
Y162729D02*
D03*
X98550Y121882D02*
D03*
Y111646D02*
D03*
X237795Y40276D02*
D03*
Y50512D02*
D03*
D24*
X61766Y158989D02*
D03*
X84601D02*
D03*
X178865Y162729D02*
D03*
X201700D02*
D03*
X60066Y111548D02*
D03*
X82901D02*
D03*
D25*
X46411Y142552D02*
D03*
X36175D02*
D03*
X161936Y146489D02*
D03*
X151700D02*
D03*
X44416Y93733D02*
D03*
X34180D02*
D03*
D26*
X36077Y157178D02*
D03*
X39817D02*
D03*
X43557D02*
D03*
X36077Y166508D02*
D03*
X39817D02*
D03*
X43557D02*
D03*
X151700Y161016D02*
D03*
X155440D02*
D03*
X159180D02*
D03*
X151700Y170347D02*
D03*
X155440D02*
D03*
X159180D02*
D03*
X34377Y109638D02*
D03*
X38117D02*
D03*
X41857D02*
D03*
X34377Y118969D02*
D03*
X38117D02*
D03*
X41857D02*
D03*
D27*
X27394Y68084D02*
D03*
X31134Y76351D02*
D03*
X34875Y68084D02*
D03*
X386843Y77139D02*
D03*
X383103Y68871D02*
D03*
X379363Y77139D02*
D03*
D28*
X42478Y55485D02*
D03*
Y52926D02*
D03*
Y50367D02*
D03*
Y47808D02*
D03*
X51878D02*
D03*
Y50367D02*
D03*
Y52926D02*
D03*
Y55485D02*
D03*
D29*
X399737Y46258D02*
D03*
X395997D02*
D03*
X392256D02*
D03*
Y56051D02*
D03*
X395997D02*
D03*
X399737D02*
D03*
X413123Y68305D02*
D03*
X409382D02*
D03*
X405642D02*
D03*
Y78099D02*
D03*
X409382D02*
D03*
X413123D02*
D03*
X426115Y46258D02*
D03*
X422375D02*
D03*
X418634D02*
D03*
Y56051D02*
D03*
X422375D02*
D03*
X426115D02*
D03*
D30*
X408595Y31076D02*
D03*
X410564D02*
D03*
X412532D02*
D03*
X414501D02*
D03*
X416469D02*
D03*
X418438D02*
D03*
X420406D02*
D03*
X422375D02*
D03*
X424343D02*
D03*
X426312D02*
D03*
X406627D02*
D03*
X404658D02*
D03*
X402690D02*
D03*
X400721D02*
D03*
X398753D02*
D03*
X396784D02*
D03*
X394815D02*
D03*
X392847D02*
D03*
X390879D02*
D03*
D31*
X182697Y64921D02*
D03*
D32*
X212224Y35394D02*
D03*
Y40394D02*
D03*
Y45394D02*
D03*
Y50394D02*
D03*
Y55394D02*
D03*
Y60394D02*
D03*
Y65394D02*
D03*
Y70394D02*
D03*
Y75394D02*
D03*
Y80394D02*
D03*
Y85394D02*
D03*
Y90394D02*
D03*
Y95394D02*
D03*
Y100394D02*
D03*
X145295D02*
D03*
Y95394D02*
D03*
Y90394D02*
D03*
Y85394D02*
D03*
Y80394D02*
D03*
Y75394D02*
D03*
Y70394D02*
D03*
Y65394D02*
D03*
Y60394D02*
D03*
Y55394D02*
D03*
Y50394D02*
D03*
Y45394D02*
D03*
Y40394D02*
D03*
Y35394D02*
D03*
D33*
X201260Y104331D02*
D03*
X196260D02*
D03*
X191260D02*
D03*
X186260D02*
D03*
X181260D02*
D03*
X176260D02*
D03*
X171260D02*
D03*
X166260D02*
D03*
X161260D02*
D03*
X156260D02*
D03*
D34*
X136090Y75205D02*
D03*
X130184D02*
D03*
X136090Y80205D02*
D03*
X130184D02*
D03*
D35*
X258989Y96233D02*
D03*
X259579Y128517D02*
D03*
X261351Y96233D02*
D03*
X261942Y128517D02*
D03*
X263713Y96233D02*
D03*
X264304Y128517D02*
D03*
X266075Y96233D02*
D03*
X266666Y128517D02*
D03*
X268438Y96233D02*
D03*
X269028Y128517D02*
D03*
X270800Y96233D02*
D03*
X271390Y128517D02*
D03*
X273162Y96233D02*
D03*
X273753Y128517D02*
D03*
X275524Y96233D02*
D03*
X276115Y128517D02*
D03*
X277886Y96233D02*
D03*
X278477Y128517D02*
D03*
X280249Y96233D02*
D03*
X280839Y128517D02*
D03*
X282611Y96233D02*
D03*
X283201Y128517D02*
D03*
X284973Y96233D02*
D03*
X285564Y128517D02*
D03*
X287335Y96233D02*
D03*
X287926Y128517D02*
D03*
X289697Y96233D02*
D03*
X290288Y128517D02*
D03*
X292060Y96233D02*
D03*
X292650Y128517D02*
D03*
X294422Y96233D02*
D03*
X295012Y128517D02*
D03*
X296784Y96233D02*
D03*
X297375Y128517D02*
D03*
X299146Y96233D02*
D03*
X299737Y128517D02*
D03*
X301508Y96233D02*
D03*
X302099Y128517D02*
D03*
X303871Y96233D02*
D03*
X304461Y128517D02*
D03*
X320406Y96233D02*
D03*
X320997Y128517D02*
D03*
X322768Y96233D02*
D03*
X323359Y128517D02*
D03*
X325131Y96233D02*
D03*
X325721Y128517D02*
D03*
X327493Y96233D02*
D03*
X328083Y128517D02*
D03*
X329855Y96233D02*
D03*
X330446Y128517D02*
D03*
X332217Y96233D02*
D03*
X332808Y128517D02*
D03*
X334579Y96233D02*
D03*
X335170Y128517D02*
D03*
X336942Y96233D02*
D03*
X337532Y128517D02*
D03*
X339304Y96233D02*
D03*
X339894Y128517D02*
D03*
X341666Y96233D02*
D03*
X342256Y128517D02*
D03*
X344028Y96233D02*
D03*
X344619Y128517D02*
D03*
X346390Y96233D02*
D03*
X346981Y128517D02*
D03*
X348753Y96233D02*
D03*
X349343Y128517D02*
D03*
X351115Y96233D02*
D03*
X351705Y128517D02*
D03*
X353477Y96233D02*
D03*
X354067Y128517D02*
D03*
X355839Y96233D02*
D03*
X356430Y128517D02*
D03*
X358201Y96233D02*
D03*
X358792Y128517D02*
D03*
X360564Y96233D02*
D03*
X361154Y128517D02*
D03*
X362926Y96233D02*
D03*
X363516Y128517D02*
D03*
X365288Y96233D02*
D03*
X365879Y128517D02*
D03*
X367650Y96233D02*
D03*
X368241Y128517D02*
D03*
X370012Y96233D02*
D03*
X370603Y128517D02*
D03*
X372375Y96233D02*
D03*
X372965Y128517D02*
D03*
X374737Y96233D02*
D03*
X375327Y128517D02*
D03*
X377099Y96233D02*
D03*
X377690Y128517D02*
D03*
X379461Y96233D02*
D03*
X380052Y128517D02*
D03*
X381823Y96233D02*
D03*
X382414Y128517D02*
D03*
X384186Y96233D02*
D03*
X384776Y128517D02*
D03*
X386548Y96233D02*
D03*
X387138Y128517D02*
D03*
X388910Y96233D02*
D03*
X389501Y128517D02*
D03*
X391272Y96233D02*
D03*
X391863Y128517D02*
D03*
X393634Y96233D02*
D03*
X394225Y128517D02*
D03*
X395997Y96233D02*
D03*
X396587Y128517D02*
D03*
X398359Y96233D02*
D03*
X398949Y128517D02*
D03*
X400721Y96233D02*
D03*
X401312Y128517D02*
D03*
X403083Y96233D02*
D03*
X403674Y128517D02*
D03*
X405445Y96233D02*
D03*
X406036Y128517D02*
D03*
X407808Y96233D02*
D03*
X408398Y128517D02*
D03*
X410170Y96233D02*
D03*
X410760Y128517D02*
D03*
X412532Y96233D02*
D03*
X413123Y128517D02*
D03*
X414894Y96233D02*
D03*
X415485Y128517D02*
D03*
X417256Y96233D02*
D03*
X417847Y128517D02*
D03*
X419619Y96233D02*
D03*
X420209Y128517D02*
D03*
X421981Y96233D02*
D03*
X422572Y128517D02*
D03*
X424343Y96233D02*
D03*
X424934Y128517D02*
D03*
X426705Y96233D02*
D03*
X427296Y128517D02*
D03*
X429068Y96233D02*
D03*
X429658Y128517D02*
D03*
X431430Y96233D02*
D03*
X432020Y128517D02*
D03*
X433792Y96233D02*
D03*
X434382Y128517D02*
D03*
X436154Y96233D02*
D03*
X436745Y128517D02*
D03*
X438516Y96233D02*
D03*
X439107Y128517D02*
D03*
X440878Y96233D02*
D03*
X441469Y128517D02*
D03*
X443241Y96233D02*
D03*
X443831Y128517D02*
D03*
X445603Y96233D02*
D03*
X446194Y128517D02*
D03*
X447965Y96233D02*
D03*
X448556Y128517D02*
D03*
X450327Y96233D02*
D03*
X450918Y128517D02*
D03*
X452690Y96233D02*
D03*
X453280Y128517D02*
D03*
X455052Y96233D02*
D03*
X455642Y128517D02*
D03*
X457414Y96233D02*
D03*
X458005Y128517D02*
D03*
X459776Y96233D02*
D03*
X460367Y128517D02*
D03*
X462138Y96233D02*
D03*
X462729Y128517D02*
D03*
X464501Y96233D02*
D03*
X465091Y128517D02*
D03*
X466863Y96233D02*
D03*
X467453Y128517D02*
D03*
X469225Y96233D02*
D03*
X469815Y128517D02*
D03*
X471587Y96233D02*
D03*
X472178Y128517D02*
D03*
X473949Y96233D02*
D03*
X474540Y128517D02*
D03*
X476312Y96233D02*
D03*
X476902Y128517D02*
D03*
X478674Y96233D02*
D03*
X479264Y128517D02*
D03*
X481036Y96233D02*
D03*
X481627Y128517D02*
D03*
X483398Y96233D02*
D03*
X483989Y128517D02*
D03*
X485760Y96233D02*
D03*
X486351Y128517D02*
D03*
X488123Y96233D02*
D03*
X488713Y128517D02*
D03*
X490485Y96233D02*
D03*
X491075Y128517D02*
D03*
X492847Y96233D02*
D03*
X493438Y128517D02*
D03*
X495209Y96233D02*
D03*
X495800Y128517D02*
D03*
X497572Y96233D02*
D03*
X498162Y128517D02*
D03*
X499934Y96233D02*
D03*
X500524Y128517D02*
D03*
X502296Y96233D02*
D03*
X502886Y128517D02*
D03*
X504658Y96233D02*
D03*
X505249Y128517D02*
D03*
X507020Y96233D02*
D03*
X507611Y128517D02*
D03*
D36*
X511745Y159619D02*
D03*
X255446D02*
D03*
D66*
X466772Y76830D02*
G03*
X466863Y76921I0J91D01*
G01*
X466772Y76830D02*
G03*
X466063Y76122I0J-709D01*
G01*
D02*
G03*
X466772Y75413I709J0D01*
G01*
X467650Y74704D02*
G03*
X466942Y75413I-709J0D01*
G01*
Y73996D02*
G03*
X467650Y74704I0J709D01*
G01*
X466772Y73996D02*
G03*
X466063Y73287I0J-709D01*
G01*
D02*
G03*
X466772Y72578I709J0D01*
G01*
X467650Y71870D02*
G03*
X466942Y72578I-709J0D01*
G01*
Y71161D02*
G03*
X467650Y71870I0J709D01*
G01*
X466772Y71161D02*
G03*
X466063Y70452I0J-709D01*
G01*
D02*
G03*
X466772Y69744I709J0D01*
G01*
X467650Y69035D02*
G03*
X466942Y69744I-709J0D01*
G01*
Y68326D02*
G03*
X467650Y69035I0J709D01*
G01*
X466772Y68326D02*
G03*
X466063Y67618I0J-709D01*
G01*
D02*
G03*
X466772Y66909I709J0D01*
G01*
X467650Y66200D02*
G03*
X466942Y66909I-709J0D01*
G01*
Y65492D02*
G03*
X467650Y66200I0J709D01*
G01*
X466772Y65492D02*
G03*
X466063Y64783I0J-709D01*
G01*
D02*
G03*
X466772Y64074I709J0D01*
G01*
X467650Y63366D02*
G03*
X466942Y64074I-709J0D01*
G01*
Y62657D02*
G03*
X467650Y63366I0J709D01*
G01*
X466772Y62657D02*
G03*
X466063Y61948I0J-709D01*
G01*
D02*
G03*
X466772Y61240I709J0D01*
G01*
X467650Y60531D02*
G03*
X466942Y61240I-709J0D01*
G01*
Y59822D02*
G03*
X467650Y60531I0J709D01*
G01*
X466772Y59822D02*
G03*
X466063Y59114I0J-709D01*
G01*
D02*
G03*
X466772Y58405I709J0D01*
G01*
X466863Y58314D02*
G03*
X466772Y58405I-91J0D01*
G01*
X431430Y52296D02*
G03*
X431430Y53714I0J709D01*
G01*
Y55131D02*
G03*
X431430Y53714I0J-709D01*
G01*
Y55131D02*
G03*
X431430Y56548I0J709D01*
G01*
Y57965D02*
G03*
X431430Y56548I0J-709D01*
G01*
Y57965D02*
G03*
X431430Y59383I0J709D01*
G01*
Y60800D02*
G03*
X431430Y59383I0J-709D01*
G01*
Y60800D02*
G03*
X431430Y62217I0J709D01*
G01*
Y63635D02*
G03*
X431430Y62217I0J-709D01*
G01*
Y63635D02*
G03*
X431430Y65052I0J709D01*
G01*
Y66469D02*
G03*
X431430Y65052I0J-709D01*
G01*
Y66469D02*
G03*
X431430Y67887I0J709D01*
G01*
Y69304D02*
G03*
X431430Y67887I0J-709D01*
G01*
Y69304D02*
G03*
X431430Y70721I0J709D01*
G01*
Y72139D02*
G03*
X431430Y70721I0J-709D01*
G01*
Y72139D02*
G03*
X431430Y73556I0J709D01*
G01*
Y74973D02*
G03*
X431430Y73556I0J-709D01*
G01*
X459776Y76213D02*
G03*
X459776Y74795I54J-709D01*
G01*
Y73378D02*
G03*
X459776Y74795I0J709D01*
G01*
Y73378D02*
G03*
X459776Y71961I0J-709D01*
G01*
Y70543D02*
G03*
X459776Y71961I0J709D01*
G01*
Y70543D02*
G03*
X459776Y69126I0J-709D01*
G01*
Y67709D02*
G03*
X459776Y69126I0J709D01*
G01*
Y67709D02*
G03*
X459776Y66291I0J-709D01*
G01*
Y64874D02*
G03*
X459776Y66291I0J709D01*
G01*
Y64874D02*
G03*
X459776Y63457I0J-709D01*
G01*
Y62040D02*
G03*
X459776Y63457I0J709D01*
G01*
Y62040D02*
G03*
X459776Y60622I0J-709D01*
G01*
Y59205D02*
G03*
X459776Y60622I0J709D01*
G01*
Y59205D02*
G03*
X459776Y57788I0J-709D01*
G01*
Y56370D02*
G03*
X459776Y57788I0J709D01*
G01*
Y56370D02*
G03*
X459776Y54953I0J-709D01*
G01*
Y53536D02*
G03*
X459776Y54953I0J709D01*
G01*
Y53536D02*
G03*
X459776Y52118I0J-709D01*
G01*
Y50701D02*
G03*
X459776Y52118I0J709D01*
G01*
Y50701D02*
G03*
X459776Y49284I0J-709D01*
G01*
Y47866D02*
G03*
X459776Y49284I0J709D01*
G01*
Y47866D02*
G03*
X459776Y46449I0J-709D01*
G01*
Y45032D02*
G03*
X459776Y46449I0J709D01*
G01*
Y45032D02*
G03*
X459776Y43614I0J-709D01*
G01*
Y42197D02*
G03*
X459776Y43614I0J709D01*
G01*
X455052Y74528D02*
G03*
X455052Y75945I0J709D01*
G01*
Y74528D02*
G03*
X455052Y73110I0J-709D01*
G01*
Y71693D02*
G03*
X455052Y73110I0J709D01*
G01*
Y71693D02*
G03*
X455052Y70276I0J-709D01*
G01*
Y68858D02*
G03*
X455052Y70276I0J709D01*
G01*
Y68858D02*
G03*
X455052Y67441I0J-709D01*
G01*
Y66024D02*
G03*
X455052Y67441I0J709D01*
G01*
Y66024D02*
G03*
X455052Y64606I0J-709D01*
G01*
Y63189D02*
G03*
X455052Y64606I0J709D01*
G01*
Y63189D02*
G03*
X455052Y61772I0J-709D01*
G01*
Y60354D02*
G03*
X455052Y61772I0J709D01*
G01*
Y60354D02*
G03*
X455052Y58937I0J-709D01*
G01*
Y57520D02*
G03*
X455052Y58937I0J709D01*
G01*
X445603Y74363D02*
G03*
X445603Y75780I0J709D01*
G01*
Y74363D02*
G03*
X445603Y72946I0J-709D01*
G01*
Y71529D02*
G03*
X445603Y72946I0J709D01*
G01*
Y71529D02*
G03*
X445603Y70111I0J-709D01*
G01*
Y68694D02*
G03*
X445603Y70111I0J709D01*
G01*
Y68694D02*
G03*
X445603Y67277I0J-709D01*
G01*
Y65859D02*
G03*
X445603Y67277I0J709D01*
G01*
Y65859D02*
G03*
X445603Y64442I0J-709D01*
G01*
Y63024D02*
G03*
X445603Y64442I0J709D01*
G01*
Y63024D02*
G03*
X445603Y61607I0J-709D01*
G01*
Y60190D02*
G03*
X445603Y61607I0J709D01*
G01*
Y60190D02*
G03*
X445603Y58773I0J-709D01*
G01*
Y57355D02*
G03*
X445603Y58773I0J709D01*
G01*
Y57355D02*
G03*
X445603Y55938I0J-709D01*
G01*
Y54521D02*
G03*
X445603Y55938I0J709D01*
G01*
Y54521D02*
G03*
X445603Y53103I0J-709D01*
G01*
Y51686D02*
G03*
X445603Y53103I0J709D01*
G01*
X440878Y75682D02*
G03*
X440878Y74265I0J-709D01*
G01*
Y72847D02*
G03*
X440878Y74265I0J709D01*
G01*
Y72847D02*
G03*
X440878Y71430I0J-709D01*
G01*
Y70013D02*
G03*
X440878Y71430I0J709D01*
G01*
Y70013D02*
G03*
X440878Y68595I0J-709D01*
G01*
Y67178D02*
G03*
X440878Y68595I0J709D01*
G01*
Y67178D02*
G03*
X440878Y65761I0J-709D01*
G01*
Y64344D02*
G03*
X440878Y65761I0J709D01*
G01*
Y64344D02*
G03*
X440878Y62926I0J-709D01*
G01*
Y61509D02*
G03*
X440878Y62926I0J709D01*
G01*
Y61509D02*
G03*
X440878Y60092I0J-709D01*
G01*
Y58674D02*
G03*
X440878Y60092I0J709D01*
G01*
X505905Y98425D02*
Y98819D01*
X497473Y96135D02*
X497572Y96233D01*
X497375Y85210D02*
X497473Y85308D01*
X466863Y77953D02*
Y96233D01*
Y55584D02*
Y57696D01*
Y76921D02*
Y77953D01*
X466772Y75413D02*
X466863D01*
X466942D01*
X466863Y73996D02*
X466942D01*
X466772D02*
X466863D01*
X466772Y72578D02*
X466863D01*
X466942D01*
X466863Y71161D02*
X466942D01*
X466772D02*
X466863D01*
X466772Y69744D02*
X466863D01*
X466942D01*
X466863Y68326D02*
X466942D01*
X466772D02*
X466863D01*
X466772Y66909D02*
X466863D01*
X466942D01*
X466863Y65492D02*
X466942D01*
X466772D02*
X466863D01*
X466772Y64074D02*
X466863D01*
X466942D01*
X466863Y62657D02*
X466942D01*
X466772D02*
X466863D01*
X466772Y61240D02*
X466863D01*
X466942D01*
X466863Y59822D02*
X466942D01*
X466772D02*
X466863D01*
Y57696D02*
Y58314D01*
Y55584D02*
X472178Y50269D01*
X478477D01*
X469225Y60013D02*
Y76772D01*
Y96233D01*
Y60013D02*
X471489Y57749D01*
X478477D01*
X283201Y177690D02*
X283217Y177705D01*
X283201Y128517D02*
Y177690D01*
X285564Y173004D02*
X285934Y173374D01*
X285564Y128517D02*
Y173004D01*
X271406Y161398D02*
X271460Y161344D01*
Y159420D02*
Y161344D01*
X271390Y159351D02*
X271460Y159420D01*
X271406Y161398D02*
Y169043D01*
X271390Y128517D02*
Y159351D01*
X269028Y128517D02*
X269137Y128625D01*
Y160382D01*
X276115Y151374D02*
X276461Y151720D01*
X276115Y128517D02*
Y151374D01*
X278477Y146981D02*
X278740Y147244D01*
X278477Y128517D02*
Y146981D01*
X426705Y76772D02*
Y96233D01*
Y60407D02*
Y68504D01*
Y70394D02*
Y76772D01*
X426096Y70394D02*
X426705D01*
X426096Y69134D02*
Y70394D01*
Y69134D02*
X426705D01*
Y68504D02*
Y69134D01*
X426016Y59718D02*
X426705Y60407D01*
X426016Y56150D02*
Y59718D01*
X424343Y64774D02*
Y96233D01*
X417256Y75197D02*
Y79527D01*
Y96233D01*
Y63450D02*
Y75197D01*
Y63450D02*
X418728Y61979D01*
Y56145D02*
Y61979D01*
X419619Y62870D02*
Y96233D01*
Y62870D02*
X420367Y62121D01*
Y51619D02*
Y62121D01*
X418721Y49973D02*
X420367Y51619D01*
X418721Y46344D02*
Y49973D01*
X414501Y48819D02*
Y64621D01*
Y46469D02*
Y48819D01*
Y46469D02*
X415209D01*
Y45052D02*
Y46469D01*
X414501Y45052D02*
X415209D01*
X414501Y43634D02*
Y45052D01*
Y43634D02*
X415209D01*
Y42217D02*
Y43634D01*
X414501Y42217D02*
X415209D01*
X414501Y40800D02*
Y42217D01*
Y40800D02*
X415209D01*
Y39382D02*
Y40800D01*
X414501Y39382D02*
X415209D01*
X414501Y37965D02*
Y39382D01*
Y37257D02*
Y37965D01*
Y31076D02*
Y37257D01*
X405642Y74186D02*
Y78099D01*
X403910Y72454D02*
X405642Y74186D01*
X403910Y59842D02*
Y72454D01*
Y40719D02*
Y48425D01*
Y57953D01*
X404293D01*
Y59213D01*
X403910D02*
X404293D01*
X403910D02*
Y59842D01*
Y40719D02*
X404658Y39971D01*
Y31076D02*
Y39971D01*
X408595Y31076D02*
Y60899D01*
X405642Y63851D02*
Y68305D01*
Y63851D02*
X408595Y60899D01*
X410229Y92069D02*
Y99717D01*
Y92069D02*
X411272Y91026D01*
X431430Y76391D02*
Y96233D01*
Y33852D02*
Y51181D01*
Y52296D01*
Y74973D02*
Y76391D01*
X429449Y31871D02*
X431430Y33852D01*
X429449Y24397D02*
Y31871D01*
X426718Y21666D02*
X429449Y24397D01*
X375972Y21666D02*
X426718D01*
X372375Y25263D02*
X375972Y21666D01*
X372375Y25263D02*
Y34792D01*
X355001Y52165D02*
X372375Y34792D01*
X345472Y52165D02*
X355001D01*
X433792Y34433D02*
Y96233D01*
X430709Y31350D02*
X433792Y34433D01*
X430709Y23875D02*
Y31350D01*
X427240Y20406D02*
X430709Y23875D01*
X375450Y20406D02*
X427240D01*
X371115Y24741D02*
X375450Y20406D01*
X371115Y24741D02*
Y34270D01*
X354480Y50906D02*
X371115Y34270D01*
X350450Y50906D02*
X354480D01*
X349741Y50197D02*
X350450Y50906D01*
X334055Y50197D02*
X349741D01*
X459776Y76772D02*
Y96233D01*
Y76213D02*
Y76772D01*
Y40780D02*
Y42197D01*
X450000Y31004D02*
X459548Y40551D01*
X459776Y40780D01*
X450000Y21260D02*
Y31004D01*
X455052Y76772D02*
Y96233D01*
Y37837D02*
Y56102D01*
Y75945D02*
Y76772D01*
Y56102D02*
Y57520D01*
X447638Y30423D02*
X455052Y37837D01*
X447638Y19308D02*
Y30423D01*
X441178Y12847D02*
X447638Y19308D01*
X372319Y12847D02*
X441178D01*
X363556Y21610D02*
X372319Y12847D01*
X363556Y21610D02*
Y31139D01*
X362215Y32480D02*
X363556Y31139D01*
X345472Y32480D02*
X362215D01*
X445603Y80315D02*
Y96233D01*
Y33733D02*
Y50269D01*
Y80032D02*
Y80315D01*
Y78615D02*
Y80032D01*
Y77198D02*
Y78615D01*
Y75780D02*
Y77198D01*
Y50269D02*
Y51686D01*
X443858Y31988D02*
X445603Y33733D01*
X443858Y20873D02*
Y31988D01*
X439612Y16627D02*
X443858Y20873D01*
X373884Y16627D02*
X439612D01*
X367335Y23176D02*
X373884Y16627D01*
X367335Y23176D02*
Y32705D01*
X359686Y40354D02*
X367335Y32705D01*
X345472Y40354D02*
X359686D01*
X440878Y76391D02*
Y96233D01*
Y33531D02*
Y57257D01*
Y75682D02*
Y76391D01*
Y57257D02*
Y58674D01*
Y33531D02*
X442598Y31811D01*
Y21395D02*
Y31811D01*
X439090Y17887D02*
X442598Y21395D01*
X374406Y17887D02*
X439090D01*
X368595Y23698D02*
X374406Y17887D01*
X368595Y23698D02*
Y33227D01*
X357530Y44291D02*
X368595Y33227D01*
X345472Y44291D02*
X357530D01*
X462138Y41360D02*
Y96233D01*
X453280Y32502D02*
X462138Y41360D01*
X453280Y18418D02*
Y32502D01*
X452690Y37257D02*
Y96233D01*
X446378Y30945D02*
X452690Y37257D01*
X446378Y19829D02*
Y30945D01*
X440656Y14107D02*
X446378Y19829D01*
X372840Y14107D02*
X440656D01*
X364816Y22132D02*
X372840Y14107D01*
X364816Y22132D02*
Y31661D01*
X362737Y33740D02*
X364816Y31661D01*
X350143Y33740D02*
X362737D01*
X349473Y34409D02*
X350143Y33740D01*
X342863Y34409D02*
X349473D01*
X342165Y33712D02*
X342863Y34409D01*
X342165Y33071D02*
Y33712D01*
X335433Y33071D02*
X342165D01*
X334055Y34449D02*
X335433Y33071D01*
X447965Y34314D02*
Y96233D01*
X445118Y31467D02*
X447965Y34314D01*
X445118Y20351D02*
Y31467D01*
X440134Y15367D02*
X445118Y20351D01*
X373362Y15367D02*
X440134D01*
X366075Y22654D02*
X373362Y15367D01*
X366075Y22654D02*
Y32183D01*
X359164Y39094D02*
X366075Y32183D01*
X350568Y39094D02*
X359164D01*
X349859Y38386D02*
X350568Y39094D01*
X334055Y38386D02*
X349859D01*
X359842Y21260D02*
Y24419D01*
X355719Y28543D02*
X359842Y24419D01*
X345472Y28543D02*
X355719D01*
X357087Y19829D02*
Y25394D01*
X355197Y27283D02*
X357087Y25394D01*
X350649Y27283D02*
X355197D01*
X349940Y26575D02*
X350649Y27283D01*
X334055Y26575D02*
X349940D01*
X357087Y19829D02*
X358498Y18418D01*
X362205D01*
X441339Y21917D02*
Y31201D01*
X438568Y19147D02*
X441339Y21917D01*
X350516Y45551D02*
X358052D01*
X369855Y24219D02*
Y33748D01*
X358052Y45551D02*
X369855Y33748D01*
X349807Y46260D02*
X350516Y45551D01*
X334055Y46260D02*
X349807D01*
X369855Y24219D02*
X374928Y19147D01*
X438568D01*
X438516Y34023D02*
X441339Y31201D01*
X438516Y34023D02*
Y96233D01*
X429068Y90328D02*
Y96233D01*
X304799Y101607D02*
X309213Y97193D01*
Y66679D02*
Y97193D01*
Y66679D02*
X318883Y57008D01*
X305321Y102867D02*
X310472Y97715D01*
Y67200D02*
Y97715D01*
Y67200D02*
X316216Y61457D01*
X305842Y104127D02*
X311732Y98237D01*
Y67722D02*
Y98237D01*
Y67722D02*
X316738Y62717D01*
X306364Y105386D02*
X312992Y98758D01*
Y68244D02*
Y98758D01*
Y68244D02*
X317260Y63976D01*
X266751Y104127D02*
X305842D01*
X263713Y101089D02*
X266751Y104127D01*
X263713Y96233D02*
Y101089D01*
X261351Y96233D02*
Y100508D01*
X266229Y105386D01*
X306364D01*
X317260Y63976D02*
X345472D01*
X316738Y62717D02*
X329146D01*
X268438Y96233D02*
Y101871D01*
X269433Y102867D01*
X305321D01*
X316216Y61457D02*
X327705D01*
X331091Y58071D01*
X329146Y62717D02*
X329854Y62008D01*
X334055D01*
X331091Y58071D02*
X334055D01*
X271686Y101607D02*
X304799D01*
X270800Y100721D02*
X271686Y101607D01*
X270800Y96233D02*
Y100721D01*
X318883Y57008D02*
X327667D01*
X328572Y56102D01*
X345472D01*
X300394Y47835D02*
Y51968D01*
X300394Y47835D02*
X300394Y47835D01*
X528969Y138261D02*
Y142126D01*
X511843Y85210D02*
X515748D01*
X487795Y85210D02*
X491469D01*
X502886Y128517D02*
Y134422D01*
X493438Y128517D02*
Y134422D01*
X486351Y128517D02*
Y134422D01*
X472178Y122611D02*
Y128517D01*
X469815D02*
Y134422D01*
X465091Y128517D02*
Y134422D01*
X450918Y128517D02*
Y134422D01*
X443831Y128517D02*
Y134422D01*
X436745Y128517D02*
Y134422D01*
X429658Y128517D02*
Y134422D01*
X415485Y128517D02*
Y134422D01*
X408398Y128517D02*
Y134422D01*
X401312Y128517D02*
Y134422D01*
X394225Y128517D02*
Y134422D01*
X387138Y128517D02*
Y134422D01*
X380052Y128517D02*
Y134422D01*
X372965Y128517D02*
Y134422D01*
X365879Y128517D02*
Y134422D01*
X358792Y128517D02*
Y134422D01*
X351705Y128517D02*
Y134422D01*
X344619Y128517D02*
Y134422D01*
X337532Y128517D02*
Y134422D01*
X330446Y128517D02*
Y134422D01*
X323359Y128517D02*
Y134422D01*
X302099Y128517D02*
Y134422D01*
X295012Y128517D02*
Y134422D01*
X287926Y128517D02*
Y134422D01*
X280839Y128517D02*
Y134422D01*
X273753Y128517D02*
Y134422D01*
X266666Y128517D02*
Y134422D01*
X258989Y90328D02*
Y96233D01*
X266075Y90328D02*
Y96233D01*
X273162Y90328D02*
Y96233D01*
X280249Y90328D02*
Y96233D01*
X287335Y90328D02*
Y96233D01*
X294422Y90328D02*
Y96233D01*
X301508Y90328D02*
Y96233D01*
X322768Y90328D02*
Y96233D01*
X329855Y90328D02*
Y96233D01*
X336942Y90328D02*
Y96233D01*
X344028Y90328D02*
Y96233D01*
X351115Y90328D02*
Y96233D01*
X358201Y90328D02*
Y96233D01*
X365288Y90328D02*
Y96233D01*
X372375Y90328D02*
Y96233D01*
X379461Y90328D02*
Y96233D01*
X386548Y90328D02*
Y96233D01*
X393634Y90328D02*
Y96233D01*
X502296D02*
Y102139D01*
X492847Y96233D02*
Y102139D01*
X485760Y96233D02*
Y102139D01*
X471587Y96233D02*
Y102139D01*
X464501Y90328D02*
Y96233D01*
X457414Y90328D02*
Y96233D01*
X450327Y90328D02*
Y96233D01*
X443241Y90328D02*
Y96233D01*
X436154Y90328D02*
Y96233D01*
X407906Y89995D02*
Y99678D01*
X409382Y78099D02*
Y88519D01*
X407906Y89995D02*
X409382Y88519D01*
X411272Y87060D02*
X411390Y86942D01*
X411272Y87060D02*
Y91026D01*
X400721Y96233D02*
Y99777D01*
Y96233D02*
X400721Y96233D01*
Y90328D02*
Y96233D01*
X429068Y96233D02*
Y99777D01*
X421981Y90328D02*
Y96233D01*
X414894Y90328D02*
Y96233D01*
X412532Y88162D02*
Y96233D01*
Y88162D02*
X413157Y87537D01*
X411390Y73655D02*
Y86942D01*
X407512Y73891D02*
Y84090D01*
X405445Y86157D02*
X407512Y84090D01*
X405642Y78099D02*
Y82847D01*
X403083Y85406D02*
X405642Y82847D01*
X405671Y72049D02*
X407512Y73891D01*
X405671Y68334D02*
Y72049D01*
X405642Y68305D02*
X405671Y68334D01*
X403083Y85406D02*
Y96233D01*
X405445Y86157D02*
Y96233D01*
X500327Y27828D02*
Y51548D01*
X492217Y59658D02*
X500327Y51548D01*
X484892Y59658D02*
X492217D01*
X483146Y57912D02*
X484892Y59658D01*
X478665Y57912D02*
X483146D01*
X478501Y47390D02*
Y50269D01*
Y47390D02*
X492453Y33438D01*
Y27828D02*
Y33438D01*
X424697Y99422D02*
Y99777D01*
X424343Y64774D02*
X424697Y64420D01*
Y62495D02*
Y64420D01*
X424382Y62181D02*
X424697Y62495D01*
X413123Y78099D02*
Y86981D01*
X413157Y87016D01*
Y87537D01*
X411390Y73655D02*
X413030Y72014D01*
X398359Y64934D02*
Y78517D01*
X400721Y66706D02*
Y86620D01*
Y66706D02*
X401646Y65781D01*
Y51971D02*
Y65781D01*
X399737Y50062D02*
X401646Y51971D01*
X392256Y56051D02*
Y82618D01*
X399737Y56051D02*
Y63556D01*
X398359Y64934D02*
X399737Y63556D01*
Y41999D02*
Y46258D01*
Y50062D01*
Y51844D02*
Y56051D01*
X397867Y49973D02*
X399737Y51844D01*
X397867Y41152D02*
Y49973D01*
X395997Y56051D02*
Y63162D01*
X418634Y56051D02*
X418728Y56145D01*
X424382Y52089D02*
Y62181D01*
X422375Y56051D02*
Y63458D01*
X394815Y23989D02*
Y31076D01*
X406627Y23989D02*
Y31076D01*
X412532Y23989D02*
Y31076D01*
X418438Y23989D02*
Y31076D01*
X424343Y23989D02*
Y31076D01*
X383004Y62277D02*
X383103Y62375D01*
Y68871D01*
X386843Y55387D02*
Y77139D01*
X424382Y52089D02*
X426115Y50357D01*
Y46258D02*
Y50357D01*
X418634Y46258D02*
X418721Y46344D01*
X426115Y52139D02*
X427847Y50406D01*
X426115Y52139D02*
Y56051D01*
X427847Y41371D02*
Y50406D01*
X426312Y39836D02*
X427847Y41371D01*
X426312Y31076D02*
Y39836D01*
X426115Y42099D02*
Y46258D01*
X422375Y38359D02*
X426115Y42099D01*
X422375Y31076D02*
Y38359D01*
X418536Y40426D02*
Y46159D01*
X418634Y46258D01*
X418536Y40426D02*
X420406Y38556D01*
Y31076D02*
Y38556D01*
X416469Y49777D02*
X418634Y51942D01*
Y56051D01*
X416469Y31076D02*
Y49777D01*
X413123Y63950D02*
Y68305D01*
X413030Y68397D02*
X413123Y68305D01*
X413030Y68397D02*
Y72014D01*
X413123Y73792D02*
X414855Y72060D01*
Y64976D02*
Y72060D01*
X414501Y64621D02*
X414855Y64976D01*
X413123Y73792D02*
Y78099D01*
X410564Y61391D02*
X413123Y63950D01*
X410564Y31076D02*
Y61391D01*
X392256Y51942D02*
X393989Y50210D01*
Y37907D02*
Y50210D01*
X395997Y39540D02*
X396390Y39147D01*
X395997Y39540D02*
Y46258D01*
X393989Y37907D02*
X396784Y35111D01*
X398753Y31076D02*
Y40266D01*
X397867Y41152D02*
X398753Y40266D01*
X396784Y31076D02*
Y35111D01*
X399737Y41999D02*
X402690Y39046D01*
Y31076D02*
Y39046D01*
X392256Y51942D02*
Y56051D01*
X386843Y55387D02*
X392256Y49973D01*
Y46258D02*
Y49973D01*
Y41509D02*
Y46258D01*
X390879Y40131D02*
X392256Y41509D01*
X390879Y31076D02*
Y40131D01*
D67*
X505938Y85210D02*
Y98393D01*
X505905Y98425D02*
X505938Y98393D01*
X497473Y85308D02*
Y96135D01*
X31134Y85071D02*
X33358Y82847D01*
X44771D01*
X151798Y146489D02*
Y155544D01*
X34574Y93733D02*
Y104363D01*
X134646Y155118D02*
Y179528D01*
X127559Y186614D02*
X134646Y179528D01*
X31617Y186614D02*
X127559D01*
X134646Y155118D02*
X143275Y146489D01*
X151700D01*
X20866Y175864D02*
X31617Y186614D01*
X20866Y138189D02*
Y175864D01*
Y95340D02*
Y138189D01*
X25229Y142552D01*
X36175D01*
X20866Y95340D02*
X31134Y85071D01*
Y76351D02*
Y85071D01*
X34180Y88117D01*
Y93733D01*
X159968Y170347D02*
X162979D01*
X164594Y168733D01*
X84601Y158989D02*
X98380D01*
X12138Y55584D02*
X28674D01*
X34875Y61784D01*
Y68084D01*
X44443Y166508D02*
X47455D01*
X49069Y164894D01*
X53597D01*
X49561Y158989D02*
X53597D01*
X47750Y157178D02*
X49561Y158989D01*
X44443Y157178D02*
X47750D01*
X36175Y142552D02*
Y152099D01*
X53597Y158989D02*
X61766D01*
X201700Y162729D02*
X215479D01*
X168924D02*
X178865D01*
X164594Y168733D02*
X168826D01*
X163865Y161016D02*
X165578Y162729D01*
X168924D01*
X159968Y161016D02*
X163865D01*
X42842Y109638D02*
X45755D01*
X47664Y111548D01*
X50322D01*
X50420Y111449D02*
X59967D01*
X46385Y117355D02*
X50420D01*
X44771Y118969D02*
X46385Y117355D01*
X42645Y118969D02*
X44771D01*
D68*
X163865Y178543D02*
X168760D01*
X345472Y24606D02*
X353051D01*
X326476Y30512D02*
X334055D01*
X345472Y36417D02*
X353051D01*
X326476Y42323D02*
X334055D01*
X345472Y48228D02*
X353051D01*
X345472Y60039D02*
X353051D01*
X326476Y54134D02*
X334055D01*
X389640Y24055D02*
X392847Y27262D01*
Y31076D01*
X185361Y171981D02*
X194613Y162729D01*
X175322Y171981D02*
X185361D01*
X377310Y120786D02*
X383103D01*
X375327Y122768D02*
X377310Y120786D01*
X375327Y122768D02*
Y128517D01*
X383103Y68871D02*
Y85497D01*
X377039Y62337D02*
X377099Y62277D01*
X377039Y62337D02*
Y66706D01*
X262430Y104331D02*
X267272Y109173D01*
X219053Y104331D02*
X262430D01*
X209210Y114173D02*
X219053Y104331D01*
X261761Y105945D02*
X266604Y110787D01*
X219722Y105945D02*
X261761D01*
X209879Y115787D02*
X219722Y105945D01*
X334579Y96233D02*
Y102743D01*
X326535Y110787D02*
X334579Y102743D01*
X267272Y109173D02*
X325866D01*
X266604Y110787D02*
X326535D01*
X146208Y115787D02*
X209879D01*
X136894Y106473D02*
X146208Y115787D01*
X136894Y87274D02*
Y106473D01*
Y87274D02*
X138774Y85394D01*
X138611Y91800D02*
X140017Y90394D01*
X138611Y91800D02*
Y105907D01*
X140017Y90394D02*
X145295D01*
X138774Y85394D02*
X145295D01*
X146877Y114173D02*
X209210D01*
X138611Y105907D02*
X146877Y114173D01*
X332217Y96233D02*
Y102822D01*
X325866Y109173D02*
X332217Y102822D01*
X218425Y80394D02*
X222441Y76378D01*
Y70826D02*
Y76378D01*
Y70826D02*
X228700Y64567D01*
X212224Y80394D02*
X218425D01*
X218503Y85394D02*
X228700Y75197D01*
X212224Y85394D02*
X218503D01*
X96457Y38583D02*
X113268Y55394D01*
X145295D01*
X106457Y38583D02*
X118268Y50394D01*
X145295D01*
X294127Y26777D02*
Y41929D01*
X291339Y23989D02*
X294127Y26777D01*
X262559Y23989D02*
X291339D01*
X254645Y31903D02*
X262559Y23989D01*
X155118Y34843D02*
Y95794D01*
X150519Y100394D02*
X155118Y95794D01*
X145295Y100394D02*
X150519D01*
X158058Y31903D02*
X254645D01*
X155118Y34843D02*
X158058Y31903D01*
X222835Y35039D02*
X227756D01*
X228346Y34449D01*
X201260Y104331D02*
Y111043D01*
X145295Y35394D02*
X152008D01*
X138137Y70394D02*
X145295D01*
X129948Y62205D02*
X138137Y70394D01*
X66693Y62205D02*
X129948D01*
X59996Y55508D02*
X66693Y62205D01*
X68268Y60394D02*
X145295D01*
X66961Y59087D02*
X68268Y60394D01*
X136090Y75205D02*
X136279Y75394D01*
X145295D01*
X136090Y80205D02*
X136279Y80394D01*
X145295D01*
X294488Y47835D02*
X300394Y41929D01*
X294127Y47835D02*
X294488D01*
X287926Y41929D02*
X294127D01*
X300394Y29921D02*
X300394Y29921D01*
X300394Y29921D02*
Y41929D01*
X246235Y40276D02*
X246917Y39593D01*
X265945Y29921D02*
X265945Y29921D01*
X265945Y29921D02*
Y39370D01*
X271850D02*
X271981Y39501D01*
X276772D01*
X265814D02*
X265945Y39370D01*
X265814Y39501D02*
Y45808D01*
X212224Y45394D02*
X245669D01*
X230315Y50512D02*
X237795D01*
X205512Y35394D02*
X212224D01*
X237717Y40354D02*
X237795Y40276D01*
X228307Y40394D02*
X228346Y40354D01*
X144023Y160859D02*
X151542D01*
X28301Y157178D02*
X36077D01*
X25617Y109776D02*
X34239D01*
X157841Y178937D02*
X157841Y178937D01*
Y175591D02*
Y178937D01*
X157480Y184843D02*
X157874Y184449D01*
X157841Y184843D02*
X163865D01*
X151700Y184382D02*
X152160Y184843D01*
X151700D02*
X152160D01*
X157480D01*
X157841D01*
X151700Y170347D02*
Y178937D01*
X48478Y175000D02*
X54844Y168634D01*
X48282Y175000D02*
X48478D01*
X42054Y180905D02*
X48282D01*
X36077D02*
X42054D01*
Y175000D02*
X42054Y175000D01*
Y171653D02*
Y175000D01*
X36077Y166508D02*
Y174638D01*
X34148Y93701D02*
X34180Y93733D01*
X40551Y124016D02*
X40576Y124040D01*
Y127338D01*
X40600Y127362D01*
Y133268D02*
X46850D01*
X40584Y133284D02*
X40600Y133268D01*
X34590Y133284D02*
X40584D01*
X34574Y133300D02*
X34590Y133284D01*
X46850Y127362D02*
X51240D01*
X261351Y96233D02*
X261417Y96300D01*
X263713Y96233D02*
X263779Y96300D01*
X268438Y96233D02*
X268504Y96300D01*
X496194Y34816D02*
Y51351D01*
X493536Y54009D02*
X496194Y51351D01*
X488295Y54009D02*
X493536D01*
X478501Y57749D02*
X478665Y57912D01*
X488295Y54009D02*
X488295Y54009D01*
X478674Y85111D02*
Y96233D01*
X472178Y78615D02*
X478674Y85111D01*
X472178Y82618D02*
X476312Y86752D01*
X473949Y88392D02*
Y96233D01*
X472178Y86620D02*
X473949Y88392D01*
X476312Y86752D02*
Y96233D01*
X144023Y166764D02*
X148058D01*
X149042Y165780D01*
X25420Y115682D02*
X31621D01*
X32901Y114402D01*
X34239Y109776D02*
X34377Y109638D01*
X28301Y163320D02*
X32238D01*
X32901Y114402D02*
X34909D01*
X51878Y52926D02*
X64008D01*
X25420Y115682D02*
X25617D01*
X35268Y30781D02*
Y51056D01*
X253216Y39593D02*
X257842D01*
X472670Y53910D02*
X472719Y53960D01*
X478452D01*
X478501Y54009D01*
X32238Y163320D02*
X33518Y162040D01*
X66961Y49777D02*
Y59087D01*
X64993Y47808D02*
X66961Y49777D01*
X51878Y47808D02*
X64993D01*
X51901Y55508D02*
X59996D01*
X208983Y172965D02*
X215479D01*
X98380Y158989D02*
X98478Y158890D01*
X218038Y162926D02*
X218038Y162926D01*
X218038Y173162D02*
X218038Y173162D01*
X426016Y56150D02*
X426115Y56051D01*
X375131Y77139D02*
X375131Y77139D01*
X379363D01*
X69914Y52631D02*
Y57257D01*
X37138Y52926D02*
X42478D01*
X35268Y51056D02*
X37138Y52926D01*
X35367Y30781D02*
X55052D01*
X28674Y55584D02*
X28772Y55485D01*
X42478D01*
X12040Y55682D02*
X12138Y55584D01*
X36077Y174638D02*
X36077Y174638D01*
X36077Y166508D02*
X36077Y166508D01*
X33518Y162040D02*
X38341D01*
X39915Y163615D01*
Y166410D01*
X39817Y166508D02*
X39915Y166410D01*
X36077Y152197D02*
X36175Y152099D01*
X36077Y152197D02*
Y157178D01*
X61766Y158989D02*
X61766Y158989D01*
X54844Y168634D02*
X66490D01*
X76136Y158989D01*
X84601D01*
X90900Y169127D02*
X99758D01*
X39817Y151804D02*
Y157178D01*
X46411Y142552D02*
Y149737D01*
X91365Y121882D02*
X98550D01*
X74830Y111548D02*
X82901D01*
X65873Y120504D02*
X74830Y111548D01*
X194613Y162729D02*
X201700D01*
X168760Y178543D02*
X175322Y171981D01*
X161936Y146489D02*
Y153378D01*
X155440Y155741D02*
Y161016D01*
X168826Y168733D02*
X168924Y168634D01*
X151700Y170347D02*
X151700Y170347D01*
X155105Y167217D02*
Y170012D01*
X153668Y165780D02*
X155105Y167217D01*
X149042Y165780D02*
X153668D01*
X155105Y170012D02*
X155440Y170347D01*
X151542Y160859D02*
X151700Y161016D01*
Y155642D02*
X151798Y155544D01*
X151700Y155642D02*
Y161016D01*
X58097Y120504D02*
X65873D01*
X51240Y127362D02*
X58097Y120504D01*
X98452Y111548D02*
X98550Y111646D01*
X44416Y93733D02*
X44810Y94127D01*
Y101607D01*
X38117Y104448D02*
X39200Y103366D01*
Y103280D02*
Y103366D01*
X38117Y104448D02*
Y109638D01*
X25420Y109776D02*
X25617D01*
X34377Y104363D02*
Y109638D01*
X50322Y111548D02*
X50420Y111449D01*
X59967D02*
X60066Y111548D01*
X46850Y133268D02*
X46900Y133317D01*
X34475Y127296D02*
X34574Y127394D01*
X34475Y119068D02*
Y127296D01*
X34377Y118969D02*
X34475Y119068D01*
X34909Y114402D02*
X38117Y117611D01*
Y118969D01*
X51878Y55485D02*
X51901Y55508D01*
X42379Y42690D02*
Y47710D01*
X42478Y47808D01*
X41322Y68034D02*
X41371Y67985D01*
X34924Y68034D02*
X41322D01*
X34875Y68084D02*
X34924Y68034D01*
X48162Y50564D02*
X51681D01*
X51878Y50367D01*
X47276Y51450D02*
X48162Y50564D01*
X47276Y51450D02*
Y67985D01*
X47325Y68034D01*
Y74826D01*
X47375Y74875D01*
X30642Y71725D02*
X38516D01*
X41469Y74678D01*
Y74875D01*
X27394Y68477D02*
X30642Y71725D01*
X27394Y68084D02*
Y68477D01*
D69*
X212224Y40394D02*
X228307D01*
X237054Y121076D02*
X238700Y122722D01*
X125171Y121076D02*
X237054D01*
X240346D02*
X263471D01*
X238700Y122722D02*
X240346Y121076D01*
X489884Y120599D02*
Y129921D01*
X489304Y93733D02*
Y105769D01*
X267979Y112894D02*
X482179D01*
X145920Y118477D02*
X262395D01*
X99758Y146489D02*
X125171Y121076D01*
X263471D02*
X269055Y115492D01*
X510170Y27828D02*
Y39575D01*
X523622Y53027D01*
Y96606D01*
X507853Y112375D02*
X523622Y96606D01*
X501384Y112375D02*
X507853D01*
X479151Y115492D02*
X480315Y116656D01*
X269055Y115492D02*
X373604D01*
X374549Y116437D01*
X378429Y115492D02*
X479151D01*
X377484Y116437D02*
X378429Y115492D01*
X374549Y116437D02*
X377484D01*
X482179Y112894D02*
X489884Y120599D01*
X99758Y146489D02*
Y158890D01*
X482179Y112894D02*
X489304Y105769D01*
X139089Y111646D02*
X145920Y118477D01*
X262395D02*
X267979Y112894D01*
X98550Y111646D02*
X139089D01*
X238700Y64567D02*
Y75197D01*
X246917Y35433D02*
Y39593D01*
X237795Y40276D02*
X246235D01*
X228346Y40354D02*
X237717D01*
D70*
X12040Y78517D02*
Y96824D01*
X82901Y111548D02*
X98452D01*
D71*
X12040Y55682D02*
Y70643D01*
D72*
X497638Y96148D02*
D03*
D73*
X44771Y82847D02*
D03*
X52645D02*
D03*
X12040Y104698D02*
D03*
Y96824D02*
D03*
Y78517D02*
D03*
Y70643D02*
D03*
Y55682D02*
D03*
Y47808D02*
D03*
D74*
X277756Y10236D02*
D03*
X265945Y29921D02*
D03*
Y10236D02*
D03*
X277756Y29921D02*
D03*
X288583D02*
D03*
X300394Y10236D02*
D03*
Y29921D02*
D03*
X288583Y10236D02*
D03*
X55052Y18970D02*
D03*
X35367Y30781D02*
D03*
X55052D02*
D03*
X35367Y18970D02*
D03*
D75*
X116457Y38583D02*
D03*
X248700Y64567D02*
D03*
Y75197D02*
D03*
D76*
X106457Y38583D02*
D03*
X96457D02*
D03*
X86457D02*
D03*
X228700Y64567D02*
D03*
X238700D02*
D03*
X228700Y75197D02*
D03*
X238700D02*
D03*
D77*
X522257Y36489D02*
D03*
X470524D02*
D03*
D78*
X510170Y27828D02*
D03*
D79*
X500327D02*
D03*
X492453D02*
D03*
X482611D02*
D03*
D80*
X376705Y7847D02*
D03*
X438516D02*
D03*
X379067Y27139D02*
D03*
X436154D02*
D03*
D81*
X252099Y112375D02*
D03*
D82*
X515091D02*
D03*
D83*
X295940Y164713D02*
D03*
X283217Y177705D02*
D03*
X285934Y173374D02*
D03*
X271406Y169043D02*
D03*
X269137Y160382D02*
D03*
X276461Y151720D02*
D03*
X278740Y147244D02*
D03*
X161109Y125984D02*
D03*
Y97244D02*
D03*
X233858Y99606D02*
D03*
Y125984D02*
D03*
X453280Y18418D02*
D03*
X450000Y21260D02*
D03*
X359842D02*
D03*
X362205Y18418D02*
D03*
X429068Y90328D02*
D03*
X353051Y24606D02*
D03*
X326476Y30512D02*
D03*
X353051Y36417D02*
D03*
X326476Y42323D02*
D03*
X353051Y48228D02*
D03*
Y60039D02*
D03*
X326476Y54134D02*
D03*
X511745Y159619D02*
D03*
X255446D02*
D03*
X238700Y122722D02*
D03*
X389640Y24055D02*
D03*
X501384Y112375D02*
D03*
X480315Y116656D02*
D03*
X383103Y120786D02*
D03*
Y85497D02*
D03*
X305118Y83171D02*
D03*
X318307D02*
D03*
X377039Y66706D02*
D03*
X376016Y112894D02*
D03*
X246917Y50269D02*
D03*
Y35433D02*
D03*
X222835Y35039D02*
D03*
X201260Y111043D02*
D03*
X152008Y35394D02*
D03*
X300394Y51968D02*
D03*
X528969Y142126D02*
D03*
X515748Y85210D02*
D03*
X487795Y85210D02*
D03*
X502886Y134422D02*
D03*
X493438D02*
D03*
X486351D02*
D03*
X472178Y122611D02*
D03*
X469815Y134422D02*
D03*
X465091D02*
D03*
X450918D02*
D03*
X443831D02*
D03*
X436745D02*
D03*
X429658D02*
D03*
X415485D02*
D03*
X408398D02*
D03*
X401312D02*
D03*
X394225D02*
D03*
X387138D02*
D03*
X380052D02*
D03*
X372965D02*
D03*
X365879D02*
D03*
X358792D02*
D03*
X351705D02*
D03*
X344619D02*
D03*
X337532D02*
D03*
X330446D02*
D03*
X323359D02*
D03*
X302099D02*
D03*
X295012D02*
D03*
X287926D02*
D03*
X280839D02*
D03*
X273753D02*
D03*
X266666D02*
D03*
X258989Y90328D02*
D03*
X266075D02*
D03*
X273162D02*
D03*
X280249D02*
D03*
X287335D02*
D03*
X294422D02*
D03*
X301508D02*
D03*
X322768D02*
D03*
X329855D02*
D03*
X336942D02*
D03*
X344028D02*
D03*
X351115D02*
D03*
X358201D02*
D03*
X365288D02*
D03*
X372375D02*
D03*
X379461D02*
D03*
X386548D02*
D03*
X393634D02*
D03*
X502296Y102139D02*
D03*
X492847D02*
D03*
X485760D02*
D03*
X471587D02*
D03*
X464501Y90328D02*
D03*
X457414D02*
D03*
X450327D02*
D03*
X443241D02*
D03*
X436154D02*
D03*
X276772Y39501D02*
D03*
X230315Y50512D02*
D03*
X205512Y35394D02*
D03*
X175591Y72835D02*
D03*
X189764D02*
D03*
X190157Y57257D02*
D03*
X175591D02*
D03*
X182697Y64921D02*
D03*
X157841Y175591D02*
D03*
X42054Y171653D02*
D03*
X40551Y124016D02*
D03*
X414894Y90328D02*
D03*
X407906D02*
D03*
X400721D02*
D03*
X392256Y82847D02*
D03*
X398359Y78615D02*
D03*
X400721Y86620D02*
D03*
X496194Y34816D02*
D03*
X472178Y78615D02*
D03*
Y86620D02*
D03*
X421981Y90328D02*
D03*
X472178Y82618D02*
D03*
X257842Y39593D02*
D03*
X472670Y53910D02*
D03*
X395997Y63162D02*
D03*
X422375Y63458D02*
D03*
X375131Y77139D02*
D03*
X90900Y169127D02*
D03*
X46411Y149737D02*
D03*
X39817Y151804D02*
D03*
X91365Y121882D02*
D03*
X208983Y172965D02*
D03*
X155440Y155741D02*
D03*
X161936Y153378D02*
D03*
X44810Y101607D02*
D03*
X39200Y103280D02*
D03*
X69914Y57257D02*
D03*
X42379Y42690D02*
D03*
X394815Y23989D02*
D03*
X406627D02*
D03*
X412532D02*
D03*
X418438D02*
D03*
X424343D02*
D03*
X396390Y39147D02*
D03*
X110302Y80886D02*
D03*
Y74811D02*
D03*
M02*
