G04*
G04 #@! TF.GenerationSoftware,Altium Limited,Altium Designer,19.0.14 (431)*
G04*
G04 Layer_Color=255*
%FSLAX25Y25*%
%MOIN*%
G70*
G01*
G75*
G04:AMPARAMS|DCode=20|XSize=35.43mil|YSize=39.37mil|CornerRadius=8.86mil|HoleSize=0mil|Usage=FLASHONLY|Rotation=180.000|XOffset=0mil|YOffset=0mil|HoleType=Round|Shape=RoundedRectangle|*
%AMROUNDEDRECTD20*
21,1,0.03543,0.02165,0,0,180.0*
21,1,0.01772,0.03937,0,0,180.0*
1,1,0.01772,-0.00886,0.01083*
1,1,0.01772,0.00886,0.01083*
1,1,0.01772,0.00886,-0.01083*
1,1,0.01772,-0.00886,-0.01083*
%
%ADD20ROUNDEDRECTD20*%
%ADD73C,0.05118*%
%ADD74C,0.07874*%
%ADD75R,0.06000X0.06000*%
%ADD76C,0.06000*%
%ADD77C,0.13055*%
%ADD78R,0.05543X0.05543*%
%ADD79C,0.05543*%
%ADD80C,0.07480*%
%ADD81C,0.06299*%
%ADD82C,0.04331*%
%ADD84R,0.05512X0.10630*%
%ADD85R,0.07874X0.02756*%
%ADD86R,0.04724X0.04724*%
%ADD87R,0.10236X0.05906*%
%ADD88R,0.10236X0.03937*%
D20*
X281090Y164713D02*
D03*
X286995D02*
D03*
D73*
X44771Y82847D02*
D03*
X52645D02*
D03*
X12040Y104698D02*
D03*
Y96824D02*
D03*
Y78517D02*
D03*
Y70643D02*
D03*
Y55682D02*
D03*
Y47808D02*
D03*
D74*
X277756Y10236D02*
D03*
X265945Y29921D02*
D03*
Y10236D02*
D03*
X277756Y29921D02*
D03*
X288583D02*
D03*
X300394Y10236D02*
D03*
Y29921D02*
D03*
X288583Y10236D02*
D03*
X55052Y18970D02*
D03*
X35367Y30781D02*
D03*
X55052D02*
D03*
X35367Y18970D02*
D03*
D75*
X116457Y38583D02*
D03*
X248700Y64567D02*
D03*
Y75197D02*
D03*
D76*
X106457Y38583D02*
D03*
X96457D02*
D03*
X86457D02*
D03*
X228700Y64567D02*
D03*
X238700D02*
D03*
X228700Y75197D02*
D03*
X238700D02*
D03*
D77*
X522257Y36489D02*
D03*
X470524D02*
D03*
D78*
X510170Y27828D02*
D03*
D79*
X500327D02*
D03*
X492453D02*
D03*
X482611D02*
D03*
D80*
X376705Y7847D02*
D03*
X438516D02*
D03*
X379067Y27139D02*
D03*
X436154D02*
D03*
D81*
X252099Y112375D02*
D03*
D82*
X515091D02*
D03*
D84*
X355118Y172193D02*
D03*
Y152902D02*
D03*
D85*
X305118Y147390D02*
D03*
Y151720D02*
D03*
Y156051D02*
D03*
Y160382D02*
D03*
Y164713D02*
D03*
Y169043D02*
D03*
Y173374D02*
D03*
Y177705D02*
D03*
D86*
X355512Y184201D02*
D03*
D87*
X307087Y191681D02*
D03*
D88*
X307087Y139122D02*
D03*
M02*
