G04*
G04 #@! TF.GenerationSoftware,Altium Limited,Altium Designer,19.0.14 (431)*
G04*
G04 Layer_Physical_Order=2*
G04 Layer_Color=16711680*
%FSLAX25Y25*%
%MOIN*%
G70*
G01*
G75*
G04:AMPARAMS|DCode=20|XSize=35.43mil|YSize=39.37mil|CornerRadius=8.86mil|HoleSize=0mil|Usage=FLASHONLY|Rotation=180.000|XOffset=0mil|YOffset=0mil|HoleType=Round|Shape=RoundedRectangle|*
%AMROUNDEDRECTD20*
21,1,0.03543,0.02165,0,0,180.0*
21,1,0.01772,0.03937,0,0,180.0*
1,1,0.01772,-0.00886,0.01083*
1,1,0.01772,0.00886,0.01083*
1,1,0.01772,0.00886,-0.01083*
1,1,0.01772,-0.00886,-0.01083*
%
%ADD20ROUNDEDRECTD20*%
%ADD66C,0.00630*%
%ADD67C,0.03150*%
%ADD68C,0.00984*%
%ADD69C,0.01968*%
%ADD73C,0.05118*%
%ADD74C,0.07874*%
%ADD75R,0.06000X0.06000*%
%ADD76C,0.06000*%
%ADD77C,0.13055*%
%ADD78R,0.05543X0.05543*%
%ADD79C,0.05543*%
%ADD80C,0.07480*%
%ADD81C,0.06299*%
%ADD82C,0.04331*%
%ADD83C,0.02756*%
%ADD84R,0.05512X0.10630*%
%ADD85R,0.07874X0.02756*%
%ADD86R,0.04724X0.04724*%
%ADD87R,0.10236X0.05906*%
%ADD88R,0.10236X0.03937*%
G36*
X307587Y187728D02*
X313205D01*
Y190551D01*
X534526D01*
X534678Y190051D01*
X534371Y189846D01*
X534326Y189801D01*
X534274Y189766D01*
X533396Y188889D01*
X533361Y188836D01*
X533316Y188791D01*
X532627Y187760D01*
X532603Y187701D01*
X532568Y187648D01*
X532093Y186502D01*
X532080Y186440D01*
X532056Y186382D01*
X531814Y185165D01*
Y185101D01*
X531802Y185039D01*
Y183799D01*
X531814Y183737D01*
Y183673D01*
X532056Y182456D01*
X532080Y182398D01*
X532093Y182336D01*
X532568Y181189D01*
X532603Y181137D01*
X532627Y181078D01*
X533316Y180047D01*
X533361Y180002D01*
X533396Y179949D01*
X534274Y179072D01*
X534326Y179037D01*
X534371Y178992D01*
X535403Y178303D01*
X535461Y178278D01*
X535514Y178243D01*
X536660Y177769D01*
X536722Y177756D01*
X536781Y177732D01*
X537998Y177490D01*
X538061D01*
X538123Y177478D01*
X539364D01*
X539426Y177490D01*
X539489D01*
X540706Y177732D01*
X540764Y177756D01*
X540827Y177769D01*
X541973Y178243D01*
X542026Y178278D01*
X542084Y178303D01*
X543116Y178992D01*
X543160Y179037D01*
X543213Y179072D01*
X544090Y179949D01*
X544126Y180002D01*
X544170Y180047D01*
X544382Y180363D01*
X544882Y180212D01*
Y16565D01*
X544382Y16414D01*
X544010Y16971D01*
X543965Y17016D01*
X543930Y17068D01*
X543052Y17945D01*
X543000Y17981D01*
X542955Y18025D01*
X541923Y18715D01*
X541865Y18739D01*
X541812Y18774D01*
X540666Y19249D01*
X540604Y19261D01*
X540545Y19286D01*
X539328Y19528D01*
X539265D01*
X539203Y19540D01*
X537962D01*
X537900Y19528D01*
X537837D01*
X536620Y19286D01*
X536561Y19261D01*
X536500Y19249D01*
X535353Y18774D01*
X535300Y18739D01*
X535242Y18715D01*
X534210Y18025D01*
X534166Y17981D01*
X534113Y17945D01*
X533236Y17068D01*
X533201Y17016D01*
X533156Y16971D01*
X532466Y15939D01*
X532442Y15881D01*
X532407Y15828D01*
X531932Y14682D01*
X531920Y14620D01*
X531896Y14561D01*
X531653Y13344D01*
Y13281D01*
X531641Y13219D01*
Y11978D01*
X531653Y11916D01*
Y11853D01*
X531896Y10636D01*
X531920Y10577D01*
X531932Y10515D01*
X532407Y9369D01*
X532442Y9316D01*
X532466Y9258D01*
X533156Y8226D01*
X533201Y8181D01*
X533236Y8129D01*
X534113Y7251D01*
X534166Y7216D01*
X534210Y7171D01*
X534767Y6799D01*
X534616Y6299D01*
X443489D01*
X443159Y6799D01*
X443231Y7347D01*
X438516D01*
X433801D01*
X433873Y6799D01*
X433544Y6299D01*
X381677D01*
X381348Y6799D01*
X381420Y7347D01*
X376705D01*
X371990D01*
X372062Y6799D01*
X371733Y6299D01*
X303543D01*
X303382Y6773D01*
X303651Y6979D01*
X304383Y7933D01*
X304843Y9044D01*
X305000Y10236D01*
X304843Y11428D01*
X304383Y12539D01*
X303651Y13493D01*
X302697Y14225D01*
X301586Y14686D01*
X301538Y14692D01*
Y25466D01*
X301586Y25472D01*
X302697Y25932D01*
X303651Y26664D01*
X304383Y27618D01*
X304843Y28729D01*
X305000Y29921D01*
X304843Y31113D01*
X304383Y32224D01*
X303651Y33178D01*
X302697Y33911D01*
X301586Y34371D01*
X300394Y34528D01*
X299201Y34371D01*
X298091Y33911D01*
X297136Y33178D01*
X296405Y32224D01*
X295944Y31113D01*
X295787Y29921D01*
X295944Y28729D01*
X296405Y27618D01*
X297136Y26664D01*
X298091Y25932D01*
X299201Y25472D01*
X299250Y25466D01*
Y14692D01*
X299201Y14686D01*
X298091Y14225D01*
X297136Y13493D01*
X296405Y12539D01*
X295944Y11428D01*
X295787Y10236D01*
X295944Y9044D01*
X296405Y7933D01*
X297136Y6979D01*
X297406Y6773D01*
X297245Y6299D01*
X292307D01*
X292168Y6799D01*
X292895Y7746D01*
X293393Y8947D01*
X293496Y9736D01*
X288583D01*
X283669D01*
X283773Y8947D01*
X284270Y7746D01*
X284997Y6799D01*
X284858Y6299D01*
X281481D01*
X281342Y6799D01*
X282068Y7746D01*
X282566Y8947D01*
X282670Y9736D01*
X277756D01*
X272842D01*
X272946Y8947D01*
X273443Y7746D01*
X274170Y6799D01*
X274031Y6299D01*
X269094D01*
X268933Y6773D01*
X269202Y6979D01*
X269934Y7933D01*
X270394Y9044D01*
X270551Y10236D01*
X270394Y11428D01*
X269934Y12539D01*
X269202Y13493D01*
X268248Y14225D01*
X267137Y14686D01*
X267089Y14692D01*
Y25466D01*
X267137Y25472D01*
X268248Y25932D01*
X269202Y26664D01*
X269934Y27618D01*
X270394Y28729D01*
X270551Y29921D01*
X270394Y31113D01*
X269934Y32224D01*
X269202Y33178D01*
X268248Y33911D01*
X267137Y34371D01*
X265945Y34528D01*
X264753Y34371D01*
X263642Y33911D01*
X262688Y33178D01*
X261956Y32224D01*
X261495Y31113D01*
X261338Y29921D01*
X261495Y28729D01*
X261956Y27618D01*
X262688Y26664D01*
X263642Y25932D01*
X264753Y25472D01*
X264801Y25466D01*
Y14692D01*
X264753Y14686D01*
X263642Y14225D01*
X262688Y13493D01*
X261956Y12539D01*
X261495Y11428D01*
X261338Y10236D01*
X261495Y9044D01*
X261956Y7933D01*
X262688Y6979D01*
X262957Y6773D01*
X262796Y6299D01*
X252611D01*
Y30781D01*
X252562Y31026D01*
X252423Y31235D01*
X252214Y31374D01*
X251969Y31423D01*
X245232D01*
X245024Y31923D01*
X246391Y33290D01*
X246917Y33185D01*
X247777Y33356D01*
X248506Y33844D01*
X248994Y34573D01*
X249165Y35433D01*
Y50269D01*
X248994Y51129D01*
X248506Y51858D01*
X247777Y52346D01*
X246917Y52517D01*
X246057Y52346D01*
X245327Y51858D01*
X244840Y51129D01*
X244669Y50269D01*
Y35433D01*
X244773Y34908D01*
X243293Y33428D01*
X225148D01*
X224912Y33868D01*
X225075Y34111D01*
X225160Y34539D01*
X220510D01*
X220595Y34111D01*
X220757Y33868D01*
X220521Y33428D01*
X207659D01*
X207392Y33928D01*
X207752Y34466D01*
X207837Y34894D01*
X203187D01*
X203272Y34466D01*
X203632Y33928D01*
X203364Y33428D01*
X154155D01*
X153888Y33928D01*
X154248Y34466D01*
X154333Y34894D01*
X149683D01*
X149768Y34466D01*
X150128Y33928D01*
X149860Y33428D01*
X93230D01*
X89709Y36948D01*
X89993Y37635D01*
X90118Y38583D01*
X89993Y39530D01*
X89627Y40413D01*
X89046Y41172D01*
X88287Y41753D01*
X87404Y42119D01*
X86457Y42244D01*
X85509Y42119D01*
X84626Y41753D01*
X83868Y41172D01*
X83286Y40413D01*
X82920Y39530D01*
X82796Y38583D01*
X82920Y37635D01*
X83286Y36752D01*
X83868Y35994D01*
X84626Y35412D01*
X85509Y35046D01*
X86457Y34921D01*
X87404Y35046D01*
X88091Y35331D01*
X91947Y31475D01*
X92318Y31227D01*
X92756Y31139D01*
X105226D01*
X105657Y30781D01*
Y6299D01*
X16565D01*
X16414Y6799D01*
X16971Y7171D01*
X17016Y7216D01*
X17068Y7251D01*
X17945Y8129D01*
X17981Y8181D01*
X18025Y8226D01*
X18715Y9258D01*
X18739Y9316D01*
X18774Y9369D01*
X19249Y10515D01*
X19261Y10577D01*
X19286Y10636D01*
X19528Y11853D01*
Y11916D01*
X19540Y11978D01*
Y13219D01*
X19528Y13281D01*
Y13344D01*
X19286Y14561D01*
X19261Y14620D01*
X19249Y14682D01*
X18774Y15828D01*
X18739Y15881D01*
X18715Y15939D01*
X18025Y16971D01*
X17981Y17016D01*
X17945Y17068D01*
X17068Y17945D01*
X17016Y17981D01*
X16971Y18025D01*
X15939Y18715D01*
X15881Y18739D01*
X15828Y18774D01*
X14682Y19249D01*
X14620Y19261D01*
X14561Y19286D01*
X13344Y19528D01*
X13281D01*
X13219Y19540D01*
X11978D01*
X11916Y19528D01*
X11853D01*
X10636Y19286D01*
X10577Y19261D01*
X10515Y19249D01*
X9369Y18774D01*
X9316Y18739D01*
X9258Y18715D01*
X8226Y18025D01*
X8181Y17981D01*
X8129Y17945D01*
X7251Y17068D01*
X7216Y17016D01*
X7171Y16971D01*
X6799Y16414D01*
X6299Y16565D01*
Y180285D01*
X6799Y180437D01*
X7171Y179880D01*
X7216Y179835D01*
X7251Y179782D01*
X8129Y178905D01*
X8181Y178870D01*
X8226Y178825D01*
X9258Y178136D01*
X9316Y178111D01*
X9369Y178076D01*
X10515Y177602D01*
X10577Y177589D01*
X10636Y177565D01*
X11853Y177323D01*
X11916D01*
X11978Y177311D01*
X13219D01*
X13281Y177323D01*
X13344D01*
X14561Y177565D01*
X14620Y177589D01*
X14682Y177602D01*
X15828Y178076D01*
X15881Y178111D01*
X15939Y178136D01*
X16971Y178825D01*
X17016Y178870D01*
X17068Y178905D01*
X17945Y179782D01*
X17981Y179835D01*
X18025Y179880D01*
X18715Y180911D01*
X18739Y180970D01*
X18774Y181022D01*
X19249Y182169D01*
X19261Y182231D01*
X19286Y182289D01*
X19528Y183506D01*
Y183570D01*
X19540Y183632D01*
Y184872D01*
X19528Y184934D01*
Y184998D01*
X19286Y186215D01*
X19261Y186273D01*
X19249Y186335D01*
X18774Y187481D01*
X18739Y187534D01*
X18715Y187593D01*
X18025Y188624D01*
X17981Y188669D01*
X17945Y188722D01*
X17068Y189599D01*
X17016Y189634D01*
X16971Y189679D01*
X16414Y190051D01*
X16565Y190551D01*
X300969D01*
Y187728D01*
X306587D01*
Y191681D01*
X307587D01*
Y187728D01*
D02*
G37*
%LPC*%
G36*
X358874Y187563D02*
X356012D01*
Y184701D01*
X358874D01*
Y187563D01*
D02*
G37*
G36*
X355012D02*
X352150D01*
Y184701D01*
X355012D01*
Y187563D01*
D02*
G37*
G36*
X358874Y183701D02*
X356012D01*
Y180839D01*
X358874D01*
Y183701D01*
D02*
G37*
G36*
X355012D02*
X352150D01*
Y180839D01*
X355012D01*
Y183701D01*
D02*
G37*
G36*
X158341Y177916D02*
Y176091D01*
X160166D01*
X160081Y176518D01*
X159555Y177305D01*
X158769Y177831D01*
X158341Y177916D01*
D02*
G37*
G36*
X157341D02*
X156913Y177831D01*
X156126Y177305D01*
X155601Y176518D01*
X155516Y176091D01*
X157341D01*
Y177916D01*
D02*
G37*
G36*
X283217Y179752D02*
X282433Y179596D01*
X281769Y179152D01*
X281325Y178488D01*
X281169Y177705D01*
X281325Y176921D01*
X281769Y176257D01*
X282433Y175813D01*
X283217Y175657D01*
X284000Y175813D01*
X284664Y176257D01*
X284867Y176561D01*
X300198D01*
X300551Y176207D01*
X300551Y175382D01*
X300551Y175197D01*
Y174518D01*
X287584D01*
X287381Y174822D01*
X286717Y175265D01*
X285934Y175421D01*
X285150Y175265D01*
X284486Y174822D01*
X284043Y174157D01*
X283887Y173374D01*
X284043Y172591D01*
X284486Y171926D01*
X285150Y171483D01*
X285934Y171327D01*
X286717Y171483D01*
X287381Y171926D01*
X287584Y172230D01*
X300198D01*
X300551Y171876D01*
X300551Y171051D01*
X300551Y170866D01*
Y170187D01*
X273056D01*
X272853Y170491D01*
X272189Y170935D01*
X271406Y171090D01*
X270622Y170935D01*
X269958Y170491D01*
X269514Y169827D01*
X269358Y169043D01*
X269514Y168260D01*
X269958Y167596D01*
X270622Y167152D01*
X271406Y166996D01*
X272189Y167152D01*
X272853Y167596D01*
X273056Y167899D01*
X279058D01*
X279210Y167399D01*
X278844Y167155D01*
X278428Y166531D01*
X278281Y165795D01*
Y165213D01*
X283898D01*
Y165795D01*
X283752Y166531D01*
X283335Y167155D01*
X282969Y167399D01*
X283121Y167899D01*
X300198D01*
X300551Y167546D01*
X300551Y166720D01*
X300551Y166535D01*
Y165857D01*
X297591D01*
X297388Y166160D01*
X296724Y166604D01*
X295940Y166760D01*
X295157Y166604D01*
X294493Y166160D01*
X294290Y165857D01*
X289414D01*
X289309Y166387D01*
X288974Y166888D01*
X288473Y167223D01*
X287881Y167341D01*
X286109D01*
X285518Y167223D01*
X285017Y166888D01*
X284682Y166387D01*
X284564Y165795D01*
Y163630D01*
X284682Y163039D01*
X285017Y162537D01*
X285518Y162202D01*
X286109Y162085D01*
X287881D01*
X288473Y162202D01*
X288974Y162537D01*
X289309Y163039D01*
X289414Y163569D01*
X294290D01*
X294493Y163265D01*
X295157Y162821D01*
X295940Y162665D01*
X296724Y162821D01*
X297388Y163265D01*
X297591Y163569D01*
X300198D01*
X300551Y163215D01*
X300551Y162390D01*
X300551Y162205D01*
Y161526D01*
X283121D01*
X282969Y162026D01*
X283335Y162270D01*
X283752Y162894D01*
X283898Y163630D01*
Y164213D01*
X278281D01*
Y163630D01*
X278428Y162894D01*
X278844Y162270D01*
X279210Y162026D01*
X279059Y161526D01*
X270787D01*
X270584Y161829D01*
X269920Y162273D01*
X269137Y162429D01*
X268353Y162273D01*
X267689Y161829D01*
X267245Y161165D01*
X267090Y160382D01*
X267245Y159599D01*
X267689Y158934D01*
X268353Y158491D01*
X269137Y158335D01*
X269920Y158491D01*
X270584Y158934D01*
X270787Y159238D01*
X300551D01*
Y158429D01*
X300181D01*
Y156551D01*
X310055D01*
Y158429D01*
X309685D01*
Y162205D01*
X309685Y162705D01*
X309685Y162890D01*
Y166535D01*
X309685Y167035D01*
X309685Y167220D01*
Y170866D01*
X309685Y171366D01*
X309685Y171551D01*
Y175197D01*
X309685Y175697D01*
X309685Y175882D01*
Y179713D01*
X300551D01*
Y178849D01*
X284867D01*
X284664Y179152D01*
X284000Y179596D01*
X283217Y179752D01*
D02*
G37*
G36*
X209483Y175290D02*
Y173465D01*
X211308D01*
X211223Y173893D01*
X210698Y174680D01*
X209911Y175205D01*
X209483Y175290D01*
D02*
G37*
G36*
X208483D02*
X208055Y175205D01*
X207269Y174680D01*
X206743Y173893D01*
X206658Y173465D01*
X208483D01*
Y175290D01*
D02*
G37*
G36*
X160166Y175091D02*
X158341D01*
Y173266D01*
X158769Y173351D01*
X159555Y173876D01*
X160081Y174663D01*
X160166Y175091D01*
D02*
G37*
G36*
X157341D02*
X155516D01*
X155601Y174663D01*
X156126Y173876D01*
X156913Y173351D01*
X157341Y173266D01*
Y175091D01*
D02*
G37*
G36*
X42554Y173979D02*
Y172153D01*
X44379D01*
X44294Y172581D01*
X43769Y173368D01*
X42982Y173893D01*
X42554Y173979D01*
D02*
G37*
G36*
X41554D02*
X41126Y173893D01*
X40340Y173368D01*
X39814Y172581D01*
X39729Y172153D01*
X41554D01*
Y173979D01*
D02*
G37*
G36*
X211308Y172465D02*
X209483D01*
Y170640D01*
X209911Y170725D01*
X210698Y171251D01*
X211223Y172037D01*
X211308Y172465D01*
D02*
G37*
G36*
X208483D02*
X206658D01*
X206743Y172037D01*
X207269Y171251D01*
X208055Y170725D01*
X208483Y170640D01*
Y172465D01*
D02*
G37*
G36*
X91400Y171452D02*
Y169627D01*
X93225D01*
X93140Y170054D01*
X92614Y170841D01*
X91827Y171367D01*
X91400Y171452D01*
D02*
G37*
G36*
X90400D02*
X89972Y171367D01*
X89185Y170841D01*
X88660Y170054D01*
X88575Y169627D01*
X90400D01*
Y171452D01*
D02*
G37*
G36*
X44379Y171153D02*
X42554D01*
Y169328D01*
X42982Y169414D01*
X43769Y169939D01*
X44294Y170726D01*
X44379Y171153D01*
D02*
G37*
G36*
X41554D02*
X39729D01*
X39814Y170726D01*
X40340Y169939D01*
X41126Y169414D01*
X41554Y169328D01*
Y171153D01*
D02*
G37*
G36*
X93225Y168627D02*
X91400D01*
Y166802D01*
X91827Y166887D01*
X92614Y167412D01*
X93140Y168199D01*
X93225Y168627D01*
D02*
G37*
G36*
X90400D02*
X88575D01*
X88660Y168199D01*
X89185Y167412D01*
X89972Y166887D01*
X90400Y166802D01*
Y168627D01*
D02*
G37*
G36*
X358504Y178138D02*
X351732D01*
Y166248D01*
X358504D01*
Y178138D01*
D02*
G37*
G36*
X512245Y161944D02*
Y160119D01*
X514070D01*
X513985Y160547D01*
X513459Y161334D01*
X512673Y161859D01*
X512245Y161944D01*
D02*
G37*
G36*
X511245D02*
X510817Y161859D01*
X510030Y161334D01*
X509505Y160547D01*
X509420Y160119D01*
X511245D01*
Y161944D01*
D02*
G37*
G36*
X255945D02*
Y160119D01*
X257770D01*
X257685Y160547D01*
X257160Y161334D01*
X256373Y161859D01*
X255945Y161944D01*
D02*
G37*
G36*
X254945D02*
X254518Y161859D01*
X253731Y161334D01*
X253205Y160547D01*
X253120Y160119D01*
X254945D01*
Y161944D01*
D02*
G37*
G36*
X514070Y159119D02*
X512245D01*
Y157294D01*
X512673Y157379D01*
X513459Y157905D01*
X513985Y158691D01*
X514070Y159119D01*
D02*
G37*
G36*
X511245D02*
X509420D01*
X509505Y158691D01*
X510030Y157905D01*
X510817Y157379D01*
X511245Y157294D01*
Y159119D01*
D02*
G37*
G36*
X257770D02*
X255945D01*
Y157294D01*
X256373Y157379D01*
X257160Y157905D01*
X257685Y158691D01*
X257770Y159119D01*
D02*
G37*
G36*
X254945D02*
X253120D01*
X253205Y158691D01*
X253731Y157905D01*
X254518Y157379D01*
X254945Y157294D01*
Y159119D01*
D02*
G37*
G36*
X155940Y158066D02*
Y156241D01*
X157765D01*
X157680Y156669D01*
X157154Y157455D01*
X156368Y157981D01*
X155940Y158066D01*
D02*
G37*
G36*
X154940D02*
X154512Y157981D01*
X153726Y157455D01*
X153200Y156669D01*
X153115Y156241D01*
X154940D01*
Y158066D01*
D02*
G37*
G36*
X162436Y155704D02*
Y153878D01*
X164261D01*
X164176Y154306D01*
X163651Y155093D01*
X162864Y155619D01*
X162436Y155704D01*
D02*
G37*
G36*
X161436D02*
X161008Y155619D01*
X160222Y155093D01*
X159696Y154306D01*
X159611Y153878D01*
X161436D01*
Y155704D01*
D02*
G37*
G36*
X157765Y155241D02*
X155940D01*
Y153416D01*
X156368Y153501D01*
X157154Y154026D01*
X157680Y154813D01*
X157765Y155241D01*
D02*
G37*
G36*
X154940D02*
X153115D01*
X153200Y154813D01*
X153726Y154026D01*
X154512Y153501D01*
X154940Y153416D01*
Y155241D01*
D02*
G37*
G36*
X358874Y159216D02*
X355618D01*
Y153402D01*
X358874D01*
Y159216D01*
D02*
G37*
G36*
X354618D02*
X351362D01*
Y153402D01*
X354618D01*
Y159216D01*
D02*
G37*
G36*
X310055Y155551D02*
X300181D01*
Y153673D01*
X300551D01*
Y152865D01*
X278112D01*
X277909Y153168D01*
X277245Y153612D01*
X276461Y153768D01*
X275678Y153612D01*
X275014Y153168D01*
X274570Y152504D01*
X274414Y151720D01*
X274570Y150937D01*
X275014Y150273D01*
X275678Y149829D01*
X276461Y149673D01*
X277245Y149829D01*
X277909Y150273D01*
X278112Y150576D01*
X300198D01*
X300551Y150223D01*
X300551Y149398D01*
X300551Y149213D01*
Y148388D01*
X280391D01*
X280188Y148692D01*
X279524Y149135D01*
X278740Y149291D01*
X277957Y149135D01*
X277293Y148692D01*
X276849Y148028D01*
X276693Y147244D01*
X276849Y146461D01*
X277293Y145797D01*
X277957Y145353D01*
X278740Y145197D01*
X279524Y145353D01*
X280188Y145797D01*
X280391Y146100D01*
X300551D01*
Y145382D01*
X309685D01*
Y149213D01*
X309685Y149713D01*
X309685Y149898D01*
Y153673D01*
X310055D01*
Y155551D01*
D02*
G37*
G36*
X40317Y154129D02*
Y152304D01*
X42142D01*
X42057Y152732D01*
X41531Y153518D01*
X40745Y154044D01*
X40317Y154129D01*
D02*
G37*
G36*
X39317D02*
X38889Y154044D01*
X38103Y153518D01*
X37577Y152732D01*
X37492Y152304D01*
X39317D01*
Y154129D01*
D02*
G37*
G36*
X164261Y152878D02*
X162436D01*
Y151053D01*
X162864Y151139D01*
X163651Y151664D01*
X164176Y152451D01*
X164261Y152878D01*
D02*
G37*
G36*
X161436D02*
X159611D01*
X159696Y152451D01*
X160222Y151664D01*
X161008Y151139D01*
X161436Y151053D01*
Y152878D01*
D02*
G37*
G36*
X46911Y152062D02*
Y150237D01*
X48737D01*
X48651Y150665D01*
X48126Y151451D01*
X47339Y151977D01*
X46911Y152062D01*
D02*
G37*
G36*
X45911D02*
X45484Y151977D01*
X44697Y151451D01*
X44172Y150665D01*
X44086Y150237D01*
X45911D01*
Y152062D01*
D02*
G37*
G36*
X42142Y151304D02*
X40317D01*
Y149479D01*
X40745Y149564D01*
X41531Y150089D01*
X42057Y150876D01*
X42142Y151304D01*
D02*
G37*
G36*
X39317D02*
X37492D01*
X37577Y150876D01*
X38103Y150089D01*
X38889Y149564D01*
X39317Y149479D01*
Y151304D01*
D02*
G37*
G36*
X48737Y149237D02*
X46911D01*
Y147412D01*
X47339Y147497D01*
X48126Y148022D01*
X48651Y148809D01*
X48737Y149237D01*
D02*
G37*
G36*
X45911D02*
X44086D01*
X44172Y148809D01*
X44697Y148022D01*
X45484Y147497D01*
X45911Y147412D01*
Y149237D01*
D02*
G37*
G36*
X358874Y152402D02*
X355618D01*
Y146587D01*
X358874D01*
Y152402D01*
D02*
G37*
G36*
X354618D02*
X351362D01*
Y146587D01*
X354618D01*
Y152402D01*
D02*
G37*
G36*
X346457Y180512D02*
X336614D01*
X336368Y180463D01*
X336160Y180324D01*
X336021Y180116D01*
X335972Y179870D01*
Y145224D01*
X336021Y144979D01*
X336160Y144770D01*
X336368Y144631D01*
X336614Y144582D01*
X346457D01*
X346703Y144631D01*
X346911Y144770D01*
X347050Y144979D01*
X347099Y145224D01*
Y179870D01*
X347050Y180116D01*
X346911Y180324D01*
X346703Y180463D01*
X346457Y180512D01*
D02*
G37*
G36*
X529469Y144451D02*
Y142626D01*
X531294D01*
X531209Y143054D01*
X530684Y143840D01*
X529897Y144366D01*
X529469Y144451D01*
D02*
G37*
G36*
X528469D02*
X528041Y144366D01*
X527255Y143840D01*
X526729Y143054D01*
X526644Y142626D01*
X528469D01*
Y144451D01*
D02*
G37*
G36*
X531294Y141626D02*
X529469D01*
Y139801D01*
X529897Y139886D01*
X530684Y140412D01*
X531209Y141198D01*
X531294Y141626D01*
D02*
G37*
G36*
X528469D02*
X526644D01*
X526729Y141198D01*
X527255Y140412D01*
X528041Y139886D01*
X528469Y139801D01*
Y141626D01*
D02*
G37*
G36*
X306587Y142090D02*
X300969D01*
Y139622D01*
X306587D01*
Y142090D01*
D02*
G37*
G36*
X469315Y136747D02*
X468888Y136662D01*
X468101Y136137D01*
X467750Y135611D01*
X467157D01*
X466806Y136137D01*
X466019Y136662D01*
X465591Y136747D01*
Y134422D01*
Y132097D01*
X466019Y132182D01*
X466806Y132708D01*
X467157Y133233D01*
X467750D01*
X468101Y132708D01*
X468888Y132182D01*
X469315Y132097D01*
Y134422D01*
Y136747D01*
D02*
G37*
G36*
X503386D02*
Y134922D01*
X505211D01*
X505126Y135350D01*
X504601Y136137D01*
X503814Y136662D01*
X503386Y136747D01*
D02*
G37*
G36*
X502386D02*
X501959Y136662D01*
X501172Y136137D01*
X500646Y135350D01*
X500561Y134922D01*
X502386D01*
Y136747D01*
D02*
G37*
G36*
X493938D02*
Y134922D01*
X495763D01*
X495678Y135350D01*
X495152Y136137D01*
X494365Y136662D01*
X493938Y136747D01*
D02*
G37*
G36*
X492938D02*
X492510Y136662D01*
X491723Y136137D01*
X491198Y135350D01*
X491113Y134922D01*
X492938D01*
Y136747D01*
D02*
G37*
G36*
X486851D02*
Y134922D01*
X488676D01*
X488591Y135350D01*
X488065Y136137D01*
X487279Y136662D01*
X486851Y136747D01*
D02*
G37*
G36*
X485851D02*
X485423Y136662D01*
X484637Y136137D01*
X484111Y135350D01*
X484026Y134922D01*
X485851D01*
Y136747D01*
D02*
G37*
G36*
X470316D02*
Y134922D01*
X472141D01*
X472055Y135350D01*
X471530Y136137D01*
X470743Y136662D01*
X470316Y136747D01*
D02*
G37*
G36*
X464591D02*
X464163Y136662D01*
X463377Y136137D01*
X462851Y135350D01*
X462766Y134922D01*
X464591D01*
Y136747D01*
D02*
G37*
G36*
X451418D02*
Y134922D01*
X453243D01*
X453158Y135350D01*
X452632Y136137D01*
X451846Y136662D01*
X451418Y136747D01*
D02*
G37*
G36*
X450418D02*
X449990Y136662D01*
X449203Y136137D01*
X448678Y135350D01*
X448593Y134922D01*
X450418D01*
Y136747D01*
D02*
G37*
G36*
X444331D02*
Y134922D01*
X446156D01*
X446071Y135350D01*
X445546Y136137D01*
X444759Y136662D01*
X444331Y136747D01*
D02*
G37*
G36*
X443331D02*
X442904Y136662D01*
X442117Y136137D01*
X441591Y135350D01*
X441506Y134922D01*
X443331D01*
Y136747D01*
D02*
G37*
G36*
X437245D02*
Y134922D01*
X439070D01*
X438985Y135350D01*
X438459Y136137D01*
X437673Y136662D01*
X437245Y136747D01*
D02*
G37*
G36*
X436245D02*
X435817Y136662D01*
X435030Y136137D01*
X434505Y135350D01*
X434420Y134922D01*
X436245D01*
Y136747D01*
D02*
G37*
G36*
X430158D02*
Y134922D01*
X431983D01*
X431898Y135350D01*
X431372Y136137D01*
X430586Y136662D01*
X430158Y136747D01*
D02*
G37*
G36*
X429158D02*
X428730Y136662D01*
X427944Y136137D01*
X427418Y135350D01*
X427333Y134922D01*
X429158D01*
Y136747D01*
D02*
G37*
G36*
X415985D02*
Y134922D01*
X417810D01*
X417725Y135350D01*
X417199Y136137D01*
X416413Y136662D01*
X415985Y136747D01*
D02*
G37*
G36*
X414985D02*
X414557Y136662D01*
X413770Y136137D01*
X413245Y135350D01*
X413160Y134922D01*
X414985D01*
Y136747D01*
D02*
G37*
G36*
X408898D02*
Y134922D01*
X410723D01*
X410638Y135350D01*
X410113Y136137D01*
X409326Y136662D01*
X408898Y136747D01*
D02*
G37*
G36*
X407898D02*
X407470Y136662D01*
X406684Y136137D01*
X406158Y135350D01*
X406073Y134922D01*
X407898D01*
Y136747D01*
D02*
G37*
G36*
X401812D02*
Y134922D01*
X403637D01*
X403552Y135350D01*
X403026Y136137D01*
X402239Y136662D01*
X401812Y136747D01*
D02*
G37*
G36*
X400812D02*
X400384Y136662D01*
X399597Y136137D01*
X399072Y135350D01*
X398987Y134922D01*
X400812D01*
Y136747D01*
D02*
G37*
G36*
X394725D02*
Y134922D01*
X396550D01*
X396465Y135350D01*
X395939Y136137D01*
X395153Y136662D01*
X394725Y136747D01*
D02*
G37*
G36*
X393725D02*
X393297Y136662D01*
X392511Y136137D01*
X391985Y135350D01*
X391900Y134922D01*
X393725D01*
Y136747D01*
D02*
G37*
G36*
X387638D02*
Y134922D01*
X389463D01*
X389378Y135350D01*
X388853Y136137D01*
X388066Y136662D01*
X387638Y136747D01*
D02*
G37*
G36*
X386638D02*
X386211Y136662D01*
X385424Y136137D01*
X384898Y135350D01*
X384813Y134922D01*
X386638D01*
Y136747D01*
D02*
G37*
G36*
X380552D02*
Y134922D01*
X382377D01*
X382292Y135350D01*
X381766Y136137D01*
X380980Y136662D01*
X380552Y136747D01*
D02*
G37*
G36*
X379552D02*
X379124Y136662D01*
X378337Y136137D01*
X377812Y135350D01*
X377727Y134922D01*
X379552D01*
Y136747D01*
D02*
G37*
G36*
X373465D02*
Y134922D01*
X375290D01*
X375205Y135350D01*
X374680Y136137D01*
X373893Y136662D01*
X373465Y136747D01*
D02*
G37*
G36*
X372465D02*
X372037Y136662D01*
X371251Y136137D01*
X370725Y135350D01*
X370640Y134922D01*
X372465D01*
Y136747D01*
D02*
G37*
G36*
X366378D02*
Y134922D01*
X368204D01*
X368119Y135350D01*
X367593Y136137D01*
X366806Y136662D01*
X366378Y136747D01*
D02*
G37*
G36*
X365378D02*
X364951Y136662D01*
X364164Y136137D01*
X363638Y135350D01*
X363554Y134922D01*
X365378D01*
Y136747D01*
D02*
G37*
G36*
X359292D02*
Y134922D01*
X361117D01*
X361032Y135350D01*
X360506Y136137D01*
X359720Y136662D01*
X359292Y136747D01*
D02*
G37*
G36*
X358292D02*
X357864Y136662D01*
X357078Y136137D01*
X356552Y135350D01*
X356467Y134922D01*
X358292D01*
Y136747D01*
D02*
G37*
G36*
X352205D02*
Y134922D01*
X354030D01*
X353945Y135350D01*
X353420Y136137D01*
X352633Y136662D01*
X352205Y136747D01*
D02*
G37*
G36*
X351205D02*
X350778Y136662D01*
X349991Y136137D01*
X349465Y135350D01*
X349380Y134922D01*
X351205D01*
Y136747D01*
D02*
G37*
G36*
X345119D02*
Y134922D01*
X346944D01*
X346859Y135350D01*
X346333Y136137D01*
X345547Y136662D01*
X345119Y136747D01*
D02*
G37*
G36*
X344119D02*
X343691Y136662D01*
X342904Y136137D01*
X342379Y135350D01*
X342294Y134922D01*
X344119D01*
Y136747D01*
D02*
G37*
G36*
X338032D02*
Y134922D01*
X339857D01*
X339772Y135350D01*
X339247Y136137D01*
X338460Y136662D01*
X338032Y136747D01*
D02*
G37*
G36*
X337032D02*
X336604Y136662D01*
X335818Y136137D01*
X335292Y135350D01*
X335207Y134922D01*
X337032D01*
Y136747D01*
D02*
G37*
G36*
X330945D02*
Y134922D01*
X332770D01*
X332685Y135350D01*
X332160Y136137D01*
X331373Y136662D01*
X330945Y136747D01*
D02*
G37*
G36*
X329945D02*
X329518Y136662D01*
X328731Y136137D01*
X328205Y135350D01*
X328120Y134922D01*
X329945D01*
Y136747D01*
D02*
G37*
G36*
X313205Y142090D02*
X307587D01*
Y139122D01*
Y136153D01*
X313205D01*
Y137299D01*
X322874D01*
X323108Y136896D01*
X323117Y136802D01*
X322656Y136707D01*
X322431Y136662D01*
X321644Y136137D01*
X321119Y135350D01*
X321034Y134922D01*
X325684D01*
X325599Y135350D01*
X325073Y136137D01*
X324287Y136662D01*
X324062Y136707D01*
X323601Y136802D01*
X323610Y136896D01*
X323844Y137299D01*
X327165D01*
X327411Y137348D01*
X327620Y137487D01*
X327759Y137695D01*
X327808Y137941D01*
Y140303D01*
X327759Y140549D01*
X327620Y140757D01*
X327411Y140896D01*
X327165Y140945D01*
X313205D01*
Y142090D01*
D02*
G37*
G36*
X306587Y138622D02*
X300969D01*
Y136527D01*
X300385Y136137D01*
X299859Y135350D01*
X299774Y134922D01*
X304424D01*
X304339Y135350D01*
X304136Y135653D01*
X304403Y136153D01*
X306587D01*
Y138622D01*
D02*
G37*
G36*
X295512Y136747D02*
Y134922D01*
X297338D01*
X297252Y135350D01*
X296727Y136137D01*
X295940Y136662D01*
X295512Y136747D01*
D02*
G37*
G36*
X294512D02*
X294085Y136662D01*
X293298Y136137D01*
X292772Y135350D01*
X292687Y134922D01*
X294512D01*
Y136747D01*
D02*
G37*
G36*
X288426D02*
Y134922D01*
X290251D01*
X290166Y135350D01*
X289640Y136137D01*
X288854Y136662D01*
X288426Y136747D01*
D02*
G37*
G36*
X287426D02*
X286998Y136662D01*
X286211Y136137D01*
X285686Y135350D01*
X285601Y134922D01*
X287426D01*
Y136747D01*
D02*
G37*
G36*
X281339D02*
Y134922D01*
X283164D01*
X283079Y135350D01*
X282554Y136137D01*
X281767Y136662D01*
X281339Y136747D01*
D02*
G37*
G36*
X280339D02*
X279911Y136662D01*
X279125Y136137D01*
X278599Y135350D01*
X278514Y134922D01*
X280339D01*
Y136747D01*
D02*
G37*
G36*
X274253D02*
Y134922D01*
X276078D01*
X275992Y135350D01*
X275467Y136137D01*
X274680Y136662D01*
X274253Y136747D01*
D02*
G37*
G36*
X273253D02*
X272825Y136662D01*
X272038Y136137D01*
X271513Y135350D01*
X271427Y134922D01*
X273253D01*
Y136747D01*
D02*
G37*
G36*
X267166D02*
Y134922D01*
X268991D01*
X268906Y135350D01*
X268380Y136137D01*
X267594Y136662D01*
X267166Y136747D01*
D02*
G37*
G36*
X266166D02*
X265738Y136662D01*
X264951Y136137D01*
X264426Y135350D01*
X264341Y134922D01*
X266166D01*
Y136747D01*
D02*
G37*
G36*
X505211Y133922D02*
X503386D01*
Y132097D01*
X503814Y132182D01*
X504601Y132708D01*
X505126Y133494D01*
X505211Y133922D01*
D02*
G37*
G36*
X502386D02*
X500561D01*
X500646Y133494D01*
X501172Y132708D01*
X501959Y132182D01*
X502386Y132097D01*
Y133922D01*
D02*
G37*
G36*
X495763D02*
X493938D01*
Y132097D01*
X494365Y132182D01*
X495152Y132708D01*
X495678Y133494D01*
X495763Y133922D01*
D02*
G37*
G36*
X492938D02*
X491113D01*
X491198Y133494D01*
X491723Y132708D01*
X492510Y132182D01*
X492938Y132097D01*
Y133922D01*
D02*
G37*
G36*
X488676D02*
X486851D01*
Y132097D01*
X487279Y132182D01*
X488065Y132708D01*
X488591Y133494D01*
X488676Y133922D01*
D02*
G37*
G36*
X485851D02*
X484026D01*
X484111Y133494D01*
X484637Y132708D01*
X485423Y132182D01*
X485851Y132097D01*
Y133922D01*
D02*
G37*
G36*
X472141D02*
X470316D01*
Y132097D01*
X470743Y132182D01*
X471530Y132708D01*
X472055Y133494D01*
X472141Y133922D01*
D02*
G37*
G36*
X464591D02*
X462766D01*
X462851Y133494D01*
X463377Y132708D01*
X464163Y132182D01*
X464591Y132097D01*
Y133922D01*
D02*
G37*
G36*
X453243D02*
X451418D01*
Y132097D01*
X451846Y132182D01*
X452632Y132708D01*
X453158Y133494D01*
X453243Y133922D01*
D02*
G37*
G36*
X450418D02*
X448593D01*
X448678Y133494D01*
X449203Y132708D01*
X449990Y132182D01*
X450418Y132097D01*
Y133922D01*
D02*
G37*
G36*
X446156D02*
X444331D01*
Y132097D01*
X444759Y132182D01*
X445546Y132708D01*
X446071Y133494D01*
X446156Y133922D01*
D02*
G37*
G36*
X443331D02*
X441506D01*
X441591Y133494D01*
X442117Y132708D01*
X442904Y132182D01*
X443331Y132097D01*
Y133922D01*
D02*
G37*
G36*
X439070D02*
X437245D01*
Y132097D01*
X437673Y132182D01*
X438459Y132708D01*
X438985Y133494D01*
X439070Y133922D01*
D02*
G37*
G36*
X436245D02*
X434420D01*
X434505Y133494D01*
X435030Y132708D01*
X435817Y132182D01*
X436245Y132097D01*
Y133922D01*
D02*
G37*
G36*
X431983D02*
X430158D01*
Y132097D01*
X430586Y132182D01*
X431372Y132708D01*
X431898Y133494D01*
X431983Y133922D01*
D02*
G37*
G36*
X429158D02*
X427333D01*
X427418Y133494D01*
X427944Y132708D01*
X428730Y132182D01*
X429158Y132097D01*
Y133922D01*
D02*
G37*
G36*
X417810D02*
X415985D01*
Y132097D01*
X416413Y132182D01*
X417199Y132708D01*
X417725Y133494D01*
X417810Y133922D01*
D02*
G37*
G36*
X414985D02*
X413160D01*
X413245Y133494D01*
X413770Y132708D01*
X414557Y132182D01*
X414985Y132097D01*
Y133922D01*
D02*
G37*
G36*
X410723D02*
X408898D01*
Y132097D01*
X409326Y132182D01*
X410113Y132708D01*
X410638Y133494D01*
X410723Y133922D01*
D02*
G37*
G36*
X407898D02*
X406073D01*
X406158Y133494D01*
X406684Y132708D01*
X407470Y132182D01*
X407898Y132097D01*
Y133922D01*
D02*
G37*
G36*
X403637D02*
X401812D01*
Y132097D01*
X402239Y132182D01*
X403026Y132708D01*
X403552Y133494D01*
X403637Y133922D01*
D02*
G37*
G36*
X400812D02*
X398987D01*
X399072Y133494D01*
X399597Y132708D01*
X400384Y132182D01*
X400812Y132097D01*
Y133922D01*
D02*
G37*
G36*
X396550D02*
X394725D01*
Y132097D01*
X395153Y132182D01*
X395939Y132708D01*
X396465Y133494D01*
X396550Y133922D01*
D02*
G37*
G36*
X393725D02*
X391900D01*
X391985Y133494D01*
X392511Y132708D01*
X393297Y132182D01*
X393725Y132097D01*
Y133922D01*
D02*
G37*
G36*
X389463D02*
X387638D01*
Y132097D01*
X388066Y132182D01*
X388853Y132708D01*
X389378Y133494D01*
X389463Y133922D01*
D02*
G37*
G36*
X386638D02*
X384813D01*
X384898Y133494D01*
X385424Y132708D01*
X386211Y132182D01*
X386638Y132097D01*
Y133922D01*
D02*
G37*
G36*
X382377D02*
X380552D01*
Y132097D01*
X380980Y132182D01*
X381766Y132708D01*
X382292Y133494D01*
X382377Y133922D01*
D02*
G37*
G36*
X379552D02*
X377727D01*
X377812Y133494D01*
X378337Y132708D01*
X379124Y132182D01*
X379552Y132097D01*
Y133922D01*
D02*
G37*
G36*
X375290D02*
X373465D01*
Y132097D01*
X373893Y132182D01*
X374680Y132708D01*
X375205Y133494D01*
X375290Y133922D01*
D02*
G37*
G36*
X372465D02*
X370640D01*
X370725Y133494D01*
X371251Y132708D01*
X372037Y132182D01*
X372465Y132097D01*
Y133922D01*
D02*
G37*
G36*
X368204D02*
X366378D01*
Y132097D01*
X366806Y132182D01*
X367593Y132708D01*
X368119Y133494D01*
X368204Y133922D01*
D02*
G37*
G36*
X365378D02*
X363554D01*
X363638Y133494D01*
X364164Y132708D01*
X364951Y132182D01*
X365378Y132097D01*
Y133922D01*
D02*
G37*
G36*
X361117D02*
X359292D01*
Y132097D01*
X359720Y132182D01*
X360506Y132708D01*
X361032Y133494D01*
X361117Y133922D01*
D02*
G37*
G36*
X358292D02*
X356467D01*
X356552Y133494D01*
X357078Y132708D01*
X357864Y132182D01*
X358292Y132097D01*
Y133922D01*
D02*
G37*
G36*
X354030D02*
X352205D01*
Y132097D01*
X352633Y132182D01*
X353420Y132708D01*
X353945Y133494D01*
X354030Y133922D01*
D02*
G37*
G36*
X351205D02*
X349380D01*
X349465Y133494D01*
X349991Y132708D01*
X350778Y132182D01*
X351205Y132097D01*
Y133922D01*
D02*
G37*
G36*
X346944D02*
X345119D01*
Y132097D01*
X345547Y132182D01*
X346333Y132708D01*
X346859Y133494D01*
X346944Y133922D01*
D02*
G37*
G36*
X344119D02*
X342294D01*
X342379Y133494D01*
X342904Y132708D01*
X343691Y132182D01*
X344119Y132097D01*
Y133922D01*
D02*
G37*
G36*
X339857D02*
X338032D01*
Y132097D01*
X338460Y132182D01*
X339247Y132708D01*
X339772Y133494D01*
X339857Y133922D01*
D02*
G37*
G36*
X337032D02*
X335207D01*
X335292Y133494D01*
X335818Y132708D01*
X336604Y132182D01*
X337032Y132097D01*
Y133922D01*
D02*
G37*
G36*
X332770D02*
X330945D01*
Y132097D01*
X331373Y132182D01*
X332160Y132708D01*
X332685Y133494D01*
X332770Y133922D01*
D02*
G37*
G36*
X329945D02*
X328120D01*
X328205Y133494D01*
X328731Y132708D01*
X329518Y132182D01*
X329945Y132097D01*
Y133922D01*
D02*
G37*
G36*
X325684D02*
X323859D01*
Y132097D01*
X324287Y132182D01*
X325073Y132708D01*
X325599Y133494D01*
X325684Y133922D01*
D02*
G37*
G36*
X322859D02*
X321034D01*
X321119Y133494D01*
X321644Y132708D01*
X322431Y132182D01*
X322859Y132097D01*
Y133922D01*
D02*
G37*
G36*
X304424D02*
X302599D01*
Y132097D01*
X303027Y132182D01*
X303813Y132708D01*
X304339Y133494D01*
X304424Y133922D01*
D02*
G37*
G36*
X301599D02*
X299774D01*
X299859Y133494D01*
X300385Y132708D01*
X301171Y132182D01*
X301599Y132097D01*
Y133922D01*
D02*
G37*
G36*
X297338D02*
X295512D01*
Y132097D01*
X295940Y132182D01*
X296727Y132708D01*
X297252Y133494D01*
X297338Y133922D01*
D02*
G37*
G36*
X294512D02*
X292687D01*
X292772Y133494D01*
X293298Y132708D01*
X294085Y132182D01*
X294512Y132097D01*
Y133922D01*
D02*
G37*
G36*
X290251D02*
X288426D01*
Y132097D01*
X288854Y132182D01*
X289640Y132708D01*
X290166Y133494D01*
X290251Y133922D01*
D02*
G37*
G36*
X287426D02*
X285601D01*
X285686Y133494D01*
X286211Y132708D01*
X286998Y132182D01*
X287426Y132097D01*
Y133922D01*
D02*
G37*
G36*
X283164D02*
X281339D01*
Y132097D01*
X281767Y132182D01*
X282554Y132708D01*
X283079Y133494D01*
X283164Y133922D01*
D02*
G37*
G36*
X280339D02*
X278514D01*
X278599Y133494D01*
X279125Y132708D01*
X279911Y132182D01*
X280339Y132097D01*
Y133922D01*
D02*
G37*
G36*
X276078D02*
X274253D01*
Y132097D01*
X274680Y132182D01*
X275467Y132708D01*
X275992Y133494D01*
X276078Y133922D01*
D02*
G37*
G36*
X273253D02*
X271427D01*
X271513Y133494D01*
X272038Y132708D01*
X272825Y132182D01*
X273253Y132097D01*
Y133922D01*
D02*
G37*
G36*
X268991D02*
X267166D01*
Y132097D01*
X267594Y132182D01*
X268380Y132708D01*
X268906Y133494D01*
X268991Y133922D01*
D02*
G37*
G36*
X266166D02*
X264341D01*
X264426Y133494D01*
X264951Y132708D01*
X265738Y132182D01*
X266166Y132097D01*
Y133922D01*
D02*
G37*
G36*
X41051Y126341D02*
Y124516D01*
X42876D01*
X42791Y124944D01*
X42266Y125730D01*
X41479Y126256D01*
X41051Y126341D01*
D02*
G37*
G36*
X40051D02*
X39623Y126256D01*
X38837Y125730D01*
X38311Y124944D01*
X38226Y124516D01*
X40051D01*
Y126341D01*
D02*
G37*
G36*
X472678Y124936D02*
Y123111D01*
X474503D01*
X474418Y123539D01*
X473892Y124326D01*
X473106Y124851D01*
X472678Y124936D01*
D02*
G37*
G36*
X471678D02*
X471250Y124851D01*
X470463Y124326D01*
X469938Y123539D01*
X469853Y123111D01*
X471678D01*
Y124936D01*
D02*
G37*
G36*
X91865Y124208D02*
Y122382D01*
X93690D01*
X93605Y122810D01*
X93080Y123597D01*
X92293Y124123D01*
X91865Y124208D01*
D02*
G37*
G36*
X90865D02*
X90437Y124123D01*
X89651Y123597D01*
X89125Y122810D01*
X89040Y122382D01*
X90865D01*
Y124208D01*
D02*
G37*
G36*
X42876Y123516D02*
X41051D01*
Y121691D01*
X41479Y121776D01*
X42266Y122301D01*
X42791Y123088D01*
X42876Y123516D01*
D02*
G37*
G36*
X40051D02*
X38226D01*
X38311Y123088D01*
X38837Y122301D01*
X39623Y121776D01*
X40051Y121691D01*
Y123516D01*
D02*
G37*
G36*
X474503Y122111D02*
X472678D01*
Y120286D01*
X473106Y120371D01*
X473892Y120897D01*
X474418Y121683D01*
X474503Y122111D01*
D02*
G37*
G36*
X471678D02*
X469853D01*
X469938Y121683D01*
X470463Y120897D01*
X471250Y120371D01*
X471678Y120286D01*
Y122111D01*
D02*
G37*
G36*
X93690Y121382D02*
X91865D01*
Y119557D01*
X92293Y119642D01*
X93080Y120168D01*
X93605Y120955D01*
X93690Y121382D01*
D02*
G37*
G36*
X90865D02*
X89040D01*
X89125Y120955D01*
X89651Y120168D01*
X90437Y119642D01*
X90865Y119557D01*
Y121382D01*
D02*
G37*
G36*
X201760Y113368D02*
Y111543D01*
X203585D01*
X203500Y111971D01*
X202974Y112758D01*
X202188Y113283D01*
X201760Y113368D01*
D02*
G37*
G36*
X200760D02*
X200332Y113283D01*
X199545Y112758D01*
X199020Y111971D01*
X198935Y111543D01*
X200760D01*
Y113368D01*
D02*
G37*
G36*
X480315Y118703D02*
X479531Y118547D01*
X478867Y118103D01*
X478424Y117439D01*
X478268Y116656D01*
X478424Y115872D01*
X478867Y115208D01*
X479531Y114764D01*
X480315Y114609D01*
X481098Y114764D01*
X481466Y115010D01*
X483851D01*
X487650Y111211D01*
X488184Y110854D01*
X488814Y110729D01*
X500233D01*
X500601Y110484D01*
X501384Y110328D01*
X502168Y110484D01*
X502832Y110927D01*
X503276Y111591D01*
X503432Y112375D01*
X503276Y113158D01*
X502832Y113823D01*
X502168Y114266D01*
X501384Y114422D01*
X500601Y114266D01*
X500233Y114021D01*
X489496D01*
X485697Y117820D01*
X485163Y118176D01*
X484533Y118302D01*
X481466D01*
X481098Y118547D01*
X480315Y118703D01*
D02*
G37*
G36*
X515091Y115194D02*
X514361Y115098D01*
X513681Y114817D01*
X513097Y114369D01*
X512649Y113785D01*
X512368Y113105D01*
X512272Y112375D01*
X512368Y111645D01*
X512649Y110965D01*
X513097Y110381D01*
X513681Y109933D01*
X514361Y109652D01*
X515091Y109556D01*
X515821Y109652D01*
X516501Y109933D01*
X517085Y110381D01*
X517533Y110965D01*
X517814Y111645D01*
X517910Y112375D01*
X517814Y113105D01*
X517533Y113785D01*
X517085Y114369D01*
X516501Y114817D01*
X515821Y115098D01*
X515091Y115194D01*
D02*
G37*
G36*
X203585Y110543D02*
X201760D01*
Y108718D01*
X202188Y108803D01*
X202974Y109329D01*
X203500Y110116D01*
X203585Y110543D01*
D02*
G37*
G36*
X200760D02*
X198935D01*
X199020Y110116D01*
X199545Y109329D01*
X200332Y108803D01*
X200760Y108718D01*
Y110543D01*
D02*
G37*
G36*
X252099Y116187D02*
X251112Y116057D01*
X250193Y115676D01*
X249403Y115071D01*
X248798Y114281D01*
X248417Y113362D01*
X248287Y112375D01*
X248417Y111388D01*
X248798Y110469D01*
X249403Y109679D01*
X250193Y109074D01*
X251112Y108693D01*
X252099Y108563D01*
X253086Y108693D01*
X254005Y109074D01*
X254795Y109679D01*
X255400Y110469D01*
X255781Y111388D01*
X255911Y112375D01*
X255781Y113362D01*
X255400Y114281D01*
X254795Y115071D01*
X254005Y115676D01*
X253086Y116057D01*
X252099Y116187D01*
D02*
G37*
G36*
X12540Y108222D02*
Y105198D01*
X15564D01*
X15507Y105627D01*
X15149Y106493D01*
X14578Y107236D01*
X13835Y107807D01*
X12969Y108165D01*
X12540Y108222D01*
D02*
G37*
G36*
X11540D02*
X11111Y108165D01*
X10245Y107807D01*
X9502Y107236D01*
X8931Y106493D01*
X8573Y105627D01*
X8516Y105198D01*
X11540D01*
Y108222D01*
D02*
G37*
G36*
X39700Y105605D02*
Y103780D01*
X41525D01*
X41440Y104208D01*
X40914Y104994D01*
X40128Y105520D01*
X39700Y105605D01*
D02*
G37*
G36*
X38700D02*
X38272Y105520D01*
X37485Y104994D01*
X36960Y104208D01*
X36875Y103780D01*
X38700D01*
Y105605D01*
D02*
G37*
G36*
X502796Y104464D02*
Y102639D01*
X504621D01*
X504536Y103067D01*
X504010Y103853D01*
X503224Y104379D01*
X502796Y104464D01*
D02*
G37*
G36*
X501796D02*
X501368Y104379D01*
X500582Y103853D01*
X500056Y103067D01*
X499971Y102639D01*
X501796D01*
Y104464D01*
D02*
G37*
G36*
X493347D02*
Y102639D01*
X495172D01*
X495087Y103067D01*
X494561Y103853D01*
X493775Y104379D01*
X493347Y104464D01*
D02*
G37*
G36*
X492347D02*
X491919Y104379D01*
X491133Y103853D01*
X490607Y103067D01*
X490522Y102639D01*
X492347D01*
Y104464D01*
D02*
G37*
G36*
X486260D02*
Y102639D01*
X488086D01*
X488000Y103067D01*
X487475Y103853D01*
X486688Y104379D01*
X486260Y104464D01*
D02*
G37*
G36*
X485260D02*
X484833Y104379D01*
X484046Y103853D01*
X483520Y103067D01*
X483435Y102639D01*
X485260D01*
Y104464D01*
D02*
G37*
G36*
X472087D02*
Y102639D01*
X473912D01*
X473827Y103067D01*
X473302Y103853D01*
X472515Y104379D01*
X472087Y104464D01*
D02*
G37*
G36*
X471087D02*
X470659Y104379D01*
X469873Y103853D01*
X469347Y103067D01*
X469262Y102639D01*
X471087D01*
Y104464D01*
D02*
G37*
G36*
X45310Y103932D02*
Y102107D01*
X47135D01*
X47050Y102535D01*
X46525Y103321D01*
X45738Y103847D01*
X45310Y103932D01*
D02*
G37*
G36*
X44310D02*
X43882Y103847D01*
X43096Y103321D01*
X42570Y102535D01*
X42485Y102107D01*
X44310D01*
Y103932D01*
D02*
G37*
G36*
X15564Y104198D02*
X12540D01*
Y101174D01*
X12969Y101230D01*
X13835Y101589D01*
X14578Y102160D01*
X15149Y102903D01*
X15507Y103769D01*
X15564Y104198D01*
D02*
G37*
G36*
X11540D02*
X8516D01*
X8573Y103769D01*
X8931Y102903D01*
X9502Y102160D01*
X10245Y101589D01*
X11111Y101230D01*
X11540Y101174D01*
Y104198D01*
D02*
G37*
G36*
X41525Y102780D02*
X39700D01*
Y100955D01*
X40128Y101040D01*
X40914Y101566D01*
X41440Y102352D01*
X41525Y102780D01*
D02*
G37*
G36*
X38700D02*
X36875D01*
X36960Y102352D01*
X37485Y101566D01*
X38272Y101040D01*
X38700Y100955D01*
Y102780D01*
D02*
G37*
G36*
X504621Y101639D02*
X502796D01*
Y99814D01*
X503224Y99899D01*
X504010Y100424D01*
X504536Y101211D01*
X504621Y101639D01*
D02*
G37*
G36*
X501796D02*
X499971D01*
X500056Y101211D01*
X500582Y100424D01*
X501368Y99899D01*
X501796Y99814D01*
Y101639D01*
D02*
G37*
G36*
X495172D02*
X493347D01*
Y99814D01*
X493775Y99899D01*
X494561Y100424D01*
X495087Y101211D01*
X495172Y101639D01*
D02*
G37*
G36*
X492347D02*
X490522D01*
X490607Y101211D01*
X491133Y100424D01*
X491919Y99899D01*
X492347Y99814D01*
Y101639D01*
D02*
G37*
G36*
X488086D02*
X486260D01*
Y99814D01*
X486688Y99899D01*
X487475Y100424D01*
X488000Y101211D01*
X488086Y101639D01*
D02*
G37*
G36*
X485260D02*
X483435D01*
X483520Y101211D01*
X484046Y100424D01*
X484833Y99899D01*
X485260Y99814D01*
Y101639D01*
D02*
G37*
G36*
X473912D02*
X472087D01*
Y99814D01*
X472515Y99899D01*
X473302Y100424D01*
X473827Y101211D01*
X473912Y101639D01*
D02*
G37*
G36*
X471087D02*
X469262D01*
X469347Y101211D01*
X469873Y100424D01*
X470659Y99899D01*
X471087Y99814D01*
Y101639D01*
D02*
G37*
G36*
X47135Y101107D02*
X45310D01*
Y99282D01*
X45738Y99367D01*
X46525Y99892D01*
X47050Y100679D01*
X47135Y101107D01*
D02*
G37*
G36*
X44310D02*
X42485D01*
X42570Y100679D01*
X43096Y99892D01*
X43882Y99367D01*
X44310Y99282D01*
Y101107D01*
D02*
G37*
G36*
X161109Y128032D02*
X160326Y127876D01*
X159662Y127432D01*
X159218Y126768D01*
X159062Y125984D01*
X159218Y125201D01*
X159464Y124833D01*
Y98395D01*
X159218Y98027D01*
X159062Y97244D01*
X159218Y96461D01*
X159662Y95797D01*
X160326Y95353D01*
X161109Y95197D01*
X161893Y95353D01*
X162557Y95797D01*
X163001Y96461D01*
X163156Y97244D01*
X163001Y98027D01*
X162755Y98395D01*
Y124833D01*
X163001Y125201D01*
X163156Y125984D01*
X163001Y126768D01*
X162557Y127432D01*
X161893Y127876D01*
X161109Y128032D01*
D02*
G37*
G36*
X12040Y100040D02*
X11208Y99931D01*
X10432Y99609D01*
X9766Y99098D01*
X9254Y98432D01*
X8933Y97656D01*
X8823Y96824D01*
X8933Y95991D01*
X9254Y95215D01*
X9766Y94549D01*
X10432Y94038D01*
X11208Y93717D01*
X12040Y93607D01*
X12872Y93717D01*
X13648Y94038D01*
X14314Y94549D01*
X14826Y95215D01*
X15147Y95991D01*
X15256Y96824D01*
X15147Y97656D01*
X14826Y98432D01*
X14314Y99098D01*
X13648Y99609D01*
X12872Y99931D01*
X12040Y100040D01*
D02*
G37*
G36*
X376016Y114941D02*
X375233Y114785D01*
X374569Y114341D01*
X374125Y113677D01*
X373969Y112894D01*
X374125Y112110D01*
X374569Y111446D01*
X374872Y111243D01*
Y91770D01*
X374372Y91618D01*
X374089Y92042D01*
X373302Y92568D01*
X372875Y92653D01*
Y90328D01*
Y88003D01*
X373302Y88088D01*
X374089Y88613D01*
X374372Y89037D01*
X374872Y88886D01*
Y82203D01*
X374959Y81765D01*
X375207Y81394D01*
X377817Y78784D01*
Y78229D01*
X377671Y78176D01*
X377317Y78146D01*
X376845Y78853D01*
X376058Y79379D01*
X375630Y79464D01*
Y77139D01*
Y74814D01*
X376058Y74899D01*
X376845Y75424D01*
X377317Y76131D01*
X377671Y76101D01*
X377817Y76048D01*
Y69143D01*
X377363Y68688D01*
X377039Y68753D01*
X376255Y68597D01*
X375591Y68153D01*
X375147Y67489D01*
X374991Y66706D01*
X375147Y65922D01*
X375591Y65258D01*
X376255Y64814D01*
X377039Y64658D01*
X377822Y64814D01*
X378486Y65258D01*
X378930Y65922D01*
X379086Y66706D01*
X379008Y67098D01*
X379770Y67860D01*
X380018Y68231D01*
X380105Y68669D01*
Y79258D01*
X380018Y79696D01*
X379770Y80067D01*
X377160Y82677D01*
Y88591D01*
X377660Y88743D01*
X377747Y88613D01*
X378533Y88088D01*
X378961Y88003D01*
Y90328D01*
Y92653D01*
X378533Y92568D01*
X377747Y92042D01*
X377660Y91913D01*
X377160Y92064D01*
Y111243D01*
X377464Y111446D01*
X377908Y112110D01*
X378064Y112894D01*
X377908Y113677D01*
X377464Y114341D01*
X376800Y114785D01*
X376016Y114941D01*
D02*
G37*
G36*
X383103Y122833D02*
X382319Y122677D01*
X381655Y122234D01*
X381212Y121570D01*
X381056Y120786D01*
X381212Y120003D01*
X381655Y119339D01*
X381959Y119136D01*
Y91770D01*
X381459Y91618D01*
X381176Y92042D01*
X380389Y92568D01*
X379961Y92653D01*
Y90328D01*
Y88003D01*
X380389Y88088D01*
X381176Y88613D01*
X381459Y89037D01*
X381959Y88886D01*
Y87147D01*
X381655Y86944D01*
X381212Y86280D01*
X381056Y85497D01*
X381212Y84713D01*
X381655Y84049D01*
X382319Y83605D01*
X383103Y83449D01*
X383886Y83605D01*
X384550Y84049D01*
X384994Y84713D01*
X385150Y85497D01*
X384994Y86280D01*
X384550Y86944D01*
X384247Y87147D01*
Y88591D01*
X384747Y88743D01*
X384833Y88613D01*
X385620Y88088D01*
X386048Y88003D01*
Y90328D01*
Y92653D01*
X385620Y92568D01*
X384833Y92042D01*
X384747Y91913D01*
X384247Y92064D01*
Y119136D01*
X384550Y119339D01*
X384994Y120003D01*
X385150Y120786D01*
X384994Y121570D01*
X384550Y122234D01*
X383886Y122677D01*
X383103Y122833D01*
D02*
G37*
G36*
X465001Y92653D02*
Y90828D01*
X466826D01*
X466741Y91256D01*
X466215Y92042D01*
X465428Y92568D01*
X465001Y92653D01*
D02*
G37*
G36*
X464001D02*
X463573Y92568D01*
X462786Y92042D01*
X462261Y91256D01*
X462176Y90828D01*
X464001D01*
Y92653D01*
D02*
G37*
G36*
X457914D02*
Y90828D01*
X459739D01*
X459654Y91256D01*
X459128Y92042D01*
X458342Y92568D01*
X457914Y92653D01*
D02*
G37*
G36*
X456914D02*
X456486Y92568D01*
X455700Y92042D01*
X455174Y91256D01*
X455089Y90828D01*
X456914D01*
Y92653D01*
D02*
G37*
G36*
X450827D02*
Y90828D01*
X452652D01*
X452567Y91256D01*
X452042Y92042D01*
X451255Y92568D01*
X450827Y92653D01*
D02*
G37*
G36*
X449827D02*
X449400Y92568D01*
X448613Y92042D01*
X448087Y91256D01*
X448002Y90828D01*
X449827D01*
Y92653D01*
D02*
G37*
G36*
X443741D02*
Y90828D01*
X445566D01*
X445481Y91256D01*
X444955Y92042D01*
X444169Y92568D01*
X443741Y92653D01*
D02*
G37*
G36*
X442741D02*
X442313Y92568D01*
X441526Y92042D01*
X441001Y91256D01*
X440916Y90828D01*
X442741D01*
Y92653D01*
D02*
G37*
G36*
X436654D02*
Y90828D01*
X438479D01*
X438394Y91256D01*
X437868Y92042D01*
X437082Y92568D01*
X436654Y92653D01*
D02*
G37*
G36*
X435654D02*
X435226Y92568D01*
X434440Y92042D01*
X433914Y91256D01*
X433829Y90828D01*
X435654D01*
Y92653D01*
D02*
G37*
G36*
X429567D02*
Y90828D01*
X431393D01*
X431308Y91256D01*
X430782Y92042D01*
X429995Y92568D01*
X429567Y92653D01*
D02*
G37*
G36*
X428568D02*
X428140Y92568D01*
X427353Y92042D01*
X426827Y91256D01*
X426742Y90828D01*
X428568D01*
Y92653D01*
D02*
G37*
G36*
X422481D02*
Y90828D01*
X424306D01*
X424221Y91256D01*
X423695Y92042D01*
X422909Y92568D01*
X422481Y92653D01*
D02*
G37*
G36*
X421481D02*
X421053Y92568D01*
X420266Y92042D01*
X419741Y91256D01*
X419656Y90828D01*
X421481D01*
Y92653D01*
D02*
G37*
G36*
X415394D02*
Y90828D01*
X417219D01*
X417134Y91256D01*
X416609Y92042D01*
X415822Y92568D01*
X415394Y92653D01*
D02*
G37*
G36*
X414394D02*
X413966Y92568D01*
X413180Y92042D01*
X412654Y91256D01*
X412569Y90828D01*
X414394D01*
Y92653D01*
D02*
G37*
G36*
X408406D02*
Y90828D01*
X410231D01*
X410146Y91256D01*
X409621Y92042D01*
X408834Y92568D01*
X408406Y92653D01*
D02*
G37*
G36*
X407406D02*
X406978Y92568D01*
X406192Y92042D01*
X405666Y91256D01*
X405581Y90828D01*
X407406D01*
Y92653D01*
D02*
G37*
G36*
X401221D02*
Y90828D01*
X403046D01*
X402961Y91256D01*
X402435Y92042D01*
X401649Y92568D01*
X401221Y92653D01*
D02*
G37*
G36*
X400221D02*
X399793Y92568D01*
X399007Y92042D01*
X398481Y91256D01*
X398396Y90828D01*
X400221D01*
Y92653D01*
D02*
G37*
G36*
X394134D02*
Y90828D01*
X395959D01*
X395874Y91256D01*
X395349Y92042D01*
X394562Y92568D01*
X394134Y92653D01*
D02*
G37*
G36*
X393134D02*
X392707Y92568D01*
X391920Y92042D01*
X391394Y91256D01*
X391309Y90828D01*
X393134D01*
Y92653D01*
D02*
G37*
G36*
X387048D02*
Y90828D01*
X388873D01*
X388788Y91256D01*
X388262Y92042D01*
X387476Y92568D01*
X387048Y92653D01*
D02*
G37*
G36*
X371875D02*
X371447Y92568D01*
X370660Y92042D01*
X370135Y91256D01*
X370050Y90828D01*
X371875D01*
Y92653D01*
D02*
G37*
G36*
X365788D02*
Y90828D01*
X367613D01*
X367528Y91256D01*
X367002Y92042D01*
X366216Y92568D01*
X365788Y92653D01*
D02*
G37*
G36*
X364788D02*
X364360Y92568D01*
X363574Y92042D01*
X363048Y91256D01*
X362963Y90828D01*
X364788D01*
Y92653D01*
D02*
G37*
G36*
X358701D02*
Y90828D01*
X360526D01*
X360441Y91256D01*
X359916Y92042D01*
X359129Y92568D01*
X358701Y92653D01*
D02*
G37*
G36*
X357701D02*
X357274Y92568D01*
X356487Y92042D01*
X355961Y91256D01*
X355876Y90828D01*
X357701D01*
Y92653D01*
D02*
G37*
G36*
X351615D02*
Y90828D01*
X353440D01*
X353355Y91256D01*
X352829Y92042D01*
X352043Y92568D01*
X351615Y92653D01*
D02*
G37*
G36*
X350615D02*
X350187Y92568D01*
X349400Y92042D01*
X348875Y91256D01*
X348790Y90828D01*
X350615D01*
Y92653D01*
D02*
G37*
G36*
X344528D02*
Y90828D01*
X346353D01*
X346268Y91256D01*
X345743Y92042D01*
X344956Y92568D01*
X344528Y92653D01*
D02*
G37*
G36*
X343528D02*
X343100Y92568D01*
X342314Y92042D01*
X341788Y91256D01*
X341703Y90828D01*
X343528D01*
Y92653D01*
D02*
G37*
G36*
X337441D02*
Y90828D01*
X339267D01*
X339181Y91256D01*
X338656Y92042D01*
X337869Y92568D01*
X337441Y92653D01*
D02*
G37*
G36*
X336441D02*
X336014Y92568D01*
X335227Y92042D01*
X334701Y91256D01*
X334616Y90828D01*
X336441D01*
Y92653D01*
D02*
G37*
G36*
X330355D02*
Y90828D01*
X332180D01*
X332095Y91256D01*
X331569Y92042D01*
X330783Y92568D01*
X330355Y92653D01*
D02*
G37*
G36*
X329355D02*
X328927Y92568D01*
X328140Y92042D01*
X327615Y91256D01*
X327530Y90828D01*
X329355D01*
Y92653D01*
D02*
G37*
G36*
X323268D02*
Y90828D01*
X325093D01*
X325008Y91256D01*
X324483Y92042D01*
X323696Y92568D01*
X323268Y92653D01*
D02*
G37*
G36*
X322268D02*
X321841Y92568D01*
X321054Y92042D01*
X320528Y91256D01*
X320443Y90828D01*
X322268D01*
Y92653D01*
D02*
G37*
G36*
X302009D02*
Y90828D01*
X303834D01*
X303748Y91256D01*
X303223Y92042D01*
X302436Y92568D01*
X302009Y92653D01*
D02*
G37*
G36*
X301009D02*
X300581Y92568D01*
X299794Y92042D01*
X299269Y91256D01*
X299183Y90828D01*
X301009D01*
Y92653D01*
D02*
G37*
G36*
X294922D02*
Y90828D01*
X296747D01*
X296662Y91256D01*
X296136Y92042D01*
X295350Y92568D01*
X294922Y92653D01*
D02*
G37*
G36*
X293922D02*
X293494Y92568D01*
X292707Y92042D01*
X292182Y91256D01*
X292097Y90828D01*
X293922D01*
Y92653D01*
D02*
G37*
G36*
X287835D02*
Y90828D01*
X289660D01*
X289575Y91256D01*
X289050Y92042D01*
X288263Y92568D01*
X287835Y92653D01*
D02*
G37*
G36*
X286835D02*
X286407Y92568D01*
X285621Y92042D01*
X285095Y91256D01*
X285010Y90828D01*
X286835D01*
Y92653D01*
D02*
G37*
G36*
X280749D02*
Y90828D01*
X282574D01*
X282489Y91256D01*
X281963Y92042D01*
X281176Y92568D01*
X280749Y92653D01*
D02*
G37*
G36*
X279749D02*
X279321Y92568D01*
X278534Y92042D01*
X278009Y91256D01*
X277923Y90828D01*
X279749D01*
Y92653D01*
D02*
G37*
G36*
X273662D02*
Y90828D01*
X275487D01*
X275402Y91256D01*
X274876Y92042D01*
X274090Y92568D01*
X273662Y92653D01*
D02*
G37*
G36*
X272662D02*
X272234Y92568D01*
X271448Y92042D01*
X270922Y91256D01*
X270837Y90828D01*
X272662D01*
Y92653D01*
D02*
G37*
G36*
X266575D02*
Y90828D01*
X268401D01*
X268315Y91256D01*
X267790Y92042D01*
X267003Y92568D01*
X266575Y92653D01*
D02*
G37*
G36*
X265575D02*
X265148Y92568D01*
X264361Y92042D01*
X263835Y91256D01*
X263750Y90828D01*
X265575D01*
Y92653D01*
D02*
G37*
G36*
X259489D02*
Y90828D01*
X261314D01*
X261229Y91256D01*
X260703Y92042D01*
X259917Y92568D01*
X259489Y92653D01*
D02*
G37*
G36*
X258489D02*
X258061Y92568D01*
X257274Y92042D01*
X256749Y91256D01*
X256664Y90828D01*
X258489D01*
Y92653D01*
D02*
G37*
G36*
X395959Y89828D02*
X394134D01*
Y88003D01*
X394562Y88088D01*
X395349Y88613D01*
X395874Y89400D01*
X395959Y89828D01*
D02*
G37*
G36*
X393134D02*
X391309D01*
X391394Y89400D01*
X391920Y88613D01*
X392707Y88088D01*
X393134Y88003D01*
Y89828D01*
D02*
G37*
G36*
X388873D02*
X387048D01*
Y88003D01*
X387476Y88088D01*
X388262Y88613D01*
X388788Y89400D01*
X388873Y89828D01*
D02*
G37*
G36*
X371875D02*
X370050D01*
X370135Y89400D01*
X370660Y88613D01*
X371447Y88088D01*
X371875Y88003D01*
Y89828D01*
D02*
G37*
G36*
X367613D02*
X365788D01*
Y88003D01*
X366216Y88088D01*
X367002Y88613D01*
X367528Y89400D01*
X367613Y89828D01*
D02*
G37*
G36*
X364788D02*
X362963D01*
X363048Y89400D01*
X363574Y88613D01*
X364360Y88088D01*
X364788Y88003D01*
Y89828D01*
D02*
G37*
G36*
X360526D02*
X358701D01*
Y88003D01*
X359129Y88088D01*
X359916Y88613D01*
X360441Y89400D01*
X360526Y89828D01*
D02*
G37*
G36*
X357701D02*
X355876D01*
X355961Y89400D01*
X356487Y88613D01*
X357274Y88088D01*
X357701Y88003D01*
Y89828D01*
D02*
G37*
G36*
X353440D02*
X351615D01*
Y88003D01*
X352043Y88088D01*
X352829Y88613D01*
X353355Y89400D01*
X353440Y89828D01*
D02*
G37*
G36*
X350615D02*
X348790D01*
X348875Y89400D01*
X349400Y88613D01*
X350187Y88088D01*
X350615Y88003D01*
Y89828D01*
D02*
G37*
G36*
X346353D02*
X344528D01*
Y88003D01*
X344956Y88088D01*
X345743Y88613D01*
X346268Y89400D01*
X346353Y89828D01*
D02*
G37*
G36*
X343528D02*
X341703D01*
X341788Y89400D01*
X342314Y88613D01*
X343100Y88088D01*
X343528Y88003D01*
Y89828D01*
D02*
G37*
G36*
X339267D02*
X337441D01*
Y88003D01*
X337869Y88088D01*
X338656Y88613D01*
X339181Y89400D01*
X339267Y89828D01*
D02*
G37*
G36*
X336441D02*
X334616D01*
X334701Y89400D01*
X335227Y88613D01*
X336014Y88088D01*
X336441Y88003D01*
Y89828D01*
D02*
G37*
G36*
X332180D02*
X330355D01*
Y88003D01*
X330783Y88088D01*
X331569Y88613D01*
X332095Y89400D01*
X332180Y89828D01*
D02*
G37*
G36*
X329355D02*
X327530D01*
X327615Y89400D01*
X328140Y88613D01*
X328927Y88088D01*
X329355Y88003D01*
Y89828D01*
D02*
G37*
G36*
X325093D02*
X323268D01*
Y88003D01*
X323696Y88088D01*
X324483Y88613D01*
X325008Y89400D01*
X325093Y89828D01*
D02*
G37*
G36*
X322268D02*
X320443D01*
X320528Y89400D01*
X321054Y88613D01*
X321841Y88088D01*
X322268Y88003D01*
Y89828D01*
D02*
G37*
G36*
X303834D02*
X302009D01*
Y88003D01*
X302436Y88088D01*
X303223Y88613D01*
X303748Y89400D01*
X303834Y89828D01*
D02*
G37*
G36*
X301009D02*
X299183D01*
X299269Y89400D01*
X299794Y88613D01*
X300581Y88088D01*
X301009Y88003D01*
Y89828D01*
D02*
G37*
G36*
X296747D02*
X294922D01*
Y88003D01*
X295350Y88088D01*
X296136Y88613D01*
X296662Y89400D01*
X296747Y89828D01*
D02*
G37*
G36*
X293922D02*
X292097D01*
X292182Y89400D01*
X292707Y88613D01*
X293494Y88088D01*
X293922Y88003D01*
Y89828D01*
D02*
G37*
G36*
X289660D02*
X287835D01*
Y88003D01*
X288263Y88088D01*
X289050Y88613D01*
X289575Y89400D01*
X289660Y89828D01*
D02*
G37*
G36*
X286835D02*
X285010D01*
X285095Y89400D01*
X285621Y88613D01*
X286407Y88088D01*
X286835Y88003D01*
Y89828D01*
D02*
G37*
G36*
X282574D02*
X280749D01*
Y88003D01*
X281176Y88088D01*
X281963Y88613D01*
X282489Y89400D01*
X282574Y89828D01*
D02*
G37*
G36*
X279749D02*
X277923D01*
X278009Y89400D01*
X278534Y88613D01*
X279321Y88088D01*
X279749Y88003D01*
Y89828D01*
D02*
G37*
G36*
X275487D02*
X273662D01*
Y88003D01*
X274090Y88088D01*
X274876Y88613D01*
X275402Y89400D01*
X275487Y89828D01*
D02*
G37*
G36*
X272662D02*
X270837D01*
X270922Y89400D01*
X271448Y88613D01*
X272234Y88088D01*
X272662Y88003D01*
Y89828D01*
D02*
G37*
G36*
X268401D02*
X266575D01*
Y88003D01*
X267003Y88088D01*
X267790Y88613D01*
X268315Y89400D01*
X268401Y89828D01*
D02*
G37*
G36*
X265575D02*
X263750D01*
X263835Y89400D01*
X264361Y88613D01*
X265148Y88088D01*
X265575Y88003D01*
Y89828D01*
D02*
G37*
G36*
X261314D02*
X259489D01*
Y88003D01*
X259917Y88088D01*
X260703Y88613D01*
X261229Y89400D01*
X261314Y89828D01*
D02*
G37*
G36*
X258489D02*
X256664D01*
X256749Y89400D01*
X257274Y88613D01*
X258061Y88088D01*
X258489Y88003D01*
Y89828D01*
D02*
G37*
G36*
X466826D02*
X462176D01*
X462261Y89400D01*
X462786Y88613D01*
X463573Y88088D01*
X463593Y88084D01*
X463544Y87584D01*
X458371D01*
X458322Y88084D01*
X458342Y88088D01*
X459128Y88613D01*
X459654Y89400D01*
X459739Y89828D01*
X455089D01*
X455174Y89400D01*
X455700Y88613D01*
X456486Y88088D01*
X456506Y88084D01*
X456457Y87584D01*
X451284D01*
X451235Y88084D01*
X451255Y88088D01*
X452042Y88613D01*
X452567Y89400D01*
X452652Y89828D01*
X448002D01*
X448087Y89400D01*
X448613Y88613D01*
X449400Y88088D01*
X449419Y88084D01*
X449370Y87584D01*
X444198D01*
X444148Y88084D01*
X444169Y88088D01*
X444955Y88613D01*
X445481Y89400D01*
X445566Y89828D01*
X440916D01*
X441001Y89400D01*
X441526Y88613D01*
X442313Y88088D01*
X442333Y88084D01*
X442284Y87584D01*
X437111D01*
X437062Y88084D01*
X437082Y88088D01*
X437868Y88613D01*
X438394Y89400D01*
X438479Y89828D01*
X433829D01*
X433914Y89400D01*
X434440Y88613D01*
X435226Y88088D01*
X435246Y88084D01*
X435197Y87584D01*
X430025D01*
X429975Y88084D01*
X429995Y88088D01*
X430782Y88613D01*
X431308Y89400D01*
X431393Y89828D01*
X426742D01*
X426827Y89400D01*
X427353Y88613D01*
X428140Y88088D01*
X428160Y88084D01*
X428111Y87584D01*
X422938D01*
X422889Y88084D01*
X422909Y88088D01*
X423695Y88613D01*
X424221Y89400D01*
X424306Y89828D01*
X419656D01*
X419741Y89400D01*
X420266Y88613D01*
X421053Y88088D01*
X421073Y88084D01*
X421024Y87584D01*
X415851D01*
X415802Y88084D01*
X415822Y88088D01*
X416609Y88613D01*
X417134Y89400D01*
X417219Y89828D01*
X412569D01*
X412654Y89400D01*
X413180Y88613D01*
X413966Y88088D01*
X413986Y88084D01*
X413937Y87584D01*
X408863D01*
X408814Y88084D01*
X408834Y88088D01*
X409621Y88613D01*
X410146Y89400D01*
X410231Y89828D01*
X405581D01*
X405666Y89400D01*
X406192Y88613D01*
X406978Y88088D01*
X406998Y88084D01*
X406949Y87584D01*
X402635D01*
X402282Y87997D01*
X402310Y88529D01*
X402435Y88613D01*
X402961Y89400D01*
X403046Y89828D01*
X398396D01*
X398481Y89400D01*
X399007Y88613D01*
X399132Y88529D01*
X399165Y87906D01*
X398830Y87404D01*
X398674Y86620D01*
X398830Y85837D01*
X399273Y85173D01*
X399938Y84729D01*
X400721Y84573D01*
X401505Y84729D01*
X402169Y85173D01*
X402492Y85657D01*
X470407Y85657D01*
X470730Y85173D01*
X471109Y84920D01*
Y84318D01*
X470730Y84065D01*
X470483Y83696D01*
X394104D01*
X393704Y84295D01*
X393040Y84739D01*
X392256Y84895D01*
X391473Y84739D01*
X390809Y84295D01*
X390365Y83631D01*
X390209Y82847D01*
X390365Y82064D01*
X390809Y81400D01*
X391473Y80956D01*
X392256Y80800D01*
X393040Y80956D01*
X393704Y81400D01*
X393951Y81769D01*
X470330D01*
X470730Y81170D01*
X471109Y80917D01*
Y80316D01*
X470730Y80063D01*
X470407Y79579D01*
X400130D01*
X399806Y80063D01*
X399142Y80506D01*
X398359Y80662D01*
X397575Y80506D01*
X396911Y80063D01*
X396467Y79399D01*
X396312Y78615D01*
X396467Y77832D01*
X396911Y77167D01*
X397575Y76724D01*
X398359Y76568D01*
X399142Y76724D01*
X399806Y77167D01*
X400130Y77652D01*
X470407D01*
X470730Y77167D01*
X471394Y76724D01*
X472178Y76568D01*
X472961Y76724D01*
X473625Y77167D01*
X474069Y77832D01*
X474225Y78615D01*
X474069Y79399D01*
X473625Y80063D01*
X473247Y80316D01*
Y80917D01*
X473625Y81170D01*
X474069Y81834D01*
X474225Y82618D01*
X474069Y83401D01*
X473625Y84065D01*
X473247Y84318D01*
Y84920D01*
X473625Y85173D01*
X474069Y85837D01*
X474225Y86620D01*
X474069Y87404D01*
X473625Y88068D01*
X472961Y88512D01*
X472178Y88668D01*
X471394Y88512D01*
X470730Y88068D01*
X470407Y87584D01*
X465458D01*
X465408Y88084D01*
X465428Y88088D01*
X466215Y88613D01*
X466741Y89400D01*
X466826Y89828D01*
D02*
G37*
G36*
X488295Y87535D02*
Y85710D01*
X490120D01*
X490035Y86137D01*
X489510Y86924D01*
X488723Y87450D01*
X488295Y87535D01*
D02*
G37*
G36*
X487295D02*
X486868Y87450D01*
X486081Y86924D01*
X485555Y86137D01*
X485470Y85710D01*
X487295D01*
Y87535D01*
D02*
G37*
G36*
X516248Y87535D02*
Y85710D01*
X518073D01*
X517988Y86137D01*
X517462Y86924D01*
X516676Y87450D01*
X516248Y87535D01*
D02*
G37*
G36*
X515248D02*
X514820Y87450D01*
X514034Y86924D01*
X513508Y86137D01*
X513423Y85710D01*
X515248D01*
Y87535D01*
D02*
G37*
G36*
X318307Y85219D02*
X317524Y85063D01*
X317156Y84817D01*
X306269D01*
X305902Y85063D01*
X305118Y85219D01*
X304335Y85063D01*
X303671Y84619D01*
X303227Y83955D01*
X303071Y83171D01*
X303227Y82388D01*
X303671Y81724D01*
X304335Y81280D01*
X305118Y81124D01*
X305902Y81280D01*
X306269Y81526D01*
X317156D01*
X317524Y81280D01*
X318307Y81124D01*
X319091Y81280D01*
X319755Y81724D01*
X320198Y82388D01*
X320354Y83171D01*
X320198Y83955D01*
X319755Y84619D01*
X319091Y85063D01*
X318307Y85219D01*
D02*
G37*
G36*
X53145Y86371D02*
Y83347D01*
X56169D01*
X56112Y83776D01*
X55753Y84642D01*
X55183Y85386D01*
X54440Y85956D01*
X53574Y86315D01*
X53145Y86371D01*
D02*
G37*
G36*
X52145D02*
X51716Y86315D01*
X50850Y85956D01*
X50106Y85386D01*
X49536Y84642D01*
X49177Y83776D01*
X49121Y83347D01*
X52145D01*
Y86371D01*
D02*
G37*
G36*
X490120Y84710D02*
X488295D01*
Y82885D01*
X488723Y82970D01*
X489510Y83495D01*
X490035Y84282D01*
X490120Y84710D01*
D02*
G37*
G36*
X487295D02*
X485470D01*
X485555Y84282D01*
X486081Y83495D01*
X486868Y82970D01*
X487295Y82885D01*
Y84710D01*
D02*
G37*
G36*
X518073Y84710D02*
X516248D01*
Y82885D01*
X516676Y82970D01*
X517462Y83495D01*
X517988Y84282D01*
X518073Y84710D01*
D02*
G37*
G36*
X515248D02*
X513423D01*
X513508Y84282D01*
X514034Y83495D01*
X514820Y82970D01*
X515248Y82885D01*
Y84710D01*
D02*
G37*
G36*
X110802Y83211D02*
Y81386D01*
X112628D01*
X112542Y81814D01*
X112017Y82600D01*
X111230Y83126D01*
X110802Y83211D01*
D02*
G37*
G36*
X109802D02*
X109375Y83126D01*
X108588Y82600D01*
X108063Y81814D01*
X107977Y81386D01*
X109802D01*
Y83211D01*
D02*
G37*
G36*
X44771Y86064D02*
X43938Y85954D01*
X43162Y85633D01*
X42496Y85122D01*
X41985Y84456D01*
X41664Y83680D01*
X41554Y82847D01*
X41664Y82015D01*
X41985Y81239D01*
X42496Y80573D01*
X43162Y80062D01*
X43938Y79741D01*
X44771Y79631D01*
X45603Y79741D01*
X46379Y80062D01*
X47045Y80573D01*
X47556Y81239D01*
X47878Y82015D01*
X47987Y82847D01*
X47878Y83680D01*
X47556Y84456D01*
X47045Y85122D01*
X46379Y85633D01*
X45603Y85954D01*
X44771Y86064D01*
D02*
G37*
G36*
X56169Y82347D02*
X53145D01*
Y79324D01*
X53574Y79380D01*
X54440Y79739D01*
X55183Y80309D01*
X55753Y81053D01*
X56112Y81918D01*
X56169Y82347D01*
D02*
G37*
G36*
X52145D02*
X49121D01*
X49177Y81918D01*
X49536Y81053D01*
X50106Y80309D01*
X50850Y79739D01*
X51716Y79380D01*
X52145Y79324D01*
Y82347D01*
D02*
G37*
G36*
X112628Y80386D02*
X110802D01*
Y78561D01*
X111230Y78646D01*
X112017Y79172D01*
X112542Y79958D01*
X112628Y80386D01*
D02*
G37*
G36*
X109802D02*
X107977D01*
X108063Y79958D01*
X108588Y79172D01*
X109375Y78646D01*
X109802Y78561D01*
Y80386D01*
D02*
G37*
G36*
X374630Y79464D02*
X374203Y79379D01*
X373416Y78853D01*
X372890Y78067D01*
X372805Y77639D01*
X374630D01*
Y79464D01*
D02*
G37*
G36*
X252700Y79197D02*
X249200D01*
Y75697D01*
X252700D01*
Y79197D01*
D02*
G37*
G36*
X248200D02*
X244700D01*
Y75697D01*
X248200D01*
Y79197D01*
D02*
G37*
G36*
X110802Y77136D02*
Y75311D01*
X112628D01*
X112542Y75739D01*
X112017Y76526D01*
X111230Y77051D01*
X110802Y77136D01*
D02*
G37*
G36*
X109802D02*
X109375Y77051D01*
X108588Y76526D01*
X108063Y75739D01*
X107977Y75311D01*
X109802D01*
Y77136D01*
D02*
G37*
G36*
X12040Y81733D02*
X11208Y81624D01*
X10432Y81302D01*
X9766Y80791D01*
X9254Y80125D01*
X8933Y79349D01*
X8823Y78517D01*
X8933Y77684D01*
X9254Y76908D01*
X9766Y76242D01*
X10432Y75731D01*
X11208Y75410D01*
X12040Y75300D01*
X12872Y75410D01*
X13648Y75731D01*
X14314Y76242D01*
X14826Y76908D01*
X15147Y77684D01*
X15256Y78517D01*
X15147Y79349D01*
X14826Y80125D01*
X14314Y80791D01*
X13648Y81302D01*
X12872Y81624D01*
X12040Y81733D01*
D02*
G37*
G36*
X374630Y76639D02*
X372805D01*
X372890Y76211D01*
X373416Y75424D01*
X374203Y74899D01*
X374630Y74814D01*
Y76639D01*
D02*
G37*
G36*
X190264Y75160D02*
Y73335D01*
X192089D01*
X192004Y73763D01*
X191478Y74549D01*
X190692Y75075D01*
X190264Y75160D01*
D02*
G37*
G36*
X189264D02*
X188836Y75075D01*
X188049Y74549D01*
X187524Y73763D01*
X187439Y73335D01*
X189264D01*
Y75160D01*
D02*
G37*
G36*
X176091D02*
Y73335D01*
X177916D01*
X177831Y73763D01*
X177305Y74549D01*
X176518Y75075D01*
X176091Y75160D01*
D02*
G37*
G36*
X175091D02*
X174663Y75075D01*
X173876Y74549D01*
X173351Y73763D01*
X173266Y73335D01*
X175091D01*
Y75160D01*
D02*
G37*
G36*
X112628Y74311D02*
X110802D01*
Y72486D01*
X111230Y72571D01*
X112017Y73097D01*
X112542Y73883D01*
X112628Y74311D01*
D02*
G37*
G36*
X109802D02*
X107977D01*
X108063Y73883D01*
X108588Y73097D01*
X109375Y72571D01*
X109802Y72486D01*
Y74311D01*
D02*
G37*
G36*
X233858Y128232D02*
X232998Y128061D01*
X232269Y127574D01*
X231782Y126845D01*
X231610Y125984D01*
Y99606D01*
X231782Y98746D01*
X232269Y98017D01*
X232998Y97530D01*
X233858Y97358D01*
X234718Y97530D01*
X235448Y98017D01*
X235935Y98746D01*
X235952Y98833D01*
X236452Y98783D01*
Y78047D01*
X236111Y77786D01*
X235529Y77027D01*
X235164Y76144D01*
X235039Y75197D01*
X235164Y74249D01*
X235529Y73366D01*
X236111Y72608D01*
X236870Y72026D01*
X237753Y71660D01*
X238700Y71536D01*
X239648Y71660D01*
X240531Y72026D01*
X241289Y72608D01*
X241871Y73366D01*
X242237Y74249D01*
X242361Y75197D01*
X242237Y76144D01*
X241871Y77027D01*
X241289Y77786D01*
X240948Y78047D01*
Y122722D01*
X240777Y123582D01*
X240290Y124311D01*
X239560Y124798D01*
X238700Y124969D01*
X237840Y124798D01*
X237111Y124311D01*
X236623Y123582D01*
X236606Y123495D01*
X236106Y123545D01*
Y125984D01*
X235935Y126845D01*
X235448Y127574D01*
X234718Y128061D01*
X233858Y128232D01*
D02*
G37*
G36*
X228700Y78858D02*
X227753Y78733D01*
X226870Y78368D01*
X226111Y77786D01*
X225530Y77027D01*
X225164Y76144D01*
X225039Y75197D01*
X225164Y74249D01*
X225530Y73366D01*
X226111Y72608D01*
X226870Y72026D01*
X227753Y71660D01*
X228700Y71536D01*
X229648Y71660D01*
X230531Y72026D01*
X231289Y72608D01*
X231871Y73366D01*
X232237Y74249D01*
X232361Y75197D01*
X232237Y76144D01*
X231871Y77027D01*
X231289Y77786D01*
X230531Y78368D01*
X229648Y78733D01*
X228700Y78858D01*
D02*
G37*
G36*
X252700Y74697D02*
X249200D01*
Y71197D01*
X252700D01*
Y74697D01*
D02*
G37*
G36*
X248200D02*
X244700D01*
Y71197D01*
X248200D01*
Y74697D01*
D02*
G37*
G36*
X192089Y72335D02*
X190264D01*
Y70510D01*
X190692Y70595D01*
X191478Y71120D01*
X192004Y71907D01*
X192089Y72335D01*
D02*
G37*
G36*
X189264D02*
X187439D01*
X187524Y71907D01*
X188049Y71120D01*
X188836Y70595D01*
X189264Y70510D01*
Y72335D01*
D02*
G37*
G36*
X177916D02*
X176091D01*
Y70510D01*
X176518Y70595D01*
X177305Y71120D01*
X177831Y71907D01*
X177916Y72335D01*
D02*
G37*
G36*
X175091D02*
X173266D01*
X173351Y71907D01*
X173876Y71120D01*
X174663Y70595D01*
X175091Y70510D01*
Y72335D01*
D02*
G37*
G36*
X12040Y73859D02*
X11208Y73750D01*
X10432Y73428D01*
X9766Y72917D01*
X9254Y72251D01*
X8933Y71475D01*
X8823Y70643D01*
X8933Y69810D01*
X9254Y69034D01*
X9766Y68368D01*
X10432Y67857D01*
X11208Y67536D01*
X12040Y67426D01*
X12872Y67536D01*
X13648Y67857D01*
X14314Y68368D01*
X14826Y69034D01*
X15147Y69810D01*
X15256Y70643D01*
X15147Y71475D01*
X14826Y72251D01*
X14314Y72917D01*
X13648Y73428D01*
X12872Y73750D01*
X12040Y73859D01*
D02*
G37*
G36*
X183197Y67246D02*
Y65421D01*
X185022D01*
X184937Y65849D01*
X184411Y66636D01*
X183625Y67161D01*
X183197Y67246D01*
D02*
G37*
G36*
X182197D02*
X181769Y67161D01*
X180982Y66636D01*
X180457Y65849D01*
X180372Y65421D01*
X182197D01*
Y67246D01*
D02*
G37*
G36*
X252700Y68567D02*
X249200D01*
Y65067D01*
X252700D01*
Y68567D01*
D02*
G37*
G36*
X248200D02*
X244700D01*
Y65067D01*
X248200D01*
Y68567D01*
D02*
G37*
G36*
X422875Y65783D02*
Y63958D01*
X424700D01*
X424615Y64385D01*
X424089Y65172D01*
X423302Y65698D01*
X422875Y65783D01*
D02*
G37*
G36*
X421875D02*
X421447Y65698D01*
X420660Y65172D01*
X420135Y64385D01*
X420049Y63958D01*
X421875D01*
Y65783D01*
D02*
G37*
G36*
X396497Y65487D02*
Y63662D01*
X398322D01*
X398237Y64090D01*
X397711Y64877D01*
X396924Y65402D01*
X396497Y65487D01*
D02*
G37*
G36*
X395497D02*
X395069Y65402D01*
X394282Y64877D01*
X393757Y64090D01*
X393672Y63662D01*
X395497D01*
Y65487D01*
D02*
G37*
G36*
X185022Y64421D02*
X183197D01*
Y62596D01*
X183625Y62681D01*
X184411Y63207D01*
X184937Y63993D01*
X185022Y64421D01*
D02*
G37*
G36*
X182197D02*
X180372D01*
X180457Y63993D01*
X180982Y63207D01*
X181769Y62681D01*
X182197Y62596D01*
Y64421D01*
D02*
G37*
G36*
X424700Y62958D02*
X422875D01*
Y61133D01*
X423302Y61218D01*
X424089Y61743D01*
X424615Y62530D01*
X424700Y62958D01*
D02*
G37*
G36*
X421875D02*
X420049D01*
X420135Y62530D01*
X420660Y61743D01*
X421447Y61218D01*
X421875Y61133D01*
Y62958D01*
D02*
G37*
G36*
X238700Y68228D02*
X237753Y68103D01*
X236870Y67738D01*
X236111Y67156D01*
X235529Y66398D01*
X235164Y65514D01*
X235039Y64567D01*
X235164Y63619D01*
X235529Y62736D01*
X236111Y61978D01*
X236870Y61396D01*
X237753Y61030D01*
X238700Y60906D01*
X239648Y61030D01*
X240531Y61396D01*
X241289Y61978D01*
X241871Y62736D01*
X242237Y63619D01*
X242361Y64567D01*
X242237Y65514D01*
X241871Y66398D01*
X241289Y67156D01*
X240531Y67738D01*
X239648Y68103D01*
X238700Y68228D01*
D02*
G37*
G36*
X228700D02*
X227753Y68103D01*
X226870Y67738D01*
X226111Y67156D01*
X225530Y66398D01*
X225164Y65514D01*
X225039Y64567D01*
X225164Y63619D01*
X225530Y62736D01*
X226111Y61978D01*
X226870Y61396D01*
X227753Y61030D01*
X228700Y60906D01*
X229648Y61030D01*
X230531Y61396D01*
X231289Y61978D01*
X231871Y62736D01*
X232237Y63619D01*
X232361Y64567D01*
X232237Y65514D01*
X231871Y66398D01*
X231289Y67156D01*
X230531Y67738D01*
X229648Y68103D01*
X228700Y68228D01*
D02*
G37*
G36*
X398322Y62662D02*
X396497D01*
Y60837D01*
X396924Y60922D01*
X397711Y61448D01*
X398237Y62234D01*
X398322Y62662D01*
D02*
G37*
G36*
X395497D02*
X393672D01*
X393757Y62234D01*
X394282Y61448D01*
X395069Y60922D01*
X395497Y60837D01*
Y62662D01*
D02*
G37*
G36*
X252700Y64067D02*
X249200D01*
Y60567D01*
X252700D01*
Y64067D01*
D02*
G37*
G36*
X248200D02*
X244700D01*
Y60567D01*
X248200D01*
Y64067D01*
D02*
G37*
G36*
X353551Y62364D02*
Y60539D01*
X355376D01*
X355291Y60967D01*
X354766Y61754D01*
X353979Y62279D01*
X353551Y62364D01*
D02*
G37*
G36*
X352551D02*
X352123Y62279D01*
X351337Y61754D01*
X350811Y60967D01*
X350726Y60539D01*
X352551D01*
Y62364D01*
D02*
G37*
G36*
X190657Y59582D02*
Y57757D01*
X192483D01*
X192397Y58185D01*
X191872Y58971D01*
X191085Y59497D01*
X190657Y59582D01*
D02*
G37*
G36*
X189657D02*
X189230Y59497D01*
X188443Y58971D01*
X187917Y58185D01*
X187832Y57757D01*
X189657D01*
Y59582D01*
D02*
G37*
G36*
X176091D02*
Y57757D01*
X177916D01*
X177831Y58185D01*
X177305Y58971D01*
X176518Y59497D01*
X176091Y59582D01*
D02*
G37*
G36*
X175091D02*
X174663Y59497D01*
X173876Y58971D01*
X173351Y58185D01*
X173266Y57757D01*
X175091D01*
Y59582D01*
D02*
G37*
G36*
X70414D02*
Y57757D01*
X72239D01*
X72154Y58185D01*
X71628Y58971D01*
X70842Y59497D01*
X70414Y59582D01*
D02*
G37*
G36*
X69414D02*
X68986Y59497D01*
X68200Y58971D01*
X67674Y58185D01*
X67589Y57757D01*
X69414D01*
Y59582D01*
D02*
G37*
G36*
X355376Y59539D02*
X353551D01*
Y57714D01*
X353979Y57799D01*
X354766Y58325D01*
X355291Y59111D01*
X355376Y59539D01*
D02*
G37*
G36*
X352551D02*
X350726D01*
X350811Y59111D01*
X351337Y58325D01*
X352123Y57799D01*
X352551Y57714D01*
Y59539D01*
D02*
G37*
G36*
X192483Y56757D02*
X190657D01*
Y54932D01*
X191085Y55017D01*
X191872Y55542D01*
X192397Y56329D01*
X192483Y56757D01*
D02*
G37*
G36*
X189657D02*
X187832D01*
X187917Y56329D01*
X188443Y55542D01*
X189230Y55017D01*
X189657Y54932D01*
Y56757D01*
D02*
G37*
G36*
X177916D02*
X176091D01*
Y54932D01*
X176518Y55017D01*
X177305Y55542D01*
X177831Y56329D01*
X177916Y56757D01*
D02*
G37*
G36*
X175091D02*
X173266D01*
X173351Y56329D01*
X173876Y55542D01*
X174663Y55017D01*
X175091Y54932D01*
Y56757D01*
D02*
G37*
G36*
X72239D02*
X70414D01*
Y54932D01*
X70842Y55017D01*
X71628Y55542D01*
X72154Y56329D01*
X72239Y56757D01*
D02*
G37*
G36*
X69414D02*
X67589D01*
X67674Y56329D01*
X68200Y55542D01*
X68986Y55017D01*
X69414Y54932D01*
Y56757D01*
D02*
G37*
G36*
X326976Y56459D02*
Y54634D01*
X328801D01*
X328716Y55062D01*
X328191Y55848D01*
X327404Y56374D01*
X326976Y56459D01*
D02*
G37*
G36*
X325976D02*
X325549Y56374D01*
X324762Y55848D01*
X324236Y55062D01*
X324151Y54634D01*
X325976D01*
Y56459D01*
D02*
G37*
G36*
X473170Y56235D02*
Y54410D01*
X474995D01*
X474910Y54838D01*
X474384Y55625D01*
X473598Y56150D01*
X473170Y56235D01*
D02*
G37*
G36*
X472170D02*
X471742Y56150D01*
X470956Y55625D01*
X470430Y54838D01*
X470345Y54410D01*
X472170D01*
Y56235D01*
D02*
G37*
G36*
X300894Y54294D02*
Y52469D01*
X302719D01*
X302634Y52896D01*
X302108Y53683D01*
X301322Y54208D01*
X300894Y54294D01*
D02*
G37*
G36*
X299894D02*
X299466Y54208D01*
X298679Y53683D01*
X298154Y52896D01*
X298069Y52469D01*
X299894D01*
Y54294D01*
D02*
G37*
G36*
X12040Y58899D02*
X11208Y58789D01*
X10432Y58468D01*
X9766Y57956D01*
X9254Y57290D01*
X8933Y56515D01*
X8823Y55682D01*
X8933Y54850D01*
X9254Y54074D01*
X9766Y53408D01*
X10432Y52896D01*
X11208Y52575D01*
X12040Y52466D01*
X12872Y52575D01*
X13648Y52896D01*
X14314Y53408D01*
X14826Y54074D01*
X15147Y54850D01*
X15256Y55682D01*
X15147Y56515D01*
X14826Y57290D01*
X14314Y57956D01*
X13648Y58468D01*
X12872Y58789D01*
X12040Y58899D01*
D02*
G37*
G36*
X328801Y53634D02*
X326976D01*
Y51809D01*
X327404Y51894D01*
X328191Y52419D01*
X328716Y53206D01*
X328801Y53634D01*
D02*
G37*
G36*
X325976D02*
X324151D01*
X324236Y53206D01*
X324762Y52419D01*
X325549Y51894D01*
X325976Y51809D01*
Y53634D01*
D02*
G37*
G36*
X474995Y53410D02*
X473170D01*
Y51585D01*
X473598Y51670D01*
X474384Y52196D01*
X474910Y52983D01*
X474995Y53410D01*
D02*
G37*
G36*
X472170D02*
X470345D01*
X470430Y52983D01*
X470956Y52196D01*
X471742Y51670D01*
X472170Y51585D01*
Y53410D01*
D02*
G37*
G36*
X230815Y52837D02*
Y51012D01*
X232640D01*
X232555Y51440D01*
X232029Y52226D01*
X231243Y52752D01*
X230815Y52837D01*
D02*
G37*
G36*
X229815D02*
X229387Y52752D01*
X228601Y52226D01*
X228075Y51440D01*
X227990Y51012D01*
X229815D01*
Y52837D01*
D02*
G37*
G36*
X302719Y51468D02*
X300894D01*
Y49643D01*
X301322Y49729D01*
X302108Y50254D01*
X302634Y51041D01*
X302719Y51468D01*
D02*
G37*
G36*
X299894D02*
X298069D01*
X298154Y51041D01*
X298679Y50254D01*
X299466Y49729D01*
X299894Y49643D01*
Y51468D01*
D02*
G37*
G36*
X353551Y50553D02*
Y48728D01*
X355376D01*
X355291Y49156D01*
X354766Y49943D01*
X353979Y50468D01*
X353551Y50553D01*
D02*
G37*
G36*
X352551D02*
X352123Y50468D01*
X351337Y49943D01*
X350811Y49156D01*
X350726Y48728D01*
X352551D01*
Y50553D01*
D02*
G37*
G36*
X12540Y51332D02*
Y48308D01*
X15564D01*
X15507Y48737D01*
X15149Y49603D01*
X14578Y50346D01*
X13835Y50917D01*
X12969Y51275D01*
X12540Y51332D01*
D02*
G37*
G36*
X11540D02*
X11111Y51275D01*
X10245Y50917D01*
X9502Y50346D01*
X8931Y49603D01*
X8573Y48737D01*
X8516Y48308D01*
X11540D01*
Y51332D01*
D02*
G37*
G36*
X232640Y50012D02*
X230815D01*
Y48187D01*
X231243Y48272D01*
X232029Y48797D01*
X232555Y49584D01*
X232640Y50012D01*
D02*
G37*
G36*
X229815D02*
X227990D01*
X228075Y49584D01*
X228601Y48797D01*
X229387Y48272D01*
X229815Y48187D01*
Y50012D01*
D02*
G37*
G36*
X355376Y47728D02*
X353551D01*
Y45903D01*
X353979Y45988D01*
X354766Y46514D01*
X355291Y47300D01*
X355376Y47728D01*
D02*
G37*
G36*
X352551D02*
X350726D01*
X350811Y47300D01*
X351337Y46514D01*
X352123Y45988D01*
X352551Y45903D01*
Y47728D01*
D02*
G37*
G36*
X15564Y47308D02*
X12540D01*
Y44284D01*
X12969Y44341D01*
X13835Y44699D01*
X14578Y45270D01*
X15149Y46013D01*
X15507Y46879D01*
X15564Y47308D01*
D02*
G37*
G36*
X11540D02*
X8516D01*
X8573Y46879D01*
X8931Y46013D01*
X9502Y45270D01*
X10245Y44699D01*
X11111Y44341D01*
X11540Y44284D01*
Y47308D01*
D02*
G37*
G36*
X42879Y45015D02*
Y43190D01*
X44704D01*
X44619Y43618D01*
X44094Y44404D01*
X43307Y44930D01*
X42879Y45015D01*
D02*
G37*
G36*
X41879D02*
X41451Y44930D01*
X40665Y44404D01*
X40139Y43618D01*
X40054Y43190D01*
X41879D01*
Y45015D01*
D02*
G37*
G36*
X326976Y44648D02*
Y42823D01*
X328801D01*
X328716Y43251D01*
X328191Y44037D01*
X327404Y44563D01*
X326976Y44648D01*
D02*
G37*
G36*
X325976D02*
X325549Y44563D01*
X324762Y44037D01*
X324236Y43251D01*
X324151Y42823D01*
X325976D01*
Y44648D01*
D02*
G37*
G36*
X44704Y42190D02*
X42879D01*
Y40365D01*
X43307Y40450D01*
X44094Y40975D01*
X44619Y41762D01*
X44704Y42190D01*
D02*
G37*
G36*
X41879D02*
X40054D01*
X40139Y41762D01*
X40665Y40975D01*
X41451Y40450D01*
X41879Y40365D01*
Y42190D01*
D02*
G37*
G36*
X474336Y46340D02*
X466389D01*
X465951Y46253D01*
X465580Y46005D01*
X459866Y40291D01*
X398041D01*
X397838Y40594D01*
X397174Y41038D01*
X396390Y41194D01*
X395607Y41038D01*
X394943Y40594D01*
X394499Y39930D01*
X394343Y39147D01*
X394414Y38789D01*
X388831Y33205D01*
X388583Y32834D01*
X388496Y32396D01*
Y25706D01*
X388192Y25503D01*
X387749Y24839D01*
X387593Y24055D01*
X387749Y23272D01*
X388115Y22723D01*
X387936Y22223D01*
X380894D01*
X380794Y22723D01*
X381458Y22998D01*
X382448Y23758D01*
X383208Y24748D01*
X383686Y25901D01*
X383783Y26639D01*
X379067D01*
X374352D01*
X374449Y25901D01*
X374927Y24748D01*
X375687Y23758D01*
X376677Y22998D01*
X377341Y22723D01*
X377241Y22223D01*
X361614D01*
X361290Y22707D01*
X360626Y23151D01*
X359842Y23307D01*
X359059Y23151D01*
X358395Y22707D01*
X357951Y22043D01*
X357795Y21260D01*
X357951Y20476D01*
X358395Y19812D01*
X359059Y19368D01*
X359842Y19213D01*
X360229Y18780D01*
X360157Y18418D01*
X360313Y17635D01*
X360757Y16971D01*
X361421Y16527D01*
X362205Y16371D01*
X362988Y16527D01*
X363652Y16971D01*
X363976Y17455D01*
X451509D01*
X451832Y16971D01*
X452497Y16527D01*
X453280Y16371D01*
X454064Y16527D01*
X454728Y16971D01*
X455171Y17635D01*
X455327Y18418D01*
X455171Y19202D01*
X454728Y19866D01*
X454064Y20310D01*
X453280Y20465D01*
X452497Y20310D01*
X452288Y20170D01*
X451975Y20412D01*
X451898Y20511D01*
X452047Y21260D01*
X451891Y22043D01*
X451448Y22707D01*
X450783Y23151D01*
X450000Y23307D01*
X449217Y23151D01*
X448552Y22707D01*
X448229Y22223D01*
X437980D01*
X437881Y22723D01*
X438545Y22998D01*
X439535Y23758D01*
X440295Y24748D01*
X440772Y25901D01*
X440869Y26639D01*
X431439D01*
X431536Y25901D01*
X432014Y24748D01*
X432773Y23758D01*
X433764Y22998D01*
X434427Y22723D01*
X434328Y22223D01*
X426624D01*
X426357Y22723D01*
X426583Y23061D01*
X426668Y23489D01*
X422018D01*
X422103Y23061D01*
X422329Y22723D01*
X422062Y22223D01*
X420719D01*
X420452Y22723D01*
X420678Y23061D01*
X420763Y23489D01*
X416113D01*
X416198Y23061D01*
X416424Y22723D01*
X416156Y22223D01*
X414813D01*
X414546Y22723D01*
X414772Y23061D01*
X414857Y23489D01*
X410207D01*
X410292Y23061D01*
X410518Y22723D01*
X410251Y22223D01*
X408908D01*
X408641Y22723D01*
X408867Y23061D01*
X408952Y23489D01*
X404302D01*
X404387Y23061D01*
X404612Y22723D01*
X404345Y22223D01*
X397097D01*
X396830Y22723D01*
X397056Y23061D01*
X397141Y23489D01*
X392491D01*
X392576Y23061D01*
X392801Y22723D01*
X392534Y22223D01*
X391344D01*
X391165Y22723D01*
X391531Y23272D01*
X391687Y24055D01*
X391531Y24839D01*
X391088Y25503D01*
X390784Y25706D01*
Y31922D01*
X396032Y37171D01*
X396390Y37099D01*
X397174Y37255D01*
X397838Y37699D01*
X398041Y38003D01*
X460340D01*
X460778Y38090D01*
X461149Y38338D01*
X463979Y41167D01*
X464350Y40831D01*
X464235Y40692D01*
X463536Y39384D01*
X463106Y37965D01*
X463010Y36989D01*
X470524D01*
X478039D01*
X477943Y37965D01*
X477512Y39384D01*
X477156Y40050D01*
X477562Y40351D01*
X483907Y34007D01*
X484278Y33759D01*
X484715Y33672D01*
X494543D01*
X494746Y33368D01*
X495410Y32925D01*
X496194Y32769D01*
X496977Y32925D01*
X497641Y33368D01*
X497844Y33672D01*
X502708D01*
X506768Y29611D01*
Y24426D01*
X513572D01*
Y31229D01*
X508386D01*
X503991Y35625D01*
X503619Y35873D01*
X503182Y35960D01*
X497844D01*
X497641Y36263D01*
X496977Y36707D01*
X496194Y36863D01*
X495410Y36707D01*
X494746Y36263D01*
X494543Y35960D01*
X485189D01*
X475144Y46005D01*
X474773Y46253D01*
X474336Y46340D01*
D02*
G37*
G36*
X258342Y41919D02*
Y40093D01*
X260167D01*
X260082Y40521D01*
X259556Y41308D01*
X258770Y41833D01*
X258342Y41919D01*
D02*
G37*
G36*
X257342D02*
X256914Y41833D01*
X256128Y41308D01*
X255602Y40521D01*
X255517Y40093D01*
X257342D01*
Y41919D01*
D02*
G37*
G36*
X277272Y41826D02*
Y40001D01*
X279097D01*
X279012Y40429D01*
X278486Y41215D01*
X277699Y41741D01*
X277272Y41826D01*
D02*
G37*
G36*
X276272D02*
X275844Y41741D01*
X275057Y41215D01*
X274532Y40429D01*
X274447Y40001D01*
X276272D01*
Y41826D01*
D02*
G37*
G36*
X328801Y41823D02*
X326976D01*
Y39998D01*
X327404Y40083D01*
X328191Y40608D01*
X328716Y41395D01*
X328801Y41823D01*
D02*
G37*
G36*
X325976D02*
X324151D01*
X324236Y41395D01*
X324762Y40608D01*
X325549Y40083D01*
X325976Y39998D01*
Y41823D01*
D02*
G37*
G36*
X120457Y42583D02*
X116957D01*
Y39083D01*
X120457D01*
Y42583D01*
D02*
G37*
G36*
X115957D02*
X112457D01*
Y39083D01*
X115957D01*
Y42583D01*
D02*
G37*
G36*
X260167Y39094D02*
X258342D01*
Y37268D01*
X258770Y37354D01*
X259556Y37879D01*
X260082Y38666D01*
X260167Y39094D01*
D02*
G37*
G36*
X257342D02*
X255517D01*
X255602Y38666D01*
X256128Y37879D01*
X256914Y37354D01*
X257342Y37268D01*
Y39094D01*
D02*
G37*
G36*
X279097Y39001D02*
X277272D01*
Y37176D01*
X277699Y37261D01*
X278486Y37786D01*
X279012Y38573D01*
X279097Y39001D01*
D02*
G37*
G36*
X276272D02*
X274447D01*
X274532Y38573D01*
X275057Y37786D01*
X275844Y37261D01*
X276272Y37176D01*
Y39001D01*
D02*
G37*
G36*
X522756Y44004D02*
Y36989D01*
X529771D01*
X529675Y37965D01*
X529245Y39384D01*
X528546Y40692D01*
X527605Y41838D01*
X526459Y42778D01*
X525151Y43477D01*
X523732Y43908D01*
X522756Y44004D01*
D02*
G37*
G36*
X521757Y44004D02*
X520781Y43908D01*
X519362Y43477D01*
X518054Y42778D01*
X516908Y41838D01*
X515967Y40692D01*
X515268Y39384D01*
X514838Y37965D01*
X514742Y36989D01*
X521757D01*
Y44004D01*
D02*
G37*
G36*
X353551Y38742D02*
Y36917D01*
X355376D01*
X355291Y37345D01*
X354766Y38132D01*
X353979Y38657D01*
X353551Y38742D01*
D02*
G37*
G36*
X352551D02*
X352123Y38657D01*
X351337Y38132D01*
X350811Y37345D01*
X350726Y36917D01*
X352551D01*
Y38742D01*
D02*
G37*
G36*
X206012Y37719D02*
Y35894D01*
X207837D01*
X207752Y36321D01*
X207226Y37108D01*
X206440Y37634D01*
X206012Y37719D01*
D02*
G37*
G36*
X205012D02*
X204584Y37634D01*
X203797Y37108D01*
X203272Y36321D01*
X203187Y35894D01*
X205012D01*
Y37719D01*
D02*
G37*
G36*
X152508D02*
Y35894D01*
X154333D01*
X154248Y36321D01*
X153722Y37108D01*
X152936Y37634D01*
X152508Y37719D01*
D02*
G37*
G36*
X151508D02*
X151080Y37634D01*
X150294Y37108D01*
X149768Y36321D01*
X149683Y35894D01*
X151508D01*
Y37719D01*
D02*
G37*
G36*
X223335Y37364D02*
Y35539D01*
X225160D01*
X225075Y35967D01*
X224549Y36754D01*
X223762Y37279D01*
X223335Y37364D01*
D02*
G37*
G36*
X222335D02*
X221907Y37279D01*
X221120Y36754D01*
X220595Y35967D01*
X220510Y35539D01*
X222335D01*
Y37364D01*
D02*
G37*
G36*
X106457Y42244D02*
X105509Y42119D01*
X104626Y41753D01*
X103868Y41172D01*
X103286Y40413D01*
X102920Y39530D01*
X102796Y38583D01*
X102920Y37635D01*
X103286Y36752D01*
X103868Y35994D01*
X104626Y35412D01*
X105509Y35046D01*
X106457Y34921D01*
X107404Y35046D01*
X108287Y35412D01*
X109046Y35994D01*
X109627Y36752D01*
X109993Y37635D01*
X110118Y38583D01*
X109993Y39530D01*
X109627Y40413D01*
X109046Y41172D01*
X108287Y41753D01*
X107404Y42119D01*
X106457Y42244D01*
D02*
G37*
G36*
X96457D02*
X95509Y42119D01*
X94626Y41753D01*
X93868Y41172D01*
X93286Y40413D01*
X92920Y39530D01*
X92795Y38583D01*
X92920Y37635D01*
X93286Y36752D01*
X93868Y35994D01*
X94626Y35412D01*
X95509Y35046D01*
X96457Y34921D01*
X97404Y35046D01*
X98287Y35412D01*
X99046Y35994D01*
X99627Y36752D01*
X99993Y37635D01*
X100118Y38583D01*
X99993Y39530D01*
X99627Y40413D01*
X99046Y41172D01*
X98287Y41753D01*
X97404Y42119D01*
X96457Y42244D01*
D02*
G37*
G36*
X120457Y38083D02*
X116957D01*
Y34583D01*
X120457D01*
Y38083D01*
D02*
G37*
G36*
X115957D02*
X112457D01*
Y34583D01*
X115957D01*
Y38083D01*
D02*
G37*
G36*
X355376Y35917D02*
X353551D01*
Y34092D01*
X353979Y34177D01*
X354766Y34703D01*
X355291Y35489D01*
X355376Y35917D01*
D02*
G37*
G36*
X352551D02*
X350726D01*
X350811Y35489D01*
X351337Y34703D01*
X352123Y34177D01*
X352551Y34092D01*
Y35917D01*
D02*
G37*
G36*
X326976Y32837D02*
Y31012D01*
X328801D01*
X328716Y31440D01*
X328191Y32226D01*
X327404Y32752D01*
X326976Y32837D01*
D02*
G37*
G36*
X325976D02*
X325549Y32752D01*
X324762Y32226D01*
X324236Y31440D01*
X324151Y31012D01*
X325976D01*
Y32837D01*
D02*
G37*
G36*
X278256Y34835D02*
Y30421D01*
X282670D01*
X282566Y31210D01*
X282068Y32411D01*
X281277Y33442D01*
X280246Y34234D01*
X279045Y34731D01*
X278256Y34835D01*
D02*
G37*
G36*
X277256D02*
X276467Y34731D01*
X275266Y34234D01*
X274235Y33442D01*
X273443Y32411D01*
X272946Y31210D01*
X272842Y30421D01*
X277256D01*
Y34835D01*
D02*
G37*
G36*
X289083D02*
Y30421D01*
X293496D01*
X293393Y31210D01*
X292895Y32411D01*
X292104Y33442D01*
X291073Y34234D01*
X289872Y34731D01*
X289083Y34835D01*
D02*
G37*
G36*
X288083D02*
X287294Y34731D01*
X286093Y34234D01*
X285062Y33442D01*
X284270Y32411D01*
X283773Y31210D01*
X283669Y30421D01*
X288083D01*
Y34835D01*
D02*
G37*
G36*
X521757Y35989D02*
X514742D01*
X514838Y35013D01*
X515268Y33595D01*
X515967Y32287D01*
X516908Y31141D01*
X518054Y30200D01*
X519362Y29501D01*
X520781Y29070D01*
X521757Y28974D01*
Y35989D01*
D02*
G37*
G36*
X470024D02*
X463010D01*
X463106Y35013D01*
X463536Y33595D01*
X464235Y32287D01*
X465176Y31141D01*
X466322Y30200D01*
X467630Y29501D01*
X469049Y29070D01*
X470024Y28974D01*
Y35989D01*
D02*
G37*
G36*
X529771D02*
X522756D01*
Y28974D01*
X523732Y29070D01*
X525151Y29501D01*
X526459Y30200D01*
X527605Y31141D01*
X528546Y32287D01*
X529245Y33595D01*
X529675Y35013D01*
X529771Y35989D01*
D02*
G37*
G36*
X478039D02*
X471024D01*
Y28974D01*
X472000Y29070D01*
X473419Y29501D01*
X474726Y30200D01*
X475873Y31141D01*
X476813Y32287D01*
X477512Y33595D01*
X477943Y35013D01*
X478039Y35989D01*
D02*
G37*
G36*
X483111Y31566D02*
Y28328D01*
X486349D01*
X486285Y28812D01*
X485905Y29730D01*
X485301Y30518D01*
X484513Y31122D01*
X483595Y31502D01*
X483111Y31566D01*
D02*
G37*
G36*
X482111Y31566D02*
X481626Y31502D01*
X480709Y31122D01*
X479921Y30518D01*
X479316Y29730D01*
X478936Y28812D01*
X478872Y28328D01*
X482111D01*
Y31566D01*
D02*
G37*
G36*
X328801Y30012D02*
X326976D01*
Y28187D01*
X327404Y28272D01*
X328191Y28797D01*
X328716Y29584D01*
X328801Y30012D01*
D02*
G37*
G36*
X325976D02*
X324151D01*
X324236Y29584D01*
X324762Y28797D01*
X325549Y28272D01*
X325976Y28187D01*
Y30012D01*
D02*
G37*
G36*
X379568Y31854D02*
Y27639D01*
X383783D01*
X383686Y28376D01*
X383208Y29529D01*
X382448Y30520D01*
X381458Y31279D01*
X380305Y31757D01*
X379568Y31854D01*
D02*
G37*
G36*
X436654D02*
Y27639D01*
X440869D01*
X440772Y28376D01*
X440295Y29529D01*
X439535Y30520D01*
X438545Y31279D01*
X437392Y31757D01*
X436654Y31854D01*
D02*
G37*
G36*
X435654D02*
X434917Y31757D01*
X433764Y31279D01*
X432773Y30520D01*
X432014Y29529D01*
X431536Y28376D01*
X431439Y27639D01*
X435654D01*
Y31854D01*
D02*
G37*
G36*
X378568Y31854D02*
X377830Y31757D01*
X376677Y31279D01*
X375687Y30520D01*
X374927Y29529D01*
X374449Y28376D01*
X374352Y27639D01*
X378568D01*
Y31854D01*
D02*
G37*
G36*
X55052Y35387D02*
X53860Y35230D01*
X52749Y34770D01*
X51795Y34038D01*
X51063Y33084D01*
X50602Y31973D01*
X50445Y30781D01*
X50602Y29588D01*
X51063Y28477D01*
X51795Y27523D01*
X52749Y26791D01*
X53860Y26331D01*
X55052Y26174D01*
X56244Y26331D01*
X57355Y26791D01*
X58309Y27523D01*
X59041Y28477D01*
X59501Y29588D01*
X59658Y30781D01*
X59501Y31973D01*
X59041Y33084D01*
X58309Y34038D01*
X57355Y34770D01*
X56244Y35230D01*
X55052Y35387D01*
D02*
G37*
G36*
X35367D02*
X34174Y35230D01*
X33064Y34770D01*
X32110Y34038D01*
X31378Y33084D01*
X30917Y31973D01*
X30760Y30781D01*
X30917Y29588D01*
X31378Y28477D01*
X32110Y27523D01*
X33064Y26791D01*
X34174Y26331D01*
X35367Y26174D01*
X36559Y26331D01*
X37670Y26791D01*
X38624Y27523D01*
X39356Y28477D01*
X39816Y29588D01*
X39973Y30781D01*
X39816Y31973D01*
X39356Y33084D01*
X38624Y34038D01*
X37670Y34770D01*
X36559Y35230D01*
X35367Y35387D01*
D02*
G37*
G36*
X353551Y26931D02*
Y25106D01*
X355376D01*
X355291Y25534D01*
X354766Y26321D01*
X353979Y26846D01*
X353551Y26931D01*
D02*
G37*
G36*
X352551D02*
X352123Y26846D01*
X351337Y26321D01*
X350811Y25534D01*
X350726Y25106D01*
X352551D01*
Y26931D01*
D02*
G37*
G36*
X282670Y29421D02*
X278256D01*
Y25008D01*
X279045Y25111D01*
X280246Y25609D01*
X281277Y26400D01*
X282068Y27431D01*
X282566Y28632D01*
X282670Y29421D01*
D02*
G37*
G36*
X293496Y29421D02*
X289083D01*
Y25008D01*
X289872Y25111D01*
X291073Y25609D01*
X292104Y26400D01*
X292895Y27431D01*
X293393Y28632D01*
X293496Y29421D01*
D02*
G37*
G36*
X288083D02*
X283669D01*
X283773Y28632D01*
X284270Y27431D01*
X285062Y26400D01*
X286093Y25609D01*
X287294Y25111D01*
X288083Y25008D01*
Y29421D01*
D02*
G37*
G36*
X277256Y29421D02*
X272842D01*
X272946Y28632D01*
X273443Y27431D01*
X274235Y26400D01*
X275266Y25609D01*
X276467Y25111D01*
X277256Y25008D01*
Y29421D01*
D02*
G37*
G36*
X424843Y26314D02*
Y24489D01*
X426668D01*
X426583Y24917D01*
X426057Y25704D01*
X425271Y26229D01*
X424843Y26314D01*
D02*
G37*
G36*
X423843D02*
X423415Y26229D01*
X422629Y25704D01*
X422103Y24917D01*
X422018Y24489D01*
X423843D01*
Y26314D01*
D02*
G37*
G36*
X418938D02*
Y24489D01*
X420763D01*
X420678Y24917D01*
X420152Y25704D01*
X419365Y26229D01*
X418938Y26314D01*
D02*
G37*
G36*
X417938D02*
X417510Y26229D01*
X416723Y25704D01*
X416198Y24917D01*
X416113Y24489D01*
X417938D01*
Y26314D01*
D02*
G37*
G36*
X413032D02*
Y24489D01*
X414857D01*
X414772Y24917D01*
X414247Y25704D01*
X413460Y26229D01*
X413032Y26314D01*
D02*
G37*
G36*
X412032D02*
X411604Y26229D01*
X410818Y25704D01*
X410292Y24917D01*
X410207Y24489D01*
X412032D01*
Y26314D01*
D02*
G37*
G36*
X407127D02*
Y24489D01*
X408952D01*
X408867Y24917D01*
X408341Y25704D01*
X407554Y26229D01*
X407127Y26314D01*
D02*
G37*
G36*
X406127D02*
X405699Y26229D01*
X404912Y25704D01*
X404387Y24917D01*
X404302Y24489D01*
X406127D01*
Y26314D01*
D02*
G37*
G36*
X395316D02*
Y24489D01*
X397141D01*
X397056Y24917D01*
X396530Y25704D01*
X395743Y26229D01*
X395316Y26314D01*
D02*
G37*
G36*
X394316D02*
X393888Y26229D01*
X393101Y25704D01*
X392576Y24917D01*
X392491Y24489D01*
X394316D01*
Y26314D01*
D02*
G37*
G36*
X500327Y31259D02*
X499439Y31142D01*
X498612Y30799D01*
X497901Y30254D01*
X497356Y29543D01*
X497013Y28716D01*
X496896Y27828D01*
X497013Y26940D01*
X497356Y26112D01*
X497901Y25402D01*
X498612Y24857D01*
X499439Y24514D01*
X500327Y24397D01*
X501215Y24514D01*
X502043Y24857D01*
X502753Y25402D01*
X503299Y26112D01*
X503641Y26940D01*
X503758Y27828D01*
X503641Y28716D01*
X503299Y29543D01*
X502753Y30254D01*
X502043Y30799D01*
X501215Y31142D01*
X500327Y31259D01*
D02*
G37*
G36*
X492453D02*
X491565Y31142D01*
X490738Y30799D01*
X490027Y30254D01*
X489482Y29543D01*
X489139Y28716D01*
X489022Y27828D01*
X489139Y26940D01*
X489482Y26112D01*
X490027Y25402D01*
X490738Y24857D01*
X491565Y24514D01*
X492453Y24397D01*
X493341Y24514D01*
X494169Y24857D01*
X494879Y25402D01*
X495425Y26112D01*
X495767Y26940D01*
X495884Y27828D01*
X495767Y28716D01*
X495425Y29543D01*
X494879Y30254D01*
X494169Y30799D01*
X493341Y31142D01*
X492453Y31259D01*
D02*
G37*
G36*
X486349Y27328D02*
X483111D01*
Y24089D01*
X483595Y24153D01*
X484513Y24533D01*
X485301Y25138D01*
X485905Y25926D01*
X486285Y26843D01*
X486349Y27328D01*
D02*
G37*
G36*
X482111D02*
X478872D01*
X478936Y26843D01*
X479316Y25926D01*
X479921Y25138D01*
X480709Y24533D01*
X481626Y24153D01*
X482111Y24089D01*
Y27328D01*
D02*
G37*
G36*
X355376Y24106D02*
X353551D01*
Y22281D01*
X353979Y22366D01*
X354766Y22892D01*
X355291Y23678D01*
X355376Y24106D01*
D02*
G37*
G36*
X352551D02*
X350726D01*
X350811Y23678D01*
X351337Y22892D01*
X352123Y22366D01*
X352551Y22281D01*
Y24106D01*
D02*
G37*
G36*
X55552Y23883D02*
Y19469D01*
X59965D01*
X59862Y20258D01*
X59364Y21459D01*
X58573Y22491D01*
X57542Y23282D01*
X56341Y23779D01*
X55552Y23883D01*
D02*
G37*
G36*
X35867D02*
Y19469D01*
X40281D01*
X40177Y20258D01*
X39679Y21459D01*
X38888Y22491D01*
X37857Y23282D01*
X36656Y23779D01*
X35867Y23883D01*
D02*
G37*
G36*
X54552D02*
X53763Y23779D01*
X52562Y23282D01*
X51531Y22491D01*
X50739Y21459D01*
X50242Y20258D01*
X50138Y19469D01*
X54552D01*
Y23883D01*
D02*
G37*
G36*
X34867D02*
X34078Y23779D01*
X32877Y23282D01*
X31846Y22491D01*
X31054Y21459D01*
X30557Y20258D01*
X30453Y19469D01*
X34867D01*
Y23883D01*
D02*
G37*
G36*
X59965Y18470D02*
X55552D01*
Y14056D01*
X56341Y14160D01*
X57542Y14657D01*
X58573Y15448D01*
X59364Y16480D01*
X59862Y17681D01*
X59965Y18470D01*
D02*
G37*
G36*
X40281D02*
X35867D01*
Y14056D01*
X36656Y14160D01*
X37857Y14657D01*
X38888Y15448D01*
X39679Y16480D01*
X40177Y17681D01*
X40281Y18470D01*
D02*
G37*
G36*
X54552D02*
X50138D01*
X50242Y17681D01*
X50739Y16480D01*
X51531Y15448D01*
X52562Y14657D01*
X53763Y14160D01*
X54552Y14056D01*
Y18470D01*
D02*
G37*
G36*
X34867D02*
X30453D01*
X30557Y17681D01*
X31054Y16480D01*
X31846Y15448D01*
X32877Y14657D01*
X34078Y14160D01*
X34867Y14056D01*
Y18470D01*
D02*
G37*
G36*
X278256Y15150D02*
Y10736D01*
X282670D01*
X282566Y11525D01*
X282068Y12726D01*
X281277Y13757D01*
X280246Y14549D01*
X279045Y15046D01*
X278256Y15150D01*
D02*
G37*
G36*
X277256D02*
X276467Y15046D01*
X275266Y14549D01*
X274235Y13757D01*
X273443Y12726D01*
X272946Y11525D01*
X272842Y10736D01*
X277256D01*
Y15150D01*
D02*
G37*
G36*
X289083D02*
Y10736D01*
X293496D01*
X293393Y11525D01*
X292895Y12726D01*
X292104Y13757D01*
X291073Y14549D01*
X289872Y15046D01*
X289083Y15150D01*
D02*
G37*
G36*
X288083D02*
X287294Y15046D01*
X286093Y14549D01*
X285062Y13757D01*
X284270Y12726D01*
X283773Y11525D01*
X283669Y10736D01*
X288083D01*
Y15150D01*
D02*
G37*
G36*
X377205Y12563D02*
Y8347D01*
X381420D01*
X381324Y9085D01*
X380846Y10238D01*
X380086Y11228D01*
X379096Y11988D01*
X377943Y12466D01*
X377205Y12563D01*
D02*
G37*
G36*
X439016Y12563D02*
Y8347D01*
X443231D01*
X443134Y9085D01*
X442657Y10238D01*
X441897Y11228D01*
X440907Y11988D01*
X439754Y12466D01*
X439016Y12563D01*
D02*
G37*
G36*
X438016Y12563D02*
X437279Y12466D01*
X436126Y11988D01*
X435136Y11228D01*
X434376Y10238D01*
X433898Y9085D01*
X433801Y8347D01*
X438016D01*
Y12563D01*
D02*
G37*
G36*
X376205Y12563D02*
X375468Y12466D01*
X374315Y11988D01*
X373325Y11228D01*
X372565Y10238D01*
X372087Y9085D01*
X371990Y8347D01*
X376205D01*
Y12563D01*
D02*
G37*
%LPD*%
G36*
X448506Y19882D02*
X448365Y19381D01*
X363976D01*
X363699Y19796D01*
X363839Y20296D01*
X448229D01*
X448506Y19882D01*
D02*
G37*
D20*
X281090Y164713D02*
D03*
X286995D02*
D03*
D66*
X362205Y18418D02*
X453280D01*
X359842Y21260D02*
X450000D01*
X392371Y82733D02*
X472063D01*
X398359Y78615D02*
X472178D01*
X400721Y86620D02*
X472178Y86620D01*
D67*
X233858Y99606D02*
Y125984D01*
X238700Y75197D02*
Y122722D01*
X246917Y35433D02*
Y50269D01*
D68*
X286324Y164713D02*
X295940D01*
X92756Y32283D02*
X243767D01*
X246917Y35433D01*
X86457Y38583D02*
X92756Y32283D01*
X295940Y164713D02*
X295940Y164713D01*
X305118D01*
X285934Y173374D02*
X305118D01*
X283217Y177705D02*
X305118D01*
X271406Y169043D02*
X305118D01*
X269137Y160382D02*
X305118D01*
X276461Y151720D02*
X305118D01*
X278740Y147244D02*
X304972D01*
X305118Y147390D01*
X300394Y10236D02*
Y29921D01*
X377018Y66726D02*
X378961Y68669D01*
X389640Y24055D02*
Y32396D01*
X396390Y39147D01*
X484715Y34816D02*
X496194D01*
X474336Y45196D02*
X484715Y34816D01*
X466389Y45196D02*
X474336D01*
X460340Y39147D02*
X466389Y45196D01*
X396390Y39147D02*
X460340D01*
X383103Y85497D02*
Y120786D01*
X378961Y68669D02*
Y79258D01*
X376016Y82203D02*
X378961Y79258D01*
X376016Y82203D02*
Y112894D01*
X265945Y10236D02*
Y29921D01*
X392256Y82847D02*
X392371Y82733D01*
X472063D02*
X472178Y82618D01*
X398359Y78615D02*
X398359Y78615D01*
X496194Y34816D02*
X503182D01*
X510170Y27828D01*
X472112Y86686D02*
X472178Y86620D01*
D69*
X161109Y97244D02*
Y125984D01*
X488814Y112375D02*
X501384D01*
X484533Y116656D02*
X488814Y112375D01*
X480315Y116656D02*
X484533D01*
X305118Y83171D02*
X318307D01*
D73*
X44771Y82847D02*
D03*
X52645D02*
D03*
X12040Y104698D02*
D03*
Y96824D02*
D03*
Y78517D02*
D03*
Y70643D02*
D03*
Y55682D02*
D03*
Y47808D02*
D03*
D74*
X277756Y10236D02*
D03*
X265945Y29921D02*
D03*
Y10236D02*
D03*
X277756Y29921D02*
D03*
X288583D02*
D03*
X300394Y10236D02*
D03*
Y29921D02*
D03*
X288583Y10236D02*
D03*
X55052Y18970D02*
D03*
X35367Y30781D02*
D03*
X55052D02*
D03*
X35367Y18970D02*
D03*
D75*
X116457Y38583D02*
D03*
X248700Y64567D02*
D03*
Y75197D02*
D03*
D76*
X106457Y38583D02*
D03*
X96457D02*
D03*
X86457D02*
D03*
X228700Y64567D02*
D03*
X238700D02*
D03*
X228700Y75197D02*
D03*
X238700D02*
D03*
D77*
X522257Y36489D02*
D03*
X470524D02*
D03*
D78*
X510170Y27828D02*
D03*
D79*
X500327D02*
D03*
X492453D02*
D03*
X482611D02*
D03*
D80*
X376705Y7847D02*
D03*
X438516D02*
D03*
X379067Y27139D02*
D03*
X436154D02*
D03*
D81*
X252099Y112375D02*
D03*
D82*
X515091D02*
D03*
D83*
X295940Y164713D02*
D03*
X283217Y177705D02*
D03*
X285934Y173374D02*
D03*
X271406Y169043D02*
D03*
X269137Y160382D02*
D03*
X276461Y151720D02*
D03*
X278740Y147244D02*
D03*
X161109Y125984D02*
D03*
Y97244D02*
D03*
X233858Y99606D02*
D03*
Y125984D02*
D03*
X453280Y18418D02*
D03*
X450000Y21260D02*
D03*
X359842D02*
D03*
X362205Y18418D02*
D03*
X429068Y90328D02*
D03*
X353051Y24606D02*
D03*
X326476Y30512D02*
D03*
X353051Y36417D02*
D03*
X326476Y42323D02*
D03*
X353051Y48228D02*
D03*
Y60039D02*
D03*
X326476Y54134D02*
D03*
X511745Y159619D02*
D03*
X255446D02*
D03*
X238700Y122722D02*
D03*
X389640Y24055D02*
D03*
X501384Y112375D02*
D03*
X480315Y116656D02*
D03*
X383103Y120786D02*
D03*
Y85497D02*
D03*
X305118Y83171D02*
D03*
X318307D02*
D03*
X377039Y66706D02*
D03*
X376016Y112894D02*
D03*
X246917Y50269D02*
D03*
Y35433D02*
D03*
X222835Y35039D02*
D03*
X201260Y111043D02*
D03*
X152008Y35394D02*
D03*
X300394Y51968D02*
D03*
X528969Y142126D02*
D03*
X515748Y85210D02*
D03*
X487795Y85210D02*
D03*
X502886Y134422D02*
D03*
X493438D02*
D03*
X486351D02*
D03*
X472178Y122611D02*
D03*
X469815Y134422D02*
D03*
X465091D02*
D03*
X450918D02*
D03*
X443831D02*
D03*
X436745D02*
D03*
X429658D02*
D03*
X415485D02*
D03*
X408398D02*
D03*
X401312D02*
D03*
X394225D02*
D03*
X387138D02*
D03*
X380052D02*
D03*
X372965D02*
D03*
X365879D02*
D03*
X358792D02*
D03*
X351705D02*
D03*
X344619D02*
D03*
X337532D02*
D03*
X330446D02*
D03*
X323359D02*
D03*
X302099D02*
D03*
X295012D02*
D03*
X287926D02*
D03*
X280839D02*
D03*
X273753D02*
D03*
X266666D02*
D03*
X258989Y90328D02*
D03*
X266075D02*
D03*
X273162D02*
D03*
X280249D02*
D03*
X287335D02*
D03*
X294422D02*
D03*
X301508D02*
D03*
X322768D02*
D03*
X329855D02*
D03*
X336942D02*
D03*
X344028D02*
D03*
X351115D02*
D03*
X358201D02*
D03*
X365288D02*
D03*
X372375D02*
D03*
X379461D02*
D03*
X386548D02*
D03*
X393634D02*
D03*
X502296Y102139D02*
D03*
X492847D02*
D03*
X485760D02*
D03*
X471587D02*
D03*
X464501Y90328D02*
D03*
X457414D02*
D03*
X450327D02*
D03*
X443241D02*
D03*
X436154D02*
D03*
X276772Y39501D02*
D03*
X230315Y50512D02*
D03*
X205512Y35394D02*
D03*
X175591Y72835D02*
D03*
X189764D02*
D03*
X190157Y57257D02*
D03*
X175591D02*
D03*
X182697Y64921D02*
D03*
X157841Y175591D02*
D03*
X42054Y171653D02*
D03*
X40551Y124016D02*
D03*
X414894Y90328D02*
D03*
X407906D02*
D03*
X400721D02*
D03*
X392256Y82847D02*
D03*
X398359Y78615D02*
D03*
X400721Y86620D02*
D03*
X496194Y34816D02*
D03*
X472178Y78615D02*
D03*
Y86620D02*
D03*
X421981Y90328D02*
D03*
X472178Y82618D02*
D03*
X257842Y39593D02*
D03*
X472670Y53910D02*
D03*
X395997Y63162D02*
D03*
X422375Y63458D02*
D03*
X375131Y77139D02*
D03*
X90900Y169127D02*
D03*
X46411Y149737D02*
D03*
X39817Y151804D02*
D03*
X91365Y121882D02*
D03*
X208983Y172965D02*
D03*
X155440Y155741D02*
D03*
X161936Y153378D02*
D03*
X44810Y101607D02*
D03*
X39200Y103280D02*
D03*
X69914Y57257D02*
D03*
X42379Y42690D02*
D03*
X394815Y23989D02*
D03*
X406627D02*
D03*
X412532D02*
D03*
X418438D02*
D03*
X424343D02*
D03*
X396390Y39147D02*
D03*
X110302Y80886D02*
D03*
Y74811D02*
D03*
D84*
X355118Y172193D02*
D03*
Y152902D02*
D03*
D85*
X305118Y147390D02*
D03*
Y151720D02*
D03*
Y156051D02*
D03*
Y160382D02*
D03*
Y164713D02*
D03*
Y169043D02*
D03*
Y173374D02*
D03*
Y177705D02*
D03*
D86*
X355512Y184201D02*
D03*
D87*
X307087Y191681D02*
D03*
D88*
X307087Y139122D02*
D03*
M02*
