G04*
G04 #@! TF.GenerationSoftware,Altium Limited,Altium Designer,19.0.14 (431)*
G04*
G04 Layer_Color=16711935*
%FSLAX25Y25*%
%MOIN*%
G70*
G01*
G75*
G04:AMPARAMS|DCode=39|XSize=43.43mil|YSize=47.37mil|CornerRadius=12.86mil|HoleSize=0mil|Usage=FLASHONLY|Rotation=180.000|XOffset=0mil|YOffset=0mil|HoleType=Round|Shape=RoundedRectangle|*
%AMROUNDEDRECTD39*
21,1,0.04343,0.02165,0,0,180.0*
21,1,0.01772,0.04737,0,0,180.0*
1,1,0.02572,-0.00886,0.01083*
1,1,0.02572,0.00886,0.01083*
1,1,0.02572,0.00886,-0.01083*
1,1,0.02572,-0.00886,-0.01083*
%
%ADD39ROUNDEDRECTD39*%
%ADD56C,0.05918*%
%ADD57C,0.08674*%
%ADD58R,0.06800X0.06800*%
%ADD59C,0.06800*%
%ADD60C,0.13855*%
%ADD61R,0.06343X0.06343*%
%ADD62C,0.06343*%
%ADD63C,0.08280*%
%ADD64C,0.07099*%
%ADD65C,0.05131*%
%ADD89R,0.06312X0.11430*%
%ADD90R,0.08674X0.03556*%
%ADD91R,0.05524X0.05524*%
%ADD92R,0.11036X0.06706*%
%ADD93R,0.11036X0.04737*%
D39*
X281090Y164713D02*
D03*
X286995D02*
D03*
D56*
X44771Y82847D02*
D03*
X52645D02*
D03*
X12040Y104698D02*
D03*
Y96824D02*
D03*
Y78517D02*
D03*
Y70643D02*
D03*
Y55682D02*
D03*
Y47808D02*
D03*
D57*
X277756Y10236D02*
D03*
X265945Y29921D02*
D03*
Y10236D02*
D03*
X277756Y29921D02*
D03*
X288583D02*
D03*
X300394Y10236D02*
D03*
Y29921D02*
D03*
X288583Y10236D02*
D03*
X55052Y18970D02*
D03*
X35367Y30781D02*
D03*
X55052D02*
D03*
X35367Y18970D02*
D03*
D58*
X116457Y38583D02*
D03*
X248700Y64567D02*
D03*
Y75197D02*
D03*
D59*
X106457Y38583D02*
D03*
X96457D02*
D03*
X86457D02*
D03*
X228700Y64567D02*
D03*
X238700D02*
D03*
X228700Y75197D02*
D03*
X238700D02*
D03*
D60*
X522257Y36489D02*
D03*
X470524D02*
D03*
D61*
X510170Y27828D02*
D03*
D62*
X500327D02*
D03*
X492453D02*
D03*
X482611D02*
D03*
D63*
X376705Y7847D02*
D03*
X438516D02*
D03*
X379067Y27139D02*
D03*
X436154D02*
D03*
D64*
X252099Y112375D02*
D03*
D65*
X515091D02*
D03*
D89*
X355118Y172193D02*
D03*
Y152902D02*
D03*
D90*
X305118Y147390D02*
D03*
Y151720D02*
D03*
Y156051D02*
D03*
Y160382D02*
D03*
Y164713D02*
D03*
Y169043D02*
D03*
Y173374D02*
D03*
Y177705D02*
D03*
D91*
X355512Y184201D02*
D03*
D92*
X307087Y191681D02*
D03*
D93*
X307087Y139122D02*
D03*
M02*
