M48
;Layer_Color=9474304
;FILE_FORMAT=2:5
INCH,TZ
;TYPE=PLATED
T1F00S00C0.01181
T2F00S00C0.03150
T3F00S00C0.03543
T4F00S00C0.03937
T5F00S00C0.04000
T6F00S00C0.05118
T7F00S00C0.09055
;TYPE=NON_PLATED
T8F00S00C0.04331
T9F00S00C0.06299
%
T01
X42379Y42690
X69914Y57257
X110302Y74811
Y80886
X175591Y72835
X189764
X182697Y64921
X175591Y57257
X190157
X205512Y35394
X222835Y35039
X230315Y50512
X152008Y35394
X246917Y35433
Y50269
X257842Y39593
X276772Y39501
X300394Y51968
X326476Y54134
Y42323
Y30512
X353051Y36417
Y24606
X359842Y21260
X362205Y18418
X389640Y24055
X377039Y66706
X375131Y77139
X372375Y90328
X379461
X386548
X383103Y85497
X392256Y82847
X365288Y90328
X358201
X351115
X344028
X336942
X329855
X322768
X318307Y83171
X305118
X301508Y90328
X294422
X287335
X280249
X273162
X266075
X258989
X353051Y60039
Y48228
X396390Y39147
X394815Y23989
X406627
X412532
X418438
X424343
X450000Y21260
X453280Y18418
X472670Y53910
X472178Y78615
Y82618
Y86620
X464501Y90328
X457414
X450327
X443241
X436154
X429068
X421981
X414894
X407906
X400721
Y86620
X398359Y78615
X393634Y90328
X395997Y63162
X422375Y63458
X487795Y85210
X515748Y85210
X496194Y34816
X492847Y102139
X485760
X471587
X472178Y122611
X480315Y116656
X486351Y134422
X493438
X502886
X501384Y112375
X502296Y102139
X469815Y134422
X465091
X450918
X443831
X436745
X429658
X415485
X408398
X401312
X394225
X528969Y142126
X511745Y159619
X387138Y134422
X380052
X372965
X365879
X358792
X351705
X344619
X337532
X330446
X323359
X302099
X295012
X287926
X280839
X273753
X266666
X278740Y147244
X276461Y151720
X269137Y160382
X271406Y169043
X285934Y173374
X283217Y177705
X295940Y164713
X255446Y159619
X238700Y122722
X383103Y120786
X376016Y112894
X233858Y125984
Y99606
X201260Y111043
X161109Y97244
Y125984
X161936Y153378
X155440Y155741
X157841Y175591
X208983Y172965
X90900Y169127
X91365Y121882
X40551Y124016
X39200Y103280
X44810Y101607
X46411Y149737
X39817Y151804
X42054Y171653
T02
X12040Y47808
Y55682
Y70643
Y78517
X44771Y82847
X52645
X12040Y96824
Y104698
T03
X482611Y27828
X492453
X500327
X510170
T04
X35367Y18970
Y30781
X55052
Y18970
X265945Y10236
X277756
X288583
X300394
Y29921
X288583
X277756
X265945
T05
X86457Y38583
X96457
X106457
X116457
X228700Y64567
Y75197
X238700
X248700
Y64567
X238700
T06
X376705Y7847
X379067Y27139
X436154
X438516Y7847
T07
X470524Y36489
X522257
T08
X515091Y112375
T09
X252099Y112375
M30
