G04*
G04 #@! TF.GenerationSoftware,Altium Limited,Altium Designer,19.0.14 (431)*
G04*
G04 Layer_Color=32768*
%FSLAX25Y25*%
%MOIN*%
G70*
G01*
G75*
%ADD14C,0.00394*%
%ADD99C,0.00197*%
G36*
X41926Y82855D02*
Y82853D01*
Y82847D01*
Y82840D01*
Y82828D01*
X41924Y82815D01*
Y82799D01*
X41922Y82765D01*
X41917Y82724D01*
X41911Y82684D01*
X41901Y82644D01*
X41888Y82609D01*
X41886Y82605D01*
X41880Y82596D01*
X41871Y82580D01*
X41859Y82561D01*
X41842Y82538D01*
X41821Y82517D01*
X41794Y82496D01*
X41765Y82477D01*
X41761Y82475D01*
X41750Y82469D01*
X41732Y82463D01*
X41709Y82456D01*
X41680Y82446D01*
X41648Y82440D01*
X41609Y82434D01*
X41569Y82433D01*
X41554D01*
X41542Y82434D01*
X41529Y82436D01*
X41511Y82438D01*
X41475Y82444D01*
X41435Y82456D01*
X41392Y82473D01*
X41371Y82482D01*
X41352Y82496D01*
X41333Y82509D01*
X41316Y82527D01*
Y82529D01*
X41312Y82530D01*
X41308Y82536D01*
X41302Y82544D01*
X41295Y82556D01*
X41289Y82567D01*
X41279Y82582D01*
X41271Y82598D01*
X41264Y82617D01*
X41256Y82638D01*
X41249Y82661D01*
X41243Y82688D01*
X41237Y82715D01*
X41233Y82746D01*
X41231Y82776D01*
Y82811D01*
X41381Y82832D01*
Y82830D01*
Y82826D01*
Y82819D01*
X41383Y82809D01*
Y82797D01*
X41385Y82784D01*
X41391Y82753D01*
X41396Y82719D01*
X41406Y82686D01*
X41419Y82657D01*
X41427Y82644D01*
X41435Y82632D01*
X41437Y82630D01*
X41444Y82625D01*
X41454Y82615D01*
X41469Y82607D01*
X41489Y82598D01*
X41511Y82588D01*
X41538Y82582D01*
X41569Y82580D01*
X41581D01*
X41592Y82582D01*
X41606Y82584D01*
X41623Y82588D01*
X41642Y82592D01*
X41659Y82600D01*
X41677Y82609D01*
X41679Y82611D01*
X41684Y82615D01*
X41692Y82621D01*
X41702Y82630D01*
X41713Y82640D01*
X41723Y82653D01*
X41732Y82669D01*
X41740Y82686D01*
Y82688D01*
X41744Y82696D01*
X41746Y82707D01*
X41750Y82724D01*
X41753Y82748D01*
X41755Y82774D01*
X41759Y82807D01*
Y82845D01*
Y83715D01*
X41926D01*
Y82855D01*
D02*
G37*
G36*
X43698Y82454D02*
X43543D01*
Y83441D01*
X43541Y83439D01*
X43533Y83431D01*
X43520Y83421D01*
X43503Y83408D01*
X43481Y83391D01*
X43457Y83373D01*
X43428Y83352D01*
X43395Y83333D01*
X43393D01*
X43391Y83331D01*
X43380Y83324D01*
X43362Y83314D01*
X43341Y83302D01*
X43316Y83289D01*
X43289Y83277D01*
X43261Y83264D01*
X43234Y83252D01*
Y83404D01*
X43236D01*
X43240Y83406D01*
X43247Y83410D01*
X43255Y83416D01*
X43266Y83421D01*
X43280Y83427D01*
X43311Y83444D01*
X43345Y83466D01*
X43383Y83491D01*
X43422Y83519D01*
X43458Y83550D01*
X43460Y83552D01*
X43462Y83554D01*
X43474Y83565D01*
X43491Y83583D01*
X43512Y83604D01*
X43535Y83631D01*
X43558Y83659D01*
X43579Y83690D01*
X43597Y83721D01*
X43698D01*
Y82454D01*
D02*
G37*
G36*
X42719D02*
X42564D01*
Y83441D01*
X42562Y83439D01*
X42554Y83431D01*
X42541Y83421D01*
X42523Y83408D01*
X42502Y83391D01*
X42477Y83373D01*
X42448Y83352D01*
X42416Y83333D01*
X42414D01*
X42412Y83331D01*
X42401Y83324D01*
X42383Y83314D01*
X42362Y83302D01*
X42337Y83289D01*
X42310Y83277D01*
X42281Y83264D01*
X42255Y83252D01*
Y83404D01*
X42257D01*
X42260Y83406D01*
X42268Y83410D01*
X42276Y83416D01*
X42287Y83421D01*
X42301Y83427D01*
X42331Y83444D01*
X42366Y83466D01*
X42404Y83491D01*
X42443Y83519D01*
X42479Y83550D01*
X42481Y83552D01*
X42483Y83554D01*
X42495Y83565D01*
X42512Y83583D01*
X42533Y83604D01*
X42556Y83631D01*
X42579Y83659D01*
X42600Y83690D01*
X42617Y83721D01*
X42719D01*
Y82454D01*
D02*
G37*
G36*
X280340Y165126D02*
X280374Y165124D01*
X280437Y165110D01*
X280466Y165103D01*
X280495Y165093D01*
X280520Y165083D01*
X280543Y165074D01*
X280564Y165064D01*
X280581Y165055D01*
X280597Y165045D01*
X280610Y165037D01*
X280622Y165030D01*
X280629Y165024D01*
X280633Y165022D01*
X280635Y165020D01*
X280660Y164999D01*
X280683Y164976D01*
X280722Y164926D01*
X280756Y164874D01*
X280781Y164822D01*
X280793Y164799D01*
X280800Y164778D01*
X280808Y164757D01*
X280816Y164742D01*
X280820Y164726D01*
X280823Y164717D01*
X280825Y164709D01*
Y164707D01*
X280658Y164665D01*
X280643Y164720D01*
X280624Y164770D01*
X280601Y164811D01*
X280580Y164845D01*
X280558Y164870D01*
X280541Y164889D01*
X280530Y164901D01*
X280528Y164903D01*
X280526Y164905D01*
X280487Y164932D01*
X280449Y164951D01*
X280409Y164966D01*
X280372Y164976D01*
X280340Y164981D01*
X280324Y164983D01*
X280313D01*
X280303Y164985D01*
X280290D01*
X280247Y164983D01*
X280207Y164976D01*
X280171Y164966D01*
X280140Y164957D01*
X280113Y164945D01*
X280092Y164937D01*
X280084Y164934D01*
X280079Y164930D01*
X280077Y164928D01*
X280075D01*
X280040Y164903D01*
X280011Y164874D01*
X279986Y164845D01*
X279965Y164814D01*
X279950Y164790D01*
X279940Y164767D01*
X279936Y164759D01*
X279932Y164753D01*
X279931Y164749D01*
Y164747D01*
X279915Y164701D01*
X279904Y164653D01*
X279896Y164605D01*
X279890Y164561D01*
X279888Y164542D01*
X279887Y164525D01*
Y164507D01*
X279885Y164494D01*
Y164482D01*
Y164475D01*
Y164469D01*
Y164467D01*
X279887Y164421D01*
X279890Y164377D01*
X279896Y164336D01*
X279904Y164300D01*
X279911Y164269D01*
X279913Y164256D01*
X279917Y164246D01*
X279919Y164237D01*
X279921Y164231D01*
X279923Y164227D01*
Y164225D01*
X279940Y164183D01*
X279961Y164144D01*
X279984Y164114D01*
X280006Y164087D01*
X280027Y164066D01*
X280044Y164050D01*
X280055Y164041D01*
X280057Y164037D01*
X280059D01*
X280098Y164014D01*
X280138Y163997D01*
X280178Y163983D01*
X280217Y163976D01*
X280251Y163970D01*
X280265Y163968D01*
X280278D01*
X280288Y163966D01*
X280301D01*
X280347Y163968D01*
X280388Y163976D01*
X280424Y163985D01*
X280453Y163997D01*
X280478Y164010D01*
X280495Y164020D01*
X280507Y164027D01*
X280510Y164029D01*
X280541Y164056D01*
X280566Y164087D01*
X280589Y164121D01*
X280607Y164154D01*
X280620Y164183D01*
X280626Y164196D01*
X280631Y164208D01*
X280635Y164217D01*
X280637Y164225D01*
X280639Y164229D01*
Y164231D01*
X280804Y164192D01*
X280781Y164131D01*
X280768Y164102D01*
X280754Y164077D01*
X280739Y164052D01*
X280724Y164029D01*
X280710Y164010D01*
X280695Y163991D01*
X280681Y163976D01*
X280668Y163962D01*
X280655Y163949D01*
X280645Y163939D01*
X280635Y163931D01*
X280629Y163926D01*
X280626Y163924D01*
X280624Y163922D01*
X280599Y163904D01*
X280574Y163889D01*
X280547Y163876D01*
X280520Y163864D01*
X280466Y163847D01*
X280416Y163835D01*
X280393Y163831D01*
X280372Y163830D01*
X280353Y163828D01*
X280338Y163826D01*
X280324Y163824D01*
X280305D01*
X280244Y163828D01*
X280186Y163835D01*
X280134Y163849D01*
X280111Y163855D01*
X280090Y163862D01*
X280071Y163870D01*
X280052Y163876D01*
X280036Y163883D01*
X280025Y163889D01*
X280013Y163893D01*
X280006Y163897D01*
X280002Y163901D01*
X280000D01*
X279952Y163931D01*
X279908Y163968D01*
X279871Y164004D01*
X279842Y164041D01*
X279817Y164073D01*
X279808Y164087D01*
X279800Y164098D01*
X279794Y164110D01*
X279790Y164118D01*
X279787Y164121D01*
Y164123D01*
X279762Y164179D01*
X279743Y164239D01*
X279731Y164296D01*
X279721Y164350D01*
X279717Y164375D01*
X279716Y164396D01*
X279714Y164417D01*
Y164434D01*
X279712Y164448D01*
Y164457D01*
Y164465D01*
Y164467D01*
X279714Y164534D01*
X279721Y164596D01*
X279733Y164653D01*
X279739Y164680D01*
X279744Y164703D01*
X279750Y164726D01*
X279756Y164745D01*
X279762Y164763D01*
X279767Y164778D01*
X279771Y164790D01*
X279775Y164797D01*
X279777Y164803D01*
Y164805D01*
X279804Y164861D01*
X279837Y164909D01*
X279867Y164951D01*
X279900Y164983D01*
X279927Y165010D01*
X279950Y165030D01*
X279959Y165035D01*
X279965Y165041D01*
X279969Y165043D01*
X279971Y165045D01*
X279996Y165060D01*
X280023Y165072D01*
X280077Y165093D01*
X280132Y165106D01*
X280186Y165118D01*
X280209Y165120D01*
X280232Y165124D01*
X280251Y165126D01*
X280269D01*
X280284Y165128D01*
X280303D01*
X280340Y165126D01*
D02*
G37*
G36*
X282417D02*
X282455Y165120D01*
X282490Y165110D01*
X282521Y165101D01*
X282544Y165091D01*
X282563Y165081D01*
X282575Y165076D01*
X282578Y165074D01*
X282611Y165051D01*
X282638Y165026D01*
X282663Y165001D01*
X282684Y164976D01*
X282699Y164953D01*
X282711Y164936D01*
X282715Y164928D01*
X282718Y164922D01*
X282720Y164920D01*
Y164918D01*
X282738Y164880D01*
X282751Y164841D01*
X282759Y164803D01*
X282767Y164770D01*
X282770Y164740D01*
Y164728D01*
X282772Y164717D01*
Y164709D01*
Y164703D01*
Y164699D01*
Y164697D01*
X282770Y164665D01*
X282768Y164632D01*
X282763Y164603D01*
X282755Y164575D01*
X282747Y164550D01*
X282738Y164525D01*
X282728Y164504D01*
X282718Y164482D01*
X282707Y164465D01*
X282697Y164450D01*
X282688Y164436D01*
X282680Y164425D01*
X282672Y164415D01*
X282667Y164409D01*
X282665Y164406D01*
X282663Y164404D01*
X282642Y164383D01*
X282621Y164365D01*
X282597Y164350D01*
X282575Y164336D01*
X282553Y164325D01*
X282530Y164317D01*
X282490Y164302D01*
X282453Y164294D01*
X282438Y164292D01*
X282425Y164290D01*
X282413Y164288D01*
X282398D01*
X282365Y164290D01*
X282334Y164294D01*
X282306Y164302D01*
X282281Y164310D01*
X282260Y164317D01*
X282242Y164325D01*
X282233Y164329D01*
X282229Y164331D01*
X282200Y164348D01*
X282173Y164367D01*
X282150Y164388D01*
X282131Y164409D01*
X282114Y164429D01*
X282102Y164444D01*
X282095Y164453D01*
X282092Y164455D01*
Y164423D01*
X282095Y164390D01*
X282096Y164359D01*
X282098Y164331D01*
X282102Y164306D01*
X282106Y164281D01*
X282110Y164260D01*
X282114Y164240D01*
X282118Y164223D01*
X282121Y164208D01*
X282125Y164194D01*
X282129Y164185D01*
X282131Y164177D01*
X282133Y164169D01*
X282135Y164167D01*
Y164166D01*
X282152Y164129D01*
X282171Y164096D01*
X282190Y164070D01*
X282210Y164048D01*
X282225Y164031D01*
X282239Y164018D01*
X282246Y164010D01*
X282250Y164008D01*
X282273Y163995D01*
X282294Y163983D01*
X282317Y163976D01*
X282338Y163972D01*
X282356Y163968D01*
X282369Y163966D01*
X282382D01*
X282415Y163968D01*
X282446Y163976D01*
X282473Y163987D01*
X282496Y163998D01*
X282513Y164012D01*
X282526Y164022D01*
X282536Y164029D01*
X282538Y164033D01*
X282551Y164050D01*
X282563Y164070D01*
X282582Y164114D01*
X282588Y164133D01*
X282594Y164148D01*
X282597Y164160D01*
Y164162D01*
Y164164D01*
X282751Y164152D01*
X282741Y164100D01*
X282724Y164054D01*
X282707Y164016D01*
X282686Y163983D01*
X282667Y163958D01*
X282651Y163939D01*
X282640Y163927D01*
X282638Y163924D01*
X282636D01*
X282617Y163908D01*
X282597Y163895D01*
X282557Y163876D01*
X282517Y163860D01*
X282478Y163849D01*
X282444Y163843D01*
X282429Y163841D01*
X282417D01*
X282405Y163839D01*
X282392D01*
X282356Y163841D01*
X282321Y163845D01*
X282288Y163853D01*
X282258Y163862D01*
X282229Y163874D01*
X282204Y163885D01*
X282179Y163899D01*
X282158Y163912D01*
X282139Y163926D01*
X282121Y163939D01*
X282108Y163951D01*
X282095Y163962D01*
X282085Y163972D01*
X282079Y163979D01*
X282075Y163983D01*
X282073Y163985D01*
X282050Y164018D01*
X282029Y164056D01*
X282012Y164094D01*
X281996Y164139D01*
X281983Y164181D01*
X281972Y164225D01*
X281962Y164269D01*
X281956Y164313D01*
X281950Y164354D01*
X281947Y164392D01*
X281943Y164427D01*
X281941Y164457D01*
X281939Y164482D01*
Y164502D01*
Y164507D01*
Y164513D01*
Y164515D01*
Y164517D01*
X281941Y164576D01*
X281945Y164630D01*
X281950Y164682D01*
X281958Y164728D01*
X281968Y164770D01*
X281977Y164809D01*
X281989Y164843D01*
X282000Y164874D01*
X282010Y164901D01*
X282021Y164924D01*
X282031Y164943D01*
X282041Y164959D01*
X282048Y164970D01*
X282054Y164978D01*
X282058Y164983D01*
X282060Y164985D01*
X282083Y165010D01*
X282108Y165032D01*
X282135Y165051D01*
X282162Y165068D01*
X282189Y165081D01*
X282213Y165093D01*
X282240Y165103D01*
X282265Y165110D01*
X282288Y165116D01*
X282310Y165120D01*
X282329Y165124D01*
X282344Y165126D01*
X282358D01*
X282369Y165128D01*
X282377D01*
X282417Y165126D01*
D02*
G37*
G36*
X281551Y163839D02*
X281449D01*
X281432Y163870D01*
X281411Y163901D01*
X281388Y163929D01*
X281365Y163956D01*
X281344Y163977D01*
X281327Y163995D01*
X281315Y164006D01*
X281313Y164008D01*
X281311Y164010D01*
X281275Y164041D01*
X281236Y164070D01*
X281198Y164094D01*
X281163Y164116D01*
X281133Y164133D01*
X281119Y164139D01*
X281108Y164144D01*
X281100Y164150D01*
X281092Y164154D01*
X281088Y164156D01*
X281086D01*
Y164308D01*
X281113Y164296D01*
X281142Y164283D01*
X281169Y164271D01*
X281194Y164258D01*
X281215Y164246D01*
X281232Y164237D01*
X281244Y164229D01*
X281246Y164227D01*
X281248D01*
X281280Y164208D01*
X281309Y164187D01*
X281334Y164169D01*
X281355Y164152D01*
X281373Y164139D01*
X281386Y164129D01*
X281394Y164121D01*
X281396Y164120D01*
Y165106D01*
X281551D01*
Y163839D01*
D02*
G37*
G36*
X324736Y161305D02*
X324431D01*
X324379Y161397D01*
X324316Y161489D01*
X324246Y161575D01*
X324177Y161656D01*
X324114Y161719D01*
X324062Y161771D01*
X324027Y161806D01*
X324022Y161812D01*
X324016Y161817D01*
X323906Y161909D01*
X323791Y161996D01*
X323676Y162071D01*
X323572Y162134D01*
X323480Y162186D01*
X323440Y162203D01*
X323405Y162221D01*
X323382Y162238D01*
X323359Y162249D01*
X323348Y162255D01*
X323342D01*
Y162710D01*
X323423Y162676D01*
X323509Y162635D01*
X323590Y162601D01*
X323665Y162560D01*
X323728Y162526D01*
X323780Y162497D01*
X323814Y162474D01*
X323820Y162468D01*
X323826D01*
X323924Y162411D01*
X324010Y162347D01*
X324085Y162295D01*
X324148Y162244D01*
X324200Y162203D01*
X324241Y162174D01*
X324264Y162151D01*
X324269Y162146D01*
Y165106D01*
X324736D01*
Y161305D01*
D02*
G37*
G36*
X321798D02*
X321493D01*
X321441Y161397D01*
X321378Y161489D01*
X321309Y161575D01*
X321240Y161656D01*
X321176Y161719D01*
X321124Y161771D01*
X321090Y161806D01*
X321084Y161812D01*
X321078Y161817D01*
X320969Y161909D01*
X320854Y161996D01*
X320739Y162071D01*
X320635Y162134D01*
X320543Y162186D01*
X320502Y162203D01*
X320468Y162221D01*
X320445Y162238D01*
X320422Y162249D01*
X320410Y162255D01*
X320404D01*
Y162710D01*
X320485Y162676D01*
X320571Y162635D01*
X320652Y162601D01*
X320727Y162560D01*
X320790Y162526D01*
X320842Y162497D01*
X320877Y162474D01*
X320883Y162468D01*
X320888D01*
X320986Y162411D01*
X321073Y162347D01*
X321147Y162295D01*
X321211Y162244D01*
X321263Y162203D01*
X321303Y162174D01*
X321326Y162151D01*
X321332Y162146D01*
Y165106D01*
X321798D01*
Y161305D01*
D02*
G37*
G36*
X318469Y165164D02*
X318584Y165147D01*
X318682Y165129D01*
X318769Y165101D01*
X318838Y165077D01*
X318889Y165060D01*
X318924Y165043D01*
X318936Y165037D01*
X319022Y164980D01*
X319103Y164916D01*
X319166Y164853D01*
X319218Y164784D01*
X319252Y164726D01*
X319281Y164680D01*
X319299Y164651D01*
X319304Y164640D01*
X319345Y164536D01*
X319373Y164415D01*
X319391Y164294D01*
X319408Y164173D01*
X319414Y164069D01*
Y164023D01*
X319420Y163983D01*
Y163949D01*
Y163926D01*
Y163908D01*
Y163902D01*
Y161322D01*
X318918D01*
Y163931D01*
Y164047D01*
X318907Y164144D01*
X318901Y164225D01*
X318889Y164294D01*
X318878Y164346D01*
X318872Y164381D01*
X318861Y164404D01*
Y164409D01*
X318838Y164461D01*
X318809Y164507D01*
X318780Y164548D01*
X318745Y164576D01*
X318717Y164605D01*
X318694Y164622D01*
X318676Y164634D01*
X318671Y164640D01*
X318619Y164669D01*
X318567Y164692D01*
X318509Y164703D01*
X318458Y164715D01*
X318417Y164720D01*
X318383Y164726D01*
X318348D01*
X318256Y164720D01*
X318175Y164703D01*
X318106Y164674D01*
X318049Y164646D01*
X318003Y164622D01*
X317974Y164594D01*
X317951Y164576D01*
X317945Y164571D01*
X317922Y164536D01*
X317899Y164496D01*
X317859Y164409D01*
X317830Y164311D01*
X317812Y164208D01*
X317795Y164116D01*
X317789Y164075D01*
Y164041D01*
X317784Y164012D01*
Y163989D01*
Y163977D01*
Y163972D01*
X317334Y164035D01*
Y164139D01*
X317340Y164231D01*
X317352Y164323D01*
X317369Y164404D01*
X317386Y164484D01*
X317409Y164553D01*
X317432Y164617D01*
X317455Y164674D01*
X317478Y164720D01*
X317507Y164767D01*
X317524Y164801D01*
X317547Y164836D01*
X317565Y164859D01*
X317576Y164876D01*
X317588Y164882D01*
Y164887D01*
X317640Y164939D01*
X317697Y164980D01*
X317755Y165020D01*
X317818Y165049D01*
X317945Y165101D01*
X318066Y165135D01*
X318175Y165152D01*
X318227Y165158D01*
X318267Y165164D01*
X318302Y165170D01*
X318348D01*
X318469Y165164D01*
D02*
G37*
G36*
X11867Y95988D02*
X11888D01*
X11913Y95986D01*
X11940Y95984D01*
X11998Y95978D01*
X12057Y95970D01*
X12117Y95959D01*
X12144Y95951D01*
X12171Y95943D01*
X12173D01*
X12176Y95942D01*
X12184Y95940D01*
X12194Y95936D01*
X12205Y95930D01*
X12217Y95924D01*
X12247Y95909D01*
X12282Y95890D01*
X12316Y95867D01*
X12351Y95840D01*
X12382Y95807D01*
Y95805D01*
X12386Y95803D01*
X12388Y95798D01*
X12393Y95792D01*
X12405Y95771D01*
X12418Y95746D01*
X12432Y95711D01*
X12443Y95673D01*
X12451Y95629D01*
X12455Y95579D01*
Y95561D01*
X12453Y95548D01*
X12451Y95533D01*
X12447Y95515D01*
X12443Y95496D01*
X12439Y95475D01*
X12424Y95429D01*
X12412Y95404D01*
X12401Y95381D01*
X12386Y95356D01*
X12368Y95333D01*
X12349Y95312D01*
X12326Y95291D01*
X12324Y95289D01*
X12318Y95285D01*
X12309Y95279D01*
X12295Y95271D01*
X12278Y95262D01*
X12257Y95252D01*
X12232Y95241D01*
X12201Y95229D01*
X12169Y95218D01*
X12130Y95206D01*
X12088Y95197D01*
X12042Y95187D01*
X11990Y95179D01*
X11936Y95174D01*
X11875Y95170D01*
X11812Y95168D01*
X11810D01*
X11802D01*
X11790D01*
X11775D01*
X11756Y95170D01*
X11735D01*
X11710Y95172D01*
X11683Y95174D01*
X11625Y95179D01*
X11566Y95187D01*
X11506Y95197D01*
X11479Y95204D01*
X11452Y95212D01*
X11451D01*
X11447Y95214D01*
X11439Y95218D01*
X11429Y95222D01*
X11418Y95226D01*
X11405Y95231D01*
X11374Y95247D01*
X11339Y95266D01*
X11305Y95289D01*
X11272Y95316D01*
X11241Y95348D01*
Y95350D01*
X11237Y95352D01*
X11234Y95358D01*
X11230Y95366D01*
X11218Y95385D01*
X11203Y95412D01*
X11190Y95444D01*
X11178Y95485D01*
X11170Y95529D01*
X11167Y95579D01*
Y95596D01*
X11168Y95615D01*
X11172Y95638D01*
X11176Y95665D01*
X11184Y95696D01*
X11195Y95727D01*
X11209Y95755D01*
X11211Y95759D01*
X11216Y95769D01*
X11226Y95782D01*
X11237Y95801D01*
X11255Y95821D01*
X11276Y95842D01*
X11299Y95863D01*
X11326Y95882D01*
X11330Y95884D01*
X11339Y95890D01*
X11356Y95899D01*
X11378Y95911D01*
X11405Y95922D01*
X11437Y95936D01*
X11474Y95949D01*
X11514Y95961D01*
X11516D01*
X11520Y95963D01*
X11525D01*
X11535Y95965D01*
X11545Y95969D01*
X11558Y95970D01*
X11575Y95972D01*
X11593Y95976D01*
X11614Y95978D01*
X11635Y95980D01*
X11660Y95984D01*
X11687Y95986D01*
X11716Y95988D01*
X11744D01*
X11812Y95990D01*
X11813D01*
X11821D01*
X11833D01*
X11848D01*
X11867Y95988D01*
D02*
G37*
G36*
X12434Y94617D02*
X11447D01*
X11449Y94615D01*
X11456Y94607D01*
X11466Y94594D01*
X11479Y94577D01*
X11497Y94555D01*
X11514Y94530D01*
X11535Y94502D01*
X11554Y94469D01*
Y94467D01*
X11556Y94465D01*
X11564Y94454D01*
X11574Y94436D01*
X11585Y94415D01*
X11598Y94390D01*
X11610Y94363D01*
X11623Y94335D01*
X11635Y94308D01*
X11483D01*
Y94310D01*
X11481Y94314D01*
X11478Y94321D01*
X11472Y94329D01*
X11466Y94340D01*
X11460Y94354D01*
X11443Y94384D01*
X11422Y94419D01*
X11397Y94457D01*
X11368Y94496D01*
X11337Y94532D01*
X11335Y94534D01*
X11333Y94536D01*
X11322Y94548D01*
X11305Y94565D01*
X11284Y94586D01*
X11257Y94609D01*
X11228Y94632D01*
X11197Y94653D01*
X11167Y94671D01*
Y94772D01*
X12434D01*
Y94617D01*
D02*
G37*
G36*
X12073Y93977D02*
X12088D01*
X12123Y93976D01*
X12163Y93970D01*
X12203Y93964D01*
X12244Y93954D01*
X12278Y93941D01*
X12282Y93939D01*
X12292Y93933D01*
X12307Y93924D01*
X12326Y93912D01*
X12349Y93895D01*
X12370Y93874D01*
X12391Y93847D01*
X12411Y93818D01*
X12412Y93814D01*
X12418Y93803D01*
X12424Y93786D01*
X12432Y93762D01*
X12441Y93734D01*
X12447Y93701D01*
X12453Y93663D01*
X12455Y93622D01*
Y93607D01*
X12453Y93595D01*
X12451Y93582D01*
X12449Y93565D01*
X12443Y93528D01*
X12432Y93488D01*
X12414Y93446D01*
X12405Y93424D01*
X12391Y93405D01*
X12378Y93386D01*
X12361Y93369D01*
X12359D01*
X12357Y93365D01*
X12351Y93361D01*
X12343Y93355D01*
X12332Y93348D01*
X12320Y93342D01*
X12305Y93332D01*
X12290Y93325D01*
X12270Y93317D01*
X12249Y93309D01*
X12226Y93302D01*
X12199Y93296D01*
X12173Y93290D01*
X12142Y93286D01*
X12111Y93284D01*
X12077D01*
X12055Y93434D01*
X12057D01*
X12061D01*
X12069D01*
X12078Y93436D01*
X12090D01*
X12103Y93438D01*
X12134Y93444D01*
X12169Y93449D01*
X12201Y93459D01*
X12230Y93472D01*
X12244Y93480D01*
X12255Y93488D01*
X12257Y93490D01*
X12263Y93498D01*
X12272Y93507D01*
X12280Y93522D01*
X12290Y93542D01*
X12299Y93565D01*
X12305Y93591D01*
X12307Y93622D01*
Y93634D01*
X12305Y93645D01*
X12303Y93659D01*
X12299Y93676D01*
X12295Y93695D01*
X12288Y93713D01*
X12278Y93730D01*
X12276Y93732D01*
X12272Y93738D01*
X12267Y93745D01*
X12257Y93755D01*
X12247Y93766D01*
X12234Y93776D01*
X12219Y93786D01*
X12201Y93793D01*
X12199D01*
X12192Y93797D01*
X12180Y93799D01*
X12163Y93803D01*
X12140Y93807D01*
X12113Y93809D01*
X12080Y93812D01*
X12042D01*
X11172D01*
Y93979D01*
X12032D01*
X12034D01*
X12040D01*
X12048D01*
X12059D01*
X12073Y93977D01*
D02*
G37*
G36*
X63256Y53518D02*
X63272Y53516D01*
X63291Y53514D01*
X63312Y53512D01*
X63335Y53508D01*
X63385Y53497D01*
X63439Y53479D01*
X63466Y53468D01*
X63493Y53454D01*
X63517Y53439D01*
X63542Y53422D01*
X63544Y53420D01*
X63548Y53418D01*
X63554Y53412D01*
X63564Y53404D01*
X63573Y53395D01*
X63587Y53382D01*
X63600Y53368D01*
X63613Y53353D01*
X63629Y53333D01*
X63642Y53314D01*
X63658Y53291D01*
X63673Y53266D01*
X63687Y53241D01*
X63700Y53212D01*
X63723Y53151D01*
X63558Y53113D01*
Y53115D01*
X63556Y53118D01*
X63554Y53126D01*
X63550Y53136D01*
X63544Y53147D01*
X63539Y53161D01*
X63525Y53189D01*
X63508Y53222D01*
X63485Y53257D01*
X63460Y53287D01*
X63429Y53314D01*
X63425Y53316D01*
X63414Y53324D01*
X63397Y53333D01*
X63372Y53347D01*
X63343Y53359D01*
X63306Y53368D01*
X63266Y53376D01*
X63220Y53378D01*
X63206D01*
X63197Y53376D01*
X63183D01*
X63170Y53374D01*
X63135Y53368D01*
X63097Y53360D01*
X63057Y53347D01*
X63016Y53330D01*
X62978Y53307D01*
X62976D01*
X62974Y53303D01*
X62963Y53293D01*
X62945Y53278D01*
X62924Y53257D01*
X62903Y53230D01*
X62880Y53199D01*
X62859Y53161D01*
X62842Y53118D01*
Y53117D01*
X62840Y53113D01*
X62838Y53107D01*
X62836Y53097D01*
X62832Y53088D01*
X62830Y53074D01*
X62823Y53044D01*
X62815Y53007D01*
X62809Y52967D01*
X62805Y52923D01*
X62803Y52877D01*
Y52875D01*
Y52869D01*
Y52861D01*
Y52850D01*
X62805Y52836D01*
Y52819D01*
X62807Y52802D01*
X62809Y52782D01*
X62815Y52738D01*
X62823Y52690D01*
X62834Y52642D01*
X62849Y52596D01*
Y52594D01*
X62851Y52590D01*
X62855Y52585D01*
X62859Y52577D01*
X62869Y52554D01*
X62884Y52529D01*
X62905Y52498D01*
X62930Y52469D01*
X62959Y52441D01*
X62993Y52416D01*
X62995D01*
X62997Y52414D01*
X63003Y52410D01*
X63011Y52406D01*
X63032Y52399D01*
X63059Y52387D01*
X63089Y52377D01*
X63126Y52368D01*
X63166Y52360D01*
X63208Y52358D01*
X63222D01*
X63231Y52360D01*
X63243D01*
X63258Y52362D01*
X63291Y52368D01*
X63327Y52377D01*
X63368Y52393D01*
X63406Y52412D01*
X63445Y52439D01*
X63446Y52441D01*
X63448Y52443D01*
X63460Y52454D01*
X63477Y52473D01*
X63498Y52498D01*
X63520Y52533D01*
X63542Y52573D01*
X63562Y52623D01*
X63577Y52679D01*
X63744Y52636D01*
Y52635D01*
X63742Y52627D01*
X63738Y52617D01*
X63735Y52602D01*
X63727Y52587D01*
X63719Y52565D01*
X63712Y52544D01*
X63700Y52521D01*
X63675Y52469D01*
X63640Y52418D01*
X63602Y52368D01*
X63579Y52345D01*
X63554Y52324D01*
X63552Y52322D01*
X63548Y52320D01*
X63541Y52314D01*
X63529Y52306D01*
X63516Y52299D01*
X63500Y52289D01*
X63483Y52279D01*
X63462Y52270D01*
X63439Y52260D01*
X63414Y52251D01*
X63385Y52241D01*
X63356Y52233D01*
X63293Y52220D01*
X63258Y52218D01*
X63222Y52216D01*
X63203D01*
X63187Y52218D01*
X63170D01*
X63151Y52220D01*
X63128Y52224D01*
X63105Y52226D01*
X63051Y52237D01*
X62995Y52251D01*
X62941Y52272D01*
X62915Y52283D01*
X62890Y52299D01*
X62888Y52301D01*
X62884Y52302D01*
X62878Y52308D01*
X62869Y52314D01*
X62845Y52333D01*
X62819Y52360D01*
X62786Y52393D01*
X62755Y52435D01*
X62723Y52483D01*
X62696Y52539D01*
Y52540D01*
X62694Y52546D01*
X62690Y52554D01*
X62686Y52565D01*
X62680Y52581D01*
X62675Y52598D01*
X62669Y52617D01*
X62663Y52640D01*
X62657Y52663D01*
X62652Y52690D01*
X62640Y52748D01*
X62632Y52809D01*
X62630Y52877D01*
Y52878D01*
Y52886D01*
Y52896D01*
X62632Y52909D01*
Y52926D01*
X62634Y52948D01*
X62636Y52969D01*
X62640Y52994D01*
X62650Y53047D01*
X62661Y53105D01*
X62680Y53164D01*
X62705Y53220D01*
Y53222D01*
X62709Y53226D01*
X62713Y53234D01*
X62719Y53245D01*
X62726Y53257D01*
X62736Y53270D01*
X62761Y53303D01*
X62790Y53339D01*
X62826Y53376D01*
X62871Y53412D01*
X62919Y53443D01*
X62920D01*
X62924Y53447D01*
X62932Y53451D01*
X62944Y53454D01*
X62955Y53460D01*
X62970Y53468D01*
X62989Y53474D01*
X63009Y53481D01*
X63030Y53489D01*
X63053Y53495D01*
X63105Y53508D01*
X63162Y53516D01*
X63224Y53520D01*
X63243D01*
X63256Y53518D01*
D02*
G37*
G36*
X65313Y53502D02*
X65328Y53500D01*
X65345Y53499D01*
X65365Y53497D01*
X65386Y53491D01*
X65432Y53479D01*
X65480Y53462D01*
X65505Y53451D01*
X65528Y53437D01*
X65549Y53420D01*
X65570Y53403D01*
X65572Y53401D01*
X65574Y53399D01*
X65580Y53393D01*
X65587Y53385D01*
X65595Y53374D01*
X65605Y53362D01*
X65624Y53333D01*
X65643Y53297D01*
X65660Y53255D01*
X65674Y53207D01*
X65676Y53180D01*
X65677Y53153D01*
Y53149D01*
Y53140D01*
X65676Y53124D01*
X65674Y53105D01*
X65670Y53082D01*
X65664Y53057D01*
X65656Y53030D01*
X65645Y53003D01*
X65643Y52999D01*
X65639Y52990D01*
X65632Y52976D01*
X65620Y52957D01*
X65606Y52934D01*
X65589Y52907D01*
X65566Y52880D01*
X65541Y52850D01*
X65537Y52846D01*
X65528Y52834D01*
X65510Y52817D01*
X65499Y52806D01*
X65486Y52792D01*
X65470Y52777D01*
X65451Y52759D01*
X65432Y52742D01*
X65411Y52721D01*
X65388Y52700D01*
X65361Y52677D01*
X65334Y52654D01*
X65303Y52627D01*
X65301Y52625D01*
X65297Y52621D01*
X65290Y52615D01*
X65280Y52608D01*
X65257Y52588D01*
X65228Y52564D01*
X65200Y52537D01*
X65169Y52510D01*
X65144Y52487D01*
X65134Y52477D01*
X65125Y52468D01*
X65123Y52466D01*
X65119Y52460D01*
X65111Y52452D01*
X65101Y52441D01*
X65080Y52416D01*
X65059Y52385D01*
X65680D01*
Y52237D01*
X64844D01*
Y52239D01*
Y52247D01*
Y52258D01*
X64846Y52272D01*
X64848Y52287D01*
X64850Y52304D01*
X64856Y52324D01*
X64862Y52343D01*
Y52345D01*
X64864Y52347D01*
X64867Y52358D01*
X64875Y52373D01*
X64886Y52397D01*
X64900Y52421D01*
X64919Y52450D01*
X64938Y52479D01*
X64963Y52510D01*
Y52512D01*
X64967Y52514D01*
X64977Y52525D01*
X64992Y52542D01*
X65015Y52565D01*
X65044Y52592D01*
X65079Y52625D01*
X65121Y52662D01*
X65167Y52702D01*
X65169Y52704D01*
X65176Y52710D01*
X65186Y52717D01*
X65200Y52731D01*
X65217Y52744D01*
X65236Y52761D01*
X65278Y52798D01*
X65324Y52842D01*
X65370Y52886D01*
X65393Y52907D01*
X65413Y52928D01*
X65430Y52950D01*
X65445Y52969D01*
Y52971D01*
X65449Y52973D01*
X65453Y52978D01*
X65457Y52986D01*
X65468Y53005D01*
X65482Y53030D01*
X65495Y53059D01*
X65507Y53090D01*
X65514Y53124D01*
X65518Y53157D01*
Y53159D01*
Y53161D01*
X65516Y53172D01*
X65514Y53189D01*
X65510Y53211D01*
X65501Y53236D01*
X65489Y53260D01*
X65474Y53287D01*
X65451Y53312D01*
X65447Y53314D01*
X65439Y53322D01*
X65424Y53332D01*
X65405Y53345D01*
X65380Y53356D01*
X65351Y53366D01*
X65317Y53374D01*
X65278Y53376D01*
X65267D01*
X65259Y53374D01*
X65240Y53372D01*
X65215Y53368D01*
X65186Y53359D01*
X65155Y53347D01*
X65127Y53330D01*
X65100Y53307D01*
X65098Y53303D01*
X65090Y53295D01*
X65079Y53280D01*
X65067Y53259D01*
X65053Y53232D01*
X65044Y53201D01*
X65036Y53164D01*
X65032Y53122D01*
X64873Y53140D01*
Y53141D01*
Y53147D01*
X64875Y53157D01*
X64877Y53168D01*
X64881Y53184D01*
X64883Y53201D01*
X64894Y53239D01*
X64909Y53284D01*
X64931Y53328D01*
X64960Y53372D01*
X64975Y53391D01*
X64994Y53410D01*
X64996Y53412D01*
X65000Y53414D01*
X65005Y53420D01*
X65013Y53426D01*
X65025Y53431D01*
X65038Y53441D01*
X65053Y53449D01*
X65071Y53458D01*
X65090Y53466D01*
X65111Y53476D01*
X65136Y53483D01*
X65161Y53489D01*
X65219Y53500D01*
X65249Y53502D01*
X65282Y53504D01*
X65299D01*
X65313Y53502D01*
D02*
G37*
G36*
X64470Y52237D02*
X64314D01*
Y53224D01*
X64312Y53222D01*
X64305Y53214D01*
X64291Y53205D01*
X64274Y53191D01*
X64253Y53174D01*
X64228Y53157D01*
X64199Y53136D01*
X64166Y53117D01*
X64165D01*
X64163Y53115D01*
X64151Y53107D01*
X64134Y53097D01*
X64113Y53086D01*
X64088Y53072D01*
X64061Y53061D01*
X64032Y53047D01*
X64005Y53036D01*
Y53188D01*
X64007D01*
X64011Y53189D01*
X64019Y53193D01*
X64026Y53199D01*
X64038Y53205D01*
X64051Y53211D01*
X64082Y53228D01*
X64117Y53249D01*
X64155Y53274D01*
X64193Y53303D01*
X64230Y53333D01*
X64232Y53335D01*
X64234Y53337D01*
X64245Y53349D01*
X64262Y53366D01*
X64284Y53387D01*
X64307Y53414D01*
X64330Y53443D01*
X64351Y53474D01*
X64368Y53504D01*
X64470D01*
Y52237D01*
D02*
G37*
G36*
X12025Y81906D02*
X12023D01*
X12019D01*
X12011D01*
X12001Y81905D01*
X11990D01*
X11976Y81903D01*
X11946Y81897D01*
X11911Y81891D01*
X11879Y81881D01*
X11850Y81868D01*
X11836Y81860D01*
X11825Y81853D01*
X11823Y81851D01*
X11817Y81843D01*
X11807Y81833D01*
X11800Y81818D01*
X11790Y81799D01*
X11781Y81776D01*
X11775Y81749D01*
X11773Y81718D01*
Y81707D01*
X11775Y81695D01*
X11777Y81682D01*
X11781Y81665D01*
X11784Y81645D01*
X11792Y81628D01*
X11802Y81611D01*
X11804Y81609D01*
X11807Y81603D01*
X11813Y81595D01*
X11823Y81586D01*
X11833Y81574D01*
X11846Y81565D01*
X11861Y81555D01*
X11879Y81547D01*
X11880D01*
X11888Y81543D01*
X11900Y81542D01*
X11917Y81538D01*
X11940Y81534D01*
X11967Y81532D01*
X11999Y81528D01*
X12038D01*
X12908D01*
Y81361D01*
X12048D01*
X12046D01*
X12040D01*
X12032D01*
X12021D01*
X12007Y81363D01*
X11992D01*
X11957Y81365D01*
X11917Y81371D01*
X11877Y81376D01*
X11836Y81386D01*
X11802Y81400D01*
X11798Y81401D01*
X11788Y81407D01*
X11773Y81417D01*
X11754Y81428D01*
X11731Y81446D01*
X11710Y81467D01*
X11688Y81494D01*
X11669Y81522D01*
X11667Y81526D01*
X11662Y81538D01*
X11656Y81555D01*
X11648Y81578D01*
X11639Y81607D01*
X11633Y81639D01*
X11627Y81678D01*
X11625Y81718D01*
Y81734D01*
X11627Y81745D01*
X11629Y81759D01*
X11631Y81776D01*
X11637Y81812D01*
X11648Y81853D01*
X11665Y81895D01*
X11675Y81916D01*
X11688Y81935D01*
X11702Y81954D01*
X11719Y81972D01*
X11721D01*
X11723Y81976D01*
X11729Y81979D01*
X11737Y81985D01*
X11748Y81993D01*
X11760Y81999D01*
X11775Y82008D01*
X11790Y82016D01*
X11809Y82024D01*
X11831Y82031D01*
X11854Y82039D01*
X11880Y82045D01*
X11907Y82050D01*
X11938Y82054D01*
X11969Y82056D01*
X12003D01*
X12025Y81906D01*
D02*
G37*
G36*
X12906Y80628D02*
Y80501D01*
X12090D01*
Y80330D01*
X11948D01*
Y80501D01*
X11646D01*
Y80656D01*
X11948D01*
Y81204D01*
X12090D01*
X12906Y80628D01*
D02*
G37*
G36*
X12025Y59072D02*
X12023D01*
X12019D01*
X12011D01*
X12001Y59070D01*
X11990D01*
X11976Y59068D01*
X11946Y59062D01*
X11911Y59056D01*
X11879Y59047D01*
X11850Y59033D01*
X11836Y59026D01*
X11825Y59018D01*
X11823Y59016D01*
X11817Y59008D01*
X11807Y58999D01*
X11800Y58983D01*
X11790Y58964D01*
X11781Y58941D01*
X11775Y58914D01*
X11773Y58884D01*
Y58872D01*
X11775Y58861D01*
X11777Y58847D01*
X11781Y58830D01*
X11784Y58811D01*
X11792Y58793D01*
X11802Y58776D01*
X11804Y58774D01*
X11807Y58768D01*
X11813Y58761D01*
X11823Y58751D01*
X11833Y58740D01*
X11846Y58730D01*
X11861Y58720D01*
X11879Y58713D01*
X11880D01*
X11888Y58709D01*
X11900Y58707D01*
X11917Y58703D01*
X11940Y58699D01*
X11967Y58697D01*
X11999Y58693D01*
X12038D01*
X12908D01*
Y58526D01*
X12048D01*
X12046D01*
X12040D01*
X12032D01*
X12021D01*
X12007Y58528D01*
X11992D01*
X11957Y58530D01*
X11917Y58536D01*
X11877Y58542D01*
X11836Y58551D01*
X11802Y58565D01*
X11798Y58567D01*
X11788Y58573D01*
X11773Y58582D01*
X11754Y58594D01*
X11731Y58611D01*
X11710Y58632D01*
X11688Y58659D01*
X11669Y58688D01*
X11667Y58692D01*
X11662Y58703D01*
X11656Y58720D01*
X11648Y58743D01*
X11639Y58772D01*
X11633Y58805D01*
X11627Y58843D01*
X11625Y58884D01*
Y58899D01*
X11627Y58911D01*
X11629Y58924D01*
X11631Y58941D01*
X11637Y58978D01*
X11648Y59018D01*
X11665Y59060D01*
X11675Y59081D01*
X11688Y59101D01*
X11702Y59120D01*
X11719Y59137D01*
X11721D01*
X11723Y59141D01*
X11729Y59145D01*
X11737Y59150D01*
X11748Y59158D01*
X11760Y59164D01*
X11775Y59174D01*
X11790Y59181D01*
X11809Y59189D01*
X11831Y59197D01*
X11854Y59204D01*
X11880Y59210D01*
X11907Y59216D01*
X11938Y59220D01*
X11969Y59222D01*
X12003D01*
X12025Y59072D01*
D02*
G37*
G36*
X12520Y58315D02*
X12535Y58313D01*
X12554Y58311D01*
X12575Y58308D01*
X12599Y58304D01*
X12647Y58290D01*
X12673Y58281D01*
X12698Y58269D01*
X12725Y58258D01*
X12750Y58242D01*
X12773Y58225D01*
X12796Y58206D01*
X12798Y58204D01*
X12802Y58200D01*
X12808Y58194D01*
X12815Y58185D01*
X12823Y58175D01*
X12833Y58162D01*
X12844Y58146D01*
X12856Y58127D01*
X12866Y58108D01*
X12877Y58087D01*
X12896Y58039D01*
X12902Y58012D01*
X12908Y57983D01*
X12912Y57952D01*
X12913Y57922D01*
Y57910D01*
X12912Y57901D01*
Y57891D01*
X12910Y57877D01*
X12906Y57847D01*
X12896Y57812D01*
X12885Y57776D01*
X12869Y57736D01*
X12846Y57697D01*
Y57695D01*
X12842Y57693D01*
X12839Y57687D01*
X12835Y57680D01*
X12819Y57662D01*
X12798Y57639D01*
X12769Y57614D01*
X12739Y57588D01*
X12700Y57563D01*
X12656Y57542D01*
X12654D01*
X12650Y57540D01*
X12643Y57536D01*
X12633Y57534D01*
X12622Y57528D01*
X12606Y57524D01*
X12587Y57520D01*
X12566Y57515D01*
X12543Y57509D01*
X12516Y57505D01*
X12487Y57499D01*
X12456Y57495D01*
X12422Y57494D01*
X12386Y57490D01*
X12345Y57488D01*
X12303D01*
X12301D01*
X12291D01*
X12280D01*
X12263D01*
X12243Y57490D01*
X12218D01*
X12193Y57492D01*
X12165Y57494D01*
X12103Y57501D01*
X12038Y57511D01*
X11975Y57524D01*
X11946Y57532D01*
X11917Y57542D01*
X11915D01*
X11911Y57543D01*
X11903Y57547D01*
X11894Y57551D01*
X11880Y57557D01*
X11867Y57563D01*
X11836Y57580D01*
X11800Y57603D01*
X11763Y57630D01*
X11729Y57661D01*
X11698Y57697D01*
Y57699D01*
X11694Y57701D01*
X11692Y57707D01*
X11687Y57716D01*
X11681Y57726D01*
X11675Y57737D01*
X11662Y57766D01*
X11648Y57803D01*
X11637Y57843D01*
X11629Y57891D01*
X11625Y57941D01*
Y57954D01*
X11627Y57966D01*
Y57977D01*
X11629Y57993D01*
X11635Y58027D01*
X11644Y58066D01*
X11660Y58106D01*
X11679Y58144D01*
X11706Y58183D01*
X11708Y58185D01*
X11710Y58187D01*
X11721Y58198D01*
X11740Y58214D01*
X11765Y58233D01*
X11798Y58252D01*
X11838Y58269D01*
X11884Y58285D01*
X11938Y58294D01*
X11950Y58146D01*
X11948D01*
X11946D01*
X11940Y58144D01*
X11932Y58143D01*
X11913Y58139D01*
X11892Y58131D01*
X11867Y58121D01*
X11842Y58110D01*
X11817Y58095D01*
X11798Y58075D01*
X11796Y58073D01*
X11790Y58066D01*
X11783Y58054D01*
X11775Y58037D01*
X11767Y58018D01*
X11760Y57995D01*
X11754Y57968D01*
X11752Y57937D01*
Y57925D01*
X11754Y57912D01*
X11756Y57895D01*
X11760Y57876D01*
X11765Y57854D01*
X11773Y57833D01*
X11784Y57812D01*
X11786Y57810D01*
X11790Y57803D01*
X11798Y57793D01*
X11807Y57781D01*
X11819Y57766D01*
X11834Y57753D01*
X11852Y57737D01*
X11871Y57724D01*
X11873Y57722D01*
X11880Y57718D01*
X11894Y57712D01*
X11911Y57703D01*
X11932Y57695D01*
X11957Y57686D01*
X11986Y57676D01*
X12019Y57666D01*
X12021D01*
X12023Y57664D01*
X12028D01*
X12034Y57662D01*
X12053Y57659D01*
X12078Y57655D01*
X12107Y57651D01*
X12138Y57647D01*
X12172Y57643D01*
X12209D01*
X12211D01*
X12217D01*
X12226D01*
X12240D01*
X12236Y57645D01*
X12228Y57653D01*
X12213Y57662D01*
X12197Y57678D01*
X12178Y57695D01*
X12157Y57718D01*
X12138Y57743D01*
X12119Y57772D01*
X12117Y57776D01*
X12111Y57785D01*
X12105Y57803D01*
X12098Y57824D01*
X12088Y57849D01*
X12082Y57877D01*
X12076Y57910D01*
X12074Y57945D01*
Y57960D01*
X12076Y57972D01*
X12078Y57985D01*
X12080Y58000D01*
X12088Y58037D01*
X12101Y58079D01*
X12111Y58100D01*
X12122Y58123D01*
X12136Y58144D01*
X12151Y58167D01*
X12168Y58189D01*
X12188Y58210D01*
X12190Y58212D01*
X12193Y58214D01*
X12199Y58219D01*
X12209Y58227D01*
X12220Y58235D01*
X12234Y58244D01*
X12249Y58254D01*
X12268Y58263D01*
X12287Y58273D01*
X12311Y58283D01*
X12336Y58292D01*
X12362Y58300D01*
X12391Y58308D01*
X12420Y58313D01*
X12453Y58315D01*
X12487Y58317D01*
X12489D01*
X12495D01*
X12506D01*
X12520Y58315D01*
D02*
G37*
%LPC*%
G36*
X282382Y165001D02*
X282373D01*
X282348Y164999D01*
X282325Y164995D01*
X282302Y164989D01*
X282283Y164981D01*
X282267Y164976D01*
X282256Y164970D01*
X282246Y164966D01*
X282244Y164964D01*
X282223Y164949D01*
X282204Y164930D01*
X282189Y164912D01*
X282175Y164893D01*
X282164Y164878D01*
X282156Y164864D01*
X282152Y164857D01*
X282150Y164853D01*
X282139Y164824D01*
X282131Y164797D01*
X282125Y164772D01*
X282121Y164747D01*
X282119Y164728D01*
X282118Y164713D01*
Y164703D01*
Y164699D01*
X282121Y164655D01*
X282129Y164617D01*
X282140Y164582D01*
X282154Y164553D01*
X282167Y164532D01*
X282179Y164515D01*
X282187Y164505D01*
X282190Y164502D01*
X282219Y164477D01*
X282248Y164457D01*
X282279Y164444D01*
X282306Y164434D01*
X282331Y164429D01*
X282350Y164427D01*
X282358Y164425D01*
X282367D01*
X282405Y164429D01*
X282440Y164436D01*
X282471Y164450D01*
X282496Y164463D01*
X282517Y164477D01*
X282532Y164490D01*
X282540Y164498D01*
X282544Y164502D01*
X282567Y164532D01*
X282584Y164565D01*
X282596Y164600D01*
X282605Y164632D01*
X282609Y164661D01*
X282611Y164674D01*
Y164686D01*
X282613Y164694D01*
Y164701D01*
Y164705D01*
Y164707D01*
X282609Y164755D01*
X282601Y164797D01*
X282590Y164836D01*
X282578Y164866D01*
X282565Y164889D01*
X282553Y164907D01*
X282546Y164918D01*
X282542Y164922D01*
X282515Y164949D01*
X282486Y164968D01*
X282457Y164981D01*
X282432Y164991D01*
X282407Y164997D01*
X282390Y164999D01*
X282382Y165001D01*
D02*
G37*
G36*
X11867Y95830D02*
X11812D01*
X11808D01*
X11798D01*
X11783D01*
X11762Y95828D01*
X11737D01*
X11708Y95826D01*
X11677Y95824D01*
X11643Y95821D01*
X11574Y95813D01*
X11506Y95799D01*
X11474Y95792D01*
X11445Y95782D01*
X11420Y95771D01*
X11399Y95757D01*
X11397D01*
X11395Y95753D01*
X11383Y95744D01*
X11366Y95728D01*
X11347Y95707D01*
X11328Y95680D01*
X11310Y95650D01*
X11299Y95615D01*
X11297Y95596D01*
X11295Y95577D01*
Y95567D01*
X11297Y95560D01*
X11299Y95540D01*
X11307Y95515D01*
X11318Y95489D01*
X11333Y95460D01*
X11356Y95431D01*
X11372Y95417D01*
X11387Y95406D01*
X11389D01*
X11393Y95402D01*
X11401Y95398D01*
X11410Y95394D01*
X11424Y95389D01*
X11439Y95381D01*
X11460Y95373D01*
X11483Y95367D01*
X11510Y95360D01*
X11541Y95352D01*
X11575Y95346D01*
X11616Y95339D01*
X11658Y95335D01*
X11704Y95331D01*
X11756Y95327D01*
X11812D01*
X11815D01*
X11825D01*
X11840D01*
X11862Y95329D01*
X11886D01*
X11915Y95331D01*
X11948Y95333D01*
X11981Y95337D01*
X12050Y95345D01*
X12119Y95358D01*
X12150Y95366D01*
X12178Y95375D01*
X12205Y95387D01*
X12226Y95398D01*
X12228D01*
X12230Y95402D01*
X12242Y95412D01*
X12259Y95427D01*
X12276Y95448D01*
X12295Y95475D01*
X12313Y95506D01*
X12324Y95540D01*
X12326Y95560D01*
X12328Y95579D01*
Y95588D01*
X12326Y95596D01*
X12322Y95615D01*
X12315Y95640D01*
X12303Y95669D01*
X12286Y95698D01*
X12274Y95713D01*
X12259Y95728D01*
X12244Y95744D01*
X12226Y95757D01*
X12224D01*
X12220Y95761D01*
X12215Y95765D01*
X12205Y95769D01*
X12194Y95775D01*
X12176Y95780D01*
X12157Y95786D01*
X12136Y95794D01*
X12109Y95801D01*
X12080Y95807D01*
X12046Y95813D01*
X12007Y95819D01*
X11965Y95824D01*
X11919Y95826D01*
X11867Y95830D01*
D02*
G37*
G36*
X12090Y81052D02*
Y80656D01*
X12654D01*
X12090Y81052D01*
D02*
G37*
G36*
X12481Y58158D02*
X12479D01*
X12476D01*
X12470D01*
X12462Y58156D01*
X12439Y58154D01*
X12412Y58148D01*
X12380Y58141D01*
X12347Y58127D01*
X12316Y58110D01*
X12286Y58087D01*
X12282Y58083D01*
X12274Y58073D01*
X12263Y58058D01*
X12249Y58037D01*
X12234Y58010D01*
X12222Y57979D01*
X12215Y57945D01*
X12211Y57906D01*
Y57897D01*
X12213Y57889D01*
X12215Y57870D01*
X12220Y57845D01*
X12230Y57818D01*
X12241Y57787D01*
X12261Y57758D01*
X12286Y57732D01*
X12289Y57728D01*
X12299Y57720D01*
X12316Y57709D01*
X12339Y57695D01*
X12370Y57684D01*
X12405Y57672D01*
X12447Y57664D01*
X12493Y57661D01*
X12495D01*
X12499D01*
X12506D01*
X12516Y57662D01*
X12528D01*
X12539Y57664D01*
X12570Y57670D01*
X12604Y57678D01*
X12639Y57691D01*
X12673Y57709D01*
X12706Y57732D01*
X12710Y57736D01*
X12718Y57745D01*
X12731Y57758D01*
X12746Y57780D01*
X12760Y57805D01*
X12773Y57833D01*
X12781Y57866D01*
X12785Y57902D01*
Y57912D01*
X12783Y57920D01*
X12781Y57939D01*
X12775Y57964D01*
X12764Y57993D01*
X12748Y58021D01*
X12729Y58052D01*
X12716Y58068D01*
X12700Y58083D01*
X12697Y58087D01*
X12685Y58095D01*
X12666Y58106D01*
X12641Y58119D01*
X12610Y58135D01*
X12572Y58146D01*
X12529Y58154D01*
X12481Y58158D01*
D02*
G37*
%LPD*%
D14*
X116982Y37009D02*
X117901D01*
X117441D01*
Y39305D01*
X117901Y39764D01*
X118360D01*
X118819Y39305D01*
X116064Y39764D02*
X115146D01*
X115605D01*
Y37009D01*
X116064Y37468D01*
X271392D02*
X271851Y37009D01*
X272769D01*
X273228Y37468D01*
Y39305D01*
X272769Y39764D01*
X271851D01*
X271392Y39305D01*
X269096Y39764D02*
Y37009D01*
X270473Y38386D01*
X268637D01*
X144416Y159579D02*
X141661D01*
Y160957D01*
X142121Y161416D01*
X143039D01*
X143498Y160957D01*
Y159579D01*
Y160498D02*
X144416Y161416D01*
Y162334D02*
Y163253D01*
Y162794D01*
X141661D01*
X142121Y162334D01*
Y164630D02*
X141661Y165089D01*
Y166008D01*
X142121Y166467D01*
X142580D01*
X143039Y166008D01*
Y165549D01*
Y166008D01*
X143498Y166467D01*
X143957D01*
X144416Y166008D01*
Y165089D01*
X143957Y164630D01*
X98250Y158365D02*
X97790Y157906D01*
Y156987D01*
X98250Y156528D01*
X100086D01*
X100545Y156987D01*
Y157906D01*
X100086Y158365D01*
X98250Y159283D02*
X97790Y159742D01*
Y160661D01*
X98250Y161120D01*
X98709D01*
X99168Y160661D01*
X99627Y161120D01*
X100086D01*
X100545Y160661D01*
Y159742D01*
X100086Y159283D01*
X99627D01*
X99168Y159742D01*
X98709Y159283D01*
X98250D01*
X99168Y159742D02*
Y160661D01*
X55499Y164436D02*
X55958Y164895D01*
Y165813D01*
X55499Y166272D01*
X53662D01*
X53203Y165813D01*
Y164895D01*
X53662Y164436D01*
X55958Y161680D02*
X55499Y162599D01*
X54580Y163517D01*
X53662D01*
X53203Y163058D01*
Y162140D01*
X53662Y161680D01*
X54121D01*
X54580Y162140D01*
Y163517D01*
X41660Y182283D02*
X44416D01*
Y180906D01*
X43956Y180447D01*
X43038D01*
X42579Y180906D01*
Y182283D01*
Y181365D02*
X41660Y180447D01*
Y179528D02*
Y178610D01*
Y179069D01*
X44416D01*
X43956Y179528D01*
Y177233D02*
X44416Y176773D01*
Y175855D01*
X43956Y175396D01*
X42120D01*
X41660Y175855D01*
Y176773D01*
X42120Y177233D01*
X43956D01*
X48675Y173622D02*
X45920D01*
Y175000D01*
X46380Y175459D01*
X47298D01*
X47757Y175000D01*
Y173622D01*
Y174540D02*
X48675Y175459D01*
X46380Y176377D02*
X45920Y176836D01*
Y177755D01*
X46380Y178214D01*
X46839D01*
X47298Y177755D01*
X47757Y178214D01*
X48216D01*
X48675Y177755D01*
Y176836D01*
X48216Y176377D01*
X47757D01*
X47298Y176836D01*
X46839Y176377D01*
X46380D01*
X47298Y176836D02*
Y177755D01*
X36471Y173622D02*
X33716D01*
Y175000D01*
X34175Y175459D01*
X35093D01*
X35552Y175000D01*
Y173622D01*
Y174540D02*
X36471Y175459D01*
X36011Y176377D02*
X36471Y176836D01*
Y177755D01*
X36011Y178214D01*
X34175D01*
X33716Y177755D01*
Y176836D01*
X34175Y176377D01*
X34634D01*
X35093Y176836D01*
Y178214D01*
X28695Y155741D02*
X25940D01*
Y157118D01*
X26399Y157577D01*
X27318D01*
X27777Y157118D01*
Y155741D01*
Y156659D02*
X28695Y157577D01*
X25940Y158496D02*
Y160332D01*
X26399D01*
X28236Y158496D01*
X28695D01*
X35650Y144060D02*
X35191Y144519D01*
X34272D01*
X33813Y144060D01*
Y142224D01*
X34272Y141764D01*
X35191D01*
X35650Y142224D01*
X36568Y144519D02*
X38405D01*
Y144060D01*
X36568Y142224D01*
Y141764D01*
X213971Y162203D02*
X213512Y161744D01*
Y160826D01*
X213971Y160367D01*
X215808D01*
X216267Y160826D01*
Y161744D01*
X215808Y162203D01*
X216267Y163122D02*
Y164040D01*
Y163581D01*
X213512D01*
X213971Y163122D01*
X216267Y165418D02*
Y166336D01*
Y165877D01*
X213512D01*
X213971Y165418D01*
X151174Y147997D02*
X150715Y148456D01*
X149797D01*
X149338Y147997D01*
Y146160D01*
X149797Y145701D01*
X150715D01*
X151174Y146160D01*
X152093Y145701D02*
X153011D01*
X152552D01*
Y148456D01*
X152093Y147997D01*
X154388D02*
X154848Y148456D01*
X155766D01*
X156225Y147997D01*
Y146160D01*
X155766Y145701D01*
X154848D01*
X154388Y146160D01*
Y147997D01*
X157447Y186221D02*
X160202D01*
Y184843D01*
X159743Y184384D01*
X158825D01*
X158365Y184843D01*
Y186221D01*
Y185302D02*
X157447Y184384D01*
Y183466D02*
Y182547D01*
Y183006D01*
X160202D01*
X159743Y183466D01*
X160202Y179333D02*
X159743Y180251D01*
X158825Y181170D01*
X157906D01*
X157447Y180710D01*
Y179792D01*
X157906Y179333D01*
X158365D01*
X158825Y179792D01*
Y181170D01*
X164259Y177559D02*
X161504D01*
Y178937D01*
X161963Y179396D01*
X162881D01*
X163340Y178937D01*
Y177559D01*
Y178477D02*
X164259Y179396D01*
Y180314D02*
Y181232D01*
Y180773D01*
X161504D01*
X161963Y180314D01*
X164259Y183987D02*
X161504D01*
X162881Y182610D01*
Y184447D01*
X152094Y177559D02*
X149339D01*
Y178937D01*
X149798Y179396D01*
X150716D01*
X151175Y178937D01*
Y177559D01*
Y178477D02*
X152094Y179396D01*
Y180314D02*
Y181232D01*
Y180773D01*
X149339D01*
X149798Y180314D01*
X149339Y184447D02*
Y182610D01*
X150716D01*
X150257Y183528D01*
Y183987D01*
X150716Y184447D01*
X151634D01*
X152094Y183987D01*
Y183069D01*
X151634Y182610D01*
X170826Y168176D02*
X171285Y168635D01*
Y169553D01*
X170826Y170012D01*
X168990D01*
X168530Y169553D01*
Y168635D01*
X168990Y168176D01*
Y167257D02*
X168530Y166798D01*
Y165880D01*
X168990Y165421D01*
X170826D01*
X171285Y165880D01*
Y166798D01*
X170826Y167257D01*
X170367D01*
X169908Y166798D01*
Y165421D01*
X34967Y126016D02*
X32212D01*
Y127394D01*
X32672Y127853D01*
X33590D01*
X34049Y127394D01*
Y126016D01*
Y126935D02*
X34967Y127853D01*
Y128771D02*
Y129690D01*
Y129230D01*
X32212D01*
X32672Y128771D01*
X34508Y131067D02*
X34967Y131526D01*
Y132445D01*
X34508Y132904D01*
X32672D01*
X32212Y132445D01*
Y131526D01*
X32672Y131067D01*
X33131D01*
X33590Y131526D01*
Y132904D01*
X40207Y134646D02*
X42962D01*
Y133268D01*
X42502Y132809D01*
X41584D01*
X41125Y133268D01*
Y134646D01*
Y133727D02*
X40207Y132809D01*
Y130054D02*
Y131891D01*
X42043Y130054D01*
X42502D01*
X42962Y130513D01*
Y131431D01*
X42502Y131891D01*
Y129136D02*
X42962Y128676D01*
Y127758D01*
X42502Y127299D01*
X40666D01*
X40207Y127758D01*
Y128676D01*
X40666Y129136D01*
X42502D01*
X47244Y125984D02*
X44489D01*
Y127362D01*
X44948Y127821D01*
X45867D01*
X46326Y127362D01*
Y125984D01*
Y126903D02*
X47244Y127821D01*
Y128739D02*
Y129658D01*
Y129199D01*
X44489D01*
X44948Y128739D01*
Y131035D02*
X44489Y131494D01*
Y132413D01*
X44948Y132872D01*
X45407D01*
X45867Y132413D01*
X46326Y132872D01*
X46785D01*
X47244Y132413D01*
Y131494D01*
X46785Y131035D01*
X46326D01*
X45867Y131494D01*
X45407Y131035D01*
X44948D01*
X45867Y131494D02*
Y132413D01*
X97042Y111121D02*
X96583Y110662D01*
Y109743D01*
X97042Y109284D01*
X98878D01*
X99338Y109743D01*
Y110662D01*
X98878Y111121D01*
X99338Y112039D02*
Y112957D01*
Y112498D01*
X96583D01*
X97042Y112039D01*
X96583Y116172D02*
Y114335D01*
X97960D01*
X97501Y115253D01*
Y115712D01*
X97960Y116172D01*
X98878D01*
X99338Y115712D01*
Y114794D01*
X98878Y114335D01*
X26601Y108300D02*
X23846D01*
Y109677D01*
X24306Y110136D01*
X25224D01*
X25683Y109677D01*
Y108300D01*
Y109218D02*
X26601Y110136D01*
Y111055D02*
Y111973D01*
Y111514D01*
X23846D01*
X24306Y111055D01*
X23846Y113351D02*
Y115187D01*
X24306D01*
X26142Y113351D01*
X26601D01*
X33655Y95241D02*
X33195Y95701D01*
X32277D01*
X31818Y95241D01*
Y93405D01*
X32277Y92945D01*
X33195D01*
X33655Y93405D01*
X34573Y92945D02*
X35491D01*
X35032D01*
Y95701D01*
X34573Y95241D01*
X38246Y92945D02*
Y95701D01*
X36869Y94323D01*
X38706D01*
X52322Y116896D02*
X52782Y117355D01*
Y118274D01*
X52322Y118733D01*
X50486D01*
X50027Y118274D01*
Y117355D01*
X50486Y116896D01*
X50027Y115978D02*
Y115059D01*
Y115519D01*
X52782D01*
X52322Y115978D01*
Y113682D02*
X52782Y113223D01*
Y112304D01*
X52322Y111845D01*
X51863D01*
X51404Y112304D01*
Y112764D01*
Y112304D01*
X50945Y111845D01*
X50486D01*
X50027Y112304D01*
Y113223D01*
X50486Y113682D01*
X48654Y68379D02*
Y65624D01*
X47277D01*
X46817Y66083D01*
Y67001D01*
X47277Y67461D01*
X48654D01*
X47736D02*
X46817Y68379D01*
X45899D02*
X44981D01*
X45440D01*
Y65624D01*
X45899Y66083D01*
X43603Y68379D02*
X42685D01*
X43144D01*
Y65624D01*
X43603Y66083D01*
X48753Y75269D02*
Y72514D01*
X47375D01*
X46916Y72973D01*
Y73891D01*
X47375Y74350D01*
X48753D01*
X47834D02*
X46916Y75269D01*
X45998D02*
X45079D01*
X45538D01*
Y72514D01*
X45998Y72973D01*
X41865Y75269D02*
X43702D01*
X41865Y73432D01*
Y72973D01*
X42324Y72514D01*
X43242D01*
X43702Y72973D01*
X527067Y132814D02*
X526608Y132355D01*
Y131437D01*
X527067Y130977D01*
X528904D01*
X529363Y131437D01*
Y132355D01*
X528904Y132814D01*
X529363Y133732D02*
Y134651D01*
Y134192D01*
X526608D01*
X527067Y133732D01*
X526608Y136028D02*
Y137865D01*
X527067D01*
X528904Y136028D01*
X529363D01*
X506396Y87112D02*
X505937Y87571D01*
X505019D01*
X504560Y87112D01*
Y85275D01*
X505019Y84816D01*
X505937D01*
X506396Y85275D01*
X507315Y84816D02*
X508233D01*
X507774D01*
Y87571D01*
X507315Y87112D01*
X509611Y85275D02*
X510070Y84816D01*
X510988D01*
X511447Y85275D01*
Y87112D01*
X510988Y87571D01*
X510070D01*
X509611Y87112D01*
Y86653D01*
X510070Y86193D01*
X511447D01*
X496916Y83307D02*
X497375Y82848D01*
X498293D01*
X498752Y83307D01*
Y85144D01*
X498293Y85603D01*
X497375D01*
X496916Y85144D01*
X494161Y85603D02*
X495997D01*
X494161Y83767D01*
Y83307D01*
X494620Y82848D01*
X495538D01*
X495997Y83307D01*
X493243D02*
X492783Y82848D01*
X491865D01*
X491406Y83307D01*
Y85144D01*
X491865Y85603D01*
X492783D01*
X493243Y85144D01*
Y83307D01*
X375721Y61883D02*
Y64638D01*
X377099D01*
X377558Y64179D01*
Y63260D01*
X377099Y62801D01*
X375721D01*
X376639D02*
X377558Y61883D01*
X380313D02*
X378476D01*
X380313Y63719D01*
Y64179D01*
X379854Y64638D01*
X378935D01*
X378476Y64179D01*
X381231Y61883D02*
X382149D01*
X381690D01*
Y64638D01*
X381231Y64179D01*
X302296Y47376D02*
X302755Y47835D01*
Y48753D01*
X302296Y49213D01*
X300459D01*
X300000Y48753D01*
Y47835D01*
X300459Y47376D01*
X300000Y46458D02*
Y45539D01*
Y45998D01*
X302755D01*
X302296Y46458D01*
X293733Y49213D02*
X296488D01*
Y47835D01*
X296029Y47376D01*
X295111D01*
X294651Y47835D01*
Y49213D01*
Y48294D02*
X293733Y47376D01*
Y46458D02*
Y45539D01*
Y45998D01*
X296488D01*
X296029Y46458D01*
X287532Y49213D02*
X290287D01*
Y47835D01*
X289828Y47376D01*
X288910D01*
X288450Y47835D01*
Y49213D01*
Y48294D02*
X287532Y47376D01*
Y45080D02*
X290287D01*
X288910Y46458D01*
Y44621D01*
X122507Y81280D02*
Y78525D01*
X121130D01*
X120671Y78984D01*
Y79902D01*
X121130Y80361D01*
X122507D01*
X121589D02*
X120671Y81280D01*
X117916Y78525D02*
X118834Y78984D01*
X119752Y79902D01*
Y80820D01*
X119293Y81280D01*
X118375D01*
X117916Y80820D01*
Y80361D01*
X118375Y79902D01*
X119752D01*
X122507Y75205D02*
Y72450D01*
X121130D01*
X120671Y72909D01*
Y73827D01*
X121130Y74287D01*
X122507D01*
X121589D02*
X120671Y75205D01*
X117916Y72450D02*
X119752D01*
Y73827D01*
X118834Y73368D01*
X118375D01*
X117916Y73827D01*
Y74746D01*
X118375Y75205D01*
X119293D01*
X119752Y74746D01*
X247310Y38216D02*
X244555D01*
Y39593D01*
X245015Y40052D01*
X245933D01*
X246392Y39593D01*
Y38216D01*
Y39134D02*
X247310Y40052D01*
X245015Y40971D02*
X244555Y41430D01*
Y42348D01*
X245015Y42807D01*
X245474D01*
X245933Y42348D01*
Y41889D01*
Y42348D01*
X246392Y42807D01*
X246851D01*
X247310Y42348D01*
Y41430D01*
X246851Y40971D01*
X255118Y45040D02*
X255577Y45500D01*
Y46418D01*
X255118Y46877D01*
X253281D01*
X252822Y46418D01*
Y45500D01*
X253281Y45040D01*
X255577Y42285D02*
Y44122D01*
X254200D01*
X254659Y43204D01*
Y42744D01*
X254200Y42285D01*
X253281D01*
X252822Y42744D01*
Y43663D01*
X253281Y44122D01*
X267192Y46202D02*
Y43447D01*
X265815D01*
X265356Y43906D01*
Y44824D01*
X265815Y45283D01*
X267192D01*
X266274D02*
X265356Y46202D01*
X262601D02*
X264437D01*
X262601Y44365D01*
Y43906D01*
X263060Y43447D01*
X263978D01*
X264437Y43906D01*
X229855Y40289D02*
X230314Y40749D01*
Y41667D01*
X229855Y42126D01*
X228018D01*
X227559Y41667D01*
Y40749D01*
X228018Y40289D01*
X229855Y39371D02*
X230314Y38912D01*
Y37993D01*
X229855Y37534D01*
X229396D01*
X228937Y37993D01*
Y38453D01*
Y37993D01*
X228477Y37534D01*
X228018D01*
X227559Y37993D01*
Y38912D01*
X228018Y39371D01*
X236287Y39750D02*
X235828Y39291D01*
Y38373D01*
X236287Y37913D01*
X238123D01*
X238583Y38373D01*
Y39291D01*
X238123Y39750D01*
X238583Y42505D02*
Y40668D01*
X236746Y42505D01*
X236287D01*
X235828Y42046D01*
Y41128D01*
X236287Y40668D01*
D99*
X40834Y86784D02*
X56582D01*
Y78910D02*
Y86784D01*
X40834Y78910D02*
X56582D01*
X40834D02*
Y86784D01*
X278531Y161957D02*
Y167469D01*
X289554D01*
Y161957D02*
Y167469D01*
X278531Y161957D02*
X289554D01*
X300394Y195027D02*
X358815D01*
Y135972D02*
Y195027D01*
X300394Y135972D02*
X358815D01*
X300394D02*
Y195027D01*
X121575Y33465D02*
Y43701D01*
X81417D02*
X121575D01*
X81417Y33465D02*
Y43701D01*
Y33465D02*
X121575D01*
X8103Y92887D02*
X15977D01*
Y108635D01*
X8103D02*
X15977D01*
X8103Y92887D02*
Y108635D01*
X263386Y36614D02*
X274410D01*
X263386D02*
Y42126D01*
X274410D01*
Y36614D02*
Y42126D01*
X141267Y158398D02*
X146779D01*
Y169422D01*
X141267D02*
X146779D01*
X141267Y158398D02*
Y169422D01*
X94640Y154560D02*
Y173457D01*
X104876D01*
Y154560D02*
Y173457D01*
X94640Y154560D02*
X104876D01*
X56353Y156430D02*
Y167453D01*
X50841Y156430D02*
X56353D01*
X50841D02*
Y167453D01*
X56353D01*
X39298Y183465D02*
X44810D01*
X39298Y172441D02*
Y183465D01*
Y172441D02*
X44810D01*
Y183465D01*
X45526Y172441D02*
X51038D01*
Y183465D01*
X45526D02*
X51038D01*
X45526Y172441D02*
Y183465D01*
X33321Y172441D02*
X38833D01*
Y183465D01*
X33321D02*
X38833D01*
X33321Y172441D02*
Y183465D01*
X25545Y154560D02*
X31057D01*
Y165583D01*
X25545D02*
X31057D01*
X25545Y154560D02*
Y165583D01*
X31845Y147670D02*
X50742D01*
Y137434D02*
Y147670D01*
X31845Y137434D02*
X50742D01*
X31845D02*
Y147670D01*
X210361Y158398D02*
Y177296D01*
X220598D01*
Y158398D02*
Y177296D01*
X210361Y158398D02*
X220598D01*
X147369Y151607D02*
X166267D01*
Y141371D02*
Y151607D01*
X147369Y141371D02*
X166267D01*
X147369D02*
Y151607D01*
X155085Y187402D02*
X160597D01*
X155085Y176378D02*
Y187402D01*
Y176378D02*
X160597D01*
Y187402D01*
X161109Y176378D02*
X166621D01*
Y187402D01*
X161109D02*
X166621D01*
X161109Y176378D02*
Y187402D01*
X148944Y176378D02*
X154456D01*
Y187402D01*
X148944D02*
X154456D01*
X148944Y176378D02*
Y187402D01*
X171680Y160170D02*
Y171194D01*
X166168Y160170D02*
X171680D01*
X166168D02*
Y171194D01*
X171680D01*
X31818Y124835D02*
X37330D01*
Y135859D01*
X31818D02*
X37330D01*
X31818Y124835D02*
Y135859D01*
X37844Y135827D02*
X43356D01*
X37844Y124803D02*
Y135827D01*
Y124803D02*
X43356D01*
Y135827D01*
X44094Y124803D02*
X49606D01*
Y135827D01*
X44094D02*
X49606D01*
X44094Y124803D02*
Y135827D01*
X93432Y107316D02*
Y126213D01*
X103668D01*
Y107316D02*
Y126213D01*
X93432Y107316D02*
X103668D01*
X23452Y107119D02*
X28964D01*
Y118142D01*
X23452D02*
X28964D01*
X23452Y107119D02*
Y118142D01*
X29849Y98851D02*
X48747D01*
Y88615D02*
Y98851D01*
X29849Y88615D02*
X48747D01*
X29849D02*
Y98851D01*
X53176Y108890D02*
Y119914D01*
X47664Y108890D02*
X53176D01*
X47664D02*
Y119914D01*
X53176D01*
X61449Y49875D02*
Y55387D01*
Y49875D02*
X72473D01*
Y55387D01*
X61449D02*
X72473D01*
X15977Y66706D02*
Y82454D01*
X8103Y66706D02*
X15977D01*
X8103D02*
Y82454D01*
X15977D01*
Y43871D02*
Y59619D01*
X8103Y43871D02*
X15977D01*
X8103D02*
Y59619D01*
X15977D01*
X38812Y65229D02*
Y70741D01*
Y65229D02*
X49835D01*
X38812Y70741D02*
X49835D01*
Y65229D02*
Y70741D01*
X38910Y77631D02*
X49934D01*
X38910Y72119D02*
Y77631D01*
X49934Y72119D02*
Y77631D01*
X38910Y72119D02*
X49934D01*
X526213Y129796D02*
Y140820D01*
X531725D01*
Y129796D02*
Y140820D01*
X526213Y129796D02*
X531725D01*
X503378Y87966D02*
X514402D01*
Y82454D02*
Y87966D01*
X503378Y82454D02*
X514402D01*
X503378D02*
Y87966D01*
X488910Y82454D02*
X499934D01*
X488910D02*
Y87966D01*
X499934D01*
Y82454D02*
Y87966D01*
X374540Y59521D02*
X385564D01*
Y65033D01*
X374540Y59521D02*
Y65033D01*
X385564D01*
X297638Y50394D02*
X303150D01*
X297638Y39370D02*
Y50394D01*
Y39370D02*
X303150D01*
Y50394D01*
X296883Y39370D02*
Y50394D01*
X291371Y39370D02*
X296883D01*
X291371D02*
Y50394D01*
X296883D01*
X290682Y39370D02*
Y50394D01*
X285170Y39370D02*
X290682D01*
X285170D02*
Y50394D01*
X290682D01*
X112665Y78130D02*
X123688D01*
X112665D02*
Y83642D01*
X123688D01*
Y78130D02*
Y83642D01*
X112665Y72055D02*
X123688D01*
X112665D02*
Y77567D01*
X123688D01*
Y72055D02*
Y77567D01*
X244161Y37034D02*
Y48058D01*
X249673D01*
Y37034D02*
Y48058D01*
X244161Y37034D02*
X249673D01*
X250460Y48058D02*
X255972D01*
X250460Y37034D02*
Y48058D01*
Y37034D02*
X255972D01*
Y48058D01*
X257350Y43052D02*
X268373D01*
X257350D02*
Y48564D01*
X268373D01*
Y43052D02*
Y48564D01*
X225197Y43307D02*
X230709D01*
X225197Y32283D02*
Y43307D01*
Y32283D02*
X230709D01*
Y43307D01*
X232677Y35945D02*
X242913D01*
Y54843D01*
X232677D02*
X242913D01*
X232677Y35945D02*
Y54843D01*
M02*
