G04*
G04 #@! TF.GenerationSoftware,Altium Limited,Altium Designer,19.0.14 (431)*
G04*
G04 Layer_Color=255*
%FSLAX25Y25*%
%MOIN*%
G70*
G01*
G75*
G04:AMPARAMS|DCode=18|XSize=31.5mil|YSize=55.12mil|CornerRadius=3.94mil|HoleSize=0mil|Usage=FLASHONLY|Rotation=270.000|XOffset=0mil|YOffset=0mil|HoleType=Round|Shape=RoundedRectangle|*
%AMROUNDEDRECTD18*
21,1,0.03150,0.04724,0,0,270.0*
21,1,0.02362,0.05512,0,0,270.0*
1,1,0.00787,-0.02362,-0.01181*
1,1,0.00787,-0.02362,0.01181*
1,1,0.00787,0.02362,0.01181*
1,1,0.00787,0.02362,-0.01181*
%
%ADD18ROUNDEDRECTD18*%
G04:AMPARAMS|DCode=19|XSize=19.68mil|YSize=47.24mil|CornerRadius=2.46mil|HoleSize=0mil|Usage=FLASHONLY|Rotation=90.000|XOffset=0mil|YOffset=0mil|HoleType=Round|Shape=RoundedRectangle|*
%AMROUNDEDRECTD19*
21,1,0.01968,0.04232,0,0,90.0*
21,1,0.01476,0.04724,0,0,90.0*
1,1,0.00492,0.02116,0.00738*
1,1,0.00492,0.02116,-0.00738*
1,1,0.00492,-0.02116,-0.00738*
1,1,0.00492,-0.02116,0.00738*
%
%ADD19ROUNDEDRECTD19*%
G04:AMPARAMS|DCode=20|XSize=35.43mil|YSize=39.37mil|CornerRadius=8.86mil|HoleSize=0mil|Usage=FLASHONLY|Rotation=180.000|XOffset=0mil|YOffset=0mil|HoleType=Round|Shape=RoundedRectangle|*
%AMROUNDEDRECTD20*
21,1,0.03543,0.02165,0,0,180.0*
21,1,0.01772,0.03937,0,0,180.0*
1,1,0.01772,-0.00886,0.01083*
1,1,0.01772,0.00886,0.01083*
1,1,0.01772,0.00886,-0.01083*
1,1,0.01772,-0.00886,-0.01083*
%
%ADD20ROUNDEDRECTD20*%
G04:AMPARAMS|DCode=21|XSize=63.37mil|YSize=15.75mil|CornerRadius=3.94mil|HoleSize=0mil|Usage=FLASHONLY|Rotation=0.000|XOffset=0mil|YOffset=0mil|HoleType=Round|Shape=RoundedRectangle|*
%AMROUNDEDRECTD21*
21,1,0.06337,0.00787,0,0,0.0*
21,1,0.05550,0.01575,0,0,0.0*
1,1,0.00787,0.02775,-0.00394*
1,1,0.00787,-0.02775,-0.00394*
1,1,0.00787,-0.02775,0.00394*
1,1,0.00787,0.02775,0.00394*
%
%ADD21ROUNDEDRECTD21*%
G04:AMPARAMS|DCode=22|XSize=35.43mil|YSize=39.37mil|CornerRadius=8.86mil|HoleSize=0mil|Usage=FLASHONLY|Rotation=90.000|XOffset=0mil|YOffset=0mil|HoleType=Round|Shape=RoundedRectangle|*
%AMROUNDEDRECTD22*
21,1,0.03543,0.02165,0,0,90.0*
21,1,0.01772,0.03937,0,0,90.0*
1,1,0.01772,0.01083,0.00886*
1,1,0.01772,0.01083,-0.00886*
1,1,0.01772,-0.01083,-0.00886*
1,1,0.01772,-0.01083,0.00886*
%
%ADD22ROUNDEDRECTD22*%
%ADD23R,0.07087X0.05512*%
G04:AMPARAMS|DCode=24|XSize=145.67mil|YSize=78.74mil|CornerRadius=9.84mil|HoleSize=0mil|Usage=FLASHONLY|Rotation=90.000|XOffset=0mil|YOffset=0mil|HoleType=Round|Shape=RoundedRectangle|*
%AMROUNDEDRECTD24*
21,1,0.14567,0.05906,0,0,90.0*
21,1,0.12598,0.07874,0,0,90.0*
1,1,0.01968,0.02953,0.06299*
1,1,0.01968,0.02953,-0.06299*
1,1,0.01968,-0.02953,-0.06299*
1,1,0.01968,-0.02953,0.06299*
%
%ADD24ROUNDEDRECTD24*%
%ADD25R,0.05512X0.07087*%
G04:AMPARAMS|DCode=26|XSize=48.82mil|YSize=21.65mil|CornerRadius=5.41mil|HoleSize=0mil|Usage=FLASHONLY|Rotation=90.000|XOffset=0mil|YOffset=0mil|HoleType=Round|Shape=RoundedRectangle|*
%AMROUNDEDRECTD26*
21,1,0.04882,0.01083,0,0,90.0*
21,1,0.03799,0.02165,0,0,90.0*
1,1,0.01083,0.00541,0.01900*
1,1,0.01083,0.00541,-0.01900*
1,1,0.01083,-0.00541,-0.01900*
1,1,0.01083,-0.00541,0.01900*
%
%ADD26ROUNDEDRECTD26*%
G04:AMPARAMS|DCode=27|XSize=31.5mil|YSize=39.37mil|CornerRadius=7.87mil|HoleSize=0mil|Usage=FLASHONLY|Rotation=180.000|XOffset=0mil|YOffset=0mil|HoleType=Round|Shape=RoundedRectangle|*
%AMROUNDEDRECTD27*
21,1,0.03150,0.02362,0,0,180.0*
21,1,0.01575,0.03937,0,0,180.0*
1,1,0.01575,-0.00787,0.01181*
1,1,0.01575,0.00787,0.01181*
1,1,0.01575,0.00787,-0.01181*
1,1,0.01575,-0.00787,-0.01181*
%
%ADD27ROUNDEDRECTD27*%
G04:AMPARAMS|DCode=28|XSize=60mil|YSize=16mil|CornerRadius=4mil|HoleSize=0mil|Usage=FLASHONLY|Rotation=0.000|XOffset=0mil|YOffset=0mil|HoleType=Round|Shape=RoundedRectangle|*
%AMROUNDEDRECTD28*
21,1,0.06000,0.00800,0,0,0.0*
21,1,0.05200,0.01600,0,0,0.0*
1,1,0.00800,0.02600,-0.00400*
1,1,0.00800,-0.02600,-0.00400*
1,1,0.00800,-0.02600,0.00400*
1,1,0.00800,0.02600,0.00400*
%
%ADD28ROUNDEDRECTD28*%
G04:AMPARAMS|DCode=29|XSize=63.37mil|YSize=15.75mil|CornerRadius=3.94mil|HoleSize=0mil|Usage=FLASHONLY|Rotation=270.000|XOffset=0mil|YOffset=0mil|HoleType=Round|Shape=RoundedRectangle|*
%AMROUNDEDRECTD29*
21,1,0.06337,0.00787,0,0,270.0*
21,1,0.05550,0.01575,0,0,270.0*
1,1,0.00787,-0.00394,-0.02775*
1,1,0.00787,-0.00394,0.02775*
1,1,0.00787,0.00394,0.02775*
1,1,0.00787,0.00394,-0.02775*
%
%ADD29ROUNDEDRECTD29*%
G04:AMPARAMS|DCode=30|XSize=11.81mil|YSize=74.8mil|CornerRadius=2.95mil|HoleSize=0mil|Usage=FLASHONLY|Rotation=0.000|XOffset=0mil|YOffset=0mil|HoleType=Round|Shape=RoundedRectangle|*
%AMROUNDEDRECTD30*
21,1,0.01181,0.06890,0,0,0.0*
21,1,0.00591,0.07480,0,0,0.0*
1,1,0.00591,0.00295,-0.03445*
1,1,0.00591,-0.00295,-0.03445*
1,1,0.00591,-0.00295,0.03445*
1,1,0.00591,0.00295,0.03445*
%
%ADD30ROUNDEDRECTD30*%
G04:AMPARAMS|DCode=31|XSize=196.85mil|YSize=196.85mil|CornerRadius=9.84mil|HoleSize=0mil|Usage=FLASHONLY|Rotation=180.000|XOffset=0mil|YOffset=0mil|HoleType=Round|Shape=RoundedRectangle|*
%AMROUNDEDRECTD31*
21,1,0.19685,0.17717,0,0,180.0*
21,1,0.17717,0.19685,0,0,180.0*
1,1,0.01968,-0.08858,0.08858*
1,1,0.01968,0.08858,0.08858*
1,1,0.01968,0.08858,-0.08858*
1,1,0.01968,-0.08858,-0.08858*
%
%ADD31ROUNDEDRECTD31*%
G04:AMPARAMS|DCode=32|XSize=78.74mil|YSize=35.43mil|CornerRadius=8.86mil|HoleSize=0mil|Usage=FLASHONLY|Rotation=180.000|XOffset=0mil|YOffset=0mil|HoleType=Round|Shape=RoundedRectangle|*
%AMROUNDEDRECTD32*
21,1,0.07874,0.01772,0,0,180.0*
21,1,0.06102,0.03543,0,0,180.0*
1,1,0.01772,-0.03051,0.00886*
1,1,0.01772,0.03051,0.00886*
1,1,0.01772,0.03051,-0.00886*
1,1,0.01772,-0.03051,-0.00886*
%
%ADD32ROUNDEDRECTD32*%
G04:AMPARAMS|DCode=33|XSize=78.74mil|YSize=35.43mil|CornerRadius=8.86mil|HoleSize=0mil|Usage=FLASHONLY|Rotation=270.000|XOffset=0mil|YOffset=0mil|HoleType=Round|Shape=RoundedRectangle|*
%AMROUNDEDRECTD33*
21,1,0.07874,0.01772,0,0,270.0*
21,1,0.06102,0.03543,0,0,270.0*
1,1,0.01772,-0.00886,-0.03051*
1,1,0.01772,-0.00886,0.03051*
1,1,0.01772,0.00886,0.03051*
1,1,0.01772,0.00886,-0.03051*
%
%ADD33ROUNDEDRECTD33*%
G04:AMPARAMS|DCode=34|XSize=31.5mil|YSize=31.5mil|CornerRadius=7.87mil|HoleSize=0mil|Usage=FLASHONLY|Rotation=180.000|XOffset=0mil|YOffset=0mil|HoleType=Round|Shape=RoundedRectangle|*
%AMROUNDEDRECTD34*
21,1,0.03150,0.01575,0,0,180.0*
21,1,0.01575,0.03150,0,0,180.0*
1,1,0.01575,-0.00787,0.00787*
1,1,0.01575,0.00787,0.00787*
1,1,0.01575,0.00787,-0.00787*
1,1,0.01575,-0.00787,-0.00787*
%
%ADD34ROUNDEDRECTD34*%
%ADD35R,0.01378X0.07874*%
%ADD36R,0.17717X0.18110*%
%ADD73C,0.05118*%
%ADD74C,0.07874*%
%ADD75R,0.06000X0.06000*%
%ADD76C,0.06000*%
%ADD77C,0.13055*%
%ADD78R,0.05543X0.05543*%
%ADD79C,0.05543*%
%ADD80C,0.07480*%
%ADD81C,0.06299*%
%ADD82C,0.04331*%
D18*
X334449Y20669D02*
D03*
X345079D02*
D03*
X334449Y69882D02*
D03*
X345079D02*
D03*
D19*
X334055Y65945D02*
D03*
X345472Y63976D02*
D03*
X334055Y62008D02*
D03*
X345472Y60039D02*
D03*
X334055Y58071D02*
D03*
X345472Y56102D02*
D03*
X334055Y54134D02*
D03*
X345472Y52165D02*
D03*
X334055Y50197D02*
D03*
X345472Y48228D02*
D03*
X334055Y46260D02*
D03*
X345472Y44291D02*
D03*
X334055Y42323D02*
D03*
X345472Y40354D02*
D03*
X334055Y38386D02*
D03*
X345472Y36417D02*
D03*
X334055Y34449D02*
D03*
X345472Y32480D02*
D03*
X334055Y30512D02*
D03*
X345472Y28543D02*
D03*
X334055Y26575D02*
D03*
X345472Y24606D02*
D03*
D20*
X265945Y39370D02*
D03*
X271850D02*
D03*
X64008Y52631D02*
D03*
X69914D02*
D03*
X41371Y67985D02*
D03*
X47276D02*
D03*
X41469Y74875D02*
D03*
X47375D02*
D03*
X511843Y85210D02*
D03*
X505938D02*
D03*
X491469Y85210D02*
D03*
X497375D02*
D03*
X383004Y62277D02*
D03*
X377099D02*
D03*
X115224Y80886D02*
D03*
X121129D02*
D03*
X115224Y74811D02*
D03*
X121129D02*
D03*
X259909Y45808D02*
D03*
X265814D02*
D03*
D21*
X488295Y57749D02*
D03*
Y54009D02*
D03*
Y50269D02*
D03*
X478501D02*
D03*
Y54009D02*
D03*
Y57749D02*
D03*
D22*
X144023Y160957D02*
D03*
Y166863D02*
D03*
X53597Y158989D02*
D03*
Y164894D02*
D03*
X42054Y180905D02*
D03*
Y175000D02*
D03*
X48282D02*
D03*
Y180905D02*
D03*
X36077Y175000D02*
D03*
Y180905D02*
D03*
X28301Y157119D02*
D03*
Y163024D02*
D03*
X157841Y184843D02*
D03*
Y178937D02*
D03*
X163865D02*
D03*
Y184843D02*
D03*
X151700Y178937D02*
D03*
Y184843D02*
D03*
X168924Y162729D02*
D03*
Y168634D02*
D03*
X34574Y127394D02*
D03*
Y133300D02*
D03*
X40600Y133268D02*
D03*
Y127362D02*
D03*
X46850D02*
D03*
Y133268D02*
D03*
X26208Y109678D02*
D03*
Y115583D02*
D03*
X50420Y111449D02*
D03*
Y117355D02*
D03*
X528969Y138261D02*
D03*
Y132355D02*
D03*
X300394Y47835D02*
D03*
Y41929D02*
D03*
X294127D02*
D03*
Y47835D02*
D03*
X287926Y41929D02*
D03*
Y47835D02*
D03*
X246917Y45499D02*
D03*
Y39593D02*
D03*
X253216Y45499D02*
D03*
Y39593D02*
D03*
X227953Y40748D02*
D03*
Y34843D02*
D03*
D23*
X99758Y169127D02*
D03*
Y158890D02*
D03*
X215479Y172965D02*
D03*
Y162729D02*
D03*
X98550Y121882D02*
D03*
Y111646D02*
D03*
X237795Y40276D02*
D03*
Y50512D02*
D03*
D24*
X61766Y158989D02*
D03*
X84601D02*
D03*
X178865Y162729D02*
D03*
X201700D02*
D03*
X60066Y111548D02*
D03*
X82901D02*
D03*
D25*
X46411Y142552D02*
D03*
X36175D02*
D03*
X161936Y146489D02*
D03*
X151700D02*
D03*
X44416Y93733D02*
D03*
X34180D02*
D03*
D26*
X36077Y157178D02*
D03*
X39817D02*
D03*
X43557D02*
D03*
X36077Y166508D02*
D03*
X39817D02*
D03*
X43557D02*
D03*
X151700Y161016D02*
D03*
X155440D02*
D03*
X159180D02*
D03*
X151700Y170347D02*
D03*
X155440D02*
D03*
X159180D02*
D03*
X34377Y109638D02*
D03*
X38117D02*
D03*
X41857D02*
D03*
X34377Y118969D02*
D03*
X38117D02*
D03*
X41857D02*
D03*
D27*
X27394Y68084D02*
D03*
X31134Y76351D02*
D03*
X34875Y68084D02*
D03*
X386843Y77139D02*
D03*
X383103Y68871D02*
D03*
X379363Y77139D02*
D03*
D28*
X42478Y55485D02*
D03*
Y52926D02*
D03*
Y50367D02*
D03*
Y47808D02*
D03*
X51878D02*
D03*
Y50367D02*
D03*
Y52926D02*
D03*
Y55485D02*
D03*
D29*
X399737Y46258D02*
D03*
X395997D02*
D03*
X392256D02*
D03*
Y56051D02*
D03*
X395997D02*
D03*
X399737D02*
D03*
X413123Y68305D02*
D03*
X409382D02*
D03*
X405642D02*
D03*
Y78099D02*
D03*
X409382D02*
D03*
X413123D02*
D03*
X426115Y46258D02*
D03*
X422375D02*
D03*
X418634D02*
D03*
Y56051D02*
D03*
X422375D02*
D03*
X426115D02*
D03*
D30*
X408595Y31076D02*
D03*
X410564D02*
D03*
X412532D02*
D03*
X414501D02*
D03*
X416469D02*
D03*
X418438D02*
D03*
X420406D02*
D03*
X422375D02*
D03*
X424343D02*
D03*
X426312D02*
D03*
X406627D02*
D03*
X404658D02*
D03*
X402690D02*
D03*
X400721D02*
D03*
X398753D02*
D03*
X396784D02*
D03*
X394815D02*
D03*
X392847D02*
D03*
X390879D02*
D03*
D31*
X182697Y64921D02*
D03*
D32*
X212224Y35394D02*
D03*
Y40394D02*
D03*
Y45394D02*
D03*
Y50394D02*
D03*
Y55394D02*
D03*
Y60394D02*
D03*
Y65394D02*
D03*
Y70394D02*
D03*
Y75394D02*
D03*
Y80394D02*
D03*
Y85394D02*
D03*
Y90394D02*
D03*
Y95394D02*
D03*
Y100394D02*
D03*
X145295D02*
D03*
Y95394D02*
D03*
Y90394D02*
D03*
Y85394D02*
D03*
Y80394D02*
D03*
Y75394D02*
D03*
Y70394D02*
D03*
Y65394D02*
D03*
Y60394D02*
D03*
Y55394D02*
D03*
Y50394D02*
D03*
Y45394D02*
D03*
Y40394D02*
D03*
Y35394D02*
D03*
D33*
X201260Y104331D02*
D03*
X196260D02*
D03*
X191260D02*
D03*
X186260D02*
D03*
X181260D02*
D03*
X176260D02*
D03*
X171260D02*
D03*
X166260D02*
D03*
X161260D02*
D03*
X156260D02*
D03*
D34*
X136090Y75205D02*
D03*
X130184D02*
D03*
X136090Y80205D02*
D03*
X130184D02*
D03*
D35*
X258989Y96233D02*
D03*
X259579Y128517D02*
D03*
X261351Y96233D02*
D03*
X261942Y128517D02*
D03*
X263713Y96233D02*
D03*
X264304Y128517D02*
D03*
X266075Y96233D02*
D03*
X266666Y128517D02*
D03*
X268438Y96233D02*
D03*
X269028Y128517D02*
D03*
X270800Y96233D02*
D03*
X271390Y128517D02*
D03*
X273162Y96233D02*
D03*
X273753Y128517D02*
D03*
X275524Y96233D02*
D03*
X276115Y128517D02*
D03*
X277886Y96233D02*
D03*
X278477Y128517D02*
D03*
X280249Y96233D02*
D03*
X280839Y128517D02*
D03*
X282611Y96233D02*
D03*
X283201Y128517D02*
D03*
X284973Y96233D02*
D03*
X285564Y128517D02*
D03*
X287335Y96233D02*
D03*
X287926Y128517D02*
D03*
X289697Y96233D02*
D03*
X290288Y128517D02*
D03*
X292060Y96233D02*
D03*
X292650Y128517D02*
D03*
X294422Y96233D02*
D03*
X295012Y128517D02*
D03*
X296784Y96233D02*
D03*
X297375Y128517D02*
D03*
X299146Y96233D02*
D03*
X299737Y128517D02*
D03*
X301508Y96233D02*
D03*
X302099Y128517D02*
D03*
X303871Y96233D02*
D03*
X304461Y128517D02*
D03*
X320406Y96233D02*
D03*
X320997Y128517D02*
D03*
X322768Y96233D02*
D03*
X323359Y128517D02*
D03*
X325131Y96233D02*
D03*
X325721Y128517D02*
D03*
X327493Y96233D02*
D03*
X328083Y128517D02*
D03*
X329855Y96233D02*
D03*
X330446Y128517D02*
D03*
X332217Y96233D02*
D03*
X332808Y128517D02*
D03*
X334579Y96233D02*
D03*
X335170Y128517D02*
D03*
X336942Y96233D02*
D03*
X337532Y128517D02*
D03*
X339304Y96233D02*
D03*
X339894Y128517D02*
D03*
X341666Y96233D02*
D03*
X342256Y128517D02*
D03*
X344028Y96233D02*
D03*
X344619Y128517D02*
D03*
X346390Y96233D02*
D03*
X346981Y128517D02*
D03*
X348753Y96233D02*
D03*
X349343Y128517D02*
D03*
X351115Y96233D02*
D03*
X351705Y128517D02*
D03*
X353477Y96233D02*
D03*
X354067Y128517D02*
D03*
X355839Y96233D02*
D03*
X356430Y128517D02*
D03*
X358201Y96233D02*
D03*
X358792Y128517D02*
D03*
X360564Y96233D02*
D03*
X361154Y128517D02*
D03*
X362926Y96233D02*
D03*
X363516Y128517D02*
D03*
X365288Y96233D02*
D03*
X365879Y128517D02*
D03*
X367650Y96233D02*
D03*
X368241Y128517D02*
D03*
X370012Y96233D02*
D03*
X370603Y128517D02*
D03*
X372375Y96233D02*
D03*
X372965Y128517D02*
D03*
X374737Y96233D02*
D03*
X375327Y128517D02*
D03*
X377099Y96233D02*
D03*
X377690Y128517D02*
D03*
X379461Y96233D02*
D03*
X380052Y128517D02*
D03*
X381823Y96233D02*
D03*
X382414Y128517D02*
D03*
X384186Y96233D02*
D03*
X384776Y128517D02*
D03*
X386548Y96233D02*
D03*
X387138Y128517D02*
D03*
X388910Y96233D02*
D03*
X389501Y128517D02*
D03*
X391272Y96233D02*
D03*
X391863Y128517D02*
D03*
X393634Y96233D02*
D03*
X394225Y128517D02*
D03*
X395997Y96233D02*
D03*
X396587Y128517D02*
D03*
X398359Y96233D02*
D03*
X398949Y128517D02*
D03*
X400721Y96233D02*
D03*
X401312Y128517D02*
D03*
X403083Y96233D02*
D03*
X403674Y128517D02*
D03*
X405445Y96233D02*
D03*
X406036Y128517D02*
D03*
X407808Y96233D02*
D03*
X408398Y128517D02*
D03*
X410170Y96233D02*
D03*
X410760Y128517D02*
D03*
X412532Y96233D02*
D03*
X413123Y128517D02*
D03*
X414894Y96233D02*
D03*
X415485Y128517D02*
D03*
X417256Y96233D02*
D03*
X417847Y128517D02*
D03*
X419619Y96233D02*
D03*
X420209Y128517D02*
D03*
X421981Y96233D02*
D03*
X422572Y128517D02*
D03*
X424343Y96233D02*
D03*
X424934Y128517D02*
D03*
X426705Y96233D02*
D03*
X427296Y128517D02*
D03*
X429068Y96233D02*
D03*
X429658Y128517D02*
D03*
X431430Y96233D02*
D03*
X432020Y128517D02*
D03*
X433792Y96233D02*
D03*
X434382Y128517D02*
D03*
X436154Y96233D02*
D03*
X436745Y128517D02*
D03*
X438516Y96233D02*
D03*
X439107Y128517D02*
D03*
X440878Y96233D02*
D03*
X441469Y128517D02*
D03*
X443241Y96233D02*
D03*
X443831Y128517D02*
D03*
X445603Y96233D02*
D03*
X446194Y128517D02*
D03*
X447965Y96233D02*
D03*
X448556Y128517D02*
D03*
X450327Y96233D02*
D03*
X450918Y128517D02*
D03*
X452690Y96233D02*
D03*
X453280Y128517D02*
D03*
X455052Y96233D02*
D03*
X455642Y128517D02*
D03*
X457414Y96233D02*
D03*
X458005Y128517D02*
D03*
X459776Y96233D02*
D03*
X460367Y128517D02*
D03*
X462138Y96233D02*
D03*
X462729Y128517D02*
D03*
X464501Y96233D02*
D03*
X465091Y128517D02*
D03*
X466863Y96233D02*
D03*
X467453Y128517D02*
D03*
X469225Y96233D02*
D03*
X469815Y128517D02*
D03*
X471587Y96233D02*
D03*
X472178Y128517D02*
D03*
X473949Y96233D02*
D03*
X474540Y128517D02*
D03*
X476312Y96233D02*
D03*
X476902Y128517D02*
D03*
X478674Y96233D02*
D03*
X479264Y128517D02*
D03*
X481036Y96233D02*
D03*
X481627Y128517D02*
D03*
X483398Y96233D02*
D03*
X483989Y128517D02*
D03*
X485760Y96233D02*
D03*
X486351Y128517D02*
D03*
X488123Y96233D02*
D03*
X488713Y128517D02*
D03*
X490485Y96233D02*
D03*
X491075Y128517D02*
D03*
X492847Y96233D02*
D03*
X493438Y128517D02*
D03*
X495209Y96233D02*
D03*
X495800Y128517D02*
D03*
X497572Y96233D02*
D03*
X498162Y128517D02*
D03*
X499934Y96233D02*
D03*
X500524Y128517D02*
D03*
X502296Y96233D02*
D03*
X502886Y128517D02*
D03*
X504658Y96233D02*
D03*
X505249Y128517D02*
D03*
X507020Y96233D02*
D03*
X507611Y128517D02*
D03*
D36*
X511745Y159619D02*
D03*
X255446D02*
D03*
D73*
X44771Y82847D02*
D03*
X52645D02*
D03*
X12040Y104698D02*
D03*
Y96824D02*
D03*
Y78517D02*
D03*
Y70643D02*
D03*
Y55682D02*
D03*
Y47808D02*
D03*
D74*
X277756Y10236D02*
D03*
X265945Y29921D02*
D03*
Y10236D02*
D03*
X277756Y29921D02*
D03*
X288583D02*
D03*
X300394Y10236D02*
D03*
Y29921D02*
D03*
X288583Y10236D02*
D03*
X55052Y18970D02*
D03*
X35367Y30781D02*
D03*
X55052D02*
D03*
X35367Y18970D02*
D03*
D75*
X116457Y38583D02*
D03*
X248700Y64567D02*
D03*
Y75197D02*
D03*
D76*
X106457Y38583D02*
D03*
X96457D02*
D03*
X86457D02*
D03*
X228700Y64567D02*
D03*
X238700D02*
D03*
X228700Y75197D02*
D03*
X238700D02*
D03*
D77*
X522257Y36489D02*
D03*
X470524D02*
D03*
D78*
X510170Y27828D02*
D03*
D79*
X500327D02*
D03*
X492453D02*
D03*
X482611D02*
D03*
D80*
X376705Y7847D02*
D03*
X438516D02*
D03*
X379067Y27139D02*
D03*
X436154D02*
D03*
D81*
X252099Y112375D02*
D03*
D82*
X515091D02*
D03*
M02*
