G04*
G04 #@! TF.GenerationSoftware,Altium Limited,Altium Designer,19.0.14 (431)*
G04*
G04 Layer_Color=2752767*
%FSLAX44Y44*%
%MOMM*%
G71*
G01*
G75*
%ADD94C,0.0508*%
%ADD95C,0.0677*%
D94*
X111685Y208400D02*
Y212464D01*
X115750D01*
Y208400D01*
X111685D01*
X131685D02*
Y212464D01*
X135750D01*
Y208400D01*
X131685D01*
X295800Y95968D02*
X293768Y100032D01*
X297832D01*
X295800Y95968D01*
X270400D02*
X268368Y100032D01*
X272432D01*
X270400Y95968D01*
X245000D02*
X242968Y100032D01*
X247032D01*
X245000Y95968D01*
X219600D02*
X217568Y100032D01*
X221632D01*
X219600Y95968D01*
X1326532Y90650D02*
X1327547Y91666D01*
X1328564D01*
X1327547Y92682D01*
X1328564Y93698D01*
X1327547D01*
X1326532Y94714D01*
X1325515Y93698D01*
X1324500D01*
X1325515Y92682D01*
X1324500Y91666D01*
X1325515D01*
X1326532Y90650D01*
X1195132D02*
X1196148Y91666D01*
X1197163D01*
X1196148Y92682D01*
X1197163Y93698D01*
X1196148D01*
X1195132Y94714D01*
X1194116Y93698D01*
X1193100D01*
X1194116Y92682D01*
X1193100Y91666D01*
X1194116D01*
X1195132Y90650D01*
X1293799Y68650D02*
X1294816Y70682D01*
X1293799Y72714D01*
X1295831Y71698D01*
X1297863Y72714D01*
X1296848Y70682D01*
X1297863Y68650D01*
X1295831Y69666D01*
X1293799Y68650D01*
X1268800D02*
X1269816Y70682D01*
X1268800Y72714D01*
X1270832Y71698D01*
X1272863Y72714D01*
X1271848Y70682D01*
X1272863Y68650D01*
X1270832Y69666D01*
X1268800Y68650D01*
X1248800D02*
X1249816Y70682D01*
X1248800Y72714D01*
X1250832Y71698D01*
X1252863Y72714D01*
X1251848Y70682D01*
X1252863Y68650D01*
X1250832Y69666D01*
X1248800Y68650D01*
X1223800D02*
X1224816Y70682D01*
X1223800Y72714D01*
X1225832Y71698D01*
X1227863Y72714D01*
X1226848Y70682D01*
X1227863Y68650D01*
X1225832Y69666D01*
X1223800Y68650D01*
X28549Y263901D02*
Y267964D01*
X32613D01*
Y263901D01*
X28549D01*
Y243901D02*
Y247964D01*
X32613D01*
Y243901D01*
X28549D01*
Y197400D02*
Y201464D01*
X32613D01*
Y197400D01*
X28549D01*
Y177400D02*
Y181464D01*
X32613D01*
Y177400D01*
X28549D01*
Y139400D02*
Y143464D01*
X32613D01*
Y139400D01*
X28549D01*
Y119400D02*
Y123464D01*
X32613D01*
Y119400D01*
X28549D01*
X955816Y18916D02*
Y17900D01*
X957848D01*
Y18916D01*
X958864D01*
Y20948D01*
X957848D01*
Y21964D01*
X955816D01*
Y20948D01*
X954799D01*
Y18916D01*
X955816D01*
X1112815D02*
Y17900D01*
X1114847D01*
Y18916D01*
X1115863D01*
Y20948D01*
X1114847D01*
Y21964D01*
X1112815D01*
Y20948D01*
X1111799D01*
Y18916D01*
X1112815D01*
X961815Y67916D02*
Y66900D01*
X963848D01*
Y67916D01*
X964864D01*
Y69948D01*
X963848D01*
Y70964D01*
X961815D01*
Y69948D01*
X960799D01*
Y67916D01*
X961815D01*
X1106815D02*
Y66900D01*
X1108848D01*
Y67916D01*
X1109864D01*
Y69948D01*
X1108848D01*
Y70964D01*
X1106815D01*
Y69948D01*
X1105799D01*
Y67916D01*
X1106815D01*
X580899Y161968D02*
X578867Y166032D01*
X582930D01*
X580899Y161968D01*
X631698D02*
X629666Y166032D01*
X633731D01*
X631698Y161968D01*
X606298D02*
X604267Y166032D01*
X608330D01*
X606298Y161968D01*
X580899Y188968D02*
X578867Y193032D01*
X582930D01*
X580899Y188968D01*
X631698D02*
X629666Y193032D01*
X633731D01*
X631698Y188968D01*
X606298D02*
X604267Y193032D01*
X608330D01*
X606298Y188968D01*
X638299Y283400D02*
X639315D01*
X640331Y284416D01*
X641348Y283400D01*
X642364D01*
Y284416D01*
X641348Y285432D01*
X642364Y286448D01*
Y287464D01*
X641348D01*
X640331Y286448D01*
X639315Y287464D01*
X638299D01*
Y286448D01*
X639315Y285432D01*
X638299Y284416D01*
Y283400D01*
X1306299Y285432D02*
X1308331Y287464D01*
X1310363Y285432D01*
X1308331Y283400D01*
X1306299Y285432D01*
X749656Y416338D02*
Y420402D01*
X753720D01*
Y416338D01*
X749656D01*
X750672Y417354D02*
Y419386D01*
X752704D01*
Y417354D01*
X750672D01*
X717338Y449338D02*
Y453402D01*
X721402D01*
Y449338D01*
X717338D01*
X718354Y450354D02*
Y452386D01*
X720386D01*
Y450354D01*
X718354D01*
X724240Y438338D02*
Y442402D01*
X728304D01*
Y438338D01*
X724240D01*
X725256Y439354D02*
Y441386D01*
X727288D01*
Y439354D01*
X725256D01*
X687338Y427338D02*
Y431402D01*
X691402D01*
Y427338D01*
X687338D01*
X688354Y428354D02*
Y430386D01*
X690386D01*
Y428354D01*
X688354D01*
X681575Y405338D02*
Y409402D01*
X685639D01*
Y405338D01*
X681575D01*
X682591Y406354D02*
Y408386D01*
X684623D01*
Y406354D01*
X682591D01*
X700180Y383338D02*
Y387402D01*
X704243D01*
Y383338D01*
X700180D01*
X701196Y384354D02*
Y386386D01*
X703227D01*
Y384354D01*
X701196D01*
X705968Y371968D02*
Y376032D01*
X710032D01*
Y371968D01*
X705968D01*
X706984Y372984D02*
Y375016D01*
X709016D01*
Y372984D01*
X706984D01*
X407186Y317968D02*
Y322032D01*
X411250D01*
Y317968D01*
X407186D01*
X408201Y318984D02*
Y321016D01*
X410233D01*
Y318984D01*
X408201D01*
X407186Y244968D02*
Y249032D01*
X411250D01*
Y244968D01*
X407186D01*
X408201Y245984D02*
Y248016D01*
X410233D01*
Y245984D01*
X408201D01*
X591968Y250968D02*
Y255032D01*
X596032D01*
Y250968D01*
X591968D01*
X592984Y251984D02*
Y254016D01*
X595016D01*
Y251984D01*
X592984D01*
X591968Y317968D02*
Y322032D01*
X596032D01*
Y317968D01*
X591968D01*
X592984Y318984D02*
Y321016D01*
X595016D01*
Y318984D01*
X592984D01*
X1149299Y44750D02*
Y48814D01*
X1153363D01*
Y44750D01*
X1149299D01*
X1150315Y45766D02*
Y47798D01*
X1152347D01*
Y45766D01*
X1150315D01*
X1140968Y51968D02*
Y56032D01*
X1145032D01*
Y51968D01*
X1140968D01*
X1141984Y52984D02*
Y55016D01*
X1144016D01*
Y52984D01*
X1141984D01*
X911968Y51968D02*
Y56032D01*
X916032D01*
Y51968D01*
X911968D01*
X912984Y52984D02*
Y55016D01*
X915016D01*
Y52984D01*
X912984D01*
X917968Y44750D02*
Y48814D01*
X922032D01*
Y44750D01*
X917968D01*
X918984Y45766D02*
Y47798D01*
X921016D01*
Y45766D01*
X918984D01*
X1087800Y227400D02*
Y231464D01*
X1091863D01*
Y227400D01*
X1087800D01*
X1088816Y228416D02*
Y230448D01*
X1090847D01*
Y228416D01*
X1088816D01*
X894718Y60468D02*
Y64532D01*
X898782D01*
Y60468D01*
X894718D01*
X895734Y61484D02*
Y63516D01*
X897766D01*
Y61484D01*
X895734D01*
X827218Y75468D02*
Y79532D01*
X831282D01*
Y75468D01*
X827218D01*
X828234Y76484D02*
Y78516D01*
X830266D01*
Y76484D01*
X828234D01*
X894718Y90468D02*
Y94532D01*
X898782D01*
Y90468D01*
X894718D01*
X895734Y91484D02*
Y93516D01*
X897766D01*
Y91484D01*
X895734D01*
X827218Y105468D02*
Y109532D01*
X831282D01*
Y105468D01*
X827218D01*
X828234Y106484D02*
Y108516D01*
X830266D01*
Y106484D01*
X828234D01*
X894718Y120468D02*
Y124532D01*
X898782D01*
Y120468D01*
X894718D01*
X895734Y121484D02*
Y123516D01*
X897766D01*
Y121484D01*
X895734D01*
X894718Y150468D02*
Y154532D01*
X898782D01*
Y150468D01*
X894718D01*
X895734Y151484D02*
Y153516D01*
X897766D01*
Y151484D01*
X895734D01*
X827218Y135468D02*
Y139532D01*
X831282D01*
Y135468D01*
X827218D01*
X828234Y136484D02*
Y138516D01*
X830266D01*
Y136484D01*
X828234D01*
X1297800Y403400D02*
Y407464D01*
X1301864D01*
Y403400D01*
X1297800D01*
X1298815Y404416D02*
Y406448D01*
X1300847D01*
Y404416D01*
X1298815D01*
X646799Y403400D02*
Y407464D01*
X650863D01*
Y403400D01*
X646799D01*
X647815Y404416D02*
Y406448D01*
X649847D01*
Y404416D01*
X647815D01*
X604267Y309681D02*
Y313745D01*
X608330D01*
Y309681D01*
X604267D01*
X605283Y310697D02*
Y312729D01*
X607314D01*
Y310697D01*
X605283D01*
X987653Y59068D02*
Y63133D01*
X991717D01*
Y59068D01*
X987653D01*
X988669Y60085D02*
Y62116D01*
X990701D01*
Y60085D01*
X988669D01*
X1271484Y283400D02*
Y287464D01*
X1275548D01*
Y283400D01*
X1271484D01*
X1272500Y284416D02*
Y286448D01*
X1274532D01*
Y284416D01*
X1272500D01*
X1217968Y294274D02*
Y298338D01*
X1222032D01*
Y294274D01*
X1217968D01*
X1218984Y295290D02*
Y297322D01*
X1221016D01*
Y295290D01*
X1218984D01*
X971049Y304765D02*
Y308829D01*
X975114D01*
Y304765D01*
X971049D01*
X972066Y305781D02*
Y307813D01*
X974098D01*
Y305781D01*
X972066D01*
X971049Y215129D02*
Y219193D01*
X975114D01*
Y215129D01*
X971049D01*
X972066Y216145D02*
Y218177D01*
X974098D01*
Y216145D01*
X972066D01*
X772968Y209224D02*
Y213288D01*
X777032D01*
Y209224D01*
X772968D01*
X773984Y210240D02*
Y212272D01*
X776016D01*
Y210240D01*
X773984D01*
X806468Y209224D02*
Y213288D01*
X810532D01*
Y209224D01*
X806468D01*
X807484Y210240D02*
Y212272D01*
X809516D01*
Y210240D01*
X807484D01*
X955646Y167400D02*
Y171464D01*
X959710D01*
Y167400D01*
X955646D01*
X956662Y168416D02*
Y170448D01*
X958694D01*
Y168416D01*
X956662D01*
X953049Y284718D02*
Y288782D01*
X957113D01*
Y284718D01*
X953049D01*
X954065Y285734D02*
Y287766D01*
X956097D01*
Y285734D01*
X954065D01*
X625137Y125650D02*
Y129714D01*
X629201D01*
Y125650D01*
X625137D01*
X626153Y126666D02*
Y128698D01*
X628185D01*
Y126666D01*
X626153D01*
X625137Y87968D02*
Y92032D01*
X629201D01*
Y87968D01*
X625137D01*
X626153Y88984D02*
Y91016D01*
X628185D01*
Y88984D01*
X626153D01*
X563968Y86968D02*
Y91032D01*
X568032D01*
Y86968D01*
X563968D01*
X564984Y87984D02*
Y90016D01*
X567016D01*
Y87984D01*
X564984D01*
X509168Y280018D02*
Y284082D01*
X513232D01*
Y280018D01*
X509168D01*
X510184Y281034D02*
Y283066D01*
X512216D01*
Y281034D01*
X510184D01*
X384068Y87868D02*
Y91932D01*
X388132D01*
Y87868D01*
X384068D01*
X385084Y88884D02*
Y90916D01*
X387116D01*
Y88884D01*
X385084D01*
X760968Y129968D02*
Y134032D01*
X765032D01*
Y129968D01*
X760968D01*
X761984Y130984D02*
Y133016D01*
X764016D01*
Y130984D01*
X761984D01*
X1341550Y358968D02*
Y363032D01*
X1345614D01*
Y358968D01*
X1341550D01*
X1342566Y359984D02*
Y362016D01*
X1344598D01*
Y359984D01*
X1342566D01*
X1307968Y214400D02*
Y218464D01*
X1312032D01*
Y214400D01*
X1307968D01*
X1308984Y215416D02*
Y217448D01*
X1311016D01*
Y215416D01*
X1308984D01*
X1236968Y214401D02*
Y218465D01*
X1241032D01*
Y214401D01*
X1236968D01*
X1237984Y215417D02*
Y217449D01*
X1240016D01*
Y215417D01*
X1237984D01*
X1275300Y339400D02*
Y343464D01*
X1279363D01*
Y339400D01*
X1275300D01*
X1276316Y340416D02*
Y342448D01*
X1278347D01*
Y340416D01*
X1276316D01*
X1251300Y339400D02*
Y343464D01*
X1255363D01*
Y339400D01*
X1251300D01*
X1252316Y340416D02*
Y342448D01*
X1254348D01*
Y340416D01*
X1252316D01*
X1233299Y339400D02*
Y343464D01*
X1237364D01*
Y339400D01*
X1233299D01*
X1234315Y340416D02*
Y342448D01*
X1236348D01*
Y340416D01*
X1234315D01*
X1197299Y309400D02*
Y313464D01*
X1201364D01*
Y309400D01*
X1197299D01*
X1198316Y310416D02*
Y312448D01*
X1200348D01*
Y310416D01*
X1198316D01*
X1191300Y339400D02*
Y343464D01*
X1195363D01*
Y339400D01*
X1191300D01*
X1192316Y340416D02*
Y342448D01*
X1194348D01*
Y340416D01*
X1192316D01*
X1179299Y339400D02*
Y343464D01*
X1183363D01*
Y339400D01*
X1179299D01*
X1180315Y340416D02*
Y342448D01*
X1182347D01*
Y340416D01*
X1180315D01*
X1143299Y339400D02*
Y343464D01*
X1147364D01*
Y339400D01*
X1143299D01*
X1144315Y340416D02*
Y342448D01*
X1146348D01*
Y340416D01*
X1144315D01*
X1125300Y339400D02*
Y343464D01*
X1129363D01*
Y339400D01*
X1125300D01*
X1126316Y340416D02*
Y342448D01*
X1128347D01*
Y340416D01*
X1126316D01*
X1107299Y339400D02*
Y343464D01*
X1111364D01*
Y339400D01*
X1107299D01*
X1108316Y340416D02*
Y342448D01*
X1110348D01*
Y340416D01*
X1108316D01*
X1089299Y339400D02*
Y343464D01*
X1093363D01*
Y339400D01*
X1089299D01*
X1090315Y340416D02*
Y342448D01*
X1092347D01*
Y340416D01*
X1090315D01*
X1053299Y339400D02*
Y343464D01*
X1057364D01*
Y339400D01*
X1053299D01*
X1054315Y340416D02*
Y342448D01*
X1056348D01*
Y340416D01*
X1054315D01*
X1035300Y339400D02*
Y343464D01*
X1039363D01*
Y339400D01*
X1035300D01*
X1036316Y340416D02*
Y342448D01*
X1038347D01*
Y340416D01*
X1036316D01*
X1017299Y339400D02*
Y343464D01*
X1021364D01*
Y339400D01*
X1017299D01*
X1018316Y340416D02*
Y342448D01*
X1020348D01*
Y340416D01*
X1018316D01*
X999299Y339400D02*
Y343464D01*
X1003363D01*
Y339400D01*
X999299D01*
X1000315Y340416D02*
Y342448D01*
X1002347D01*
Y340416D01*
X1000315D01*
X981300Y339400D02*
Y343464D01*
X985363D01*
Y339400D01*
X981300D01*
X982316Y340416D02*
Y342448D01*
X984348D01*
Y340416D01*
X982316D01*
X963299Y339400D02*
Y343464D01*
X967364D01*
Y339400D01*
X963299D01*
X964315Y340416D02*
Y342448D01*
X966348D01*
Y340416D01*
X964315D01*
X945300Y339400D02*
Y343464D01*
X949363D01*
Y339400D01*
X945300D01*
X946316Y340416D02*
Y342448D01*
X948347D01*
Y340416D01*
X946316D01*
X927299Y339400D02*
Y343464D01*
X931364D01*
Y339400D01*
X927299D01*
X928316Y340416D02*
Y342448D01*
X930348D01*
Y340416D01*
X928316D01*
X909299Y339400D02*
Y343464D01*
X913363D01*
Y339400D01*
X909299D01*
X910315Y340416D02*
Y342448D01*
X912347D01*
Y340416D01*
X910315D01*
X891300Y339400D02*
Y343464D01*
X895363D01*
Y339400D01*
X891300D01*
X892316Y340416D02*
Y342448D01*
X894348D01*
Y340416D01*
X892316D01*
X873299Y339400D02*
Y343464D01*
X877364D01*
Y339400D01*
X873299D01*
X874315Y340416D02*
Y342448D01*
X876348D01*
Y340416D01*
X874315D01*
X855300Y339400D02*
Y343464D01*
X859363D01*
Y339400D01*
X855300D01*
X856316Y340416D02*
Y342448D01*
X858347D01*
Y340416D01*
X856316D01*
X837299Y339400D02*
Y343464D01*
X841364D01*
Y339400D01*
X837299D01*
X838316Y340416D02*
Y342448D01*
X840348D01*
Y340416D01*
X838316D01*
X819299Y339400D02*
Y343464D01*
X823363D01*
Y339400D01*
X819299D01*
X820315Y340416D02*
Y342448D01*
X822347D01*
Y340416D01*
X820315D01*
X765300Y339400D02*
Y343464D01*
X769363D01*
Y339400D01*
X765300D01*
X766316Y340416D02*
Y342448D01*
X768347D01*
Y340416D01*
X766316D01*
X747299Y339400D02*
Y343464D01*
X751364D01*
Y339400D01*
X747299D01*
X748316Y340416D02*
Y342448D01*
X750348D01*
Y340416D01*
X748316D01*
X729299Y339400D02*
Y343464D01*
X733363D01*
Y339400D01*
X729299D01*
X730315Y340416D02*
Y342448D01*
X732347D01*
Y340416D01*
X730315D01*
X711300Y339400D02*
Y343464D01*
X715363D01*
Y339400D01*
X711300D01*
X712316Y340416D02*
Y342448D01*
X714348D01*
Y340416D01*
X712316D01*
X693299Y339400D02*
Y343464D01*
X697364D01*
Y339400D01*
X693299D01*
X694315Y340416D02*
Y342448D01*
X696348D01*
Y340416D01*
X694315D01*
X675300Y339400D02*
Y343464D01*
X679363D01*
Y339400D01*
X675300D01*
X676316Y340416D02*
Y342448D01*
X678347D01*
Y340416D01*
X676316D01*
X655799Y227400D02*
Y231464D01*
X659864D01*
Y227400D01*
X655799D01*
X656815Y228416D02*
Y230448D01*
X658848D01*
Y228416D01*
X656815D01*
X673800Y227400D02*
Y231464D01*
X677863D01*
Y227400D01*
X673800D01*
X674816Y228416D02*
Y230448D01*
X676848D01*
Y228416D01*
X674816D01*
X691799Y227400D02*
Y231464D01*
X695863D01*
Y227400D01*
X691799D01*
X692815Y228416D02*
Y230448D01*
X694847D01*
Y228416D01*
X692815D01*
X709799Y227400D02*
Y231464D01*
X713864D01*
Y227400D01*
X709799D01*
X710816Y228416D02*
Y230448D01*
X712848D01*
Y228416D01*
X710816D01*
X727800Y227400D02*
Y231464D01*
X731863D01*
Y227400D01*
X727800D01*
X728816Y228416D02*
Y230448D01*
X730847D01*
Y228416D01*
X728816D01*
X745799Y227400D02*
Y231464D01*
X749864D01*
Y227400D01*
X745799D01*
X746815Y228416D02*
Y230448D01*
X748848D01*
Y228416D01*
X746815D01*
X763800Y227400D02*
Y231464D01*
X767863D01*
Y227400D01*
X763800D01*
X764816Y228416D02*
Y230448D01*
X766848D01*
Y228416D01*
X764816D01*
X817800Y227400D02*
Y231464D01*
X821863D01*
Y227400D01*
X817800D01*
X818816Y228416D02*
Y230448D01*
X820847D01*
Y228416D01*
X818816D01*
X835799Y227400D02*
Y231464D01*
X839864D01*
Y227400D01*
X835799D01*
X836815Y228416D02*
Y230448D01*
X838848D01*
Y228416D01*
X836815D01*
X853800Y227400D02*
Y231464D01*
X857863D01*
Y227400D01*
X853800D01*
X854816Y228416D02*
Y230448D01*
X856848D01*
Y228416D01*
X854816D01*
X871799Y227400D02*
Y231464D01*
X875863D01*
Y227400D01*
X871799D01*
X872815Y228416D02*
Y230448D01*
X874847D01*
Y228416D01*
X872815D01*
X889799Y227400D02*
Y231464D01*
X893864D01*
Y227400D01*
X889799D01*
X890816Y228416D02*
Y230448D01*
X892848D01*
Y228416D01*
X890816D01*
X907800Y227400D02*
Y231464D01*
X911863D01*
Y227400D01*
X907800D01*
X908816Y228416D02*
Y230448D01*
X910847D01*
Y228416D01*
X908816D01*
X925799Y227400D02*
Y231464D01*
X929864D01*
Y227400D01*
X925799D01*
X926815Y228416D02*
Y230448D01*
X928848D01*
Y228416D01*
X926815D01*
X943800Y227400D02*
Y231464D01*
X947863D01*
Y227400D01*
X943800D01*
X944816Y228416D02*
Y230448D01*
X946848D01*
Y228416D01*
X944816D01*
X961799Y227400D02*
Y231464D01*
X965863D01*
Y227400D01*
X961799D01*
X962815Y228416D02*
Y230448D01*
X964847D01*
Y228416D01*
X962815D01*
X979799Y227400D02*
Y231464D01*
X983864D01*
Y227400D01*
X979799D01*
X980816Y228416D02*
Y230448D01*
X982848D01*
Y228416D01*
X980816D01*
X997800Y227400D02*
Y231464D01*
X1001863D01*
Y227400D01*
X997800D01*
X998816Y228416D02*
Y230448D01*
X1000847D01*
Y228416D01*
X998816D01*
X1273800Y257400D02*
Y261464D01*
X1277863D01*
Y257400D01*
X1273800D01*
X1274816Y258416D02*
Y260448D01*
X1276848D01*
Y258416D01*
X1274816D01*
X1249799Y257400D02*
Y261464D01*
X1253864D01*
Y257400D01*
X1249799D01*
X1250816Y258416D02*
Y260448D01*
X1252848D01*
Y258416D01*
X1250816D01*
X1231799Y257400D02*
Y261464D01*
X1235863D01*
Y257400D01*
X1231799D01*
X1232815Y258416D02*
Y260448D01*
X1234847D01*
Y258416D01*
X1232815D01*
X1195799Y257400D02*
Y261464D01*
X1199864D01*
Y257400D01*
X1195799D01*
X1196815Y258416D02*
Y260448D01*
X1198848D01*
Y258416D01*
X1196815D01*
X1177800Y227400D02*
Y231464D01*
X1181863D01*
Y227400D01*
X1177800D01*
X1178816Y228416D02*
Y230448D01*
X1180847D01*
Y228416D01*
X1178816D01*
X1159799Y227400D02*
Y231464D01*
X1163864D01*
Y227400D01*
X1159799D01*
X1160816Y228416D02*
Y230448D01*
X1162848D01*
Y228416D01*
X1160816D01*
X1141799Y227400D02*
Y231464D01*
X1145863D01*
Y227400D01*
X1141799D01*
X1142815Y228416D02*
Y230448D01*
X1144847D01*
Y228416D01*
X1142815D01*
X1123800Y227400D02*
Y231464D01*
X1127863D01*
Y227400D01*
X1123800D01*
X1124816Y228416D02*
Y230448D01*
X1126848D01*
Y228416D01*
X1124816D01*
X1105799Y227400D02*
Y231464D01*
X1109864D01*
Y227400D01*
X1105799D01*
X1106815Y228416D02*
Y230448D01*
X1108848D01*
Y228416D01*
X1106815D01*
X700968Y98300D02*
Y102364D01*
X705032D01*
Y98300D01*
X700968D01*
X701984Y99316D02*
Y101348D01*
X704016D01*
Y99316D01*
X701984D01*
X582968Y126268D02*
Y130332D01*
X587032D01*
Y126268D01*
X582968D01*
X583984Y127284D02*
Y129316D01*
X586016D01*
Y127284D01*
X583984D01*
X519968Y87868D02*
Y91932D01*
X524032D01*
Y87868D01*
X519968D01*
X520984Y88884D02*
Y90916D01*
X523016D01*
Y88884D01*
X520984D01*
X443968Y182968D02*
Y187032D01*
X448032D01*
Y182968D01*
X443968D01*
X444984Y183984D02*
Y186016D01*
X447016D01*
Y183984D01*
X444984D01*
X479968Y182968D02*
Y187032D01*
X484032D01*
Y182968D01*
X479968D01*
X480984Y183984D02*
Y186016D01*
X483016D01*
Y183984D01*
X480984D01*
X480968Y143400D02*
Y147464D01*
X485032D01*
Y143400D01*
X480968D01*
X481984Y144416D02*
Y146448D01*
X484016D01*
Y144416D01*
X481984D01*
X443968Y143400D02*
Y147464D01*
X448032D01*
Y143400D01*
X443968D01*
X444984Y144416D02*
Y146448D01*
X447016D01*
Y144416D01*
X444984D01*
X462018Y162868D02*
Y166932D01*
X466082D01*
Y162868D01*
X462018D01*
X463034Y163884D02*
Y165916D01*
X465066D01*
Y163884D01*
X463034D01*
X398884Y443968D02*
Y448032D01*
X402948D01*
Y443968D01*
X398884D01*
X399900Y444984D02*
Y447016D01*
X401932D01*
Y444984D01*
X399900D01*
X104786Y433968D02*
Y438032D01*
X108850D01*
Y433968D01*
X104786D01*
X105802Y434984D02*
Y437016D01*
X107834D01*
Y434984D01*
X105802D01*
X100968Y312968D02*
Y317032D01*
X105032D01*
Y312968D01*
X100968D01*
X101984Y313984D02*
Y316016D01*
X104016D01*
Y313984D01*
X101984D01*
X1051799Y227400D02*
Y231464D01*
X1055863D01*
Y227400D01*
X1051799D01*
X1052815Y228416D02*
Y230448D01*
X1054847D01*
Y228416D01*
X1052815D01*
X1034050Y227400D02*
Y231464D01*
X1038113D01*
Y227400D01*
X1034050D01*
X1035066Y228416D02*
Y230448D01*
X1037097D01*
Y228416D01*
X1035066D01*
X1015799Y227400D02*
Y231464D01*
X1019864D01*
Y227400D01*
X1015799D01*
X1016815Y228416D02*
Y230448D01*
X1018848D01*
Y228416D01*
X1016815D01*
X994299Y208400D02*
Y212464D01*
X998363D01*
Y208400D01*
X994299D01*
X995315Y209416D02*
Y211448D01*
X997347D01*
Y209416D01*
X995315D01*
X1009799Y197650D02*
Y201714D01*
X1013864D01*
Y197650D01*
X1009799D01*
X1010816Y198666D02*
Y200698D01*
X1012848D01*
Y198666D01*
X1010816D01*
X1015799Y217984D02*
Y222048D01*
X1019864D01*
Y217984D01*
X1015799D01*
X1016815Y219000D02*
Y221032D01*
X1018848D01*
Y219000D01*
X1016815D01*
X1258299Y86400D02*
Y90464D01*
X1262364D01*
Y86400D01*
X1258299D01*
X1259315Y87416D02*
Y89448D01*
X1261348D01*
Y87416D01*
X1259315D01*
X1197299Y197651D02*
Y201714D01*
X1201364D01*
Y197651D01*
X1197299D01*
X1198316Y198666D02*
Y200699D01*
X1200348D01*
Y198666D01*
X1198316D01*
X1197299Y217984D02*
Y222048D01*
X1201364D01*
Y217984D01*
X1197299D01*
X1198316Y219000D02*
Y221032D01*
X1200348D01*
Y219000D01*
X1198316D01*
X1069799Y227400D02*
Y231464D01*
X1073864D01*
Y227400D01*
X1069799D01*
X1070816Y228416D02*
Y230448D01*
X1072848D01*
Y228416D01*
X1070816D01*
X1197299Y207817D02*
Y211881D01*
X1201364D01*
Y207817D01*
X1197299D01*
X1198316Y208833D02*
Y210865D01*
X1200348D01*
Y208833D01*
X1198316D01*
X652887Y98536D02*
Y102600D01*
X656951D01*
Y98536D01*
X652887D01*
X653903Y99552D02*
Y101584D01*
X655935D01*
Y99552D01*
X653903D01*
X1198549Y134900D02*
Y138964D01*
X1202614D01*
Y134900D01*
X1198549D01*
X1199566Y135916D02*
Y137948D01*
X1201598D01*
Y135916D01*
X1199566D01*
X1003800Y158400D02*
Y162464D01*
X1007863D01*
Y158400D01*
X1003800D01*
X1004816Y159416D02*
Y161448D01*
X1006848D01*
Y159416D01*
X1004816D01*
X1070799Y159150D02*
Y163214D01*
X1074864D01*
Y159150D01*
X1070799D01*
X1071815Y160166D02*
Y162198D01*
X1073848D01*
Y160166D01*
X1071815D01*
X950799Y193900D02*
Y197964D01*
X954864D01*
Y193900D01*
X950799D01*
X951815Y194916D02*
Y196948D01*
X953848D01*
Y194916D01*
X951815D01*
X228853Y427550D02*
Y431614D01*
X232917D01*
Y427550D01*
X228853D01*
X229869Y428565D02*
Y430597D01*
X231901D01*
Y428565D01*
X229869D01*
X115853Y378299D02*
Y382364D01*
X119917D01*
Y378299D01*
X115853D01*
X116869Y379315D02*
Y381348D01*
X118901D01*
Y379315D01*
X116869D01*
X99103Y383549D02*
Y387613D01*
X103167D01*
Y383549D01*
X99103D01*
X100119Y384566D02*
Y386598D01*
X102151D01*
Y384566D01*
X100119D01*
X230035Y307549D02*
Y311614D01*
X234100D01*
Y307549D01*
X230035D01*
X231052Y308566D02*
Y310597D01*
X233083D01*
Y308566D01*
X231052D01*
X528786Y437299D02*
Y441363D01*
X532850D01*
Y437299D01*
X528786D01*
X529801Y438316D02*
Y440348D01*
X531833D01*
Y438316D01*
X529801D01*
X392785Y393549D02*
Y397613D01*
X396850D01*
Y393549D01*
X392785D01*
X393801Y394566D02*
Y396598D01*
X395834D01*
Y394566D01*
X393801D01*
X409286Y387550D02*
Y391614D01*
X413349D01*
Y387550D01*
X409286D01*
X410302Y388565D02*
Y390597D01*
X412333D01*
Y388565D01*
X410302D01*
X111785Y256049D02*
Y260114D01*
X115850D01*
Y256049D01*
X111785D01*
X112802Y257066D02*
Y259097D01*
X114833D01*
Y257066D01*
X112802D01*
X97535Y260299D02*
Y264363D01*
X101600D01*
Y260299D01*
X97535D01*
X98552Y261315D02*
Y263347D01*
X100583D01*
Y261315D01*
X98552D01*
X175550Y143400D02*
Y147464D01*
X179613D01*
Y143400D01*
X175550D01*
X176565Y144416D02*
Y146448D01*
X178598D01*
Y144416D01*
X176565D01*
X105611Y106400D02*
Y110464D01*
X109676D01*
Y106400D01*
X105611D01*
X106628Y107416D02*
Y109448D01*
X108659D01*
Y107416D01*
X106628D01*
X1000799Y58900D02*
Y62964D01*
X1004864D01*
Y58900D01*
X1000799D01*
X1001815Y59916D02*
Y61948D01*
X1003848D01*
Y59916D01*
X1001815D01*
X1030799Y58900D02*
Y62964D01*
X1034864D01*
Y58900D01*
X1030799D01*
X1031815Y59916D02*
Y61948D01*
X1033848D01*
Y59916D01*
X1031815D01*
X1045799Y58900D02*
Y62964D01*
X1049864D01*
Y58900D01*
X1045799D01*
X1046815Y59916D02*
Y61948D01*
X1048848D01*
Y59916D01*
X1046815D01*
X1060799Y58900D02*
Y62964D01*
X1064864D01*
Y58900D01*
X1060799D01*
X1061815Y59916D02*
Y61948D01*
X1063848D01*
Y59916D01*
X1061815D01*
X1075799Y58900D02*
Y62964D01*
X1079864D01*
Y58900D01*
X1075799D01*
X1076815Y59916D02*
Y61948D01*
X1078848D01*
Y59916D01*
X1076815D01*
X1004799Y97400D02*
Y101464D01*
X1008864D01*
Y97400D01*
X1004799D01*
X1005816Y98416D02*
Y100448D01*
X1007848D01*
Y98416D01*
X1005816D01*
X278137Y203418D02*
Y207482D01*
X282201D01*
Y203418D01*
X278137D01*
X279153Y204434D02*
Y206466D01*
X281185D01*
Y204434D01*
X279153D01*
X278137Y187988D02*
Y192052D01*
X282201D01*
Y187988D01*
X278137D01*
X279153Y189004D02*
Y191036D01*
X281185D01*
Y189004D01*
X279153D01*
D95*
X707532Y26000D02*
G03*
X707532Y26000I-2032J0D01*
G01*
X677532Y76000D02*
G03*
X677532Y76000I-2032J0D01*
G01*
Y26000D02*
G03*
X677532Y26000I-2032J0D01*
G01*
X707532Y76000D02*
G03*
X707532Y76000I-2032J0D01*
G01*
X735032D02*
G03*
X735032Y76000I-2032J0D01*
G01*
X765032Y26000D02*
G03*
X765032Y26000I-2032J0D01*
G01*
Y76000D02*
G03*
X765032Y76000I-2032J0D01*
G01*
X735032Y26000D02*
G03*
X735032Y26000I-2032J0D01*
G01*
X141863Y48183D02*
G03*
X141863Y48183I-2032J0D01*
G01*
X91863Y78182D02*
G03*
X91863Y78182I-2032J0D01*
G01*
X141863D02*
G03*
X141863Y78182I-2032J0D01*
G01*
X91863Y48183D02*
G03*
X91863Y48183I-2032J0D01*
G01*
M02*
